<?xml version="1.0" encoding="UTF-8"?><svg id="Layer_2" xmlns="http://www.w3.org/2000/svg" viewBox="0 0 1980.15 817.35"><defs><style>.cls-1{fill:none;stroke:#000;stroke-miterlimit:10;stroke-width:30px;}</style></defs><g id="Layer_1-2"><line class="cls-1" x1="1246.93" y1="278.66" x2="1967.68" y2="60"/><line class="cls-1" x1="1272.82" y1="343.19" x2="1975.27" y2="101.3"/><line class="cls-1" x1="6.03" y1="745.7" x2="650.42" y2="462.94"/><line class="cls-1" x1="15.23" y1="788.14" x2="683.54" y2="513.31"/><line class="cls-1" x1="341.6" y1="791.76" x2="620.24" y2="520.28"/><line class="cls-1" x1="372.67" y1="777.47" x2="744.96" y2="549.57"/><line class="cls-1" x1="552.87" y1="795.48" x2="721.47" y2="544"/><line class="cls-1" x1="600.55" y1="779.87" x2="781.06" y2="570.29"/><line class="cls-1" x1="760.41" y1="763.59" x2="804.54" y2="575.86"/><line class="cls-1" x1="796.48" y1="745.92" x2="855.14" y2="568.52"/><line class="cls-1" x1="951.54" y1="718.8" x2="878.24" y2="549.05"/><line class="cls-1" x1="913.07" y1="532.31" x2="988.46" y2="743.98"/><line class="cls-1" x1="952.06" y1="545.85" x2="1142.12" y2="808.56"/><line class="cls-1" x1="1008.81" y1="503.27" x2="1145.96" y2="798.91"/><line class="cls-1" x1="1050.43" y1="504.36" x2="1230.14" y2="737.47"/><line class="cls-1" x1="1104.38" y1="480.88" x2="1193.21" y2="689.56"/><line class="cls-1" x1="1252.08" y1="375.48" x2="1646.57" y2="383.08"/><line class="cls-1" x1="1176.77" y1="431.69" x2="1621.32" y2="382.59"/><line class="cls-1" x1="1097.66" y1="474.86" x2="1434.07" y2="632.45"/><line class="cls-1" x1="1383.92" y1="604.01" x2="1156.24" y2="427.88"/><line class="cls-1" x1="1158" y1="260.74" x2="1522.15" y2="19.16"/><line class="cls-1" x1="1234.98" y1="274.73" x2="1468.93" y2="65.72"/><line class="cls-1" x1="1047.16" y1="253.5" x2="1326.32" y2="11.33"/><line class="cls-1" x1="1158" y1="260.74" x2="1310.77" y2="60.69"/><line class="cls-1" x1="391.69" y1="407.22" x2="650.38" y2="455.05"/><line class="cls-1" x1="334.02" y1="421.91" x2="682.08" y2="398.37"/><line class="cls-1" x1="390.1" y1="314.47" x2="729.95" y2="383.83"/><line class="cls-1" x1="421.45" y1="278.82" x2="756.06" y2="342.51"/><line class="cls-1" x1="587.11" y1="179.46" x2="754.13" y2="332.01"/><line class="cls-1" x1="637.9" y1="196.1" x2="822.51" y2="299.21"/><line class="cls-1" x1="752.2" y1="115.23" x2="851.67" y2="289.82"/><line class="cls-1" x1="786.97" y1="121.06" x2="901" y2="283.24"/><line class="cls-1" x1="897.31" y1="247.89" x2="904.7" y2="66.48"/><line class="cls-1" x1="965.96" y1="270.02" x2="913.27" y2="113.11"/><line class="cls-1" x1="1024.15" y1="258.18" x2="1102.46" y2="42.5"/><line class="cls-1" x1="974.46" y1="214.33" x2="1056.69" y2="83.93"/></g></svg>