<?xml version="1.0" encoding="UTF-8"?><svg id="Layer_2" xmlns="http://www.w3.org/2000/svg" viewBox="0 0 653.24 343.53"><defs><style>.cls-1{fill:none;stroke:#666;stroke-miterlimit:10;stroke-width:30px;}</style></defs><g id="Layer_1-2"><line class="cls-1" x1="19.57" y1="121.18" x2="177.84" y2="117.85"/><line class="cls-1" x1="316.12" y1="149.3" x2="183.55" y2="121.18"/><line class="cls-1" x1="157.84" y1="179.57" x2="249.84" y2="178.42"/><line class="cls-1" x1="278.41" y1="177.85" x2="652.69" y2="164.14"/><line class="cls-1" x1="218.41" y1="204.93" x2="3.55" y2="257.28"/><line class="cls-1" x1="71.55" y1="177.28" x2="149.84" y2="175.57"/><line class="cls-1" x1="19.57" y1="74.99" x2="134.98" y2="56.71"/><line class="cls-1" x1="148.12" y1="65.85" x2="237.27" y2="96.71"/><line class="cls-1" x1="268.69" y1="86.99" x2="497.84" y2="86.99"/><line class="cls-1" x1="506.41" y1="106.99" x2="562.24" y2="139.99"/><line class="cls-1" x1="337.27" y1="17.85" x2="362.41" y2="23.57"/><line class="cls-1" x1="374.98" y1="28.32" x2="337.27" y2="53.46"/><line class="cls-1" x1="323.55" y1="59.57" x2="394.41" y2="72.71"/><line class="cls-1" x1="380.12" y1="20.71" x2="469.27" y2="35.16"/><line class="cls-1" x1="444.69" y1="61.28" x2="493.27" y2="27.93"/><line class="cls-1" x1="528.69" y1="35.16" x2="495.55" y2="31.57"/><line class="cls-1" x1="508.12" y1="61.85" x2="548.69" y2="38.42"/><line class="cls-1" x1="608.69" y1="40.89" x2="556.12" y2="37.85"/><line class="cls-1" x1="548.12" y1="65.85" x2="622.41" y2="86.99"/><line class="cls-1" x1="196.69" y1="28.32" x2="209.84" y2="35.16"/><line class="cls-1" x1="206.41" y1="53.46" x2="217.84" y2="28.32"/><line class="cls-1" x1="253.27" y1="72.14" x2="203.27" y2="53.46"/><line class="cls-1" x1="148.69" y1="44.61" x2="192.69" y2="33.36"/><line class="cls-1" x1="237.27" y1="28.32" x2="272.12" y2="35.16"/><line class="cls-1" x1="284.69" y1="31.74" x2="345.27" y2="14.42"/><line class="cls-1" x1="621.84" y1="35.16" x2="642.94" y2="44.61"/><line class="cls-1" x1="301.84" y1="107.57" x2="440.12" y2="135.24"/><line class="cls-1" x1="16.12" y1="298.34" x2="292.12" y2="285.28"/><line class="cls-1" x1="297.84" y1="298.34" x2="429.84" y2="310.42"/><line class="cls-1" x1="445.84" y1="322.99" x2="567.55" y2="327.57"/><line class="cls-1" x1="582.41" y1="329.28" x2="645.07" y2="308.71"/></g></svg>