<?xml version="1.0" encoding="UTF-8"?><svg id="Layer_2" xmlns="http://www.w3.org/2000/svg" viewBox="0 0 989.51 469.96"><defs><style>.cls-1{fill:none;stroke:#b3b3b3;stroke-miterlimit:10;stroke-width:30px;}</style></defs><g id="Layer_1-2"><line class="cls-1" x1="40.23" y1="154.01" x2="85.42" y2="170.77"/><line class="cls-1" x1="59.52" y1="192.1" x2="120.47" y2="165.44"/><line class="cls-1" x1="169.23" y1="178.77" x2="126.97" y2="168.49"/><line class="cls-1" x1="141.8" y1="194.39" x2="219.52" y2="142.58"/><line class="cls-1" x1="285.04" y1="125.82" x2="211.9" y2="137.25"/><line class="cls-1" x1="275.9" y1="149.44" x2="306.38" y2="93.82"/><line class="cls-1" x1="300.28" y1="41.25" x2="295.71" y2="93.06"/><line class="cls-1" x1="352.09" y1="32.1" x2="299.28" y2="52.59"/><line class="cls-1" x1="383.33" y1="61.06" x2="351.33" y2="27.53"/><line class="cls-1" x1="351.33" y1="80.1" x2="383.33" y2="61.06"/><line class="cls-1" x1="378.76" y1="80.87" x2="380.28" y2="121.63"/><line class="cls-1" x1="416.85" y1="203.53" x2="380.04" y2="115.25"/><line class="cls-1" x1="414.57" y1="247.46" x2="416.85" y2="203.53"/><line class="cls-1" x1="376.47" y1="273.63" x2="415.18" y2="235.64"/><line class="cls-1" x1="403.14" y1="320.1" x2="376.47" y2="273.63"/><line class="cls-1" x1="137.99" y1="336.1" x2="208.09" y2="309.44"/><line class="cls-1" x1="281.23" y1="306.39" x2="207.33" y2="305.63"/><line class="cls-1" x1="336.85" y1="350.58" x2="275.14" y2="306.33"/><line class="cls-1" x1="73.99" y1="346.01" x2="130.38" y2="302.58"/><line class="cls-1" x1="148.1" y1="266.01" x2="40.23" y2="270.58"/><line class="cls-1" x1="186.76" y1="254.64" x2="148.1" y2="254.64"/><line class="cls-1" x1="205.8" y1="232.49" x2="256.85" y2="204.3"/><line class="cls-1" x1="395.83" y1="50.39" x2="436.66" y2="26.01"/><line class="cls-1" x1="379.52" y1="19.15" x2="398.45" y2="14.58"/><line class="cls-1" x1="445.04" y1="42.35" x2="453.42" y2="59.53"/><line class="cls-1" x1="460.28" y1="139.53" x2="457.99" y2="67.15"/><line class="cls-1" x1="445.8" y1="218.39" x2="459.14" y2="145.63"/><line class="cls-1" x1="469.42" y1="292.68" x2="449.23" y2="212.68"/><line class="cls-1" x1="487.71" y1="339.91" x2="465.61" y2="293.44"/><line class="cls-1" x1="354.38" y1="351.34" x2="489.23" y2="357.44"/><line class="cls-1" x1="555.52" y1="394.01" x2="476.66" y2="356.87"/><line class="cls-1" x1="551.71" y1="422.2" x2="559.33" y2="387.15"/><line class="cls-1" x1="569.23" y1="452.68" x2="539.52" y2="421.44"/><line class="cls-1" x1="442.35" y1="443.96" x2="539.16" y2="442.73"/><line class="cls-1" x1=".35" y1="454.96" x2="430.57" y2="445.06"/><line class="cls-1" x1="629.85" y1="354.39" x2="630.61" y2="387.91"/><line class="cls-1" x1="667.94" y1="437.06" x2="630.47" y2="381.87"/><line class="cls-1" x1="637.47" y1="346.77" x2="800.51" y2="334.58"/><line class="cls-1" x1="924.7" y1="349.06" x2="814.23" y2="333.82"/><line class="cls-1" x1="946.8" y1="426.01" x2="919.37" y2="362.01"/><line class="cls-1" x1="980.32" y1="454.96" x2="926.23" y2="413.06"/><line class="cls-1" x1="892.7" y1="416.1" x2="913.28" y2="418.39"/><line class="cls-1" x1="850.8" y1="451.15" x2="882.04" y2="429.06"/><line class="cls-1" x1="683.18" y1="428.3" x2="809.66" y2="430.58"/><line class="cls-1" x1="842.42" y1="434.01" x2="818.04" y2="434.01"/><line class="cls-1" x1="786.04" y1="404.68" x2="802.8" y2="384.1"/><line class="cls-1" x1="823.37" y1="354.39" x2="811.94" y2="388.68"/><line class="cls-1" x1="664.13" y1="371.53" x2="718.99" y2="398.58"/></g></svg>