<?xml version="1.0" encoding="UTF-8"?><svg id="Layer_2" xmlns="http://www.w3.org/2000/svg" viewBox="0 0 546.57 436"><defs><style>.cls-1{fill:none;stroke:#333;stroke-miterlimit:10;stroke-width:30px;}</style></defs><g id="Layer_1-2"><line class="cls-1" x1="77.29" y1="95.43" x2="77.29" y2="221.14"/><line class="cls-1" x1="137.29" y1="95.43" x2="137.29" y2="224.57"/><line class="cls-1" x1="23" y1="224.57" x2="263.57" y2="224.57"/><line class="cls-1" x1="120.71" y1="424" x2="120.71" y2="312.57"/><line class="cls-1" x1="439" y1="316" x2="131.57" y2="316"/><line class="cls-1" x1="435" y1="429.71" x2="435" y2="306.86"/><line class="cls-1" x1="252.14" y1="312.57" x2="252.14" y2="229.37"/><line class="cls-1" x1="15" y1="436" x2="15" y2="233.14"/><line class="cls-1" x1="196.71" y1="224.57" x2="196.71" y2="162.86"/><line class="cls-1" x1="407.57" y1="160" x2="184.14" y2="160"/><line class="cls-1" x1="416.14" y1="320.57" x2="416.14" y2="145.71"/><line class="cls-1" x1="263.57" y1="148.57" x2="263.57"/><line class="cls-1" x1="320.14" y1="148.57" x2="320.14"/><line class="cls-1" x1="416.14" y1="233.14" x2="531.57" y2="233.14"/><line class="cls-1" x1="531.57" y1="424" x2="531.57" y2="224.57"/><line class="cls-1" x1="501.86" y1="224.57" x2="501.86" y2="106.29"/><line class="cls-1" x1="453.29" y1="221.14" x2="453.29" y2="97.71"/></g></svg>