<?xml version="1.0" encoding="UTF-8"?><svg id="Layer_2" xmlns="http://www.w3.org/2000/svg" viewBox="0 0 677.54 645.76"><defs><style>.cls-1{fill:none;stroke:#e6e6e6;stroke-miterlimit:10;stroke-width:30px;}</style></defs><g id="Layer_1-2"><line class="cls-1" x1="408.39" y1="3.75" x2="385.38" y2="92.91"/><line class="cls-1" x1="364.46" y1="125.19" x2="387.66" y2="92.45"/><line class="cls-1" x1="349.46" y1="192.04" x2="364.46" y2="125.19"/><line class="cls-1" x1="322.63" y1="285.72" x2="349.46" y2="192.04"/><line class="cls-1" x1="376.06" y1="400.31" x2="322.63" y2="285.72"/><line class="cls-1" x1="341.73" y1="532.19" x2="376.06" y2="400.31"/><line class="cls-1" x1="322.63" y1="581.3" x2="341.73" y2="532.19"/><line class="cls-1" x1="349.34" y1="639.51" x2="322.63" y2="581.3"/><line class="cls-1" x1="347.19" y1="199.97" x2="380.83" y2="231.15"/><line class="cls-1" x1="419.94" y1="238.88" x2="380.83" y2="231.15"/><line class="cls-1" x1="450.86" y1="291.17" x2="419.94" y2="238.88"/><line class="cls-1" x1="453.59" y1="349.38" x2="450.86" y2="291.17"/><line class="cls-1" x1="376.06" y1="313.67" x2="383.56" y2="243.88"/><line class="cls-1" x1="400.39" y1="339.38" x2="376.06" y2="313.67"/><line class="cls-1" x1="178.02" y1="259.34" x2="287.16" y2="238.88"/><line class="cls-1" x1="341.73" y1="198.41" x2="287.16" y2="238.88"/><line class="cls-1" x1="207.12" y1="394.86" x2="232.59" y2="336.28"/><line class="cls-1" x1="322.63" y1="285.72" x2="232.59" y2="336.28"/><line class="cls-1" x1="448.14" y1="443.97" x2="376.06" y2="400.31"/><line class="cls-1" x1="302.62" y1="424.17" x2="349.34" y2="370.3"/><line class="cls-1" x1="400.39" y1="501.26" x2="376.06" y2="449.42"/><line class="cls-1" x1="447.23" y1="523.09" x2="400.39" y2="501.26"/><line class="cls-1" x1="404.48" y1="551.29" x2="405.39" y2="519.45"/><line class="cls-1" x1="303.53" y1="512.18" x2="339.91" y2="496.97"/><line class="cls-1" x1="277.61" y1="584.03" x2="325.98" y2="564.02"/><line class="cls-1" x1="122.54" y1="351.2" x2="177.11" y2="272.08"/><line class="cls-1" x1="247.14" y1="174.76" x2="184.39" y2="265.03"/><line class="cls-1" x1="288.07" y1="108.82" x2="245.32" y2="168.39"/><line class="cls-1" x1="376.06" y1="71.76" x2="237.14" y2="75.63"/><line class="cls-1" x1="314.44" y1="79.27" x2="284.89" y2="113.25"/><line class="cls-1" x1="266.69" y1="86.54" x2="215.76" y2="108.82"/><line class="cls-1" x1="167.11" y1="113.83" x2="232.59" y2="101.46"/><line class="cls-1" x1="88.89" y1="164.76" x2="167.11" y2="113.83"/><line class="cls-1" x1="2.49" y1="179.31" x2="88.89" y2="164.76"/><line class="cls-1" x1="79.8" y1="108.82" x2="139.82" y2="73.7"/><line class="cls-1" x1="224.4" y1="73.7" x2="139.82" y2="73.7"/><line class="cls-1" x1="194.39" y1="39.25" x2="237.14" y2="75.63"/><line class="cls-1" x1="206.21" y1="108.82" x2="173.47" y2="152.02"/><line class="cls-1" x1="133.46" y1="257.52" x2="173.47" y2="152.02"/><line class="cls-1" x1="452.23" y1="189.77" x2="367.06" y2="121.54"/><line class="cls-1" x1="560" y1="210.23" x2="452.23" y2="189.77"/><line class="cls-1" x1="627.53" y1="265.03" x2="560" y2="210.23"/><line class="cls-1" x1="675.28" y1="272.3" x2="627.53" y2="265.03"/></g></svg>