<?xml version="1.0" encoding="UTF-8"?>
<svg id="Layer_2" data-name="Layer 2" xmlns="http://www.w3.org/2000/svg" xmlns:xlink="http://www.w3.org/1999/xlink" viewBox="0 0 368.16 1538.16">
  <defs>
    <style>
      .cls-1 {
        font-size: 40px;
      }

      .cls-1, .cls-2, .cls-3, .cls-4, .cls-5 {
        fill: #231f20;
      }

      .cls-1, .cls-2, .cls-5 {
        font-family: JohnDoe, JohnDoe;
      }

      .cls-2, .cls-4 {
        font-size: 30px;
      }

      .cls-4 {
        font-family: JohnDoe-Bold, JohnDoe;
        font-weight: 700;
      }

      .cls-6 {
        filter: url(#drop-shadow-1);
      }

      .cls-7 {
        fill: #adb9d5;
      }

      .cls-7, .cls-8, .cls-9 {
        stroke: #fff;
        stroke-miterlimit: 10;
        stroke-width: 3px;
      }

      .cls-8 {
        fill: #387eb9;
      }

      .cls-9 {
        fill: #b9d79c;
      }

      .cls-5 {
        font-size: 55px;
      }
    </style>
    <filter id="drop-shadow-1" filterUnits="userSpaceOnUse">
      <feOffset dx="-7" dy="7"/>
      <feGaussianBlur result="blur" stdDeviation="10"/>
      <feFlood flood-color="#231f20" flood-opacity=".3"/>
      <feComposite in2="blur" operator="in"/>
      <feComposite in="SourceGraphic"/>
    </filter>
  </defs>
  <g id="Layer_1-2" data-name="Layer 1">
    <g>
      <image class="cls-6" width="999" height="207" transform="translate(344.5 22.86) rotate(90) scale(1.48)" xlink:href="receipt1.png"/>
      <text class="cls-5" transform="translate(77.46 235.33)"><tspan x="0" y="0">Receipt</tspan></text>
      <text class="cls-4" transform="translate(109.12 334.69)"><tspan x="0" y="0">-image1:</tspan><tspan x="0" y="40" xml:space="preserve"> suyeon</tspan></text>
      <text class="cls-4" transform="translate(109.12 437.83)"><tspan x="0" y="0">-image2:</tspan><tspan x="0" y="40" xml:space="preserve"> sunghoon</tspan></text>
      <text class="cls-4" transform="translate(109.12 541.45)"><tspan x="0" y="0">-image3:</tspan><tspan x="0" y="40" xml:space="preserve"> jiwon</tspan></text>
      <text class="cls-4" transform="translate(109.12 644.29)"><tspan x="0" y="0">-image4:</tspan><tspan x="0" y="40" xml:space="preserve"> hwanjun</tspan></text>
      <text class="cls-4" transform="translate(109.12 747.13)"><tspan x="0" y="0">-image5:</tspan><tspan x="0" y="40" xml:space="preserve"> kimminje</tspan></text>
      <text class="cls-4" transform="translate(109.12 849.97)"><tspan x="0" y="0">-image6:</tspan><tspan x="0" y="40" xml:space="preserve"> chaesun</tspan></text>
      <g>
        <path class="cls-3" d="m91.04,963c.02.15.06.27.1.4.06.29.1.55.13.8.1.38.19.82.19,1.3,0,.17.02.36-.06.57-.04.25-.21.44-.23.46s-.15.1-.17.1c-.17.06-.25.13-.48.13-.17,0-.34-.04-.48-.1-.04-.02-.15-.02-.17-.04-.52-.29-.57-.67-.63-1.03-.02-.13-.15-.5-.06-.34-.02-.13-.02-.25-.02-.4,0-.27.04-.57.08-.8.04-.21.06-.46.06-.65,0-.52-.25-1.18-.55-1.68-.17-.27-.55-.38-.97-.38-.21,0-.44.04-.65.08-.27,0-.29.17-.34.42-.02.1,0,.17-.06.38v.59c0,.21-.02.42-.02.63,0,.4.02.86.17,1.34,0,.52-.08.88-.15,1.26-.04.19-.06.36-.1.55v1.11c0,.21,0,.42.02.65,0,.21.02.48.02.71,0,.48-.02.92-.19,1.45.02.76.36,1.3.88,1.53.25,0,.52-.02.71-.04.15-.02.36-.04.52-.04.23,0,.42.02.59.08.36.19.59.46.59.82,0,.13-.04.23-.08.38-.15.25-.44.71-1.11.71-.19-.23-.34-.27-.48-.31-.13-.04-.15.08-.34-.1h-.19c-.17,0-.5.1-.67.19-.1.06-.27.1-.36.1-.36,0-.29-.04-.42-.06-.1-.02-.31-.08-.4-.08-.02.02-.04.02-.06.04t-.19.23h-.67c-.29-.27-.55-.36-.8-.36-.17,0-.4.02-.63.06-.29.06-.65.13-1.09.13-.29,0-.61-.27-.82-.55-.08-.06-.23-.25-.25-.29,0-.4-.04-.76.4-.78.31-.15.63-.17,1.03-.17.17,0,.44.02.63.02.21.02.4.02.57.02.4,0,.69,0,.94-.25.04-.52.08-1.13.08-1.68,0-.59-.04-1.22-.1-1.78,0-.31.04-.61.08-.86.04-.23.06-.52.06-.71,0-.17,0-.38-.1-.55s-.13-.34-.13-.48c0-.17.04-.36.1-.59.04-.15.08-.34.1-.52-.04-.04-.06-.08-.08-.13l-.17-.31c-.02-.13-.04-.23-.04-.48s.02-.44.04-.65c.02-.17.02-.36.02-.5v-.31s-.04-.06-.06-.1c-.17-.34-.36-.69-.48-.69-.78,0-1.49.65-2.02,1.36,0,.27,0,.55.02.82,0,.27.02.59.02.86,0,.31-.02.67-.04.97-.04.42-.48,1.32-.97,1.32-.23,0-.46-.17-.61-.4-.19-.25-.23-.55-.23-.84v-.21c0-.08.02-.17.02-.27,0-.17-.02-.31-.08-.52,0-.15-.04-.44.15-.65v-1.07c-.1-.23-.1-.42-.1-.63,0-.38.1-.78.23-1.18l-.02.02c.02-.19.06-.31.1-.5.02-.82.86-1.24,1.45-1.41.34-.17.8-.23,1.15-.23.29,0,.57.04.73.06l.25.17c-.17-.23,0-.04.08.04.08.04.23.15.15.06h.38c.1-.02.23-.06.31-.08.23-.06.55-.1.76-.1.27,0,.55.08.84.19.17,0,.29,0,.42-.08v.02c.19-.13.38-.13.5-.13.23,0,.46.08.69.17.1-.06.25-.1.4-.1.15.08.25.13.29.13.08,0,.15,0,.23-.02.06,0,.15-.02.21-.02.31,0,.25.02.36.04.34.17.67.46.84.8.06.23.15.5.23.76v-.02c.08.21.17.46.27.88,0,.21-.02.4-.04.61-.02.17-.04.78-.06.78Zm.25,1.3s-.02-.04-.02-.06v-.04l.02.1Z"/>
        <path class="cls-3" d="m96.25,958.78c.06,0,.13-.02.19-.02.31,0,.59.13.9.46.15.38.19.73.19,1.09,0,.25-.02.57-.06.8-.04.25-.06.57-.06.73,0,.21,0,.38.06.55l-.06-.13s.02.08.04.1c.15.23.34.55.34.86,0,.1,0,.19-.06.31-.15.23-.29.52-.31.78.17-.23.36-.38.65-.38.21,0,.42-.23.57-.42.15-.15.29-.31.42-.42.13-.08.38-.15.65-.23.23-.06.42-.1.61-.25.36-.08.61-.1.84-.1.27,0,.59.04.97.13.23.27.48.57.67.67.15,0,.19.02.31.08.06.04.13.06.1.06.46,0,.5.23.57.5t.02.04c.1.4.13.65.13.86.02.27.02.55.1.71.17.55.27,1.07.27,1.57,0,.61-.08,1.22-.17,1.74-.06.46-.15,1.01-.15,1.3-.02.23-.1.4-.21.57-.08.17-.15.31-.17.55.15.46.63.46,1.15.5.25.02.57.08.9.17.06.06.1.06.15.08.15.06.36.1.48.44.04.1.1.27.1.38,0,.31-.17.57-.5.78-.46.17-.94.27-1.43.27-.61,0-1.18-.13-1.76-.34-.27.08-.5.1-.84.1-.44,0-.94-.13-1.36-.29-.17-.17-.29-.38-.29-.59,0-.31.21-.57.48-.78h.67c.13-.04.29-.13.42-.17l-.02.02c.13-.06.25-.13.44-.17t.06-.06s.04.04.04.1c0-.17,0-.31.02-.44.02-.15.04-.29.04-.4,0-.25-.04-.44-.13-.63-.04-.1-.06-.23-.06-.31,0-.23.04-.42.17-.61-.02,0,.06-.15.1-.23-.02-.19-.08-.34-.17-.48-.08-.19-.15-.31-.19-.44,0-.13,0-.17-.02-.21-.04-.17-.04-.27-.04-.31,0-.19,0-.34.15-.5v.02c.06-.13.13-.31.13-.52,0-.1-.08-.27-.25-.44.06-.23.1-.36.1-.46,0-.42-.55-.71-1.05-.86-.1-.06-.34-.06-.52-.06-.17,0-.34,0-.4.04-.13.06-.19.15-.29.25-.17.15-.29.29-.55.4h-.23c-.17.08-.27.15-.36.31-.08.06-.06.19-.08.31-.02.34-.1.78-.61,1.03h-.25c-.21.17-.46.4-.55.61,0,.15.04.25.1.4.06.23.13.46.13.88-.17.27-.29.5-.29.67v.06c.27.44.34.92.36,1.39.02.19.06.55.06.55,0-.04.1-.04.21-.02.17.02-.21-.17.55.08.29.25.48.65.48,1.03,0,.42-.25.84-.69.84-.5,0-.99.02-1.51.06-.57.04-1.13.08-1.72.08-.25,0-.57-.02-.84-.04-.23-.02-.38-.19-.52-.34-.06-.06-.15-.15-.23-.21v-.57c.27-.46.63-.55.99-.59.15-.04.34-.08.38-.08.29-.29.15-.13.21-.17.04-.02.1-.06.15-.08.13-.08.27-.13.4-.13.1,0,.15,0,.31.04.08.02-.04,0,.02,0,.02-.02.04-.02.06.02,0-.31.04-.57.08-.8.02-.25.06-.48.06-.65,0-.31-.06-.61-.25-.94,0-.36.06-.55.15-.78.04-.08.06-.21.08-.29-.06-.13-.15-.27-.21-.4-.02-.08-.08-.15-.17-.29-.02-.4-.04-.8-.04-1.28,0-.69.02-1.34.08-1.99s.13-1.32.13-1.95c0-.19,0-.38-.02-.59,0-.1-.15-.23-.27-.27-.19-.1-.36-.15-.57-.21-.8-.21-1.68-.46-1.68-1.76.17-.19.44-.44.55-.55.13-.04.34-.06.44-.1.27-.1.52-.19.8-.19.21,0,.46.04.69.21.08-.04.19-.06.29-.06.08,0,.17,0,.25-.02Z"/>
        <path class="cls-3" d="m110.78,962.58c.19-.02.36-.02.55-.02.8,0,1.49.15,1.93.8.13.19.19.42.19.69,0,.06-.02.17-.02.25-.02.08-.02.15-.02.23,0,.1-.02.02,0,.1.13.31.31.76.31,1.15,0,.23-.04.46-.17.69,0,.15.02.27.04.38.02.21.06.73.08.67,0,.06-.02.15-.06.34-.13.15-.15.21-.21.29s-.06.13-.13.19c-.02.1-.02.23-.02.31,0,.15.02.21.02.36.02.13.02.31.02.5,0,.25-.06.55-.15.9,0-.02.02.06.04.15.04.08.1.17.13.31.02.04.04.06.06.1.15.23.31.5.52.61.21,0,.46,0,.71-.17.38,0,.57.06.8.15.13.04.36.13.38.13.06-.02.13-.04.17-.06.19-.1.36-.19.59-.19.15,0,.31,0,.5.19.36.19.48.52.48.86,0,.4-.23.69-.38.9-.55.38-1.05.52-1.55.52-.38,0-.67-.06-.97-.13h.04s-.1-.02-.13-.02c-.63-.06-1.22-.06-1.83-.06-1.15,0-2.29,0-3.49-.27-.27.15-.5.15-.82.15-.08,0-.27-.02-.4-.02-.1-.02-.29-.02-.46-.02,0,0-.1-.13-.21-.13-.27-.27-.38-.57-.38-.76,0-.48.4-.99.84-1.07.69-.21,1.3-.23,1.91-.23.4,0,.8.02,1.15.04,0,0,.04,0,.06.02-.04-.04.02-.1.1-.19l.02-.02c0-.78.04-1.57.25-2.29-.02-.08-.04-.17-.06-.29,0-.02-.02-.06-.08-.13v-1.43c.13-.25.15-.5.15-.73,0-.4-.06-.78-.21-1.13-.08-.31-.42-.4-.76-.48l.02.02c-.19-.04-.42-.1-.59-.19h.02s-.06-.02-.06-.02c-.1,0-.21.02-.29.04-.23.04-.4.13-.84.13-.48-.25-.71-.71-.71-1.15,0-.4.15-.73.48-.94.27-.04.5-.08.73-.08.19,0,.4,0,.59.02s.42.02.57.02h.5Zm-.5-2.02c0-.23.06-.42.15-.61.06-.19.17-.34.17-.78.59-.36,1.3-.69,1.89-.69.5,0,1.03.21,1.36.69.15.36.29.71.29,1.03,0,.76-.46,1.51-1.15,1.93-.17.08-.36.1-.48.1-.5,0-.88-.29-1.32-.67-.15-.02-.34-.1-.59-.36-.21-.21-.31-.44-.31-.65Zm2.88,9.87s0,.08-.04.13c0-.04.02-.08.04-.13Z"/>
        <path class="cls-3" d="m119.28,964.47c.27-.59.73-.9,1.13-1.2.21-.17.42-.31.67-.59.29-.13.84-.29,1.22-.31l.34-.08c.44-.06.88-.15,1.41-.15.25,0,.5.02.84.1.19.02.36.08.57.17h-.02c.25.08.5.17.8.17.15,0,.31-.04.48-.08h1.28l.44.17c.25.55.29.9.29,1.26,0,.25-.02.52-.04.73-.02.19-.04.44-.04.57,0,.08.02.21.04.34.1.19.25.42.25.69v.38c-.38.17-.76.29-1.09.29-.29,0-.59-.08-.84-.23-.38-.23-.61-.55-.82-.88-.21-.31-.44-.65-.71-.78l.02.02c-.42-.17-.86-.27-1.24-.27-.1,0-.29.02-.48.04-.23,0-.36-.02-.46-.04h-.29c-.06,0-.17,0-.25.02-.04,0-.06.02-.08.02l.13-.02c-.29.13-.5.38-.73.67-.08.08-.17.19-.27.29.15.15.19.27.27.42.1.17.19.29.27.4l.42.13c.27.08.57.19.86.21.42-.15.88-.15,1.15-.15.36.17.71.19,1.05.21.15,0,.69.1.84.13.46.19.88.52,1.03.92v-.02c.1.23.25.4.52.48.57.29.76.82.76,1.39,0,.38-.06.76-.19,1.09-.02.23-.15.52-.23.76-.04.1-.08.23-.15.46-.19.25-.42.44-.67.63-.19.13-.36.27-.61.5-.42,0-.57-.08-.78-.13-.4.44-.82.57-1.41.76h-.42c-.55,0-.99-.1-1.45-.21-.34-.08-.67-.15-.92-.19h.02c-.55,0-.97,0-1.51.23-.13.06-.27.08-.46.08-.34,0-.65-.15-.9-.27-.23-.31-.36-.69-.36-1.03,0-.23.06-.48.13-.65.04-.08.13-.21.27-.42.13-.19.25-.4.25-.57,0,0,0-.02-.02-.06l.04.06s-.04-.06-.04-.08c-.25-.36-.42-.76-.42-1.2,0-.23.06-.52.21-.86.13-.08.44-.23.78-.23.23,0,.48.06.73.23.25.31.36.57.5.82.13.27.23.5.44.73.04.06.04.08.08.15.23.42.52.97,1.01,1.13h-.02c.13.04.21.08.34.13.15.04.25.1.4.1-.02,0-.02.02-.04.02.08-.04.04-.08.27-.08.04,0,.06-.02.1-.02h.1c.34,0,.5.1.69.17.08.04.13.06.19.08.44-.27.44-.17.67-.25.21-.08.36-.15.55-.25.29-.15.52-.5.73-.88.15-.23.21-.38.4-.61-.17-.19-.38-.36-.67-.44-.36-.08-.55-.34-.69-.57l.02.02c-.1-.15-.06-.19-.23-.27-.42-.13-1.01-.1-1.49-.1-.13-.06-.25-.13-.4-.21-.1-.06-.21-.13-.4-.13-.29.13-.44.1-.76.1-.23-.1-.38-.27-.5-.4-.06-.06-.08-.08-.17-.15h-.08c-.1,0-.25.04-.4.1-.23.08-.44.13-.69.13-.21,0-.46-.06-.84-.4v-.29c-.08-.08-.17-.19-.21-.23-.21-.23-.42-.48-.5-.73-.04-.19-.06-.4-.06-.61,0-.23.02-.42.04-.61.02-.17.02-.31.02-.46v-.31Zm7.12,2.54c.31.08.34.1.27.1-.08-.04-.19-.06-.27-.1Z"/>
        <path class="cls-3" d="m145.09,967.71c0-.31.04-.55.08-.78.02-.23.06-.42.06-.55,0-.06,0-.1-.02-.19,0,0,0-.04-.02-.08-.04-.21-.04-.52-.04-.69.1-.13.04-.13.04-.25-.15-.25-.48-.42-.82-.61l-.15-.08h-.06c-.06,0-.04-.02-.1,0-.15.04-.23.04-.34.04-.19,0-.4-.02-.63-.19-.34-.29-.44-.69-.44-1.03,0-.29.02-.55.21-.78.17-.48.55-.5.92-.5.21,0,.48,0,.76-.1.5,0,.73.1.94.23,0,0,.21.1.31.15.13,0,.25.02.4.08.06.02.21.04.36.04.08.06.15.15.21.15.08.02.17.06.23.13.1.02.19.02.31.02s.31-.02.46-.15l.44-.15c.59-.19,1.15-.38,2.06-.38.73.17,1.3.44,1.81.82.08.08.17.1.25.1h-.02c.29.04.61.15.82.48.13.25.23.48.36.69.23.42.44.78.61,1.36.04.1.08.29.15.48.02.1.06.27.08.36.02.04.06.1.1.15l.13.17c.06.1.1.27.1.36,0,.36-.15.63-.29.88v-.04q-.04.15-.08.25s.02.04.04.06c.06.17.17.29.17.71-.08.19-.15.31-.23.42l.02-.04c-.06.08-.21.29-.21.34-.44.59-.69,1.26-.82,1.97-.04.08-.08.17-.08.15-.08.19-.19.42-.57.57-.46,0-.57-.04-.73-.06-.08-.02-.13-.02-.17-.02,0,.08-.02.25-.02.31-.04.36-.06.65-.42.8-.34.13-.46.1-.63.13-.25.02-.48.02-.73.17-.57,0-.86-.23-1.07-.4-.06-.04-.19-.1-.1-.08-.1-.04-.23-.06-.29-.1h.02c-.23-.08-.36-.15-.63-.15-.61-.08-.78-.46-.9-.84l-.13-.25c-.06.06-.15.21-.19.31,0,.86.06,1.78.15,2.67.02.29.06.4.08.69.34.23.69.31,1.11.31.21,0,.46-.02.71-.06.46,0,.46.13.55.29.02.04.06.08.15.17,0,.4.02.78-.42.8-.34.15-.61.21-.92.21-.19,0-.42-.06-.65-.13-.34-.17-.69-.21-1.03-.21-.1,0-.23.02-.36.02h-.34c-.38.1-.71.23-1.05.23-.08-.02-.23-.08-.31-.1-.36-.06-.67-.15-.94-.55-.06-.17-.06-.29-.06-.29,0-.36.13-.44.36-.44-.06,0-.1-.02-.1-.02.59-.17,1.15-.29,1.64-.5.19-.21.34-.48.34-.78,0-.04-.02-.1-.04-.21-.04-.06-.04-.13-.1-.19-.13-.17-.25-.36-.25-.73.13-.38.19-.69.19-.99,0-.21-.02-.46-.04-.69-.02-.21-.04-.52-.04-.76,0-.31.04-.63.15-.94.02-.06.02-.1.04-.17.08-.23.15-.5.15-.69,0-.13-.04-.23-.13-.36-.23-.31-.31-.63-.31-.97Zm1.85,1.01c-.02.19-.04.4-.04.55,0,.42.13.86.78,1.2v.52c.23.36.63.73,1.11.78.13-.04.29-.04.42-.04.19,0,.38.02.5.04.15.02.34.02.46.02.04,0,.13,0,.21-.02l.02-.02c.15-.08.27-.15.31-.21v.04c.1-.46.42-.61.71-.8l.13-.06c.02-.4.17-.65.27-.97l-.02.02c.04-.1.08-.19.13-.27.1-.31.19-.65.19-.92,0-.17-.04-.46-.08-.67-.02-.13-.04-.31-.08-.44-.13-.57-.27-1.18-.27-1.76-.13-.17-.25-.38-.31-.57l.02.04c-.13-.17-.34-.27-.57-.38l-.36-.17h-.04.04l-.08-.04.04.04c-.06.02-.13.04-.21.06h.02c-.15.06-.27.1-.55.1-.29-.13-.73-.15-.97-.15-.46.13-.9.38-1.18.78-.06.17-.19.44-.29.61-.06.1-.15.31-.19.44-.1.5-.1,1.05-.1,1.62,0,.21,0,.42-.02.63Z"/>
        <path class="cls-3" d="m160.53,962.27h.17s.15-.04.21-.04c.19-.04.4-.13.57-.13.13,0,.19-.02.31.06.19.02.42.02.63.04.88.04,1.78.15,2.54.55.67.4,1.32,1.11,1.78,1.97-.15,1.18-.17,2.25-.17,3.23v1.45c0,.5.02.99.02,1.49,0,.1.04.15.19.19.31-.23.8-.44,1.55-.44.44.21.63.46.63.8-.29.88-.82,1.43-1.49,1.95-.29.13-.73.29-1.24.29-.36-.13-.55-.36-.71-.59l.02.02c-.08-.15-.19-.25-.31-.34h.02c-.21-.13-.46-.19-.71-.19-.73,0-1.45.46-1.97,1.05-.1.02-.4.08-.52.1-.31.06-.73.1-1.09.1-.44,0-.97-.15-1.41-.36-.15-.06-.23-.08-.38-.15-.73-.27-1.57-.59-2.12-1.36-.34-.52-.48-1.01-.48-1.51,0-.9.4-1.76,1.09-2.35l.25-.17c.21-.15.36-.29.73-.31.04-.04.06-.02.1-.04s.08-.04.15-.15c.97-.23,1.64-.29,2.31-.36.76-.06,1.49-.1,2.14-.29.42-.13.71-.55.71-1.01,0-.08,0-.17-.02-.23-.19-.38-.61-.67-1.09-.88-.1-.02-.27-.02-.38-.02-.13,0-.34.02-.5.04-.19.02-.42.02-.61.02l-.13-.06c-.23,0-.52.17-.78.36-.27.13-.31.42-.38.71l-.08.31c-.34.48-.88.71-1.43.71-.67,0-1.3-.29-1.64-.78-.15-.15-.13-.27-.13-.38,0-.19.08-.4.17-.52v.06c.1-.97.71-1.55,1.26-2.12.19-.17.4-.4.57-.57.27-.19.52-.23.8-.23h.46c.13.02.29.04.38.04Zm-1.28,7.56c-.31.19-.42.44-.42.71,0,.31.19.65.46.86.23.06.34.1.46.15h-.02l.61.19h-.02c.23.04.46.06.73.06.78,0,1.62-.4,2.31-.99l.15-.08h.02c.15-.06.38-.21.38-.21.02-.1.02-.21.04-.27.04-.13.06-.27.06-.46.21-.25.31-.52.31-.71,0-.21-.08-.38-.27-.42-.13-.04-.23-.06-.4-.06-.29,0-.69.1-1.05.19l.02-.02c-.21.06-.42.1-.63.15-.06.02-.1.04-.15.08-.21.17-.38.25-.61.27-.29.1-.5.13-.78.17-.42.08-.88.15-1.22.38v.02Z"/>
        <path class="cls-3" d="m171.95,965.44c.21-.38.21-.46.29-.63.21-.5.44-1.01.94-1.28.61-.17,1.11-.42,1.68-.84.52.08,1.03.19,1.53.31.44.13.94.25,1.45.31.34-.02.69-.15,1.01-.29.34-.13.65-.25.94-.31l.02-.02c.29,0,.5.13.65.23.04.02.08.04.1.04.57.13,1.28.34,1.57,1.07,0,.8-.44,1.55-1.09,1.95-.42-.27-.9-.46-1.26-.46h-.34c.02.23.04.23.08.44.08.34.17.73.17,1.18,0,.25-.06.63-.25,1.05-.23.4-.63.71-1.03,1.05-.15.13-.31.25-.55.48h-.13c-.13.08-.21.15-.42.17-.04.04-.13.1-.17.15-.13.08-.36.27-.36.27-.31.15-.65.19-.88.19-.17,0-.29,0-.42-.02s-.21-.02-.31-.02c-.42,0-.65-.23-.86-.44-.02-.02-.04-.04-.02-.04-.19-.04-.4-.06-.55-.06-.17,0-.27.02-.42.02-.27.15-.34.46-.34.84,0,.23,0,.48.04.71.1.1.29.27.44.31.06,0,.15.02.19.02.1.02.21.04.25.04.46,0,.94-.06,1.45-.13.27-.04.61-.1.88-.13.8,0,1.6.17,2.31.27.13.02.36.06.48.08.06.06.13.08.17.1.08.06.34.25.23.15.04,0,.1,0,.15.02.38.08.8.17,1.11.63.04.1.08.25.13.36.17.46.34.94.34,1.49,0,.19,0,.38-.08.59-.02.44-.19.84-.44,1.24-.04.04-.08.1-.1.15-.15.31-.5.55-.78.71-.08.06-.31.21-.31.21-.23.04-.34.04-.42.04h-.61c-.08,0-.17,0-.29.08-.84.27-1.47.38-2.14.5h-.44c-.65,0-1.26-.15-1.91-.31-.44-.1-.82-.23-1.55-.27-.31-.17-.65-.31-.86-.82v-.17c-.04-.06-.1-.17-.15-.21-.04-.06-.1-.15-.19-.23-.06-.19-.1-.42-.1-.55,0-.23.02-.38.04-.52.02-.1.02-.29.02-.46l-.06.13c.06.13.04.13,0,.06-.17-.21-.29-.5-.29-1.07.19-.15.23-.21.29-.31.06-.08.13-.21.06-.15v-.21c.27-.29.42-.5.5-.65v-.38c0-.38-.1-.82-.34-1.36.55-.82.99-1.72.99-2.48,0-.15-.02-.31-.06-.52l.02.04c-.04-.1-.1-.17-.15-.27-.1-.17-.15-.38-.15-.59,0-.15.04-.29.08-.44.19-.21.19-.34.19-.5v-.55Zm.08,9.3c.06.13.15.34.17.42.13.27.27.65.48.8.27.19.5.34.76.42.38.02.82.13,1.15.23h.42c.17-.06.44-.06.61-.06.19,0,.4,0,.55.02.17.02.38.04.52.04.25,0,.5-.04.73-.17.36-.21.71-.23,1.05-.25.19,0,.4,0,.57-.04.5-.19.92-.63.92-1.05,0-.67-.44-1.22-.86-1.41h.04c-.17-.06-.38-.13-.59-.23-.19-.08-.25-.15-.71-.23-.25-.13-.44-.13-.65-.13-.29,0-.55.02-.8-.08-.23.06-.44.06-.65.06-.13,0-.25-.02-.38-.02h-.38c-.13,0-.19,0-.34.02-.29.13-.61.25-.88.36-.23.08-.46.17-.71.25-.5.21-.99.44-1.03,1.05Zm1.26-4.79l.04-.02s-.02.02-.04.02Zm.38-3.32c-.02.21-.02.4-.04.57-.02.19-.04.46-.04.63,0,.21.02.42.06.59v-.04c.04.08.36.08.52.08.38.1.63.19.8.25.19.08.44.17.59.17.1,0,.17,0,.29-.04.06-.02.15-.04.23-.06.42-.1,1.01-.23,1.01-.92.34-.27.65-.59.65-.86,0-.08,0-.1-.06-.23-.1-.13-.19-.29-.19-.44,0-.08.02-.17.06-.29.02-.02.02,0,.02-.04-.17-.31-.4-.46-.71-.71l-.04-.04c-.06-.06-.06-.04-.15-.08-.15-.08-.34-.13-.48-.13-.31,0-.63.1-.92.19-.27.08-.57.19-.82.23-.29,0-.46.44-.55.8-.06.21-.13.31-.23.4Z"/>
        <path class="cls-3" d="m189.29,962.2c.25,0,.44.02.61.02l.57.19c.19.06.4.17.61.21.08.04.19.13.27.17,1.13.76,2.48,1.66,2.48,3.19,0,.04.1.19.19.27.19.38.19.61.19.9v.73l-.21.46c-.82.31-1.62.57-2.48.57h-.21c-.08,0-.19-.02-.27-.02h-.34c-.34,0-.71.08-1.03.15v-.02c-.29.08-.55.13-.8.13-.19,0-.42-.19-.61-.31-.06-.04,0,0-.04-.02-.48,0-1.05.04-1.55.29-.21.21-.31.46-.31.73,0,.13.08.38.15.48.21.17.36.34.55.57.13.15.21.31.36.4.34.1.44.15.63.25.23.15.48.25.71.31.15.06.42.1.67.1.19,0,.38-.02.63-.17.02,0,.15-.02.19-.02.19,0,.31.04.44.1.02.02.04.04.06.04.34-.19.67-.52.99-.86h-.02c.17-.19.44-.44.86-.8h.5c.48.29.67.63.67,1.01,0,.1,0,.17-.04.27v.04c-.13.44-.48.94-1.03,1.15h-.17c-.44.38-.97.67-1.45.8-.19.25-.19.08-.25.13-.06.02-.1.06-.15.1-.65.17-1.22.23-1.76.23-.38,0-.78-.02-1.26-.06-.04-.04-.21-.23-.23-.27-.06-.08-.13-.19-.21-.23h.04c-.76-.19-1.3-.67-1.81-1.15h.02c-.19-.15-.34-.29-.52-.44-.27-.27-.34-.55-.44-.9-.02-.13-.04-.25-.17-.57v-.61c-.13-.17-.21-.4-.23-.57-.13-.31-.17-.69-.17-.99,0-.13.02-.29.02-.46v-.42c0-.31.15-.52.29-.76.04-.06.1-.15.15-.21.02-.08.04-.21.04-.29v-.27c0-.1-.02-.23-.02-.34,0-.04.02-.08.02-.15v-.21c.19-.46.46-.71.73-1.01.13-.13.27-.29.42-.46.25-.27.57-.31.82-.31.17-.06.5-.27.65-.36.34-.23.65-.42,1.09-.57.42-.15.78-.19,1.15-.19Zm-.65,3.11c-.29.17-.59.25-.86.36-.48.19-.97.34-1.18.67,0,.21.15.4.36.55l-.02-.02c.25.15.65.17.94.17.17-.04.38-.06.55-.1.36-.08.65-.17,1.11-.17.23,0,.38.02.48.04.38.1,1.03.13,1.36.13.19-.1.42-.34.42-.57,0-.06-.02-.1-.04-.15-.04-.06-.1-.17-.13-.25,0-.02-.02-.06-.02-.06-.31-.13-.65-.31-.94-.5v.02c-.4-.25-.76-.5-1.18-.5h-.15c-.23.08-.21.1-.31.17-.08.06-.21.19-.4.23Z"/>
        <path class="cls-3" d="m208.49,964.56c-.38-.17-.55-.61-.55-.99,0-.17.02-.36.13-.61.59-.38,1.24-.38,1.76-.38.29,0,.59.21.8.38.08.06.25.19.21.15.15.04.31.08.44.08s.27-.04.4-.08c.08-.06.13-.1.23-.15.06-.04.13-.08.29-.25.06,0,.27-.02.34-.02h.17c.15,0,.31.04.44.13l.1-.1c.63,0,.97.19,1.3.38.13.1.34.19.48.23.61-.02,1.36-.36,1.95-.82.06,0,.06-.02.08-.04.1-.08.04-.15.52-.15l.19.19v-.02c.19.19.44.38.65.48.46.02,1.05.25,1.26.86.02.23.04.42.04.61.02.31.02.55.15.8.17.29.19.61.19.9,0,.19-.02.36-.02.5-.02.17-.04.34-.04.46,0,.06,0,.1.04.46-.42.44-.52.92-.52,1.43,0,.17,0,.36.02.57.02.19.02.4.02.63,0,.21.08.42.15.59l.02.02c.1.23.17.42.19.67.06.04.17.17.25.21.13.08.25.13.38.27.19.19.23.44.23.67,0,.1.02.15,0,.27,0,.06-.02.15-.02.21-.17.61-.52.65-.88.65h-.52s-.1,0-.21.04c-.1.02-.19.04-.36.04-.38,0-.65-.1-.97-.23-.17-.06-.36-.1-.55-.15-.23-.08-.46-.42-.46-.78,0-.1,0-.17.04-.38.27-.44.59-.63.84-.82.19-.1.38-.25.5-.44,0-.13,0-.34.08-.52-.02-.15-.06-.38-.08-.52-.04-.15-.08-.38-.08-.61s.1-.52.23-.73v-.02c0-.13-.13-.34-.25-.46-.13-.29-.17-.57-.17-.82v-.36c0-.1.02-.23.02-.36v-.27c-.06-.15-.13-.38-.21-.55l.02.02c-.1-.21-.21-.46-.27-.67-.23-.23-.55-.38-.82-.38h-.04c-.38.25-.8.38-1.18.5-.06.06-.13.17-.13.23,0,.23.08.5.19.76.04.08.06.15.13.48-.34.67-.42,1.36-.42,2.02,0,.42.04.88.06,1.36.04.48.08.94.08,1.47,0-.02.08.06.15.1.17.17.36.36.36.63,0,.88-.71,1.01-1.43,1.01-.17,0-.34-.02-.5-.02h-.4c-.48,0-.55-.25-.55-.63,0-.06.02-.15.02-.19v-.27c.19-.38.42-.69.65-.97l-.02.02c.1-.15.19-.25.29-.4.04-.06.06-.15.06-.25,0-.17-.06-.38-.13-.59v-.02c-.15-.48-.21-.99-.21-1.49,0-.29.02-.63.04-.92.02-.31.04-.55.04-.86-.02-.13-.04-.29-.04-.5,0-.13,0-.29.02-.4s.02-.23.02-.31c0-.15-.02-.34-.1-.48-.06-.23-.31-.27-.61-.27s-.63.04-.88.15c-.17.17-.25.52-.25.76-.17.4-.31.59-.5.82s-.4.5-.46.82c-.02.25-.1.34-.19.46-.02.02-.02.04-.02.04.13.71.21,1.36.21,2.27-.23.25-.34.42-.34.55,0,.34.27.71.57,1.07.08.15.38.55.36.48.08.17.17.42.17.67,0,.29-.27.59-.55.59-.04,0-.08.02-.13.02h.06c-.36.08-.67.13-1.13.13-.17,0-.34,0-.55-.06-.08-.02-.17-.06-.25-.08-.27-.08-.57-.08-.76-.52-.08-.19-.08-.29-.08-.38,0-.5.36-.78.71-1.09l.15-.1c.04-.13.06-.29.06-.42,0-.1-.02-.31-.04-.46-.02-.17-.04-.29-.04-.48,0-.29.02-.29.04-.42l.1-.21c.1-.21.21-.42.23-.63-.19-.52-.23-1.01-.23-1.55v-.46c0-.15.02-.31.02-.46,0-.38-.02-.8-.13-1.22,0-.13-.36-.29-.73-.48h.02Zm3.04,7.62v-.02.02Z"/>
        <path class="cls-3" d="m227.39,962.27h.17s.15-.04.21-.04c.19-.04.4-.13.57-.13.13,0,.19-.02.31.06.19.02.42.02.63.04.88.04,1.78.15,2.54.55.67.4,1.32,1.11,1.78,1.97-.15,1.18-.17,2.25-.17,3.23v1.45c0,.5.02.99.02,1.49,0,.1.04.15.19.19.31-.23.8-.44,1.55-.44.44.21.63.46.63.8-.29.88-.82,1.43-1.49,1.95-.29.13-.73.29-1.24.29-.36-.13-.55-.36-.71-.59l.02.02c-.08-.15-.19-.25-.31-.34h.02c-.21-.13-.46-.19-.71-.19-.73,0-1.45.46-1.97,1.05-.1.02-.4.08-.52.1-.31.06-.73.1-1.09.1-.44,0-.97-.15-1.41-.36-.15-.06-.23-.08-.38-.15-.73-.27-1.57-.59-2.12-1.36-.34-.52-.48-1.01-.48-1.51,0-.9.4-1.76,1.09-2.35l.25-.17c.21-.15.36-.29.73-.31.04-.04.06-.02.1-.04s.08-.04.15-.15c.97-.23,1.64-.29,2.31-.36.76-.06,1.49-.1,2.14-.29.42-.13.71-.55.71-1.01,0-.08,0-.17-.02-.23-.19-.38-.61-.67-1.09-.88-.1-.02-.27-.02-.38-.02-.13,0-.34.02-.5.04-.19.02-.42.02-.61.02l-.13-.06c-.23,0-.52.17-.78.36-.27.13-.31.42-.38.71l-.08.31c-.34.48-.88.71-1.43.71-.67,0-1.3-.29-1.64-.78-.15-.15-.13-.27-.13-.38,0-.19.08-.4.17-.52v.06c.1-.97.71-1.55,1.26-2.12.19-.17.4-.4.57-.57.27-.19.52-.23.8-.23h.46c.13.02.29.04.38.04Zm-1.28,7.56c-.31.19-.42.44-.42.71,0,.31.19.65.46.86.23.06.34.1.46.15h-.02l.61.19h-.02c.23.04.46.06.73.06.78,0,1.62-.4,2.31-.99l.15-.08h.02c.15-.06.38-.21.38-.21.02-.1.02-.21.04-.27.04-.13.06-.27.06-.46.21-.25.31-.52.31-.71,0-.21-.08-.38-.27-.42-.13-.04-.23-.06-.4-.06-.29,0-.69.1-1.05.19l.02-.02c-.21.06-.42.1-.63.15-.06.02-.1.04-.15.08-.21.17-.38.25-.61.27-.29.1-.5.13-.78.17-.42.08-.88.15-1.22.38v.02Z"/>
        <path class="cls-3" d="m239.06,958.47c-.1,0-.17-.06-.17-.27.82.19,1.45.34,1.89.4.02.02.06.06.1.08l.19.19c.44.48.92,1.05.92,1.7,0,.31-.08.63-.34.99-.19.88-.21,1.81-.21,2.77,0,.25.02.52.02.82v.8c0,.78-.04,1.53-.13,2.25.1-.08.17-.19.55-.31h.13c.38-.27.61-.63.69-.99.08-.29.4-.59.65-.59h.04l.17-.06v.02c.04-.67.48-1.03.94-1.34h-.02c.08-.06.21-.13.31-.19,0-.1-.31-.27-.65-.34,0-1.13.67-1.53,1.47-1.53.31,0,.61.04.9.15.44-.31.97-.5,1.49-.5.57,0,1.03.25,1.36.84v.13c.04.08.04.13.04.21,0,.44-.34.99-.73,1.26-.29.1-.52.1-.8.1h-.42c-.29,0-.55.04-.78.19-.04.06-.13.17-.21.29-.25.38-.55.78-1.2.86-.19,0-.4.25-.48.57v-.02c-.02.08-.04.23-.04.34,0,.55.4,1.07.92,1.39v-.02c.73.42,1.05,1.26,1.18,2.18.06.15.17.19.31.25.15.08.21.08.46.34.08.19.15.31.19.36.23.04.55.06.78.06.38,0,.73-.02,1.13.17l-.02-.02c.31.13.55.48.55.78,0,.13-.04.27-.08.4-.27.4-.57.52-.88.69-.06.04-.13.1-.15.13-.44,0-.86-.04-1.13-.1-.29-.04-.65-.1-.8-.1-.08,0-.34.04-.57.08-.1-.17-.17-.23-.17-.25-.04.02-.1.02-.17.02h.02c-.17.04-.36.08-.59.08-.55,0-.92-.55-.92-1.03,0-.15,0-.19.04-.4.23-.21.55-.4.71-.48l.25-.1s.02-.1.06-.15v-.04c-.08-.08-.29-.21-.44-.31h.02c-.19-.1-.38-.23-.55-.4-.19-.36-.15-.57-.15-.82,0-.17,0-.34-.06-.42-.29-.38-.76-.82-1.18-1.2h-.04c-.25.15-.52.31-.8.44-.5.25-.99.52-1.26,1.01v-.02c-.13.21-.19.48-.19.73,0,.17.04.34.1.52v-.02c.06.21.29.36.55.5h-.02c.31.19.65.4.84.73.15.25.15.4.15.59,0,.38-.19.67-.57.82-.08.04-.21.08-.29.08-.27,0-.5-.13-.76-.25l-.1-.06c-.06-.02-.19-.02-.29-.02-.19,0-.48.06-.78.13l.02-.02s-.06.02-.1.02l-.08.08s-.06.04-.29.36c-.92,0-1.34-.65-1.34-1.01-.02,0-.04-.08-.06-.15,0-.13-.02-.29-.02-.52,0-.69.31-1.34,1.11-1.62h-.02c.27-.1.4-.44.5-.73.06-.15.13-.34.19-.44-.04-.23-.15-.46-.21-.65h.02c-.06-.13-.1-.34-.17-.55v-.65l.06-.48c.04-.4.08-.76.08-1.09s-.06-.69-.13-1.05c-.04-.17-.04-.23-.04-.34,0-.27.08-.52.17-.78v.02c.04-.13.06-.17.08-.27.04-.27.08-.63.08-.8,0-.4-.08-.71-.19-1.05-.23-.67-1.18-1.11-2.18-1.39,0-.86.38-1.13.71-1.39.15-.1.25-.19.31-.29.1-.19.31-.25.46-.27Zm1.66.08c-.46-.08-.88-.19-.82-.19.27.02.57.06.82.19Zm0,0c.82.19,1.78.4.06.04-.02-.02-.04-.02-.06-.04Zm5.27,12.87l.23-.21c-.17,0-.23.13-.23.21Z"/>
        <path class="cls-3" d="m256.68,962.2c.25,0,.44.02.61.02l.57.19c.19.06.4.17.61.21.08.04.19.13.27.17,1.13.76,2.48,1.66,2.48,3.19,0,.04.1.19.19.27.19.38.19.61.19.9v.73l-.21.46c-.82.31-1.62.57-2.48.57h-.21c-.08,0-.19-.02-.27-.02h-.34c-.34,0-.71.08-1.03.15v-.02c-.29.08-.55.13-.8.13-.19,0-.42-.19-.61-.31-.06-.04,0,0-.04-.02-.48,0-1.05.04-1.55.29-.21.21-.31.46-.31.73,0,.13.08.38.15.48.21.17.36.34.55.57.13.15.21.31.36.4.34.1.44.15.63.25.23.15.48.25.71.31.15.06.42.1.67.1.19,0,.38-.02.63-.17.02,0,.15-.02.19-.02.19,0,.31.04.44.1.02.02.04.04.06.04.34-.19.67-.52.99-.86h-.02c.17-.19.44-.44.86-.8h.5c.48.29.67.63.67,1.01,0,.1,0,.17-.04.27v.04c-.13.44-.48.94-1.03,1.15h-.17c-.44.38-.97.67-1.45.8-.19.25-.19.08-.25.13-.06.02-.1.06-.15.1-.65.17-1.22.23-1.76.23-.38,0-.78-.02-1.26-.06-.04-.04-.21-.23-.23-.27-.06-.08-.13-.19-.21-.23h.04c-.76-.19-1.3-.67-1.81-1.15h.02c-.19-.15-.34-.29-.52-.44-.27-.27-.34-.55-.44-.9-.02-.13-.04-.25-.17-.57v-.61c-.13-.17-.21-.4-.23-.57-.13-.31-.17-.69-.17-.99,0-.13.02-.29.02-.46v-.42c0-.31.15-.52.29-.76.04-.06.1-.15.15-.21.02-.08.04-.21.04-.29v-.27c0-.1-.02-.23-.02-.34,0-.04.02-.08.02-.15v-.21c.19-.46.46-.71.73-1.01.13-.13.27-.29.42-.46.25-.27.57-.31.82-.31.17-.06.5-.27.65-.36.34-.23.65-.42,1.09-.57.42-.15.78-.19,1.15-.19Zm-.65,3.11c-.29.17-.59.25-.86.36-.48.19-.97.34-1.18.67,0,.21.15.4.36.55l-.02-.02c.25.15.65.17.94.17.17-.04.38-.06.55-.1.36-.08.65-.17,1.11-.17.23,0,.38.02.48.04.38.1,1.03.13,1.36.13.19-.1.42-.34.42-.57,0-.06-.02-.1-.04-.15-.04-.06-.1-.17-.13-.25,0-.02-.02-.06-.02-.06-.31-.13-.65-.31-.94-.5v.02c-.4-.25-.76-.5-1.18-.5h-.15c-.23.08-.21.1-.31.17-.08.06-.21.19-.4.23Z"/>
        <path class="cls-3" d="m265.88,961.99c.1,0,.21.02.31.02.23,0,.46-.02.71-.02h.59c.46,0,.8.19,1.11.31l-.02-.02c.1.04.08.04.31.13.23.17.44.42.59.61.04.1.04.21.19.29h.02l.06.02c.23,0,.52-.15.73-.31.67-.63,1.64-1.03,2.54-1.03.78,0,1.49.27,1.99.9,1.07.31,1.43,1.18,1.43,2.12,0,.48-.17,1.09-.42,1.66-.02,0-.38.17-.52.23h.02c-.4.19-.88.4-1.34.4-.19,0-.34-.04-.57-.17l.06.04c-.67-.25-.67-.84-.67-1.47,0-.19-.02-.4-.06-.63v.02c-.04-.19-.15-.29-.31-.29-.23,0-.52.15-.76.34-.19.08-.31.08-.44.08-.08,0-.17-.04-.25-.04-.08-.02-.06,0-.17,0-.04.02-.02.02-.04.04-.04.04-.17.13-.15.1-.06.19-.06.42-.06.61-.15.4-.4.52-.69.69-.06,0-.1.02-.17.08v.27c-.34.36-.46.69-.46,1.01,0,.25.08.61.34,1.03-.29.42-.48.9-.48,1.32,0,.31.06.59.21.78.27.04.57.1.92.19l-.02-.02c.52.1,1.05.21,1.45.21.15,0,.4-.04.8-.1.42.42.52.78.52,1.11,0,.25-.02.52-.23.76l.02-.02c-.23.36-.55.44-.84.48-.04,0-.1,0-.15.04-.38.08-.69.1-1.03.1-.38,0-.78-.02-1.15-.06s-.73-.06-1.09-.06c-.27,0-.5,0-.78.04h-1.15c-.17-.04-.29-.04-.44-.04s-.31.02-.52.06c-.23.04-.44.06-.71.06-.21,0-.44-.04-.61-.1-.5-.21-.82-.78-.82-1.26,0-.31.1-.65.38-.84.31-.23.67-.31,1.01-.31.36,0,.61.04.88.1s.63.13.88.15c.42-.21.65-.71.65-1.32,0-.06-.02-.15-.04-.23-.06-.13-.1-.25-.1-.44-.1-.65-.17-1.43-.23-2.14s-.13-1.47-.25-2.27l-.02.04s-.08-.04-.13-.08c-.19.06-.38.15-.8.15-.06-.08-.13-.15-.19-.15-.06-.04-.25-.17-.21-.13-.06-.02-.13-.02-.19-.04-.59-.1-1.11-.21-1.32-.82-.06-.21-.1-.48-.1-.67,0-.82.5-1.53,1.7-1.51h.29Z"/>
        <path class="cls-3" d="m278.96,965.56c-.61-.29-1.07-.9-1.07-1.81.34-1.01,1.3-1.85,2.33-1.85.38,0,.78.1,1.15.34.52.36.9,1.01.9,1.62,0,.34-.13.67-.42.94-.02.04-.02.06-.04.1v.06c-.17.38-.46.55-.8.67-.21,0-.31.02-.42.06-.25.04-.5.13-.86.13-.08-.02-.23-.08-.31-.13s-.17-.1-.27-.15h-.19Zm.78,4.72c.23-.06.25-.06.31-.06.08,0,.21.02.31.06t.06.02c.21-.06.5-.06.73-.06.19.1.57.4.57.67,0,.1.08.29.13.4.1.21.21.46.21.71,0,.1.02.19-.04.34-.1.44-.27,1.11-1.03,1.36-.17.04-.31.08-.5.17-.23.08-.48.15-.99.15-.21-.15-.31-.17-.42-.23-.29-.15-.57-.25-.71-.5l-.08-.17c-.13-.27-.25-.61-.25-1.05.08-.67.21-1.47,1.15-1.78h.34c.06,0,.19,0,.21-.02Z"/>
        <path class="cls-3" d="m152.16,987.72c.15,0,.29-.06.44-.13.21-.06.36-.17.63-.17.13,0,.31.02.42.13.36.21.76.34,1.09.34.29,0,.63-.1,1.11-.46.34.52.55.67.73.76.29.19.61.34.82.8.06.19.06.29.06.46,0,.13-.02.27-.02.4-.02.1-.02.17-.02.25.04.19.04.36.04.52,0,.13-.02.36-.02.5-.02.1-.02.19-.02.27.1.06.21.1.25.42.02.29.02.73.02,1.03.04.67.08,1.36.08,2.06,0,1.22-.1,2.65-.36,3.8-.02.19-.08.42-.13.59-.06.17-.1.31-.1.55l-.1.19v-.02c-.25.61-.5,1.18-1.09,1.78-.1,0-.15,0-.17.02-.06.02-.23.06-.23.06-.1.1-.06.13-.17.25-.21.23-.44.5-.78.61-.38.15-.69.17-1.05.17-.55,0-1.11-.1-1.62-.48l.02.02c-.13-.08-.25-.21-.4-.31-.38-.27-.8-.57-1.32-.86,0-.71-.08-1.09-.19-1.41v.02c-.08-.29-.15-.57-.21-.88.27-.27.27-.42.29-.55.08-.36.13-.63.61-.78h-.02c.36-.15.71-.25,1.09-.25.42,0,.78.13,1.09.44.15.13.25.31.25.55,0,.27-.15.48-.29.71v-.02c-.06.08-.15.17-.19.34-.27.29-.55.38-.8.46-.15.04-.36.13-.44.29v.04c0,.1.08.23.23.34.19.08.42.21.55.31.17.1.29.17.4.23.31,0,.55.04.78.08.21.04.4.06.55.06h.04c.13-.25.34-.5.65-.61,0,0,.02-.02.04-.02.06-.04.15-.06.27-.08.19-.27.17-.73.17-1.26,0-.02-.02-.04-.02-.08,0-.15.1-.4.19-.52v.02c.34-2.62.34-5.14.34-7.73-.13-.19-.19-.38-.25-.61-.06-.15-.1-.36-.23-.46-.23-.08-.36-.13-.44-.19,0,.02-.31-.17-.42-.23-.13.04-.29.13-.4.15-.25.13-.55.21-.94.21-.15-.08-.36-.15-.46-.15-.15.08-.4.15-.52.15-.63-.19-.4-.1-.52-.13-.34-.04-.65-.08-.8-.57,0-.06-.02-.15-.02-.23-.02-.08-.02-.23-.02-.34,0-.29.13-.63.46-.76.25,0,.42-.02.59-.04.15-.02.52-.04.48-.06Zm1.78-1.53c-.17-.25-.23-.48-.23-.73,0-.17.02-.29.04-.38.02-.06.02-.17.02-.21,0-.23.25-.55.25-.55.55-.34,1.15-.71,1.78-.71.36,0,.69.08,1.01.36.19.19.27.4.36.61l-.02-.02c.04.1.08.23.19.34.19.23.27.5.27.73,0,.92-1.15,1.55-2.06,1.55-.82,0-1.2-.46-1.6-.94l-.02-.04Zm.86,14.42s-.04,0-.04.02l.04-.02Zm2.58-9.24s-.04-.02-.06-.04c.02.02.04.04.06.04Z"/>
        <path class="cls-3" d="m163.81,987.78c.19-.02.36-.02.55-.02.8,0,1.49.15,1.93.8.13.19.19.42.19.69,0,.06-.02.17-.02.25-.02.08-.02.15-.02.23,0,.1-.02.02,0,.1.13.31.31.76.31,1.15,0,.23-.04.46-.17.69,0,.15.02.27.04.38.02.21.06.73.08.67,0,.06-.02.15-.06.34-.13.15-.15.21-.21.29s-.06.13-.13.19c-.02.1-.02.23-.02.31,0,.15.02.21.02.36.02.13.02.31.02.5,0,.25-.06.55-.15.9,0-.02.02.06.04.15.04.08.1.17.13.31.02.04.04.06.06.1.15.23.31.5.52.61.21,0,.46,0,.71-.17.38,0,.57.06.8.15.13.04.36.13.38.13.06-.02.13-.04.17-.06.19-.1.36-.19.59-.19.15,0,.31,0,.5.19.36.19.48.52.48.86,0,.4-.23.69-.38.9-.55.38-1.05.52-1.55.52-.38,0-.67-.06-.97-.13h.04s-.1-.02-.13-.02c-.63-.06-1.22-.06-1.83-.06-1.15,0-2.29,0-3.49-.27-.27.15-.5.15-.82.15-.08,0-.27-.02-.4-.02-.1-.02-.29-.02-.46-.02,0,0-.1-.13-.21-.13-.27-.27-.38-.57-.38-.76,0-.48.4-.99.84-1.07.69-.21,1.3-.23,1.91-.23.4,0,.8.02,1.15.04,0,0,.04,0,.06.02-.04-.04.02-.1.1-.19l.02-.02c0-.78.04-1.57.25-2.29-.02-.08-.04-.17-.06-.29,0-.02-.02-.06-.08-.13v-1.43c.13-.25.15-.5.15-.73,0-.4-.06-.78-.21-1.13-.08-.31-.42-.4-.76-.48l.02.02c-.19-.04-.42-.1-.59-.19h.02s-.06-.02-.06-.02c-.1,0-.21.02-.29.04-.23.04-.4.13-.84.13-.48-.25-.71-.71-.71-1.15,0-.4.15-.73.48-.94.27-.04.5-.08.73-.08.19,0,.4,0,.59.02s.42.02.57.02h.5Zm-.5-2.02c0-.23.06-.42.15-.61.06-.19.17-.34.17-.78.59-.36,1.3-.69,1.89-.69.5,0,1.03.21,1.36.69.15.36.29.71.29,1.03,0,.76-.46,1.51-1.15,1.93-.17.08-.36.1-.48.1-.5,0-.88-.29-1.32-.67-.15-.02-.34-.1-.59-.36-.21-.21-.31-.44-.31-.65Zm2.88,9.87s0,.08-.04.13c0-.04.02-.08.04-.13Z"/>
        <path class="cls-3" d="m172.93,987.74c.29-.15.55-.17.8-.17.44,0,.73.06,1.05.13.55.27.94.82.94,1.36,0,.1,0,.19-.04.31,0,.06-.02.15-.02.17-.23.29-.4.61-.4.86,0,.13.04.25.13.36.38.76.48,1.55.48,2.48,0,.02.08.02.15.02-.04.04.02.44-.02.48-.08.13-.29.31-.34.42v.02c.17.29.29.59.55.76.04.04.08.04.1.04,0,0,.04-.02.1-.08v-.27q.1-.1.1-.13c.08-.21.31-.46.82-.8.38.73.48,1.24.48,1.68,0,.48-.1,1.01-.25,1.53-.06.19-.13.5-.17.8-.02.36-.27.9-.57,1.22-.25.13-.44.23-.67.23-.44,0-.78-.21-.99-.52-.55-.88-.55-1.62-.55-2.54,0-.02-.1-.15-.17-.23-.17-.29-.21-.52-.21-.76v-.31c0-.08.02-.19.02-.31v-.13c-.5-.71-.73-1.49-.86-2.31-.1-.21-.19-.44-.36-.8,0-.06,0-.17.04-.29v.02s.02-.08.02-.13c0,.02.04.06.1.08-.15-.21-.34-.42-.55-.61-.4-.42-.78-.84-.78-1.45,0-.1.02-.31.06-.46v-.04c.23-.52.52-.59.82-.61.04-.02.13-.02.13-.02h.02Zm4.58,2.86c.17-.46.48-.65.82-.65.08,0,.23.02.38.08.25.19.38.52.46.76.04.13.08.25.13.31h.17c.27.04.52,0,.71.5,0,.29-.06.55-.15.73-.04.13-.08.25-.08.38.04.08.06.17.08.23.02.1.04.15.08.19.15.21.19.5.19.78v.25c0,.1-.02.19-.02.25,0,.15.04.29.08.38.13.13.21.17.31.19.19-.06.44-.08.65-.1-.1-.23-.15-.46-.15-.69,0-.13,0-.31.02-.44.02-.08.02-.21.02-.29v-.15c-.06-.1-.08-.21-.15-.31-.21-.44-.46-.84-.46-1.7.48-.19,1.09-.55,1.09-.88,0-.04,0-.08-.02-.1-.17-.31-.38-.52-.61-.73v.02l-.36-.36v-.59c.23-.23.36-.36.67-.52l.06-.04c.1-.04.21-.13.31-.21.21-.15.4-.29.67-.29.63,0,1.32.15,1.91.57.29.21.4.38.4.69,0,.42-.36.69-.76.94v-.02c-.21.15-.38.23-.48.38-.1.25-.1.57-.1.88,0,.42,0,.82-.15,1.2-.08.08-.08.1-.13.17-.08.13-.15.23-.21.31,0,.06,0,.17-.02.23-.06.5-.19,1.01-.48,1.45,0,.02-.02.08-.04.13l.02-.02c-.02.1-.06.5-.06.27-.04.25-.27.48-.52.48h-.04c.17.46.29.92.29,1.32,0,.73-.29,1.53-.92,2.25-.84-.17-1.28-.63-1.76-1.09v-.55c-.17-.34-.36-.69-.36-1.09,0-.06-.02-.13.02-.25v-1.53s-.04-.06-.15-.1l.02.02s-.15-.02-.27-.04c-.38-.06-.86-.15-1.11-.63-.1-.23-.15-.59-.17-.84-.02-.23-.02-.5-.25-.78,0-.55.17-.86.29-1.15.04-.06.08-.13.13-.21l-.02.04Z"/>
        <path class="cls-3" d="m188.28,989.19c.57-.9,1.64-1.03,2.6-1.2.15-.02.29-.06.44-.08.06,0,.15-.02.21-.02.15-.02.36-.04.57-.04,1.3,0,2.41.67,3.51,1.36.67.42.94,1.01,1.18,1.55.08.23.15.4.21.52.08.21.17.36.17.67,0,.25-.02.46-.1.69l-.1.5c0,.13-.04.02,0,.13.21.25.23.44.23.67v.21c0,.08-.02.25-.02.34-.08.27-.21.61-.29.9-.13.29-.25.57-.31.92-.13.4-.4.78-.65,1.15-.23.59-.82.86-1.41,1.15-.15.08-.29.15-.44.21-.15.1-.36.15-.5.17-.13.02-.25.04-.38.15-.29,0-.67,0-.97-.15-.08,0-.15.02-.23.06-.19.06-.34.1-.5.1-.06,0-.08-.02-.13-.02h-.25c-.06-.06-.23-.23-.27-.25-.25.1-.5.17-.71.17-.5,0-.88-.23-1.36-.5-.44-.44-.88-1.01-1.09-1.39-.15-.34-.19-.4-.25-.5-.21-.4-.4-.78-.48-1.22-.15-.4-.19-.82-.19-1.24,0-.23.02-.57.04-.82.02-.23.04-.48.04-.71,0-.1-.02-.23-.04-.4v-.27c.38-.48.48-.97.59-1.43h-.02c.02-.1.04-.27.06-.38.17-.23.34-.42.5-.59.15-.15.29-.29.38-.42v-.02Zm1.01,3c-.21.44-.42.92-.76,1.32v.06s.06.13.08.23v-.04s.08.13.04.13c.17.21.21.36.21.57v.15c0,.06-.02.1-.02.17.34.61.61,1.28,1.22,1.68.1.02.21.06.25.1.02.02.06.02.1.02l.42.31c.27.23.57.44.76.44.06,0,.15-.02.23-.1.57-.44,1.09-.55,1.76-.65.31,0,.61-.31.61-.59.08-.38.19-.65.29-.9.13-.29.23-.55.23-.8,0-.06-.02-.17-.04-.27v-.88c0-.15.02-.21.04-.27-.04-.15-.08-.29-.13-.42-.08-.27-.17-.57-.52-.82v-.27c-.13-.15-.19-.25-.31-.38-.21-.25-.42-.52-.76-.73h-.1c-.21,0-.42.17-.67.42-.15.15-.31.15-.46.15-.36,0-.61-.27-.8-.52h-.06c-.1.08-.29.21-.38.27-.23.15-.44.31-.61.55-.31.36-.46.71-.63,1.09Zm5.54.55s.06-.04.1-.08c-.04.02-.08.04-.1.08Z"/>
        <path class="cls-3" d="m203.65,988.45c.29.13.61.25.86.25.06,0,.19-.02.31-.04.06-.04.17-.1.25-.15.15-.1.31-.21.55-.29.15-.08.29-.17.5-.17.1,0,.17,0,.25.04.06-.02.13-.04.17-.08.23-.15.46-.31.94-.31.5.08.99.23,1.49.57.04.04.17.13.27.21.23.13.46.27.67.61.06.17.08.19.1.21.08.13.08.08.29.52.04.27.1.5.19.78.06.21.17.63.21.86-.29.31-.36.52-.36.73,0,.1.02.34.04.48s.06.1.06.61c0,.25-.02.29-.04.42-.08.15-.17.36-.17.48,0,.02.02.06.06.15,0,.65-.06.99-.1,1.3-.04.23-.06.44-.06.61,0,.1,0,.23.04.34l-.02-.02c.15.31.82.48,1.32.61.34.17.73.38.73.97,0,.27-.13.4-.29.48.1-.04.17-.06.17-.02-.15.08-.52.27-.69.34-.1.06-.36.19-.42.23-.88,0-1.62-.17-2.31-.31-.19-.04-.29-.04-.46-.08-.1,0-.29.04-.44.08-.23.06-.4.17-.8.17-.36-.15-.73-.59-.73-1.03,0-.15.02-.21.04-.27v-.08c.06-.06.13-.15.15-.21.1-.19.17-.38.55-.5.36,0,.57.06.76.13.1.04.21.08.29.1.36-.25.71-.61.88-1.01-.02-.15-.08-.29-.13-.4-.13-.23-.25-.5-.25-.84,0-.17-.06-.38-.13-.59-.1-.27-.17-.57-.17-.82,0-.21.04-.4.15-.57v-.06c.02-.1-.08-.29.06-.29-.1-.27-.1-.5-.13-.76v.02c-.02-.23,0-.44-.15-.82v.08s-.02-.1-.04-.17c-.15-.31-.4-.76-.71-.9-.04-.02-.15-.04-.21-.04-.29,0-.61.29-.92.59l-.23.23s-.31.19-.4.23c-.21.13-.48.31-.67.52-.13.23-.29.36-.5.57s-.42.42-.46.59c-.15.52-.15.88-.15,1.24,0,.44,0,.82-.17,1.32-.04.19-.15.31-.23.44-.08.1-.15.17-.15.21.19.5.55.99,1.09,1.07.48.04.76.61.76,1.13,0,.34-.27.63-.65.63-.46,0-.92.04-1.41.08-.46.04-.84.1-1.39.1-.67,0-1.41-.15-2.14-.46l.02.02c-.29-.1-.4-.31-.4-.59,0-.25.27-.63.5-.76.1-.04.25-.06.34-.1.38-.1.78-.23,1.15-.25.21-.1.34-.27.4-.48,0-.21-.04-.42-.08-.55-.02-.23-.1-.27-.1-.67.29-.71.34-1.47.34-2.18,0-.19-.02-.38-.02-.59v-.36c-.13-.08-.23-.15-.23-.31-.1-.25-.1-.46-.13-.71v-.02c-.02-.23-.06-.48-.17-.59-.08-.02-.27-.08-.4-.1-.52-.13-1.03-.25-1.3-.78-.06-.13-.13-.23-.13-.44,0-.48.38-.88.76-1.2.4-.13.8-.15,1.18-.15.55,0,1.09.1,1.57.42.06.02.08.04.13.06l.65.31-.02-.02Zm4.56,2.65s0,.02-.02,0h.02Z"/>
        <path class="cls-3" d="m80.74,1018.97c-.25-.44-.29-.88-.29-1.32,0-.61.17-1.26.31-1.89.06-.23.1-.52.15-.69.02-.29.17-.61.29-.84l.02-.02s.02-.06.04-.06v-.48c.04-.08.17-.27.23-.36.1-.21.17-.31.25-.46v-.52c.48-.61.9-.9,1.36-1.26.17-.13.29-.23.46-.36.55-.5,1.18-.88,1.99-1.03l-.04.02c.08-.02.23-.15.36-.25.17-.13.4-.29.59-.38.44-.06.9-.06,1.36-.06.4,0,.78,0,1.34-.06.38.23.69.44.94.65.29.23.65.46.92.59.86.38,1.85,1.05,2.62,1.72,0,.4,0,.5-.02.67-.02.13-.02.27-.02.38,0,.27.04.5.15.78.1.34.27.82.27,1.26,0,.1-.02.25-.06.42-.21.19-.27.38-.27.59,0,.08.02.23.06.4,0,.02.02.13.02.15,0,.55-.27.94-.48,1.32-.04.08-.08.15-.13.21,0,.04-.04.34-.06.44-.02.27-.06.59-.19.84-.1.19-.25.34-.36.52-.46.76-.92,1.53-.92,2.77-.65.8-1.51.92-2.16,1.05h-.04c-.86.36-1.83.55-2.75.55-.57,0-1.15-.1-1.7-.29-1.26-.52-2.44-1.55-3.42-2.5-.4-.57-.57-1.32-.57-1.95-.02-.06-.04-.13-.08-.19-.08-.08-.15-.23-.21-.36l.02.02Zm2.16-.38c-.15.15-.19.31-.19.52,0,.13,0,.25.02.36.17.25.27.55.34.82.1.31.19.63.42.84h-.02c.59.5,1.28.82,1.99,1.15h-.02c.23.1.48.23.71.34h-.04c.06.02.1.02.25.04.17.04.4.08.63.15.78,0,1.36-.27,1.97-.52v.02c.27-.13.44-.19.67-.27.23-.13.4-.38.5-.63l-.02.08s.02-.04.02-.06q.02-.06.02-.1s-.02-.1-.04-.13c-.15-.04-.27-.04-.44-.08-.42-.06-.84-.17-1.15-.17-.1,0-.21,0-.36.02h-.94c-.36-.13-.71-.19-1.05-.25-.36-.04-.71-.1-1.05-.23-.34-.19-.69-.52-.84-.86-.17-.63-.23-1.26-.23-1.91,0-.61.04-1.22.08-1.81.06-.61.13-1.22.13-1.81,0-.21.5-.73.76-.73.46,0,.73-.29,1.07-.63l.27-.27c.08-.04.17-.08.34-.08.19,0,.27.02.38.08h-.02s.1.04.19.06c.08-.1.19-.19.34-.23.1-.02.25-.02.42-.02.4,0,.73.06,1.07.13s.61.15,1.15.15c.63.69.84,1.47.84,2.25,0,.4-.02.78-.15,1.18,0,.23-.06.34-.15.52-.04.13-.08.25-.08.36-.06.25-.21.63-.31.97-.08.34-.21.65-.27,1.01.02.04.1.13.15.17h.08c.55-.27.86-.86,1.15-1.43.17-.29.44-.76.65-1.03.04-.1.06-.23.06-.27v-.04c-.15-.31-.19-.71-.21-1.03,0-.15,0-.27-.04-.44-.23-.5-.4-1.05-.48-1.49v.02c-.08-.36-.27-.67-.48-1.03-.13-.08-.27-.23-.38-.36-.23-.1-.48-.19-.8-.25-.36-.08-.78-.19-1.22-.44l-.13-.13c-.36.04-.63.17-.88.34-.17.1-.38.21-.59.29-.34.17-.65.19-.94.19l-.19.19c-.15.15-.25.23-.5.4h-.23c-.17.13-.27.31-.4.5-.08.08-.15.19-.4.48-.31.21-.76.52-.84.78v-.02c-.08.23-.1.52-.1.78,0,.34,0,.69-.15,1.09-.17.21-.21.42-.21.59,0,.23.04.44.1.67.04.17.15.55.15.55,0,.25-.1.42-.27.61l.04-.06-.06.06-.08.08Zm2.48-1.32h.02v.04c.23.38.29.73.31,1.13.02.15.06.31.06.5l-.02-.02c.13.42.61.57,1.07.57.17,0,.17.02.27,0,.02-.02.08-.04.1-.06l-.02.02c.1-.08.19-.15.23-.23.15-.34.34-.63.48-.92l.02-.02c.21-.36.34-.57.52-.97v-.59c.23-.34.42-.42.57-.57.1-.08.21-.17.29-.25v-.19l-.29-.29c-.29-.31-.65-.67-1.07-.97-.13-.02-.27-.04-.4-.04-.27,0-.55.1-.73.38-.1.34-.36.5-.61.65-.08.04-.21.13-.19.1l-.19.63c-.1.36-.21.67-.44,1.09Z"/>
        <path class="cls-3" d="m96.78,1014.96c-.38-.17-.55-.61-.55-.99,0-.17.02-.36.13-.61.59-.38,1.24-.38,1.76-.38.29,0,.59.21.8.38.08.06.25.19.21.15.15.04.31.08.44.08s.27-.04.4-.08c.08-.06.13-.1.23-.15.06-.04.13-.08.29-.25.06,0,.27-.02.34-.02h.17c.15,0,.31.04.44.13l.1-.1c.63,0,.97.19,1.3.38.13.1.34.19.48.23.61-.02,1.36-.36,1.95-.82.06,0,.06-.02.08-.04.1-.08.04-.15.52-.15l.19.19v-.02c.19.19.44.38.65.48.46.02,1.05.25,1.26.86.02.23.04.42.04.61.02.31.02.55.15.8.17.29.19.61.19.9,0,.19-.02.36-.02.5-.02.17-.04.34-.04.46,0,.06,0,.1.04.46-.42.44-.52.92-.52,1.43,0,.17,0,.36.02.57.02.19.02.4.02.63,0,.21.08.42.15.59l.02.02c.1.23.17.42.19.67.06.04.17.17.25.21.13.08.25.13.38.27.19.19.23.44.23.67,0,.1.02.15,0,.27,0,.06-.02.15-.02.21-.17.61-.52.65-.88.65h-.52s-.1,0-.21.04c-.1.02-.19.04-.36.04-.38,0-.65-.1-.97-.23-.17-.06-.36-.1-.55-.15-.23-.08-.46-.42-.46-.78,0-.1,0-.17.04-.38.27-.44.59-.63.84-.82.19-.1.38-.25.5-.44,0-.13,0-.34.08-.52-.02-.15-.06-.38-.08-.52-.04-.15-.08-.38-.08-.61s.1-.52.23-.73v-.02c0-.13-.13-.34-.25-.46-.13-.29-.17-.57-.17-.82v-.36c0-.1.02-.23.02-.36v-.27c-.06-.15-.13-.38-.21-.55l.02.02c-.1-.21-.21-.46-.27-.67-.23-.23-.55-.38-.82-.38h-.04c-.38.25-.8.38-1.18.5-.06.06-.13.17-.13.23,0,.23.08.5.19.76.04.08.06.15.13.48-.34.67-.42,1.36-.42,2.02,0,.42.04.88.06,1.36.04.48.08.94.08,1.47,0-.02.08.06.15.1.17.17.36.36.36.63,0,.88-.71,1.01-1.43,1.01-.17,0-.34-.02-.5-.02h-.4c-.48,0-.55-.25-.55-.63,0-.06.02-.15.02-.19v-.27c.19-.38.42-.69.65-.97l-.02.02c.1-.15.19-.25.29-.4.04-.06.06-.15.06-.25,0-.17-.06-.38-.13-.59v-.02c-.15-.48-.21-.99-.21-1.49,0-.29.02-.63.04-.92.02-.31.04-.55.04-.86-.02-.13-.04-.29-.04-.5,0-.13,0-.29.02-.4s.02-.23.02-.31c0-.15-.02-.34-.1-.48-.06-.23-.31-.27-.61-.27s-.63.04-.88.15c-.17.17-.25.52-.25.76-.17.4-.31.59-.5.82s-.4.5-.46.82c-.02.25-.1.34-.19.46-.02.02-.02.04-.02.04.13.71.21,1.36.21,2.27-.23.25-.34.42-.34.55,0,.34.27.71.57,1.07.08.15.38.55.36.48.08.17.17.42.17.67,0,.29-.27.59-.55.59-.04,0-.08.02-.13.02h.06c-.36.08-.67.13-1.13.13-.17,0-.34,0-.55-.06-.08-.02-.17-.06-.25-.08-.27-.08-.57-.08-.76-.52-.08-.19-.08-.29-.08-.38,0-.5.36-.78.71-1.09l.15-.1c.04-.13.06-.29.06-.42,0-.1-.02-.31-.04-.46-.02-.17-.04-.29-.04-.48,0-.29.02-.29.04-.42l.1-.21c.1-.21.21-.42.23-.63-.19-.52-.23-1.01-.23-1.55v-.46c0-.15.02-.31.02-.46,0-.38-.02-.8-.13-1.22,0-.13-.36-.29-.73-.48h.02Zm3.04,7.62v-.02.02Z"/>
        <path class="cls-3" d="m112.83,1014.39c.57-.9,1.64-1.03,2.6-1.2.15-.02.29-.06.44-.08.06,0,.15-.02.21-.02.15-.02.36-.04.57-.04,1.3,0,2.41.67,3.51,1.36.67.42.94,1.01,1.18,1.55.08.23.15.4.21.52.08.21.17.36.17.67,0,.25-.02.46-.1.69l-.1.5c0,.13-.04.02,0,.13.21.25.23.44.23.67v.21c0,.08-.02.25-.02.34-.08.27-.21.61-.29.9-.13.29-.25.57-.31.92-.13.4-.4.78-.65,1.15-.23.59-.82.86-1.41,1.15-.15.08-.29.15-.44.21-.15.1-.36.15-.5.17-.13.02-.25.04-.38.15-.29,0-.67,0-.97-.15-.08,0-.15.02-.23.06-.19.06-.34.1-.5.1-.06,0-.08-.02-.13-.02h-.25c-.06-.06-.23-.23-.27-.25-.25.1-.5.17-.71.17-.5,0-.88-.23-1.36-.5-.44-.44-.88-1.01-1.09-1.39-.15-.34-.19-.4-.25-.5-.21-.4-.4-.78-.48-1.22-.15-.4-.19-.82-.19-1.24,0-.23.02-.57.04-.82.02-.23.04-.48.04-.71,0-.1-.02-.23-.04-.4v-.27c.38-.48.48-.97.59-1.43h-.02c.02-.1.04-.27.06-.38.17-.23.34-.42.5-.59.15-.15.29-.29.38-.42v-.02Zm1.01,3c-.21.44-.42.92-.76,1.32v.06s.06.13.08.23v-.04s.08.13.04.13c.17.21.21.36.21.57v.15c0,.06-.02.1-.02.17.34.61.61,1.28,1.22,1.68.1.02.21.06.25.1.02.02.06.02.1.02l.42.31c.27.23.57.44.76.44.06,0,.15-.02.23-.1.57-.44,1.09-.55,1.76-.65.31,0,.61-.31.61-.59.08-.38.19-.65.29-.9.13-.29.23-.55.23-.8,0-.06-.02-.17-.04-.27v-.88c0-.15.02-.21.04-.27-.04-.15-.08-.29-.13-.42-.08-.27-.17-.57-.52-.82v-.27c-.13-.15-.19-.25-.31-.38-.21-.25-.42-.52-.76-.73h-.1c-.21,0-.42.17-.67.42-.15.15-.31.15-.46.15-.36,0-.61-.27-.8-.52h-.06c-.1.08-.29.21-.38.27-.23.15-.44.31-.61.55-.31.36-.46.71-.63,1.09Zm5.54.55s.06-.04.1-.08c-.04.02-.08.04-.1.08Z"/>
        <path class="cls-3" d="m128.2,1013.65c.29.13.61.25.86.25.06,0,.19-.02.31-.04.06-.04.17-.1.25-.15.15-.1.31-.21.55-.29.15-.08.29-.17.5-.17.1,0,.17,0,.25.04.06-.02.13-.04.17-.08.23-.15.46-.31.94-.31.5.08.99.23,1.49.57.04.04.17.13.27.21.23.13.46.27.67.61.06.17.08.19.1.21.08.13.08.08.29.52.04.27.1.5.19.78.06.21.17.63.21.86-.29.31-.36.52-.36.73,0,.1.02.34.04.48s.06.1.06.61c0,.25-.02.29-.04.42-.08.15-.17.36-.17.48,0,.02.02.06.06.15,0,.65-.06.99-.1,1.3-.04.23-.06.44-.06.61,0,.1,0,.23.04.34l-.02-.02c.15.31.82.48,1.32.61.34.17.73.38.73.97,0,.27-.13.4-.29.48.1-.04.17-.06.17-.02-.15.08-.52.27-.69.34-.1.06-.36.19-.42.23-.88,0-1.62-.17-2.31-.31-.19-.04-.29-.04-.46-.08-.1,0-.29.04-.44.08-.23.06-.4.17-.8.17-.36-.15-.73-.59-.73-1.03,0-.15.02-.21.04-.27v-.08c.06-.06.13-.15.15-.21.1-.19.17-.38.55-.5.36,0,.57.06.76.13.1.04.21.08.29.1.36-.25.71-.61.88-1.01-.02-.15-.08-.29-.13-.4-.13-.23-.25-.5-.25-.84,0-.17-.06-.38-.13-.59-.1-.27-.17-.57-.17-.82,0-.21.04-.4.15-.57v-.06c.02-.1-.08-.29.06-.29-.1-.27-.1-.5-.13-.76v.02c-.02-.23,0-.44-.15-.82v.08s-.02-.1-.04-.17c-.15-.31-.4-.76-.71-.9-.04-.02-.15-.04-.21-.04-.29,0-.61.29-.92.59l-.23.23s-.31.19-.4.23c-.21.13-.48.31-.67.52-.13.23-.29.36-.5.57s-.42.42-.46.59c-.15.52-.15.88-.15,1.24,0,.44,0,.82-.17,1.32-.04.19-.15.31-.23.44-.08.1-.15.17-.15.21.19.5.55.99,1.09,1.07.48.04.76.61.76,1.13,0,.34-.27.63-.65.63-.46,0-.92.04-1.41.08-.46.04-.84.1-1.39.1-.67,0-1.41-.15-2.14-.46l.02.02c-.29-.1-.4-.31-.4-.59,0-.25.27-.63.5-.76.1-.04.25-.06.34-.1.38-.1.78-.23,1.15-.25.21-.1.34-.27.4-.48,0-.21-.04-.42-.08-.55-.02-.23-.1-.27-.1-.67.29-.71.34-1.47.34-2.18,0-.19-.02-.38-.02-.59v-.36c-.13-.08-.23-.15-.23-.31-.1-.25-.1-.46-.13-.71v-.02c-.02-.23-.06-.48-.17-.59-.08-.02-.27-.08-.4-.1-.52-.13-1.03-.25-1.3-.78-.06-.13-.13-.23-.13-.44,0-.48.38-.88.76-1.2.4-.13.8-.15,1.18-.15.55,0,1.09.1,1.57.42.06.02.08.04.13.06l.65.31-.02-.02Zm4.56,2.65s0,.02-.02,0h.02Z"/>
        <path class="cls-3" d="m140.21,1014.24s.13-.13.17-.15c.44-1.09,1.49-1.43,2.5-1.43.4,0,.73.02,1.07.13.15.04.31.06.46.1.4.08.73.19,1.13.21.08-.15.1-.31.1-.52,0-.34-.08-.73-.17-1.15,0-.23-.13-.4-.27-.5l-.38-.06c-.65-.08-1.28-.19-1.51-.84t.02.04c-.08-.15-.08-.21-.08-.29,0-.44.36-.67.73-.86l-.02.02c.1-.06.13-.06.21-.13.17-.17.4-.19.48-.19.15,0,.36.06.57.13.1.04.19.08.36.08.17-.04.4-.08.59-.08.88,0,1.81.5,2.02,1.47,0,.13.02.31.02.44v.34c0,.42-.02.78-.27,1.13,0,.06.04.17.1.29.04.08.1.21.15.34,0,1.05-.04,2.2-.08,3.3-.04,1.05-.1,2.23-.1,3.28,0,.71.02,1.45.08,2.18,0,.21.29.29.63.36.21.06.4.13.57.19.29.19.36.44.36.69,0,.38-.21.67-.44.84-.36.08-.67.1-.88.1-.23,0-.46-.04-.71-.08-.27-.06-.57-.23-.76-.34-.25-.15-.46-.29-.67-.29-.06,0-.04-.02-.15,0l-.02.02c-.29.25-.65.52-1.13.52-.08,0-.19,0-.27-.04h-.04c-.36.4-.86.55-1.36.55-.61,0-1.26-.27-1.78-.67l-.23-.08c-.06,0-.17-.02-.25-.02-.4-.46-.82-.76-1.22-1.07-.1-.06-.27-.19-.36-.25-.38-.4-.4-.9-.4-1.49,0-.19.02-.34-.02-.55-.02-.04-.04-.1-.06-.13s-.06-.06-.19-.15c-.04-.17-.06-.36-.06-.59,0-.17.02-.38.04-.52s.04-.38.04-.5,0-.23-.04-.38c0-.31.13-.4.23-.57l.02-.02c.13-.31.13-.55.13-.78,0-.34,0-.69.17-1.05l.78-.76c.06-.06.17-.17.23-.21Zm1.09,2.14c0,.34-.04.69-.21,1.01-.02.04-.06.17-.08.19-.04.15-.06.25-.13.34.1.21.1.46.1.61.02.13.04.27.06.38.1.82.19,1.51.78,2.18.15.23.42.31.82.31.29.13.44.34.55.48,0,.04.04.08.06.13.65-.04,1.09-.5,1.62-.94.21-.21.27-.29.5-.44v-.1c.1-.44.38-.57.65-.78h-.02c.08-.06.13-.1.19-.15.02-.04.04-.13.04-.17.04-.06.13-.21.06-.17-.04-.13-.13-.29-.21-.48,0-.4.06-.61.15-.84.04-.1.08-.17.08-.27-.06-.13-.19-.27-.34-.42-.15-.17-.27-.29-.27-.29-.21-.36-.25-.63-.25-.9v-.36c0-.13.02-.13.02-.27-.02-.02-.04-.06-.06-.08-.02-.06-.08-.15-.08-.15h.04s-.29-.17-.4-.23t-.13-.08c-.13,0-.25,0-.42-.1-.13,0-.27,0-.38-.02-.13,0-.25-.02-.4-.02-.25,0-.48.06-.76.13h.02c-.25.1-.48.17-.73.25-.1.04-.13.04-.25.08-.06.04-.13.1-.19.15l.02-.02c-.17.15-.36.31-.4.48-.06.17-.06.38-.06.59Z"/>
        <path class="cls-3" d="m155.75,1012.67h.17s.15-.04.21-.04c.19-.04.4-.13.57-.13.13,0,.19-.02.31.06.19.02.42.02.63.04.88.04,1.78.15,2.54.55.67.4,1.32,1.11,1.78,1.97-.15,1.18-.17,2.25-.17,3.23v1.45c0,.5.02.99.02,1.49,0,.1.04.15.19.19.31-.23.8-.44,1.55-.44.44.21.63.46.63.8-.29.88-.82,1.43-1.49,1.95-.29.13-.73.29-1.24.29-.36-.13-.55-.36-.71-.59l.02.02c-.08-.15-.19-.25-.31-.34h.02c-.21-.13-.46-.19-.71-.19-.73,0-1.45.46-1.97,1.05-.1.02-.4.08-.52.1-.31.06-.73.1-1.09.1-.44,0-.97-.15-1.41-.36-.15-.06-.23-.08-.38-.15-.73-.27-1.57-.59-2.12-1.36-.34-.52-.48-1.01-.48-1.51,0-.9.4-1.76,1.09-2.35l.25-.17c.21-.15.36-.29.73-.31.04-.04.06-.02.1-.04s.08-.04.15-.15c.97-.23,1.64-.29,2.31-.36.76-.06,1.49-.1,2.14-.29.42-.13.71-.55.71-1.01,0-.08,0-.17-.02-.23-.19-.38-.61-.67-1.09-.88-.1-.02-.27-.02-.38-.02-.13,0-.34.02-.5.04-.19.02-.42.02-.61.02l-.13-.06c-.23,0-.52.17-.78.36-.27.13-.31.42-.38.71l-.08.31c-.34.48-.88.71-1.43.71-.67,0-1.3-.29-1.64-.78-.15-.15-.13-.27-.13-.38,0-.19.08-.4.17-.52v.06c.1-.97.71-1.55,1.26-2.12.19-.17.4-.4.57-.57.27-.19.52-.23.8-.23h.46c.13.02.29.04.38.04Zm-1.28,7.56c-.31.19-.42.44-.42.71,0,.31.19.65.46.86.23.06.34.1.46.15h-.02l.61.19h-.02c.23.04.46.06.73.06.78,0,1.62-.4,2.31-.99l.15-.08h.02c.15-.06.38-.21.38-.21.02-.1.02-.21.04-.27.04-.13.06-.27.06-.46.21-.25.31-.52.31-.71,0-.21-.08-.38-.27-.42-.13-.04-.23-.06-.4-.06-.29,0-.69.1-1.05.19l.02-.02c-.21.06-.42.1-.63.15-.06.02-.1.04-.15.08-.21.17-.38.25-.61.27-.29.1-.5.13-.78.17-.42.08-.88.15-1.22.38v.02Z"/>
        <path class="cls-3" d="m165.79,1014.26c0-.44.36-.82.57-.97.06-.02.19-.04.23-.06.69-.19,1.45-.34,2.16-.34h.59c.17.04.44.06.67.08.46,0,.97.02,1.34.36.23.21.31.44.31.73,0,.1,0,.29-.02.38,0,.06-.02.1-.02.17,0,.34-.34.57-.34.57-.44.23-.63.67-.63,1.11,0,.17.04.36.06.48.04.06.13.15.17.23.06.06.21.29.19.27.13.36.23.67.27.97v-.02c.17.73.34,1.45.94,1.91.02.02.06.02.13.02.08,0,.21-.04.21-.17,0-1.28.55-2.16,1.41-2.94v-.13c-.04-.15-.13-.27-.15-.4l.02.02c-.08-.19-.15-.34-.21-.5v.02c-.06-.15-.17-.29-.34-.46l-.34-.4c-.15-.29-.17-.5-.17-.67,0-.21.02-.29.04-.44.02.04.06,2.12.06-.8.46-.04,1.28-.13,1.7-.19.88-.1,1.66-.21,2.77-.21.4.36.57.69.57,1.09,0,.25-.04.42-.06.61-.06.21-.1.38-.15.73-.59.1-1.26.23-1.51.59v.27c-.57.73-.94,1.53-1.07,2.41-.02.34-.23.63-.44.84-.06.06-.15.17-.21.23-.1.31-.13.65-.15.94,0,.29-.02.5-.04.67-.13.48-.31.61-.52.8-.08.06-.17.15-.25.27-.04.06-.06.17-.06.23,0,.08,0,.15.02.25v.38c0,.1,0,.21-.02.31v.04c-.25.42-.36.73-.46,1.09-.08.15-.13.34-.17.48-.08.29-.23.46-.4.67-.13.19-.29.38-.29.57-.13,1.01-.99,1.6-1.87,1.91h-2.06c-.15-.02-.25-.04-.4-.06-.52-.06-.97-.13-1.36-.84v-.38c-.27-.44-.55-.97-.55-1.47,0-.1.04-.29.08-.42.23-.55.69-.78,1.18-.78.52,0,1.18.23,1.74.55,0,0,0,.08.63.08-.55.61-.73.86-.73.97,0,.17.1.31.25.34.13.06.23.08.34.08.8,0,1.28-1.09,1.51-1.93l-.02.04c.02-.17.08-.31.17-.48l.23-.42s-.15-.27-.25-.46c-.08-.19-.21-.46-.34-.61-.13-.19-.17-.44-.17-.59,0-.06.02-.17.02-.23v-.25c-.08-.1-.17-.25-.21-.36l.02.02c-.29-.52-.55-1.03-.86-1.51-.17-.31-.21-.69-.23-1.03-.02-.1-.04-.34-.02-.4-.08-.06-.15-.19-.19-.29-.02-.04-.04-.08-.17-.19-.31-.97-1.01-2.18-2.18-2.18-.31,0-.44-.23-.59-.42-.06-.06-.1-.15-.15-.19-.21-.21-.25-.44-.25-.63Z"/>
        <path class="cls-3" d="m183.22,1025.06c.21.06.46.06.69.06.76-.06,1.62-.06,2.39-.06s1.49,0,2.41-.13c.27.19.48.21.65.21h.27c.08,0,.13-.02.23-.02.63-.08,1.34-.1,1.97-.1.31,0,.61.02.9.02h.9c.84,0,1.36.34,1.36,1.18-.08.1-.17.21-.17.27-.21.4-.38.84-1.26.84-.21-.08-.4-.08-.59-.08-.44.08-.9.1-1.32.1-.23,0-.46,0-.73.04-.13.1-.36.29-.76.29l-.23-.13c-.13-.08-.21-.15-.34-.15-.15.02-.36.04-.55.04-.38.02-.73.06-1.18.29h-.9c-.17.02-.38.02-.57.02-.4,0-.8-.04-1.2-.06s-.76-.02-1.15-.02h-.59c-.08,0-.19.04-.27.06-.36.08-.73.21-1.36.21-.1-.06-.19-.06-.25-.06-.27,0-.52-.04-.78-.25-.25-.27-.44-.61-.44-.99,0-.1.04-.27.13-.52-.02-.08-.06-.21-.06-.44.25-.36.44-.42.61-.48l.17-.08c.4-.06.8-.15,1.34-.15.17,0,.31.02.42.04.04,0,.08.02.1.02l.13.02Z"/>
        <path class="cls-3" d="m199.39,1012.39c.1,0,.21.02.31.02.23,0,.46-.02.71-.02h.59c.46,0,.8.19,1.11.31l-.02-.02c.1.04.08.04.31.13.23.17.44.42.59.61.04.1.04.21.19.29h.02l.06.02c.23,0,.52-.15.73-.31.67-.63,1.64-1.03,2.54-1.03.78,0,1.49.27,1.99.9,1.07.31,1.43,1.18,1.43,2.12,0,.48-.17,1.09-.42,1.66-.02,0-.38.17-.52.23h.02c-.4.19-.88.4-1.34.4-.19,0-.34-.04-.57-.17l.06.04c-.67-.25-.67-.84-.67-1.47,0-.19-.02-.4-.06-.63v.02c-.04-.19-.15-.29-.31-.29-.23,0-.52.15-.76.34-.19.08-.31.08-.44.08-.08,0-.17-.04-.25-.04-.08-.02-.06,0-.17,0-.04.02-.02.02-.04.04-.04.04-.17.13-.15.1-.06.19-.06.42-.06.61-.15.4-.4.52-.69.69-.06,0-.1.02-.17.08v.27c-.34.36-.46.69-.46,1.01,0,.25.08.61.34,1.03-.29.42-.48.9-.48,1.32,0,.31.06.59.21.78.27.04.57.1.92.19l-.02-.02c.52.1,1.05.21,1.45.21.15,0,.4-.04.8-.1.42.42.52.78.52,1.11,0,.25-.02.52-.23.76l.02-.02c-.23.36-.55.44-.84.48-.04,0-.1,0-.15.04-.38.08-.69.1-1.03.1-.38,0-.78-.02-1.15-.06s-.73-.06-1.09-.06c-.27,0-.5,0-.78.04h-1.15c-.17-.04-.29-.04-.44-.04s-.31.02-.52.06c-.23.04-.44.06-.71.06-.21,0-.44-.04-.61-.1-.5-.21-.82-.78-.82-1.26,0-.31.1-.65.38-.84.31-.23.67-.31,1.01-.31.36,0,.61.04.88.1s.63.13.88.15c.42-.21.65-.71.65-1.32,0-.06-.02-.15-.04-.23-.06-.13-.1-.25-.1-.44-.1-.65-.17-1.43-.23-2.14s-.13-1.47-.25-2.27l-.02.04s-.08-.04-.13-.08c-.19.06-.38.15-.8.15-.06-.08-.13-.15-.19-.15-.06-.04-.25-.17-.21-.13-.06-.02-.13-.02-.19-.04-.59-.1-1.11-.21-1.32-.82-.06-.21-.1-.48-.1-.67,0-.82.5-1.53,1.7-1.51h.29Z"/>
        <path class="cls-3" d="m215.51,1013.32c.36.69.65,1.51.65,2.29,0,.52-.06,1.01-.42,1.43,0,.08.02.15.1.36v.02c.04.13.04.19.04.27,0,.21-.02.4-.06.57-.04.19-.08.36-.08.42,0,.04.06.21.1.31.08.17.15.4.15.61-.15.23-.25.46-.25.59-.1.25-.15.48-.15.65,0,.23.1.48.4.78v.27c.17.21.44.23.76.23h.31c.44-.46.94-.5,1.43-.5,0-.04.02-.17.02-.25.02-.27.04-.48.27-.71.73-.67,1.2-1.32,1.41-2.16-.15-.36-.17-.71-.17-1.07v-.59c0-.19.02-.4.02-.61s0-.42-.04-.57v.04c-.06-.13-.29-.13-.57-.15-.31-.02-.76-.08-1.07-.27s-.46-.61-.46-.94v-.55c.23-.55.63-.88,1.03-.88.36,0,.73.02,1.09.04s.78.04,1.18.04c.17,0,.55.19.73.36.25.23.25.38.31.61.02.15.06.29.13.44.06.08.1.19.1.4,0,.08-.02.17-.06.29l.02-.02-.04.17c.15.46.25.88.25,1.34s-.06.82-.21,1.2c-.02.08-.04.21-.04.23,0,.06.02.23.04.36s.04.29.04.48c0,.1,0,.27-.08.5-.15.21-.23.46-.23.71v.19c0,.06.02.06.02.13.1.23.13.46.13.67.04.19.06.42.19.57h.23c.06.04.27.15.31.19.36.23.8.52.97.97,0,.8-.61,1.39-1.05,1.57-.34,0-.61-.06-.88-.15h.02c-.21-.06-.48-.1-.86-.1-.44-.17-.9-.48-1.22-.82-.17-.29-.08-.31-.1-.46-.02-.06-.02-.1-.02-.15l-.06.06s.02-.02-.02.02v.25c-.29.29-.63.48-.94.48l-.23.23c-.19.19-.34.34-.55.38-.36.17-.84.29-1.26.29-.17,0-.36-.02-.46-.04h.02c-1.51-.17-2.31-1.51-2.98-2.83.02-.36.02-.8.04-1.15.04-.67.06-1.3.06-1.97s-.02-1.43-.1-2.18c0-.23-.08-.38-.17-.55l-.02-.06s-.04-.06-.04-.08c-.04-.04-.13-.06-.25-.06h-.1c-.27,0-.55,0-.8-.17-.4-.23-.61-.78-.61-1.2,0-.15.02-.34.08-.46.27-.52.67-.63,1.18-.63h.5c.8,0,1.53,0,2.33.34Z"/>
        <path class="cls-3" d="m227.63,1008.87c-.1,0-.17-.06-.17-.27.82.19,1.45.34,1.89.4.02.02.06.06.1.08l.19.19c.44.48.92,1.05.92,1.7,0,.31-.08.63-.34.99-.19.88-.21,1.81-.21,2.77,0,.25.02.52.02.82v.8c0,.78-.04,1.53-.13,2.25.1-.08.17-.19.55-.31h.13c.38-.27.61-.63.69-.99.08-.29.4-.59.65-.59h.04l.17-.06v.02c.04-.67.48-1.03.94-1.34h-.02c.08-.06.21-.13.31-.19,0-.1-.31-.27-.65-.34,0-1.13.67-1.53,1.47-1.53.31,0,.61.04.9.15.44-.31.97-.5,1.49-.5.57,0,1.03.25,1.36.84v.13c.04.08.04.13.04.21,0,.44-.34.99-.73,1.26-.29.1-.52.1-.8.1h-.42c-.29,0-.55.04-.78.19-.04.06-.13.17-.21.29-.25.38-.55.78-1.2.86-.19,0-.4.25-.48.57v-.02c-.02.08-.04.23-.04.34,0,.55.4,1.07.92,1.39v-.02c.73.42,1.05,1.26,1.18,2.18.06.15.17.19.31.25.15.08.21.08.46.34.08.19.15.31.19.36.23.04.55.06.78.06.38,0,.73-.02,1.13.17l-.02-.02c.31.13.55.48.55.78,0,.13-.04.27-.08.4-.27.4-.57.52-.88.69-.06.04-.13.1-.15.13-.44,0-.86-.04-1.13-.1-.29-.04-.65-.1-.8-.1-.08,0-.34.04-.57.08-.1-.17-.17-.23-.17-.25-.04.02-.1.02-.17.02h.02c-.17.04-.36.08-.59.08-.55,0-.92-.55-.92-1.03,0-.15,0-.19.04-.4.23-.21.55-.4.71-.48l.25-.1s.02-.1.06-.15v-.04c-.08-.08-.29-.21-.44-.31h.02c-.19-.1-.38-.23-.55-.4-.19-.36-.15-.57-.15-.82,0-.17,0-.34-.06-.42-.29-.38-.76-.82-1.18-1.2h-.04c-.25.15-.52.31-.8.44-.5.25-.99.52-1.26,1.01v-.02c-.13.21-.19.48-.19.73,0,.17.04.34.1.52v-.02c.06.21.29.36.55.5h-.02c.31.19.65.4.84.73.15.25.15.4.15.59,0,.38-.19.67-.57.82-.08.04-.21.08-.29.08-.27,0-.5-.13-.76-.25l-.1-.06c-.06-.02-.19-.02-.29-.02-.19,0-.48.06-.78.13l.02-.02s-.06.02-.1.02l-.08.08s-.06.04-.29.36c-.92,0-1.34-.65-1.34-1.01-.02,0-.04-.08-.06-.15,0-.13-.02-.29-.02-.52,0-.69.31-1.34,1.11-1.62h-.02c.27-.1.4-.44.5-.73.06-.15.13-.34.19-.44-.04-.23-.15-.46-.21-.65h.02c-.06-.13-.1-.34-.17-.55v-.65l.06-.48c.04-.4.08-.76.08-1.09s-.06-.69-.13-1.05c-.04-.17-.04-.23-.04-.34,0-.27.08-.52.17-.78v.02c.04-.13.06-.17.08-.27.04-.27.08-.63.08-.8,0-.4-.08-.71-.19-1.05-.23-.67-1.18-1.11-2.18-1.39,0-.86.38-1.13.71-1.39.15-.1.25-.19.31-.29.1-.19.31-.25.46-.27Zm1.66.08c-.46-.08-.88-.19-.82-.19.27.02.57.06.82.19Zm0,0c.82.19,1.78.4.06.04-.02-.02-.04-.02-.06-.04Zm5.27,12.87l.23-.21c-.17,0-.23.13-.23.21Z"/>
        <path class="cls-3" d="m243.07,1009.18c.06,0,.13-.02.19-.02.31,0,.59.13.9.46.15.38.19.73.19,1.09,0,.25-.02.57-.06.8-.04.25-.06.57-.06.73,0,.21,0,.38.06.55l-.06-.13s.02.08.04.1c.15.23.34.55.34.86,0,.1,0,.19-.06.31-.15.23-.29.52-.31.78.17-.23.36-.38.65-.38.21,0,.42-.23.57-.42.15-.15.29-.31.42-.42.13-.08.38-.15.65-.23.23-.06.42-.1.61-.25.36-.08.61-.1.84-.1.27,0,.59.04.97.13.23.27.48.57.67.67.15,0,.19.02.31.08.06.04.13.06.1.06.46,0,.5.23.57.5t.02.04c.1.4.13.65.13.86.02.27.02.55.1.71.17.55.27,1.07.27,1.57,0,.61-.08,1.22-.17,1.74-.06.46-.15,1.01-.15,1.3-.02.23-.1.4-.21.57-.08.17-.15.31-.17.55.15.46.63.46,1.15.5.25.02.57.08.9.17.06.06.1.06.15.08.15.06.36.1.48.44.04.1.1.27.1.38,0,.31-.17.57-.5.78-.46.17-.94.27-1.43.27-.61,0-1.18-.13-1.76-.34-.27.08-.5.1-.84.1-.44,0-.94-.13-1.36-.29-.17-.17-.29-.38-.29-.59,0-.31.21-.57.48-.78h.67c.13-.04.29-.13.42-.17l-.02.02c.13-.06.25-.13.44-.17t.06-.06s.04.04.04.1c0-.17,0-.31.02-.44.02-.15.04-.29.04-.4,0-.25-.04-.44-.13-.63-.04-.1-.06-.23-.06-.31,0-.23.04-.42.17-.61-.02,0,.06-.15.1-.23-.02-.19-.08-.34-.17-.48-.08-.19-.15-.31-.19-.44,0-.13,0-.17-.02-.21-.04-.17-.04-.27-.04-.31,0-.19,0-.34.15-.5v.02c.06-.13.13-.31.13-.52,0-.1-.08-.27-.25-.44.06-.23.1-.36.1-.46,0-.42-.55-.71-1.05-.86-.1-.06-.34-.06-.52-.06-.17,0-.34,0-.4.04-.13.06-.19.15-.29.25-.17.15-.29.29-.55.4h-.23c-.17.08-.27.15-.36.31-.08.06-.06.19-.08.31-.02.34-.1.78-.61,1.03h-.25c-.21.17-.46.4-.55.61,0,.15.04.25.1.4.06.23.13.46.13.88-.17.27-.29.5-.29.67v.06c.27.44.34.92.36,1.39.02.19.06.55.06.55,0-.04.1-.04.21-.02.17.02-.21-.17.55.08.29.25.48.65.48,1.03,0,.42-.25.84-.69.84-.5,0-.99.02-1.51.06-.57.04-1.13.08-1.72.08-.25,0-.57-.02-.84-.04-.23-.02-.38-.19-.52-.34-.06-.06-.15-.15-.23-.21v-.57c.27-.46.63-.55.99-.59.15-.04.34-.08.38-.08.29-.29.15-.13.21-.17.04-.02.1-.06.15-.08.13-.08.27-.13.4-.13.1,0,.15,0,.31.04.08.02-.04,0,.02,0,.02-.02.04-.02.06.02,0-.31.04-.57.08-.8.02-.25.06-.48.06-.65,0-.31-.06-.61-.25-.94,0-.36.06-.55.15-.78.04-.08.06-.21.08-.29-.06-.13-.15-.27-.21-.4-.02-.08-.08-.15-.17-.29-.02-.4-.04-.8-.04-1.28,0-.69.02-1.34.08-1.99s.13-1.32.13-1.95c0-.19,0-.38-.02-.59,0-.1-.15-.23-.27-.27-.19-.1-.36-.15-.57-.21-.8-.21-1.68-.46-1.68-1.76.17-.19.44-.44.55-.55.13-.04.34-.06.44-.1.27-.1.52-.19.8-.19.21,0,.46.04.69.21.08-.04.19-.06.29-.06.08,0,.17,0,.25-.02Z"/>
        <path class="cls-3" d="m258.86,1012.67h.17s.15-.04.21-.04c.19-.04.4-.13.57-.13.13,0,.19-.02.31.06.19.02.42.02.63.04.88.04,1.78.15,2.54.55.67.4,1.32,1.11,1.78,1.97-.15,1.18-.17,2.25-.17,3.23v1.45c0,.5.02.99.02,1.49,0,.1.04.15.19.19.31-.23.8-.44,1.55-.44.44.21.63.46.63.8-.29.88-.82,1.43-1.49,1.95-.29.13-.73.29-1.24.29-.36-.13-.55-.36-.71-.59l.02.02c-.08-.15-.19-.25-.31-.34h.02c-.21-.13-.46-.19-.71-.19-.73,0-1.45.46-1.97,1.05-.1.02-.4.08-.52.1-.31.06-.73.1-1.09.1-.44,0-.97-.15-1.41-.36-.15-.06-.23-.08-.38-.15-.73-.27-1.57-.59-2.12-1.36-.34-.52-.48-1.01-.48-1.51,0-.9.4-1.76,1.09-2.35l.25-.17c.21-.15.36-.29.73-.31.04-.04.06-.02.1-.04s.08-.04.15-.15c.97-.23,1.64-.29,2.31-.36.76-.06,1.49-.1,2.14-.29.42-.13.71-.55.71-1.01,0-.08,0-.17-.02-.23-.19-.38-.61-.67-1.09-.88-.1-.02-.27-.02-.38-.02-.13,0-.34.02-.5.04-.19.02-.42.02-.61.02l-.13-.06c-.23,0-.52.17-.78.36-.27.13-.31.42-.38.71l-.08.31c-.34.48-.88.71-1.43.71-.67,0-1.3-.29-1.64-.78-.15-.15-.13-.27-.13-.38,0-.19.08-.4.17-.52v.06c.1-.97.71-1.55,1.26-2.12.19-.17.4-.4.57-.57.27-.19.52-.23.8-.23h.46c.13.02.29.04.38.04Zm-1.28,7.56c-.31.19-.42.44-.42.71,0,.31.19.65.46.86.23.06.34.1.46.15h-.02l.61.19h-.02c.23.04.46.06.73.06.78,0,1.62-.4,2.31-.99l.15-.08h.02c.15-.06.38-.21.38-.21.02-.1.02-.21.04-.27.04-.13.06-.27.06-.46.21-.25.31-.52.31-.71,0-.21-.08-.38-.27-.42-.13-.04-.23-.06-.4-.06-.29,0-.69.1-1.05.19l.02-.02c-.21.06-.42.1-.63.15-.06.02-.1.04-.15.08-.21.17-.38.25-.61.27-.29.1-.5.13-.78.17-.42.08-.88.15-1.22.38v.02Z"/>
        <path class="cls-3" d="m273.43,1013.65c.29.13.61.25.86.25.06,0,.19-.02.31-.04.06-.04.17-.1.25-.15.15-.1.31-.21.55-.29.15-.08.29-.17.5-.17.1,0,.17,0,.25.04.06-.02.13-.04.17-.08.23-.15.46-.31.94-.31.5.08.99.23,1.49.57.04.04.17.13.27.21.23.13.46.27.67.61.06.17.08.19.1.21.08.13.08.08.29.52.04.27.1.5.19.78.06.21.17.63.21.86-.29.31-.36.52-.36.73,0,.1.02.34.04.48s.06.1.06.61c0,.25-.02.29-.04.42-.08.15-.17.36-.17.48,0,.02.02.06.06.15,0,.65-.06.99-.1,1.3-.04.23-.06.44-.06.61,0,.1,0,.23.04.34l-.02-.02c.15.31.82.48,1.32.61.34.17.73.38.73.97,0,.27-.13.4-.29.48.1-.04.17-.06.17-.02-.15.08-.52.27-.69.34-.1.06-.36.19-.42.23-.88,0-1.62-.17-2.31-.31-.19-.04-.29-.04-.46-.08-.1,0-.29.04-.44.08-.23.06-.4.17-.8.17-.36-.15-.73-.59-.73-1.03,0-.15.02-.21.04-.27v-.08c.06-.06.13-.15.15-.21.1-.19.17-.38.55-.5.36,0,.57.06.76.13.1.04.21.08.29.1.36-.25.71-.61.88-1.01-.02-.15-.08-.29-.13-.4-.13-.23-.25-.5-.25-.84,0-.17-.06-.38-.13-.59-.1-.27-.17-.57-.17-.82,0-.21.04-.4.15-.57v-.06c.02-.1-.08-.29.06-.29-.1-.27-.1-.5-.13-.76v.02c-.02-.23,0-.44-.15-.82v.08s-.02-.1-.04-.17c-.15-.31-.4-.76-.71-.9-.04-.02-.15-.04-.21-.04-.29,0-.61.29-.92.59l-.23.23s-.31.19-.4.23c-.21.13-.48.31-.67.52-.13.23-.29.36-.5.57s-.42.42-.46.59c-.15.52-.15.88-.15,1.24,0,.44,0,.82-.17,1.32-.04.19-.15.31-.23.44-.08.1-.15.17-.15.21.19.5.55.99,1.09,1.07.48.04.76.61.76,1.13,0,.34-.27.63-.65.63-.46,0-.92.04-1.41.08-.46.04-.84.1-1.39.1-.67,0-1.41-.15-2.14-.46l.02.02c-.29-.1-.4-.31-.4-.59,0-.25.27-.63.5-.76.1-.04.25-.06.34-.1.38-.1.78-.23,1.15-.25.21-.1.34-.27.4-.48,0-.21-.04-.42-.08-.55-.02-.23-.1-.27-.1-.67.29-.71.34-1.47.34-2.18,0-.19-.02-.38-.02-.59v-.36c-.13-.08-.23-.15-.23-.31-.1-.25-.1-.46-.13-.71v-.02c-.02-.23-.06-.48-.17-.59-.08-.02-.27-.08-.4-.1-.52-.13-1.03-.25-1.3-.78-.06-.13-.13-.23-.13-.44,0-.48.38-.88.76-1.2.4-.13.8-.15,1.18-.15.55,0,1.09.1,1.57.42.06.02.08.04.13.06l.65.31-.02-.02Zm4.56,2.65s0,.02-.02,0h.02Z"/>
      </g>
      <text class="cls-2" transform="translate(124.91 1106.43)"><tspan x="0" y="0">2023.06</tspan></text>
      <text class="cls-1" transform="translate(104.89 1161.54)"><tspan x="0" y="0">Cororo</tspan><tspan x=".3" y="54">record</tspan><tspan x="25.6" y="108">shop</tspan></text>
      <circle class="cls-7" cx="87.91" cy="296.08" r="16.75"/>
      <circle class="cls-9" cx="78.76" cy="738.5" r="16.75"/>
      <circle class="cls-8" cx="71.16" cy="411.79" r="16.75"/>
    </g>
  </g>
</svg>