<?xml version="1.0" encoding="utf-8"?>
<!-- Generator: Adobe Illustrator 27.4.1, SVG Export Plug-In . SVG Version: 6.00 Build 0)  -->
<svg version="1.1" id="_레이어_1" xmlns="http://www.w3.org/2000/svg" xmlns:xlink="http://www.w3.org/1999/xlink" x="0px"
	 y="0px" viewBox="0 0 639.1 603.1" style="enable-background:new 0 0 639.1 603.1;" xml:space="preserve">
<style type="text/css">
	.st0{fill:url(#SVGID_1_);}
	.st1{fill:url(#SVGID_00000153671288682338140360000007224143892718090144_);}
	.st2{fill:url(#SVGID_00000106115367977515622590000008231208239167834281_);}
	.st3{fill:url(#SVGID_00000175283492754529625190000011250584601218459296_);}
	.st4{fill:url(#SVGID_00000032627529838147592270000008713737567591514539_);}
	.st5{fill:url(#SVGID_00000080188272402433540260000009218946142937398435_);}
	.st6{fill:url(#SVGID_00000033334439337798408020000002811291274582915260_);}
	.st7{fill:url(#SVGID_00000054258315186000549280000012131934407870421638_);}
	.st8{fill:url(#SVGID_00000033341557639062261960000008884156615869661592_);}
	.st9{fill:url(#SVGID_00000092425074618079042600000010646647638188011412_);}
	.st10{fill:url(#SVGID_00000060723048764883594090000008843852261107531179_);}
	.st11{fill:#643001;}
	
		.st12{fill:#F3970E;stroke:url(#SVGID_00000100381049124838233400000014703975687988448664_);stroke-width:0.75;stroke-miterlimit:10;}
	
		.st13{fill:#C16B00;stroke:url(#SVGID_00000132050477033663541440000016187989156785184659_);stroke-width:0.75;stroke-miterlimit:10;}
	
		.st14{fill:#C16B00;stroke:url(#SVGID_00000134955342380097838790000002871426997371075480_);stroke-width:0.75;stroke-miterlimit:10;}
	
		.st15{fill:#C16B00;stroke:url(#SVGID_00000148626974723907033730000013672636932017815724_);stroke-width:0.75;stroke-miterlimit:10;}
	
		.st16{fill:#F7B420;stroke:url(#SVGID_00000114768750852153329020000006143192202160195256_);stroke-width:0.75;stroke-miterlimit:10;}
	
		.st17{fill:#F7B420;stroke:url(#SVGID_00000037679029167640532850000016400631315422114701_);stroke-width:0.75;stroke-miterlimit:10;}
	
		.st18{fill:#F7B420;stroke:url(#SVGID_00000052816810386113233450000008621248200603970697_);stroke-width:0.75;stroke-miterlimit:10;}
	
		.st19{fill:#F7B420;stroke:url(#SVGID_00000034778759109901259920000007619034205732524691_);stroke-width:0.75;stroke-miterlimit:10;}
	
		.st20{fill:#F7B420;stroke:url(#SVGID_00000178171105860284183000000009128046440597769358_);stroke-width:0.75;stroke-miterlimit:10;}
	
		.st21{fill:#F7B420;stroke:url(#SVGID_00000062178568856056763790000016526629589989064341_);stroke-width:0.75;stroke-miterlimit:10;}
	
		.st22{fill:#F7B420;stroke:url(#SVGID_00000153671641913891224730000003847447372581770421_);stroke-width:0.75;stroke-miterlimit:10;}
	
		.st23{fill:#F7B420;stroke:url(#SVGID_00000018219365535716660510000000085561081455682689_);stroke-width:0.75;stroke-miterlimit:10;}
	
		.st24{fill:#9D4E01;stroke:url(#SVGID_00000081641820789386261320000012196267672632507034_);stroke-width:0.75;stroke-miterlimit:10;}
	
		.st25{fill:#7F3603;stroke:url(#SVGID_00000070084727933156544400000015915529620572443556_);stroke-width:0.75;stroke-miterlimit:10;}
	
		.st26{fill:#7F3603;stroke:url(#SVGID_00000163058253545850945010000004283953930639389359_);stroke-width:0.75;stroke-miterlimit:10;}
	
		.st27{fill:#7F3603;stroke:url(#SVGID_00000046314202825665604860000016780541910461026701_);stroke-width:0.75;stroke-miterlimit:10;}
	
		.st28{fill:#7F3603;stroke:url(#SVGID_00000116226307763005403610000000194378707568271236_);stroke-width:0.75;stroke-miterlimit:10;}
	
		.st29{fill:#7F3603;stroke:url(#SVGID_00000172401757210732608360000009196046180831050910_);stroke-width:0.75;stroke-miterlimit:10;}
	
		.st30{fill:#7F3603;stroke:url(#SVGID_00000103236979340138201390000008119933517424988054_);stroke-width:0.75;stroke-miterlimit:10;}
	
		.st31{fill:#9D4E01;stroke:url(#SVGID_00000070825003696369349890000007362393972968967811_);stroke-width:0.75;stroke-miterlimit:10;}
	
		.st32{fill:#643001;stroke:url(#SVGID_00000156574687141098578000000013691153672351484821_);stroke-width:0.75;stroke-miterlimit:10;}
	
		.st33{fill:#643001;stroke:url(#SVGID_00000167382906898171048400000008480426608867401896_);stroke-width:0.75;stroke-miterlimit:10;}
	
		.st34{fill:#643001;stroke:url(#SVGID_00000108304011597381588990000017620241574054596009_);stroke-width:0.75;stroke-miterlimit:10;}
	
		.st35{fill:#DE8500;stroke:url(#SVGID_00000000221029233811735440000008217143613749861518_);stroke-width:0.75;stroke-miterlimit:10;}
	
		.st36{fill:#E48D00;stroke:url(#SVGID_00000026156941896449846390000013013683543386229436_);stroke-width:0.75;stroke-miterlimit:10;}
	
		.st37{fill:#F7B420;stroke:url(#SVGID_00000098899900811939745250000008456245063021594794_);stroke-width:0.75;stroke-miterlimit:10;}
	.st38{enable-background:new    ;}
	.st39{fill:none;stroke:#FFFFFF;stroke-width:0.25;stroke-miterlimit:10;}
</style>
<g id="CW3NSL">
	
		<image style="overflow:visible;enable-background:new    ;" width="798" height="1134" id="CW3NSL-2" xlink:href="B688E72B55D6946.png"  transform="matrix(0.5013 0 0 0.5013 204.05 3.947510e-02)">
	</image>
</g>
<g id="CW3NSL-3">
	<g id="CW3NSL-4" transform="translate(36.4) scale(.5)">
		
			<image style="overflow:visible;enable-background:new    ;" width="799" height="1134" id="image-3" xlink:href="B688E72B55D694A.png"  transform="matrix(0.5006 0 0 0.5006 36.4 0.3952)">
		</image>
	</g>
</g>
<linearGradient id="SVGID_1_" gradientUnits="userSpaceOnUse" x1="417.52" y1="180.89" x2="417.52" y2="603.89" gradientTransform="matrix(1 0 0 -1 0 603.89)">
	<stop  offset="0" style="stop-color:#FBFBFB"/>
	<stop  offset="0.67" style="stop-color:#245DA0"/>
	<stop  offset="0.68" style="stop-color:#235B9E"/>
	<stop  offset="0.79" style="stop-color:#134587"/>
	<stop  offset="0.9" style="stop-color:#0A3879"/>
	<stop  offset="1" style="stop-color:#073475"/>
</linearGradient>
<rect x="333" y="0" class="st0" width="169" height="423"/>
<linearGradient id="SVGID_00000168816222182642738810000002663081997446565550_" gradientUnits="userSpaceOnUse" x1="224.02" y1="180.89" x2="224.02" y2="603.89" gradientTransform="matrix(1 0 0 -1 0 603.89)">
	<stop  offset="0" style="stop-color:#FCFCFC"/>
	<stop  offset="0.67" style="stop-color:#245DA0"/>
	<stop  offset="0.68" style="stop-color:#235B9E"/>
	<stop  offset="0.79" style="stop-color:#134587"/>
	<stop  offset="0.9" style="stop-color:#0A3879"/>
	<stop  offset="1" style="stop-color:#073475"/>
</linearGradient>
<rect x="180" y="0" style="fill:url(#SVGID_00000168816222182642738810000002663081997446565550_);" width="88" height="423"/>
<linearGradient id="SVGID_00000104708616040295706470000008541415643749209264_" gradientUnits="userSpaceOnUse" x1="93.02" y1="44.39" x2="282.02" y2="44.39" gradientTransform="matrix(1 0 0 -1 0 603.89)">
	<stop  offset="0" style="stop-color:#AEADB2"/>
	<stop  offset="1" style="stop-color:#E0DFE5"/>
</linearGradient>
<rect x="93" y="553" style="fill:url(#SVGID_00000104708616040295706470000008541415643749209264_);" width="189" height="13"/>
<g transform="translate(56.98 517) scale(.24)">
	
		<image style="overflow:visible;enable-background:new    ;" width="1088" height="356" id="image-2" xlink:href="B688E72B55D694D.png"  transform="matrix(0.2393 0 0 0.2393 57.3467 517)">
	</image>
</g>
<g transform="translate(56.98 517) scale(.24)">
	
		<image style="overflow:visible;enable-background:new    ;" width="1088" height="356" id="image-2_00000170968954327475494280000003653229749229291431_" xlink:href="B688E72B55D694E.png"  transform="matrix(0.2393 0 0 0.2393 57.3467 517)">
	</image>
</g>
<g transform="translate(56.98 517) scale(.24)">
	
		<image style="overflow:visible;enable-background:new    ;" width="1088" height="356" id="image-2_00000167367653979999764870000016034247702389131397_" xlink:href="B688E72B55D694C.png"  transform="matrix(0.2393 0 0 0.2393 57.3467 517)">
	</image>
</g>
<g transform="translate(56.98 517) scale(.24)">
	
		<image style="overflow:visible;enable-background:new    ;" width="1088" height="356" id="image-2_00000146501519329205706850000015891177916275252357_" xlink:href="B688E72B55D694B.png"  transform="matrix(0.2393 0 0 0.2393 57.3467 517)">
	</image>
</g>
<linearGradient id="SVGID_00000110439805280273854470000004555573505936888244_" gradientUnits="userSpaceOnUse" x1="319.52" y1="472.89" x2="319.52" y2="492.89" gradientTransform="matrix(1 0 0 -1 0 603.89)">
	<stop  offset="0" style="stop-color:#FFFFFF"/>
	<stop  offset="0.67" style="stop-color:#245DA0"/>
	<stop  offset="0.68" style="stop-color:#235B9E"/>
	<stop  offset="0.79" style="stop-color:#134587"/>
	<stop  offset="0.9" style="stop-color:#0A3879"/>
	<stop  offset="1" style="stop-color:#073475"/>
</linearGradient>
<rect x="36" y="111" style="fill:url(#SVGID_00000110439805280273854470000004555573505936888244_);" width="567" height="20"/>
<linearGradient id="SVGID_00000101810479237961460110000016778415939336392092_" gradientUnits="userSpaceOnUse" x1="48.52" y1="36.89" x2="48.52" y2="603.89" gradientTransform="matrix(1 0 0 -1 0 603.89)">
	<stop  offset="0" style="stop-color:#F8F5E6"/>
	<stop  offset="9.000000e-02" style="stop-color:#FBFBFB"/>
	<stop  offset="0.67" style="stop-color:#245DA0"/>
	<stop  offset="0.68" style="stop-color:#2C5F98"/>
	<stop  offset="0.74" style="stop-color:#5E6D6A"/>
	<stop  offset="0.8" style="stop-color:#887945"/>
	<stop  offset="0.85" style="stop-color:#A98227"/>
	<stop  offset="0.91" style="stop-color:#C08812"/>
	<stop  offset="0.96" style="stop-color:#CE8C06"/>
	<stop  offset="1" style="stop-color:#D38E02"/>
</linearGradient>
<rect x="36" y="0" style="fill:url(#SVGID_00000101810479237961460110000016778415939336392092_);" width="25" height="567"/>
<linearGradient id="SVGID_00000096758222285839453270000013071384435661527714_" gradientUnits="userSpaceOnUse" x1="36.02" y1="79.89" x2="603.02" y2="79.89" gradientTransform="matrix(1 0 0 -1 0 603.89)">
	<stop  offset="0" style="stop-color:#AEADB2"/>
	<stop  offset="1" style="stop-color:#E0DFE5"/>
</linearGradient>
<rect x="36" y="514" style="fill:url(#SVGID_00000096758222285839453270000013071384435661527714_);" width="567" height="20"/>
<g transform="translate(.02 477.84) scale(.24)">
	
		<image style="overflow:visible;enable-background:new    ;" width="2664" height="384" id="image" xlink:href="B688E72B55D6945.png"  transform="matrix(0.2399 0 0 0.2399 2.000000e-02 477.8573)">
	</image>
</g>
<g transform="translate(.02 477.84) scale(.24)">
	
		<image style="overflow:visible;enable-background:new    ;" width="2664" height="384" id="image_00000076582188450343583740000007361241350678098082_" xlink:href="B688E72B55D6947.png"  transform="matrix(0.2399 0 0 0.2399 2.000000e-02 477.8573)">
	</image>
</g>
<g transform="translate(.02 477.84) scale(.24)">
	
		<image style="overflow:visible;enable-background:new    ;" width="2664" height="384" id="image_00000114776334128626751090000006000507801603493290_" xlink:href="B688E72B55D6944.png"  transform="matrix(0.2399 0 0 0.2399 2.000000e-02 477.8573)">
	</image>
</g>
<g transform="translate(.02 477.84) scale(.24)">
	
		<image style="overflow:visible;enable-background:new    ;" width="2664" height="384" id="image_00000119796030579727741710000000389370244236770995_" xlink:href="A61C969436803779.png"  transform="matrix(0.2399 0 0 0.2399 2.000000e-02 477.8573)">
	</image>
</g>
<g id="CW3NSL-5">
	<g id="CW3NSL-6" transform="translate(36.4) scale(.5)">
		
			<image style="overflow:visible;enable-background:new    ;" width="799" height="1134" id="image-3_00000179609498403385165000000013974021687234856124_" xlink:href="A61C96943680377F.png"  transform="matrix(0.5006 0 0 0.5006 36.4 0.3952)">
		</image>
	</g>
</g>
<linearGradient id="SVGID_00000122712169269241894720000004438265958863516288_" gradientUnits="userSpaceOnUse" x1="417.52" y1="180.89" x2="417.52" y2="603.89" gradientTransform="matrix(1 0 0 -1 0 603.89)">
	<stop  offset="0" style="stop-color:#FBFBFB"/>
	<stop  offset="0.67" style="stop-color:#245DA0"/>
	<stop  offset="0.68" style="stop-color:#235B9E"/>
	<stop  offset="0.79" style="stop-color:#134587"/>
	<stop  offset="0.9" style="stop-color:#0A3879"/>
	<stop  offset="1" style="stop-color:#073475"/>
</linearGradient>
<rect x="333" y="0" style="fill:url(#SVGID_00000122712169269241894720000004438265958863516288_);" width="169" height="423"/>
<linearGradient id="SVGID_00000070117566711464860020000006239138706774624920_" gradientUnits="userSpaceOnUse" x1="224.02" y1="180.89" x2="224.02" y2="603.89" gradientTransform="matrix(1 0 0 -1 0 603.89)">
	<stop  offset="0" style="stop-color:#FCFCFC"/>
	<stop  offset="0.67" style="stop-color:#245DA0"/>
	<stop  offset="0.68" style="stop-color:#235B9E"/>
	<stop  offset="0.79" style="stop-color:#134587"/>
	<stop  offset="0.9" style="stop-color:#0A3879"/>
	<stop  offset="1" style="stop-color:#073475"/>
</linearGradient>
<rect x="180" y="0" style="fill:url(#SVGID_00000070117566711464860020000006239138706774624920_);" width="88" height="423"/>
<g transform="translate(20.88 481.92) scale(.24)">
	
		<image style="overflow:visible;enable-background:new    ;" width="1388" height="655" id="image-4" xlink:href="A61C969436803778.png"  transform="matrix(0.24 0 0 0.24 21 481.92)">
	</image>
</g>
<g transform="translate(20.88 481.92) scale(.24)">
	
		<image style="overflow:visible;enable-background:new    ;" width="1388" height="655" id="image-4_00000018919328356582537690000007921438288814258841_" xlink:href="A61C96943680377B.png"  transform="matrix(0.24 0 0 0.24 21 481.92)">
	</image>
</g>
<linearGradient id="SVGID_00000119831286182591550490000006970772983799138224_" gradientUnits="userSpaceOnUse" x1="319.445" y1="472.89" x2="319.445" y2="492.89" gradientTransform="matrix(1 0 0 -1 0 603.89)">
	<stop  offset="0" style="stop-color:#FFFFFF"/>
	<stop  offset="0.67" style="stop-color:#245DA0"/>
	<stop  offset="0.68" style="stop-color:#235B9E"/>
	<stop  offset="0.79" style="stop-color:#134587"/>
	<stop  offset="0.9" style="stop-color:#0A3879"/>
	<stop  offset="1" style="stop-color:#073475"/>
</linearGradient>
<rect x="36" y="111" style="fill:url(#SVGID_00000119831286182591550490000006970772983799138224_);" width="566.9" height="20"/>
<linearGradient id="SVGID_00000125565496710558028120000000711280324563211404_" gradientUnits="userSpaceOnUse" x1="48.52" y1="36.92" x2="48.52" y2="603.85" gradientTransform="matrix(1 0 0 -1 0 603.89)">
	<stop  offset="0" style="stop-color:#F8F5E6"/>
	<stop  offset="9.000000e-02" style="stop-color:#FBFBFB"/>
	<stop  offset="0.67" style="stop-color:#245DA0"/>
	<stop  offset="0.68" style="stop-color:#2C5F98"/>
	<stop  offset="0.74" style="stop-color:#5E6D6A"/>
	<stop  offset="0.8" style="stop-color:#887945"/>
	<stop  offset="0.85" style="stop-color:#A98227"/>
	<stop  offset="0.91" style="stop-color:#C08812"/>
	<stop  offset="0.96" style="stop-color:#CE8C06"/>
	<stop  offset="1" style="stop-color:#D38E02"/>
</linearGradient>
<rect x="36" y="0" style="fill:url(#SVGID_00000125565496710558028120000000711280324563211404_);" width="25" height="566.9"/>
<linearGradient id="SVGID_00000176029539240750175730000001335066997295624595_" gradientUnits="userSpaceOnUse" x1="36.02" y1="79.89" x2="603.02" y2="79.89" gradientTransform="matrix(1 0 0 -1 0 603.89)">
	<stop  offset="0" style="stop-color:#AEADB2"/>
	<stop  offset="1" style="stop-color:#E0DFE5"/>
</linearGradient>
<rect x="36" y="514" style="fill:url(#SVGID_00000176029539240750175730000001335066997295624595_);" width="567" height="20"/>
<g transform="translate(.02 477.84) scale(.24)">
	
		<image style="overflow:visible;enable-background:new    ;" width="2664" height="384" id="image_00000114785046146483121940000002624138354852347814_" xlink:href="A61C969436803767.png"  transform="matrix(0.2399 0 0 0.2399 2.000000e-02 477.8573)">
	</image>
</g>
<g transform="translate(.02 477.84) scale(.24)">
	
		<image style="overflow:visible;enable-background:new    ;" width="2664" height="384" id="image_00000123425508557522661850000010906564256598189443_" xlink:href="A61C969436803777.png"  transform="matrix(0.2399 0 0 0.2399 2.000000e-02 477.8573)">
	</image>
</g>
<g transform="translate(.02 477.84) scale(.24)">
	
		<image style="overflow:visible;enable-background:new    ;" width="2664" height="384" id="image_00000132071652347787561070000015015912679140754595_" xlink:href="A61C969436803769.png"  transform="matrix(0.2399 0 0 0.2399 2.000000e-02 477.8573)">
	</image>
</g>
<image style="overflow:visible;enable-background:new    ;" width="2663" height="384" xlink:href="A61C96943680376B.png"  transform="matrix(0.24 0 0 0.24 0 477.84)">
</image>
<circle class="st11" cx="493.5" cy="548.5" r="8.5"/>
<linearGradient id="SVGID_00000166658268184733051690000012146297332695552415_" gradientUnits="userSpaceOnUse" x1="137.6517" y1="215.2029" x2="146.5283" y2="230.5771" gradientTransform="matrix(1 0 0 -1 0 603.89)">
	<stop  offset="0" style="stop-color:#FCFCFC"/>
	<stop  offset="0.67" style="stop-color:#245DA0"/>
	<stop  offset="0.68" style="stop-color:#235B9E"/>
	<stop  offset="0.79" style="stop-color:#134587"/>
	<stop  offset="0.9" style="stop-color:#0A3879"/>
	<stop  offset="1" style="stop-color:#073475"/>
</linearGradient>
<circle style="fill:#F3970E;stroke:url(#SVGID_00000166658268184733051690000012146297332695552415_);stroke-width:0.75;stroke-miterlimit:10;" cx="142.1" cy="381" r="8.5"/>
<linearGradient id="SVGID_00000029729849923692236620000003658926198403953056_" gradientUnits="userSpaceOnUse" x1="165.6517" y1="178.2029" x2="174.5283" y2="193.5771" gradientTransform="matrix(1 0 0 -1 0 603.89)">
	<stop  offset="0" style="stop-color:#FCFCFC"/>
	<stop  offset="0.67" style="stop-color:#245DA0"/>
	<stop  offset="0.68" style="stop-color:#235B9E"/>
	<stop  offset="0.79" style="stop-color:#134587"/>
	<stop  offset="0.9" style="stop-color:#0A3879"/>
	<stop  offset="1" style="stop-color:#073475"/>
</linearGradient>
<circle style="fill:#C16B00;stroke:url(#SVGID_00000029729849923692236620000003658926198403953056_);stroke-width:0.75;stroke-miterlimit:10;" cx="170.1" cy="418" r="8.5"/>
<linearGradient id="SVGID_00000041285349688971007140000005386967359663716993_" gradientUnits="userSpaceOnUse" x1="160.6517" y1="149.2029" x2="169.5283" y2="164.5771" gradientTransform="matrix(1 0 0 -1 0 603.89)">
	<stop  offset="0" style="stop-color:#FCFCFC"/>
	<stop  offset="0.67" style="stop-color:#245DA0"/>
	<stop  offset="0.68" style="stop-color:#235B9E"/>
	<stop  offset="0.79" style="stop-color:#134587"/>
	<stop  offset="0.9" style="stop-color:#0A3879"/>
	<stop  offset="1" style="stop-color:#073475"/>
</linearGradient>
<circle style="fill:#C16B00;stroke:url(#SVGID_00000041285349688971007140000005386967359663716993_);stroke-width:0.75;stroke-miterlimit:10;" cx="165.1" cy="447" r="8.5"/>
<linearGradient id="SVGID_00000168828083263580336320000008817585145757622925_" gradientUnits="userSpaceOnUse" x1="280.6516" y1="275.2029" x2="289.5284" y2="290.5771" gradientTransform="matrix(1 0 0 -1 0 603.89)">
	<stop  offset="0" style="stop-color:#FCFCFC"/>
	<stop  offset="0.67" style="stop-color:#245DA0"/>
	<stop  offset="0.68" style="stop-color:#235B9E"/>
	<stop  offset="0.79" style="stop-color:#134587"/>
	<stop  offset="0.9" style="stop-color:#0A3879"/>
	<stop  offset="1" style="stop-color:#073475"/>
</linearGradient>
<circle style="fill:#C16B00;stroke:url(#SVGID_00000168828083263580336320000008817585145757622925_);stroke-width:0.75;stroke-miterlimit:10;" cx="285.1" cy="321" r="8.5"/>
<linearGradient id="SVGID_00000036214954879865430500000011195293888867851677_" gradientUnits="userSpaceOnUse" x1="118.6517" y1="264.2029" x2="127.5283" y2="279.5771" gradientTransform="matrix(1 0 0 -1 0 603.89)">
	<stop  offset="0" style="stop-color:#FCFCFC"/>
	<stop  offset="0.67" style="stop-color:#245DA0"/>
	<stop  offset="0.68" style="stop-color:#235B9E"/>
	<stop  offset="0.79" style="stop-color:#134587"/>
	<stop  offset="0.9" style="stop-color:#0A3879"/>
	<stop  offset="1" style="stop-color:#073475"/>
</linearGradient>
<circle style="fill:#F7B420;stroke:url(#SVGID_00000036214954879865430500000011195293888867851677_);stroke-width:0.75;stroke-miterlimit:10;" cx="123.1" cy="332" r="8.5"/>
<linearGradient id="SVGID_00000145027902340092901220000009549478304420421522_" gradientUnits="userSpaceOnUse" x1="129.6517" y1="295.2029" x2="138.5283" y2="310.5771" gradientTransform="matrix(1 0 0 -1 0 603.89)">
	<stop  offset="0" style="stop-color:#FCFCFC"/>
	<stop  offset="0.67" style="stop-color:#245DA0"/>
	<stop  offset="0.68" style="stop-color:#235B9E"/>
	<stop  offset="0.79" style="stop-color:#134587"/>
	<stop  offset="0.9" style="stop-color:#0A3879"/>
	<stop  offset="1" style="stop-color:#073475"/>
</linearGradient>
<circle style="fill:#F7B420;stroke:url(#SVGID_00000145027902340092901220000009549478304420421522_);stroke-width:0.75;stroke-miterlimit:10;" cx="134.1" cy="301" r="8.5"/>
<linearGradient id="SVGID_00000018948930850459735980000007650178541100096389_" gradientUnits="userSpaceOnUse" x1="218.6517" y1="414.2029" x2="227.5283" y2="429.5771" gradientTransform="matrix(1 0 0 -1 0 603.89)">
	<stop  offset="0" style="stop-color:#FCFCFC"/>
	<stop  offset="0.67" style="stop-color:#245DA0"/>
	<stop  offset="0.68" style="stop-color:#235B9E"/>
	<stop  offset="0.79" style="stop-color:#134587"/>
	<stop  offset="0.9" style="stop-color:#0A3879"/>
	<stop  offset="1" style="stop-color:#073475"/>
</linearGradient>
<circle style="fill:#F7B420;stroke:url(#SVGID_00000018948930850459735980000007650178541100096389_);stroke-width:0.75;stroke-miterlimit:10;" cx="223.1" cy="182" r="8.5"/>
<linearGradient id="SVGID_00000062876713039166122320000014729799655209085860_" gradientUnits="userSpaceOnUse" x1="406.1516" y1="198.7029" x2="415.0284" y2="214.0771" gradientTransform="matrix(1 0 0 -1 0 603.89)">
	<stop  offset="0" style="stop-color:#FCFCFC"/>
	<stop  offset="0.67" style="stop-color:#245DA0"/>
	<stop  offset="0.68" style="stop-color:#235B9E"/>
	<stop  offset="0.79" style="stop-color:#134587"/>
	<stop  offset="0.9" style="stop-color:#0A3879"/>
	<stop  offset="1" style="stop-color:#073475"/>
</linearGradient>
<circle style="fill:#F7B420;stroke:url(#SVGID_00000062876713039166122320000014729799655209085860_);stroke-width:0.75;stroke-miterlimit:10;" cx="410.6" cy="397.5" r="8.5"/>
<linearGradient id="SVGID_00000013175906359771189860000001422787817314421925_" gradientUnits="userSpaceOnUse" x1="406.1516" y1="272.7029" x2="415.0284" y2="288.0771" gradientTransform="matrix(1 0 0 -1 0 603.89)">
	<stop  offset="0" style="stop-color:#FCFCFC"/>
	<stop  offset="0.67" style="stop-color:#245DA0"/>
	<stop  offset="0.68" style="stop-color:#235B9E"/>
	<stop  offset="0.79" style="stop-color:#134587"/>
	<stop  offset="0.9" style="stop-color:#0A3879"/>
	<stop  offset="1" style="stop-color:#073475"/>
</linearGradient>
<circle style="fill:#F7B420;stroke:url(#SVGID_00000013175906359771189860000001422787817314421925_);stroke-width:0.75;stroke-miterlimit:10;" cx="410.6" cy="323.5" r="8.5"/>
<linearGradient id="SVGID_00000083805824699170734670000008307119621018971581_" gradientUnits="userSpaceOnUse" x1="451.1516" y1="377.7029" x2="460.0284" y2="393.0771" gradientTransform="matrix(1 0 0 -1 0 603.89)">
	<stop  offset="0" style="stop-color:#FCFCFC"/>
	<stop  offset="0.67" style="stop-color:#245DA0"/>
	<stop  offset="0.68" style="stop-color:#235B9E"/>
	<stop  offset="0.79" style="stop-color:#134587"/>
	<stop  offset="0.9" style="stop-color:#0A3879"/>
	<stop  offset="1" style="stop-color:#073475"/>
</linearGradient>
<circle style="fill:#F7B420;stroke:url(#SVGID_00000083805824699170734670000008307119621018971581_);stroke-width:0.75;stroke-miterlimit:10;" cx="455.6" cy="218.5" r="8.5"/>
<linearGradient id="SVGID_00000166672673494813674710000011887546321250643099_" gradientUnits="userSpaceOnUse" x1="460.1516" y1="444.7029" x2="469.0284" y2="460.0771" gradientTransform="matrix(1 0 0 -1 0 603.89)">
	<stop  offset="0" style="stop-color:#FCFCFC"/>
	<stop  offset="0.67" style="stop-color:#245DA0"/>
	<stop  offset="0.68" style="stop-color:#235B9E"/>
	<stop  offset="0.79" style="stop-color:#134587"/>
	<stop  offset="0.9" style="stop-color:#0A3879"/>
	<stop  offset="1" style="stop-color:#073475"/>
</linearGradient>
<circle style="fill:#F7B420;stroke:url(#SVGID_00000166672673494813674710000011887546321250643099_);stroke-width:0.75;stroke-miterlimit:10;" cx="464.6" cy="151.5" r="8.5"/>
<linearGradient id="SVGID_00000005260751743143400480000002956958737611348885_" gradientUnits="userSpaceOnUse" x1="247.1517" y1="532.7029" x2="256.0284" y2="548.0771" gradientTransform="matrix(1 0 0 -1 0 603.89)">
	<stop  offset="0" style="stop-color:#FCFCFC"/>
	<stop  offset="0.67" style="stop-color:#245DA0"/>
	<stop  offset="0.68" style="stop-color:#235B9E"/>
	<stop  offset="0.79" style="stop-color:#134587"/>
	<stop  offset="0.9" style="stop-color:#0A3879"/>
	<stop  offset="1" style="stop-color:#073475"/>
</linearGradient>
<circle style="fill:#F7B420;stroke:url(#SVGID_00000005260751743143400480000002956958737611348885_);stroke-width:0.75;stroke-miterlimit:10;" cx="251.6" cy="63.5" r="8.5"/>
<linearGradient id="SVGID_00000011002029089117706100000007474146933541431736_" gradientUnits="userSpaceOnUse" x1="202.6517" y1="128.2029" x2="211.5283" y2="143.5771" gradientTransform="matrix(1 0 0 -1 0 603.89)">
	<stop  offset="0" style="stop-color:#FCFCFC"/>
	<stop  offset="0.67" style="stop-color:#245DA0"/>
	<stop  offset="0.68" style="stop-color:#235B9E"/>
	<stop  offset="0.79" style="stop-color:#134587"/>
	<stop  offset="0.9" style="stop-color:#0A3879"/>
	<stop  offset="1" style="stop-color:#073475"/>
</linearGradient>
<circle style="fill:#9D4E01;stroke:url(#SVGID_00000011002029089117706100000007474146933541431736_);stroke-width:0.75;stroke-miterlimit:10;" cx="207.1" cy="468" r="8.5"/>
<linearGradient id="SVGID_00000071519957855241145540000000806171731975215525_" gradientUnits="userSpaceOnUse" x1="247.6517" y1="113.2029" x2="256.5284" y2="128.5771" gradientTransform="matrix(1 0 0 -1 0 603.89)">
	<stop  offset="0" style="stop-color:#FCFCFC"/>
	<stop  offset="0.67" style="stop-color:#245DA0"/>
	<stop  offset="0.68" style="stop-color:#235B9E"/>
	<stop  offset="0.79" style="stop-color:#134587"/>
	<stop  offset="0.9" style="stop-color:#0A3879"/>
	<stop  offset="1" style="stop-color:#073475"/>
</linearGradient>
<circle style="fill:#7F3603;stroke:url(#SVGID_00000071519957855241145540000000806171731975215525_);stroke-width:0.75;stroke-miterlimit:10;" cx="252.1" cy="483" r="8.5"/>
<linearGradient id="SVGID_00000093876921115328116220000001438119807203564453_" gradientUnits="userSpaceOnUse" x1="308.6516" y1="207.2029" x2="317.5284" y2="222.5771" gradientTransform="matrix(1 0 0 -1 0 603.89)">
	<stop  offset="0" style="stop-color:#FCFCFC"/>
	<stop  offset="0.67" style="stop-color:#245DA0"/>
	<stop  offset="0.68" style="stop-color:#235B9E"/>
	<stop  offset="0.79" style="stop-color:#134587"/>
	<stop  offset="0.9" style="stop-color:#0A3879"/>
	<stop  offset="1" style="stop-color:#073475"/>
</linearGradient>
<circle style="fill:#7F3603;stroke:url(#SVGID_00000093876921115328116220000001438119807203564453_);stroke-width:0.75;stroke-miterlimit:10;" cx="313.1" cy="389" r="8.5"/>
<linearGradient id="SVGID_00000165195554703949039270000015981750678671939251_" gradientUnits="userSpaceOnUse" x1="288.6516" y1="186.2029" x2="297.5284" y2="201.5771" gradientTransform="matrix(1 0 0 -1 0 603.89)">
	<stop  offset="0" style="stop-color:#FCFCFC"/>
	<stop  offset="0.67" style="stop-color:#245DA0"/>
	<stop  offset="0.68" style="stop-color:#235B9E"/>
	<stop  offset="0.79" style="stop-color:#134587"/>
	<stop  offset="0.9" style="stop-color:#0A3879"/>
	<stop  offset="1" style="stop-color:#073475"/>
</linearGradient>
<circle style="fill:#7F3603;stroke:url(#SVGID_00000165195554703949039270000015981750678671939251_);stroke-width:0.75;stroke-miterlimit:10;" cx="293.1" cy="410" r="8.5"/>
<linearGradient id="SVGID_00000040562333491077158250000000510500257426681269_" gradientUnits="userSpaceOnUse" x1="446.6516" y1="48.2029" x2="455.5284" y2="63.5771" gradientTransform="matrix(1 0 0 -1 0 603.89)">
	<stop  offset="0" style="stop-color:#FCFCFC"/>
	<stop  offset="0.67" style="stop-color:#245DA0"/>
	<stop  offset="0.68" style="stop-color:#235B9E"/>
	<stop  offset="0.79" style="stop-color:#134587"/>
	<stop  offset="0.9" style="stop-color:#0A3879"/>
	<stop  offset="1" style="stop-color:#073475"/>
</linearGradient>
<circle style="fill:#7F3603;stroke:url(#SVGID_00000040562333491077158250000000510500257426681269_);stroke-width:0.75;stroke-miterlimit:10;" cx="451.1" cy="548" r="8.5"/>
<linearGradient id="SVGID_00000024689319708785532010000014077989884392849855_" gradientUnits="userSpaceOnUse" x1="288.6516" y1="216.2029" x2="297.5284" y2="231.5771" gradientTransform="matrix(1 0 0 -1 0 603.89)">
	<stop  offset="0" style="stop-color:#FCFCFC"/>
	<stop  offset="0.67" style="stop-color:#245DA0"/>
	<stop  offset="0.68" style="stop-color:#235B9E"/>
	<stop  offset="0.79" style="stop-color:#134587"/>
	<stop  offset="0.9" style="stop-color:#0A3879"/>
	<stop  offset="1" style="stop-color:#073475"/>
</linearGradient>
<circle style="fill:#7F3603;stroke:url(#SVGID_00000024689319708785532010000014077989884392849855_);stroke-width:0.75;stroke-miterlimit:10;" cx="293.1" cy="380" r="8.5"/>
<linearGradient id="SVGID_00000028318829198950313960000002312621365387879332_" gradientUnits="userSpaceOnUse" x1="524.6517" y1="235.2029" x2="533.5284" y2="250.5771" gradientTransform="matrix(1 0 0 -1 0 603.89)">
	<stop  offset="0" style="stop-color:#FCFCFC"/>
	<stop  offset="0.67" style="stop-color:#245DA0"/>
	<stop  offset="0.68" style="stop-color:#235B9E"/>
	<stop  offset="0.79" style="stop-color:#134587"/>
	<stop  offset="0.9" style="stop-color:#0A3879"/>
	<stop  offset="1" style="stop-color:#073475"/>
</linearGradient>
<circle style="fill:#7F3603;stroke:url(#SVGID_00000028318829198950313960000002312621365387879332_);stroke-width:0.75;stroke-miterlimit:10;" cx="529.1" cy="361" r="8.5"/>
<linearGradient id="SVGID_00000142875289815502270460000000662628699851965624_" gradientUnits="userSpaceOnUse" x1="202.6517" y1="146.2029" x2="211.5283" y2="161.5771" gradientTransform="matrix(1 0 0 -1 0 603.89)">
	<stop  offset="0" style="stop-color:#FCFCFC"/>
	<stop  offset="0.67" style="stop-color:#245DA0"/>
	<stop  offset="0.68" style="stop-color:#235B9E"/>
	<stop  offset="0.79" style="stop-color:#134587"/>
	<stop  offset="0.9" style="stop-color:#0A3879"/>
	<stop  offset="1" style="stop-color:#073475"/>
</linearGradient>
<circle style="fill:#9D4E01;stroke:url(#SVGID_00000142875289815502270460000000662628699851965624_);stroke-width:0.75;stroke-miterlimit:10;" cx="207.1" cy="450" r="8.5"/>
<linearGradient id="SVGID_00000023273342091489451220000003513431471757719969_" gradientUnits="userSpaceOnUse" x1="346.6516" y1="137.2029" x2="355.5284" y2="152.5771" gradientTransform="matrix(1 0 0 -1 0 603.89)">
	<stop  offset="0" style="stop-color:#FCFCFC"/>
	<stop  offset="0.67" style="stop-color:#245DA0"/>
	<stop  offset="0.68" style="stop-color:#235B9E"/>
	<stop  offset="0.79" style="stop-color:#134587"/>
	<stop  offset="0.9" style="stop-color:#0A3879"/>
	<stop  offset="1" style="stop-color:#073475"/>
</linearGradient>
<circle style="fill:#643001;stroke:url(#SVGID_00000023273342091489451220000003513431471757719969_);stroke-width:0.75;stroke-miterlimit:10;" cx="351.1" cy="459" r="8.5"/>
<linearGradient id="SVGID_00000136413448203905327060000005983441720530757295_" gradientUnits="userSpaceOnUse" x1="508.6517" y1="101.2029" x2="517.5284" y2="116.5771" gradientTransform="matrix(1 0 0 -1 0 603.89)">
	<stop  offset="0" style="stop-color:#FCFCFC"/>
	<stop  offset="0.67" style="stop-color:#245DA0"/>
	<stop  offset="0.68" style="stop-color:#235B9E"/>
	<stop  offset="0.79" style="stop-color:#134587"/>
	<stop  offset="0.9" style="stop-color:#0A3879"/>
	<stop  offset="1" style="stop-color:#073475"/>
</linearGradient>
<circle style="fill:#643001;stroke:url(#SVGID_00000136413448203905327060000005983441720530757295_);stroke-width:0.75;stroke-miterlimit:10;" cx="513.1" cy="495" r="8.5"/>
<linearGradient id="SVGID_00000005237686347529171750000016313502759766228127_" gradientUnits="userSpaceOnUse" x1="325.6516" y1="109.2029" x2="334.5284" y2="124.5771" gradientTransform="matrix(1 0 0 -1 0 603.89)">
	<stop  offset="0" style="stop-color:#FCFCFC"/>
	<stop  offset="0.67" style="stop-color:#245DA0"/>
	<stop  offset="0.68" style="stop-color:#235B9E"/>
	<stop  offset="0.79" style="stop-color:#134587"/>
	<stop  offset="0.9" style="stop-color:#0A3879"/>
	<stop  offset="1" style="stop-color:#073475"/>
</linearGradient>
<circle style="fill:#643001;stroke:url(#SVGID_00000005237686347529171750000016313502759766228127_);stroke-width:0.75;stroke-miterlimit:10;" cx="330.1" cy="487" r="8.5"/>
<linearGradient id="SVGID_00000161614641502052273470000005289940504827551873_" gradientUnits="userSpaceOnUse" x1="142.149" y1="126.3382" x2="152.031" y2="143.4418" gradientTransform="matrix(1 0 0 -1 0 603.89)">
	<stop  offset="0" style="stop-color:#FCFCFC"/>
	<stop  offset="0.67" style="stop-color:#245DA0"/>
	<stop  offset="0.68" style="stop-color:#235B9E"/>
	<stop  offset="0.79" style="stop-color:#134587"/>
	<stop  offset="0.9" style="stop-color:#0A3879"/>
	<stop  offset="1" style="stop-color:#073475"/>
</linearGradient>
<circle style="fill:#DE8500;stroke:url(#SVGID_00000161614641502052273470000005289940504827551873_);stroke-width:0.75;stroke-miterlimit:10;" cx="147.1" cy="469" r="9.5"/>
<linearGradient id="SVGID_00000085243830642114476230000003272782539926721938_" gradientUnits="userSpaceOnUse" x1="152.149" y1="249.3382" x2="162.031" y2="266.4418" gradientTransform="matrix(1 0 0 -1 0 603.89)">
	<stop  offset="0" style="stop-color:#FCFCFC"/>
	<stop  offset="0.67" style="stop-color:#245DA0"/>
	<stop  offset="0.68" style="stop-color:#235B9E"/>
	<stop  offset="0.79" style="stop-color:#134587"/>
	<stop  offset="0.9" style="stop-color:#0A3879"/>
	<stop  offset="1" style="stop-color:#073475"/>
</linearGradient>
<circle style="fill:#E48D00;stroke:url(#SVGID_00000085243830642114476230000003272782539926721938_);stroke-width:0.75;stroke-miterlimit:10;" cx="157.1" cy="346" r="9.5"/>
<linearGradient id="SVGID_00000085251813813770774500000017294235740641896125_" gradientUnits="userSpaceOnUse" x1="235.6517" y1="513.2029" x2="244.5283" y2="528.5771" gradientTransform="matrix(1 0 0 -1 0 603.89)">
	<stop  offset="0" style="stop-color:#FCFCFC"/>
	<stop  offset="0.67" style="stop-color:#245DA0"/>
	<stop  offset="0.68" style="stop-color:#235B9E"/>
	<stop  offset="0.79" style="stop-color:#134587"/>
	<stop  offset="0.9" style="stop-color:#0A3879"/>
	<stop  offset="1" style="stop-color:#073475"/>
</linearGradient>
<circle style="fill:#F7B420;stroke:url(#SVGID_00000085251813813770774500000017294235740641896125_);stroke-width:0.75;stroke-miterlimit:10;" cx="240.1" cy="83" r="8.5"/>
<g class="st38">
	<path class="st39" d="M67,7.4h-1.4v2.2h-0.7V7.4h-1.4v2.2h-0.7V7.4h-1.4V6.8H67L67,7.4z M61.9,4.8c0-0.8,0.9-1.4,2.2-1.4
		c1.3,0,2.2,0.5,2.2,1.4c0,0.9-0.9,1.4-2.2,1.4C62.8,6.2,61.9,5.7,61.9,4.8z M62.6,4.8c0,0.5,0.6,0.8,1.5,0.8c0.9,0,1.5-0.3,1.5-0.8
		C65.6,4.3,65,4,64.1,4C63.2,4,62.6,4.3,62.6,4.8z"/>
	<path class="st39" d="M68.8,7.4c1,0,1.9-0.1,2.9-0.2l0.1,0.6C70.7,8,69.7,8,68.6,8h-0.5V5.5h2.2V4.3h-2.2V3.8H71v2.3h-2.2V7.4z
		 M72.9,3.2v6.4h-0.7V3.2H72.9z"/>
	<path class="st39" d="M77.4,3.5c0,1.7-0.9,2.8-2.9,3.4l-0.3-0.6c1-0.3,1.6-0.7,2-1.1l-1.9,0.1l-0.1-0.6l2.3-0.1
		c0.1-0.2,0.1-0.4,0.1-0.6h-2.1V3.5H77.4z M78.7,7h0.7v2.5h-4.1V7H76v0.7h2.7V7z M78.7,8.2H76v0.7h2.7V8.2z M79.4,3.2v3.5h-0.7V5.4
		h-1.3V4.8h1.3V3.2H79.4z"/>
	<path class="st39" d="M84,3.3h0.7v5.9H84v-3h-0.7c-0.1,1.2-0.6,2-1.4,2c-0.8,0-1.4-0.9-1.4-2.2s0.5-2.2,1.4-2.2
		c0.8,0,1.3,0.7,1.3,1.9H84V3.3z M82.7,5.9c0-1-0.3-1.6-0.7-1.6c-0.4,0-0.7,0.6-0.7,1.6s0.3,1.6,0.7,1.6C82.5,7.5,82.7,6.9,82.7,5.9
		z M86,3.2v6.3h-0.7V3.2H86z"/>
	<path class="st39" d="M91.8,6.4v0.5h1.8v1.5H90v0.5h3.8v0.6h-4.5V7.9h3.6V7.4h-3.6V6.9h1.8V6.4h-2.5V5.8h5.7v0.6H91.8z M93.6,5.3
		h-4.3v-2h4.3V5.3z M92.9,4H90v0.8h2.8V4z"/>
	<path class="st39" d="M98.3,6.5h-3V3.6H96v0.9h1.5V3.6h0.7V6.5z M100.1,8.3c0,0.8-0.8,1.2-2.1,1.2s-2.1-0.4-2.1-1.2
		c0-0.8,0.8-1.2,2.1-1.2S100.1,7.6,100.1,8.3z M97.5,5H96V6h1.5V5z M99.3,8.3c0-0.4-0.5-0.6-1.4-0.6s-1.4,0.2-1.4,0.6
		C96.6,8.7,97.1,9,98,9S99.3,8.7,99.3,8.3z M100.9,4.7v0.6H100V7h-0.7V3.2h0.7v1.5H100.9z"/>
	<path class="st39" d="M104.7,6.4v0.5h1.8v1.5h-3.6v0.5h3.8v0.6h-4.5V7.9h3.6V7.4h-3.6V6.9h1.8V6.4h-2.5V5.8h5.7v0.6H104.7z
		 M102.1,4.3c0-0.7,0.8-1.1,2.3-1.1c1.4,0,2.3,0.4,2.3,1.1c0,0.7-0.8,1.1-2.3,1.1C102.9,5.4,102.1,5.1,102.1,4.3z M102.8,4.3
		c0,0.4,0.5,0.6,1.5,0.6s1.5-0.2,1.5-0.6s-0.5-0.6-1.5-0.6S102.8,4,102.8,4.3z"/>
	<path class="st39" d="M111.4,5.9c0,1.4-0.7,2.2-1.6,2.2c-0.9,0-1.6-0.9-1.6-2.2c0-1.4,0.7-2.2,1.6-2.2
		C110.7,3.7,111.4,4.5,111.4,5.9z M108.8,5.9c0,1,0.4,1.6,0.9,1.6c0.6,0,0.9-0.6,0.9-1.6c0-1-0.4-1.6-0.9-1.6
		C109.2,4.3,108.8,4.9,108.8,5.9z M113.1,3.2v6.3h-0.7V3.2H113.1z"/>
	<path class="st39" d="M118.7,6.4h-2.5V3.7h2.5V6.4z M119.6,7.7c0.1,0.6,0.9,1.1,2,1.3l-0.2,0.5c-1-0.1-1.8-0.5-2.2-1.1
		c-0.4,0.6-1.1,1-2.2,1.1L116.8,9c1.2-0.1,2-0.7,2-1.3h-1.8V7.1h4.3v0.6H119.6z M118,4.2h-1.1v1.7h1.1V4.2z M119.9,6.8h-0.7V3.3h0.7
		v1.4h0.7V3.2h0.7v3.6h-0.7V5.3h-0.7V6.8z"/>
	<path class="st39" d="M124.8,4.2h1.5v0.6h-3.8V4.2h1.5V3.3h0.7V4.2z M126,6.7c0,0.9-0.7,1.5-1.6,1.5s-1.6-0.6-1.6-1.5
		c0-0.9,0.7-1.5,1.6-1.5S126,5.8,126,6.7z M125.3,6.7c0-0.5-0.4-0.9-0.9-0.9c-0.5,0-0.9,0.4-0.9,0.9s0.4,0.9,0.9,0.9
		C124.9,7.6,125.3,7.2,125.3,6.7z M127.6,3.2v6.3h-0.7V3.2H127.6z"/>
	<path class="st39" d="M132,6.7h-2.9v-3h2.9v0.5h1.3V3.2h0.7v4.6h-0.7V6.2H132V6.7z M131.3,4.3h-1.5v1.9h1.5V4.3z M134.2,8.8v0.6
		h-4.3v-2h0.7v1.4H134.2z M132,4.8v0.8h1.3V4.8H132z"/>
</g>
<g class="st38">
	<path class="st39" d="M66.5,23.2v6.3h-0.7v-3.4h-1.2c-0.1,1.2-0.7,2-1.6,2c-0.9,0-1.6-0.9-1.6-2.2c0-1.4,0.7-2.2,1.6-2.2
		c0.8,0,1.5,0.7,1.6,1.9h1.2v-2.4H66.5z M63.9,25.9c0-1-0.4-1.6-0.9-1.6c-0.5,0-0.9,0.6-0.9,1.6c0,1,0.4,1.6,0.9,1.6
		C63.5,27.5,63.9,26.9,63.9,25.9z"/>
	<path class="st39" d="M73.4,28.1v0.6h-5.7v-0.6H73.4z M72.8,26.6h-4.4v-2.9h0.7V26h3.7V26.6z"/>
	<path class="st39" d="M79.9,26.4v0.6h-2.5v1.2h-0.7v-1.2h-2.6v-0.6H79.9z M79.3,25.9c-1-0.2-1.9-0.7-2.3-1.4
		c-0.4,0.7-1.2,1.2-2.3,1.4l-0.3-0.6c1.2-0.2,2.2-0.9,2.2-1.7v-0.3h0.7v0.3c0,0.8,0.9,1.5,2.2,1.7L79.3,25.9z M75.6,28.8h3.7v0.6
		h-4.4v-1.8h0.7V28.8z"/>
	<path class="st39" d="M83.8,23.7c0,1.7-1.1,2.9-3,3.4l-0.3-0.6c1.4-0.4,2.3-1.3,2.5-2.3h-2.2v-0.6H83.8z M82.2,28.8h3.5v0.6h-4.3
		v-2.1h0.7V28.8z M86.4,25v0.6h-0.9v2.1h-0.7v-4.6h0.7V25H86.4z"/>
</g>
<g class="st38">
	<path class="st39" d="M67,47.6h-2.5v2h-0.7v-2h-2.5V47H67V47.6z M66.4,46.4H62v-3h4.3V44h-3.6v0.6h3.4v0.6h-3.4v0.6h3.7V46.4z"/>
	<path class="st39" d="M70.9,46.5H68v-2.9h2.9v0.5h1.3v-1H73v3.7h-0.7V46h-1.3V46.5z M70.2,44.2h-1.5v1.7h1.5V44.2z M73,48.3
		c0,0.8-0.8,1.2-2.1,1.2c-1.3,0-2.1-0.4-2.1-1.2c0-0.8,0.8-1.2,2.1-1.2C72.2,47.1,73,47.5,73,48.3z M72.3,48.3
		c0-0.4-0.5-0.6-1.4-0.6s-1.4,0.2-1.4,0.6c0,0.4,0.5,0.7,1.4,0.7S72.3,48.7,72.3,48.3z M70.9,44.8v0.7h1.3v-0.7H70.9z"/>
	<path class="st39" d="M77.9,44.5h-3.7v-0.6h1.5v-0.7h0.7v0.7h1.5V44.5z M76,47.2c-0.9,0-1.5-0.5-1.5-1.2c0-0.7,0.6-1.2,1.5-1.2
		c0.9,0,1.5,0.5,1.5,1.2C77.6,46.7,76.9,47.2,76,47.2z M75.8,48.8h3.5v0.6h-4.3v-1.8h0.7V48.8z M76,46.6c0.5,0,0.8-0.2,0.8-0.6
		c0-0.4-0.3-0.6-0.8-0.6c-0.5,0-0.8,0.2-0.8,0.6C75.2,46.4,75.5,46.6,76,46.6z M80,45.2v0.6h-0.9v2.1h-0.7v-4.7h0.7v2H80z"/>
	<path class="st39" d="M85.4,46.4v0.5h1.8v1.5h-3.6v0.5h3.8v0.6h-4.5v-1.6h3.6v-0.4h-3.6v-0.5h1.8v-0.5h-2.5v-0.6h5.7v0.6H85.4z
		 M87.2,45.3h-4.3v-2h4.3V45.3z M86.4,44h-2.8v0.8h2.8V44z"/>
	<path class="st39" d="M91.8,46.5h-3v-2.9h0.7v0.9h1.5v-0.9h0.7V46.5z M93.6,48.3c0,0.8-0.8,1.2-2.1,1.2s-2.1-0.4-2.1-1.2
		c0-0.8,0.8-1.2,2.1-1.2S93.6,47.6,93.6,48.3z M91.1,45h-1.5V46h1.5V45z M92.9,48.3c0-0.4-0.5-0.6-1.4-0.6s-1.4,0.2-1.4,0.6
		c0,0.4,0.5,0.6,1.4,0.6S92.9,48.7,92.9,48.3z M94.4,44.7v0.6h-0.9V47h-0.7v-3.8h0.7v1.5H94.4z"/>
	<path class="st39" d="M98.3,46.4v0.5h1.8v1.5h-3.6v0.5h3.8v0.6h-4.5v-1.6h3.6v-0.5h-3.6v-0.5h1.8v-0.5H95v-0.6h5.7v0.6H98.3z
		 M95.7,44.3c0-0.7,0.8-1.1,2.3-1.1c1.4,0,2.3,0.4,2.3,1.1c0,0.7-0.8,1.1-2.3,1.1C96.5,45.4,95.7,45.1,95.7,44.3z M96.4,44.3
		c0,0.4,0.5,0.6,1.5,0.6s1.5-0.2,1.5-0.6s-0.5-0.6-1.5-0.6S96.4,44,96.4,44.3z"/>
	<path class="st39" d="M103.4,47.6c0.7,0,1.3-0.1,1.9-0.1l0,0.5c-1.3,0.2-2.8,0.2-3.9,0.2l-0.1-0.6c0.4,0,0.8,0,1.3,0v-1.9h0.7V47.6
		z M104.1,46.7c0.2-1,0.2-1.7,0.2-2.2h-2.5v-0.6h3.2v0.4c0,0.6,0,1.4-0.2,2.5L104.1,46.7z M107.3,46.4h-0.9v3.1h-0.7v-6.3h0.7v2.6
		h0.9V46.4z"/>
</g>
<g class="st38">
	<path class="st39" d="M64.6,63.5c0,1.7-0.9,2.8-2.9,3.4l-0.3-0.6c1-0.3,1.6-0.7,2-1.1l-1.9,0.1l-0.1-0.6l2.3-0.1
		c0.1-0.2,0.1-0.4,0.1-0.6h-2.1v-0.6H64.6z M65.8,67h0.7v2.5h-4.1V67h0.7v0.7h2.7V67z M65.8,68.2h-2.7v0.7h2.7V68.2z M66.5,63.2v3.5
		h-0.7v-1.3h-1.3v-0.6h1.3v-1.6H66.5z"/>
	<path class="st39" d="M71.2,63.3h0.7v5.9h-0.7v-3h-0.7c-0.1,1.2-0.6,2-1.4,2c-0.8,0-1.4-0.9-1.4-2.2s0.5-2.2,1.4-2.2
		c0.8,0,1.3,0.7,1.3,1.9h0.7V63.3z M69.8,65.9c0-1-0.3-1.6-0.7-1.6c-0.4,0-0.7,0.6-0.7,1.6s0.3,1.6,0.7,1.6
		C69.6,67.5,69.8,66.9,69.8,65.9z M73.1,63.2v6.3h-0.7v-6.3H73.1z"/>
	<path class="st39" d="M78.9,66.5V67h1.8v0.5h-3.6V68h3.5v0.5h-3.5v0.5h3.7v0.5h-4.4V67h1.8v-0.5h-2.5v-0.6h5.7v0.6H78.9z
		 M80.7,65.4h-4.2v-2.1h0.7v0.5H80v-0.5h0.7V65.4z M80,64.4h-2.8v0.5H80V64.4z"/>
	<path class="st39" d="M87.9,66.5v0.6h-5.7v-0.6H87.9z M82.8,64.7c0-0.8,0.9-1.3,2.3-1.3s2.3,0.5,2.3,1.3c0,0.8-0.9,1.3-2.3,1.3
		S82.8,65.5,82.8,64.7z M83.6,68.8h3.6v0.6h-4.4v-1.8h0.7V68.8z M83.5,64.7c0,0.4,0.6,0.7,1.5,0.7c0.9,0,1.5-0.3,1.5-0.7
		c0-0.4-0.6-0.7-1.5-0.7C84.1,64,83.5,64.2,83.5,64.7z"/>
	<path class="st39" d="M95.9,68.2v0.6h-5.7v-0.6h2.5v-1.2c-1.2-0.1-2-0.7-2-1.7c0-1,1-1.7,2.3-1.7c1.3,0,2.3,0.7,2.3,1.7
		c0,0.9-0.8,1.6-2,1.7v1.2H95.9z M93,66.4c0.9,0,1.6-0.4,1.6-1.1S94,64.1,93,64.1c-0.9,0-1.6,0.4-1.6,1.1S92.1,66.4,93,66.4z"/>
	<path class="st39" d="M99.6,66.9C98.9,67,98.2,67,97.3,67h-0.4v-2h1.5v-0.8h-1.5v-0.6h2.2v1.9h-1.5v0.8c0.7,0,1.3,0,2-0.2
		L99.6,66.9z M102.2,68.8v0.6h-4.4v-1.9h0.7v1.3H102.2z M100,65.5h-0.7v-0.6h0.7v-1.6h0.7v4.5H100V65.5z M102,68h-0.7v-4.8h0.7V68z"
		/>
	<path class="st39" d="M105.4,65c0,1.1,0.7,2.1,1.6,2.6l-0.4,0.6c-0.7-0.3-1.3-1-1.6-1.8c-0.3,0.9-0.8,1.6-1.6,2l-0.4-0.6
		c1-0.5,1.6-1.6,1.6-2.7v-0.6h-1.4v-0.6h3.5v0.6h-1.4V65z M108.3,63.2v6.3h-0.7v-6.3H108.3z"/>
	<path class="st39" d="M116.8,67.3h-2.5v2.2h-0.7v-2.2h-2.5v-0.6h5.7L116.8,67.3z M111.4,65.7c1.2-0.2,2.1-0.9,2.1-1.6h-1.9v-0.6
		h4.7v0.6h-1.9c0,0.7,0.9,1.4,2.1,1.6l-0.3,0.6c-1-0.2-1.9-0.7-2.3-1.4c-0.4,0.7-1.2,1.2-2.3,1.4L111.4,65.7z"/>
	<path class="st39" d="M123.3,68.1v0.6h-5.7v-0.6H123.3z M122.7,66.9c-1-0.2-1.9-0.9-2.3-1.7c-0.4,0.9-1.3,1.5-2.3,1.7l-0.3-0.6
		c1.2-0.2,2.3-1.2,2.3-2.2v-0.5h0.8v0.5c0,1,1,2,2.3,2.2L122.7,66.9z"/>
	<path class="st39" d="M127.2,63.9c0,1.8-0.8,3.5-2.9,4.5l-0.4-0.6c1.5-0.8,2.4-1.9,2.5-3.4h-2.2v-0.6H127.2z M129.8,66.3h-1v3.2
		h-0.7v-6.3h0.7v2.5h1V66.3z"/>
	<path class="st39" d="M133,63.7v1.6h1.6v-1.6h0.7V68h-3v-4.3H133z M133,67.4h1.6v-1.5H133V67.4z M137.2,63.2v6.3h-0.7v-6.3H137.2z"
		/>
	<path class="st39" d="M144.1,66.2v0.6h-5.7v-0.6H144.1z M143.6,65.8c-1-0.2-1.9-0.7-2.3-1.3c-0.4,0.7-1.3,1.2-2.3,1.3l-0.3-0.6
		c1.2-0.2,2.2-0.9,2.2-1.7v-0.2h0.7v0.2c0,0.7,0.9,1.5,2.2,1.7L143.6,65.8z M141.6,67.4c0,0.7,0.8,1.4,2.1,1.6l-0.3,0.6
		c-1-0.1-1.8-0.6-2.2-1.2c-0.4,0.6-1.2,1.1-2.2,1.2l-0.3-0.6c1.3-0.2,2.1-0.8,2.1-1.6v-0.2h0.7V67.4z"/>
	<path class="st39" d="M147,64.2h1.5v0.6h-3.7v-0.6h1.5v-0.9h0.7V64.2z M148.3,66.7c0,0.9-0.7,1.5-1.6,1.5c-0.9,0-1.6-0.6-1.6-1.5
		c0-0.9,0.7-1.5,1.6-1.5C147.6,65.2,148.3,65.8,148.3,66.7z M147.6,66.7c0-0.5-0.4-0.9-0.9-0.9s-0.9,0.4-0.9,0.9s0.4,0.9,0.9,0.9
		S147.6,67.2,147.6,66.7z M150.7,66.3h-1v3.2H149v-6.3h0.7v2.5h1V66.3z"/>
	<path class="st39" d="M154.7,63.3h0.7v5.9h-0.7v-2.9h-1.2c-0.4,0.7-1,1.4-1.8,1.9l-0.4-0.5c1.3-0.8,1.9-1.8,2-3.1h-1.7V64h2.5
		c0,0.6-0.1,1.2-0.3,1.7h0.9V63.3z M156.7,63.2v6.3H156v-6.3H156.7z"/>
	<path class="st39" d="M165,68.2v0.6h-5.7v-0.6h2.5v-1.3H160v-3.3h0.7v1.1h3v-1.1h0.7v3.3h-1.9v1.3H165z M160.7,66.3h3v-1h-3V66.3z"
		/>
	<path class="st39" d="M169.2,65.9c0,1.4-0.7,2.2-1.6,2.2c-0.9,0-1.6-0.9-1.6-2.2c0-1.4,0.7-2.2,1.6-2.2
		C168.5,63.7,169.2,64.5,169.2,65.9z M166.7,65.9c0,1,0.4,1.6,0.9,1.6c0.6,0,0.9-0.6,0.9-1.6c0-1-0.4-1.6-0.9-1.6
		C167,64.3,166.7,64.9,166.7,65.9z M171,63.2v6.3h-0.7v-6.3H171z"/>
	<path class="st39" d="M177.9,66.4v0.6h-5.7v-0.6H177.9z M173.6,68.8h3.7v0.6h-4.4v-1.9h0.7V68.8z M177.3,65.6h-4.3v-2.2h0.7V65h3.6
		V65.6z"/>
	<path class="st39" d="M185.9,66.4v0.6h-2.5v1.2h-0.7v-1.2h-2.6v-0.6H185.9z M185.3,65.9c-1-0.2-1.9-0.7-2.3-1.4
		c-0.4,0.7-1.2,1.2-2.3,1.4l-0.3-0.6c1.2-0.2,2.2-0.9,2.2-1.7v-0.3h0.7v0.3c0,0.8,0.9,1.5,2.2,1.7L185.3,65.9z M181.6,68.8h3.7v0.6
		h-4.4v-1.8h0.7V68.8z"/>
	<path class="st39" d="M189.9,63.7c0,1.7-1.1,2.9-3,3.4l-0.3-0.6c1.5-0.4,2.3-1.3,2.5-2.3h-2.2v-0.6H189.9z M188.3,68.8h3.5v0.6
		h-4.3v-2.1h0.7V68.8z M192.5,65v0.6h-0.9v2.1h-0.7v-4.6h0.7V65H192.5z"/>
	<path class="st39" d="M196.6,65.9c0,1.4-0.7,2.2-1.6,2.2c-0.9,0-1.6-0.9-1.6-2.2c0-1.4,0.7-2.2,1.6-2.2
		C195.9,63.7,196.6,64.5,196.6,65.9z M194,65.9c0,1,0.4,1.6,0.9,1.6c0.6,0,0.9-0.6,0.9-1.6c0-1-0.4-1.6-0.9-1.6
		C194.4,64.3,194,64.9,194,65.9z M198.3,63.2v6.3h-0.7v-6.3H198.3z"/>
</g>
<g class="st38">
	<path class="st39" d="M61.4,85c0-0.9,0.7-1.5,1.7-1.5c1,0,1.7,0.6,1.7,1.5c0,0.9-0.7,1.5-1.7,1.5C62.1,86.5,61.4,85.9,61.4,85z
		 M65.8,87.3c0,0.7,0.4,1.3,1.2,1.6l-0.4,0.5c-0.6-0.2-1-0.6-1.2-1.1c-0.2,0.5-0.6,1-1.2,1.2c-0.6-0.2-1-0.7-1.2-1.2
		c-0.2,0.5-0.6,0.9-1.2,1.1l-0.4-0.5c0.8-0.3,1.2-0.9,1.2-1.6v-0.3h0.7v0.3c0,0.5,0.2,1.1,0.8,1.5c0.6-0.4,0.8-1,0.8-1.5v-0.3h0.7
		V87.3z M62.1,85c0,0.5,0.4,0.9,1,0.9c0.6,0,1-0.3,1-0.9c0-0.5-0.4-0.9-1-0.9C62.5,84.1,62.1,84.5,62.1,85z M66.5,86.8h-0.7v-3.6
		h0.7V86.8z"/>
	<path class="st39" d="M73.4,86v0.6h-5.7V86H73.4z M72.9,85.6c-1-0.1-1.9-0.6-2.3-1.3c-0.4,0.7-1.3,1.1-2.3,1.3L68,85.1
		c1.3-0.2,2.2-0.8,2.2-1.6v-0.2h0.7v0.2c0,0.7,0.9,1.4,2.2,1.6L72.9,85.6z M72,87h0.7v2.5h-4.3V87h0.7v0.6H72V87z M72,88.2h-2.9v0.7
		H72V88.2z"/>
	<path class="st39" d="M75.2,87.3c0.9,0,1.8-0.1,2.8-0.3l0.1,0.6c-1.1,0.2-2.1,0.3-3.1,0.3h-0.5v-4.1h0.7V87.3z M79.4,83.2v6.3h-0.7
		v-6.3H79.4z"/>
	<path class="st39" d="M81.6,87.4c1,0,1.8,0,2.7-0.2l0.1,0.6c-1,0.2-1.8,0.2-3,0.2h-0.5v-4.2h2.9v0.6h-2.2V87.4z M86.5,86.2h-1v3.3
		h-0.7v-6.3h0.7v2.4h1V86.2z"/>
	<path class="st39" d="M87.2,88.5c0-0.3,0.2-0.6,0.5-0.6s0.5,0.2,0.5,0.6c0,0.3-0.2,0.6-0.5,0.6S87.2,88.8,87.2,88.5z"/>
</g>
</svg>
