<?xml version="1.0" encoding="UTF-8"?><svg id="Layer_2" xmlns="http://www.w3.org/2000/svg" viewBox="0 0 139.6 86.6"><defs><style>.cls-1{fill:none;stroke:#fff;stroke-miterlimit:10;stroke-width:.25px;}</style></defs><g id="_레이어_1"><path class="cls-1" d="m5.88,4.3h-1.43v2.16h-.74v-2.16h-1.44v2.16h-.74v-2.16H.13v-.6h5.74v.6ZM.74,1.76C.74.92,1.65.37,2.99.37s2.24.55,2.24,1.39-.91,1.4-2.24,1.4S.74,2.62.74,1.76Zm.74,0c0,.51.59.82,1.51.82s1.5-.31,1.5-.82-.59-.81-1.5-.81-1.51.31-1.51.81Z"/><path class="cls-1" d="m7.67,4.38c1,0,1.88-.06,2.88-.22l.08.59c-1.09.19-2.03.22-3.14.22h-.54v-2.51h2.21v-1.18h-2.22v-.59h2.95v2.35h-2.21v1.33ZM11.8.12v6.35h-.73V.12h.73Z"/><path class="cls-1" d="m16.3.45c0,1.67-.88,2.81-2.87,3.4l-.28-.57c.95-.27,1.59-.67,1.97-1.15l-1.88.14-.1-.58,2.27-.09c.06-.18.11-.36.13-.56h-2.09V.45h2.85Zm1.24,3.47h.71v2.47h-4.1v-2.47h.71v.67h2.68v-.67Zm0,1.23h-2.68v.66h2.68v-.66Zm.71-5.01v3.49h-.72v-1.3h-1.26v-.6h1.26V.14h.72Z"/><path class="cls-1" d="m22.91.26h.67v5.9h-.67v-3.03h-.67c-.06,1.23-.58,1.99-1.35,1.99-.82,0-1.36-.86-1.36-2.25s.54-2.24,1.36-2.24c.76,0,1.27.72,1.34,1.91h.68V.26Zm-1.32,2.61c0-1-.27-1.56-.7-1.56s-.7.56-.7,1.56.27,1.57.7,1.57.7-.57.7-1.57ZM24.86.14v6.32h-.69V.14h.69Z"/><path class="cls-1" d="m31.08,3.3v.53h1.79v1.51h-3.6v.52h3.78v.55h-4.5v-1.58h3.61v-.45h-3.62v-.55h1.81v-.53h-2.49v-.57h5.73v.57h-2.51Zm1.76-1.02h-4.26V.34h4.26v1.95Zm-.71-1.39h-2.84v.83h2.84v-.83Z"/><path class="cls-1" d="m37.5,3.48h-2.98V.54h.72v.88h1.55v-.88h.71v2.94Zm1.81,1.79c0,.76-.81,1.2-2.11,1.2s-2.11-.45-2.11-1.2.81-1.2,2.11-1.2,2.11.46,2.11,1.2Zm-2.52-3.29h-1.55v.92h1.55v-.92Zm1.81,3.29c0-.41-.51-.63-1.39-.63s-1.39.22-1.39.63.51.64,1.39.64,1.39-.22,1.39-.64Zm1.54-3.59v.6h-.9v1.64h-.72V.14h.72v1.54h.9Z"/><path class="cls-1" d="m43.96,3.3v.51h1.79v1.51h-3.6v.53h3.78v.55h-4.5v-1.59h3.61v-.46h-3.62v-.55h1.81v-.51h-2.49v-.57h5.72v.57h-2.5Zm-2.61-2.01c0-.71.83-1.09,2.25-1.09s2.25.39,2.25,1.09-.84,1.09-2.25,1.09-2.25-.38-2.25-1.09Zm.75,0c0,.36.53.55,1.51.55s1.51-.19,1.51-.55-.53-.55-1.51-.55-1.51.19-1.51.55Z"/><path class="cls-1" d="m50.65,2.83c0,1.37-.69,2.23-1.63,2.23s-1.62-.86-1.62-2.23.69-2.23,1.62-2.23,1.63.87,1.63,2.23Zm-2.56,0c0,.99.38,1.59.93,1.59s.94-.6.94-1.59-.39-1.58-.94-1.58-.93.6-.93,1.58ZM52.39.13v6.35h-.73V.13h.73Z"/><path class="cls-1" d="m58.31,3.38h-2.47V.61h2.47v2.77Zm.95,1.26c.06.6.86,1.12,2,1.26l-.24.53c-1.01-.13-1.79-.53-2.16-1.11-.36.6-1.15.99-2.16,1.11l-.25-.53c1.17-.14,1.95-.65,2.02-1.26h-1.76v-.57h4.29v.57h-1.75Zm-1.62-3.48h-1.13v1.67h1.13v-1.67Zm1.95,2.56h-.68V.26h.68v1.41h.67V.15h.69v3.62h-.69v-1.51h-.67v1.46Z"/><path class="cls-1" d="m64.41,1.13h1.52v.58h-3.78v-.58h1.53V.22h.73v.91Zm1.23,2.5c0,.87-.67,1.48-1.59,1.48s-1.59-.61-1.59-1.48.67-1.48,1.59-1.48,1.59.62,1.59,1.48Zm-.69,0c0-.53-.38-.88-.9-.88s-.9.35-.9.88.38.88.9.88.9-.35.9-.88Zm2.28-3.49v6.32h-.73V.14h.73Z"/><path class="cls-1" d="m71.66,3.69h-2.93V.66h2.93v.53h1.32V.14h.72v4.62h-.72v-1.62h-1.32v.55Zm-.7-2.45h-1.52v1.88h1.52v-1.88Zm2.89,4.52v.59h-4.27v-2.01h.73v1.42h3.54Zm-2.19-3.97v.77h1.32v-.77h-1.32Z"/><path class="cls-1" d="m5.39,20.13v6.35h-.73v-3.4h-1.23c-.08,1.23-.73,1.98-1.6,1.98-.93,0-1.6-.86-1.6-2.23s.67-2.23,1.6-2.23c.85,0,1.49.73,1.59,1.89h1.23v-2.36h.73Zm-2.63,2.7c0-.98-.37-1.58-.92-1.58s-.91.6-.91,1.58.37,1.59.91,1.59.92-.59.92-1.59Z"/><path class="cls-1" d="m12.31,25.06v.6h-5.73v-.6h5.73Zm-.64-1.49h-4.42v-2.88h.72v2.28h3.7v.6Z"/><path class="cls-1" d="m18.75,23.31v.58h-2.45v1.18h-.72v-1.18h-2.56v-.58h5.74Zm-.6-.47c-1.02-.15-1.86-.67-2.27-1.36-.4.7-1.24,1.22-2.26,1.38l-.28-.57c1.25-.18,2.17-.93,2.17-1.73v-.26h.74v.26c0,.78.93,1.54,2.17,1.72l-.27.57Zm-3.71,2.91h3.68v.59h-4.4v-1.84h.72v1.25Z"/><path class="cls-1" d="m22.7,20.62c0,1.67-1.11,2.86-2.96,3.42l-.3-.57c1.45-.44,2.35-1.26,2.47-2.26h-2.21v-.59h2.99Zm-1.58,5.13h3.53v.59h-4.26v-2.09h.73v1.5Zm4.18-3.77v.6h-.9v2.14h-.72v-4.58h.72v1.85h.9Z"/><path class="cls-1" d="m5.86,44.52h-2.51v1.95h-.72v-1.95H.12v-.59h5.74v.59Zm-.62-1.16H.87v-2.96h4.31v.57H1.59v.61h3.44v.56H1.59v.64h3.66v.57Z"/><path class="cls-1" d="m9.78,43.46h-2.93v-2.85h2.93v.5h1.32v-.97h.72v3.73h-.72v-.91h-1.32v.5Zm-.7-2.28h-1.52v1.7h1.52v-1.7Zm2.77,4.07c0,.76-.81,1.21-2.14,1.21s-2.13-.45-2.13-1.21.81-1.21,2.13-1.21,2.14.45,2.14,1.21Zm-.72,0c0-.41-.52-.64-1.41-.64s-1.41.23-1.41.64.51.65,1.41.65,1.41-.23,1.41-.65Zm-1.34-3.55v.67h1.32v-.67h-1.32Z"/><path class="cls-1" d="m16.76,41.44h-3.73v-.57h1.51v-.73h.72v.73h1.51v.57Zm-1.87,2.69c-.9,0-1.53-.48-1.53-1.2s.63-1.2,1.53-1.2,1.53.48,1.53,1.2-.62,1.2-1.53,1.2Zm-.21,1.63h3.53v.59h-4.26v-1.83h.73v1.24Zm.21-2.19c.5,0,.85-.24.85-.64s-.34-.64-.85-.64-.84.24-.84.64.34.64.84.64Zm3.96-1.41v.6h-.9v2.13h-.72v-4.74h.72v2.02h.9Z"/><path class="cls-1" d="m24.64,43.3v.53h1.79v1.51h-3.6v.52h3.78v.55h-4.5v-1.58h3.61v-.45h-3.62v-.55h1.81v-.53h-2.49v-.57h5.73v.57h-2.51Zm1.76-1.02h-4.26v-1.95h4.26v1.95Zm-.71-1.39h-2.84v.83h2.84v-.83Z"/><path class="cls-1" d="m31.06,43.48h-2.98v-2.94h.72v.88h1.55v-.88h.71v2.94Zm1.81,1.79c0,.76-.81,1.2-2.11,1.2s-2.11-.45-2.11-1.2.81-1.2,2.11-1.2,2.11.46,2.11,1.2Zm-2.52-3.29h-1.55v.92h1.55v-.92Zm1.81,3.29c0-.41-.51-.63-1.39-.63s-1.39.22-1.39.63.51.64,1.39.64,1.39-.22,1.39-.64Zm1.54-3.59v.6h-.9v1.64h-.72v-3.77h.72v1.54h.9Z"/><path class="cls-1" d="m37.52,43.3v.51h1.79v1.51h-3.6v.53h3.78v.55h-4.5v-1.59h3.61v-.46h-3.62v-.55h1.81v-.51h-2.49v-.57h5.72v.57h-2.5Zm-2.61-2.01c0-.71.83-1.09,2.25-1.09s2.25.39,2.25,1.09-.84,1.09-2.25,1.09-2.25-.38-2.25-1.09Zm.75,0c0,.36.53.55,1.51.55s1.51-.19,1.51-.55-.53-.55-1.51-.55-1.51.19-1.51.55Z"/><path class="cls-1" d="m42.64,44.5c.66-.03,1.32-.06,1.94-.15l.04.53c-1.3.22-2.75.25-3.86.25l-.08-.6c.39,0,.81,0,1.25-.01v-1.9h.71v1.88Zm.71-.87c.16-.98.17-1.72.17-2.25h-2.51v-.58h3.21v.42c0,.55,0,1.35-.17,2.47l-.71-.06Zm3.23-.29h-.93v3.12h-.73v-6.32h.73v2.6h.93v.61Z"/><path class="cls-1" d="m3.42,60.45c0,1.67-.88,2.81-2.87,3.4l-.28-.57c.95-.27,1.59-.67,1.97-1.15l-1.88.14-.1-.58,2.27-.09c.06-.18.11-.36.13-.56H.57v-.59h2.85Zm1.24,3.47h.71v2.47H1.27v-2.47h.71v.67h2.68v-.67Zm0,1.23H1.99v.66h2.68v-.66Zm.71-5.01v3.49h-.72v-1.3h-1.26v-.6h1.26v-1.6h.72Z"/><path class="cls-1" d="m10.03,60.26h.67v5.9h-.67v-3.03h-.67c-.06,1.23-.58,1.99-1.35,1.99-.82,0-1.36-.86-1.36-2.25s.54-2.24,1.36-2.24c.76,0,1.27.72,1.34,1.91h.68v-2.28Zm-1.32,2.61c0-1-.27-1.56-.7-1.56s-.7.56-.7,1.56.27,1.57.7,1.57.7-.57.7-1.57Zm3.28-2.73v6.32h-.69v-6.32h.69Z"/><path class="cls-1" d="m18.2,63.42v.55h1.84v.52h-3.63v.44h3.5v.5h-3.5v.46h3.72v.53h-4.44v-2.44h1.79v-.55h-2.5v-.57h5.74v.57h-2.51Zm1.76-1.02h-4.24v-2.15h.71v.54h2.82v-.54h.71v2.15Zm-.71-1.07h-2.82v.52h2.82v-.52Z"/><path class="cls-1" d="m27.14,63.42v.59h-5.72v-.59h5.72Zm-5.11-1.8c0-.8.89-1.28,2.25-1.28s2.25.48,2.25,1.28-.89,1.29-2.25,1.29-2.25-.48-2.25-1.29Zm.84,4.14h3.63v.59h-4.36v-1.84h.73v1.25Zm-.1-4.14c0,.45.58.71,1.51.71s1.51-.26,1.51-.71-.58-.7-1.51-.7-1.51.26-1.51.7Z"/><path class="cls-1" d="m35.55,65.1v.59h-5.73v-.59h2.49v-1.21c-1.16-.1-1.96-.74-1.96-1.68,0-1.03.98-1.69,2.33-1.69s2.33.67,2.33,1.69c0,.94-.81,1.58-1.97,1.69v1.2h2.51Zm-2.87-1.77c.94,0,1.62-.43,1.62-1.12s-.68-1.12-1.62-1.12-1.62.43-1.62,1.12.68,1.12,1.62,1.12Z"/><path class="cls-1" d="m39.27,63.8c-.76.14-1.41.17-2.32.17h-.43v-1.95h1.53v-.81h-1.54v-.57h2.24v1.91h-1.53v.85c.75,0,1.32-.04,1.98-.17l.07.57Zm2.51,1.96v.59h-4.36v-1.92h.73v1.33h3.63Zm-2.11-3.35h-.69v-.59h.69v-1.57h.68v4.49h-.68v-2.33Zm1.93,2.49h-.69v-4.76h.69v4.76Z"/><path class="cls-1" d="m45.03,61.97c0,1.05.65,2.14,1.64,2.56l-.4.57c-.74-.32-1.3-1.01-1.6-1.83-.28.88-.85,1.63-1.59,1.99l-.41-.57c.98-.46,1.63-1.63,1.63-2.72v-.6h-1.41v-.6h3.54v.6h-1.41v.6Zm2.87-1.83v6.32h-.73v-6.32h.73Z"/><path class="cls-1" d="m56.82,64.28h-2.51v2.19h-.72v-2.19h-2.48v-.58h5.72v.58Zm-5.4-1.61c1.2-.16,2.09-.85,2.14-1.59h-1.93v-.58h4.66v.58h-1.91c.04.74.93,1.43,2.14,1.59l-.26.57c-1.04-.15-1.91-.67-2.29-1.37-.39.7-1.24,1.22-2.28,1.37l-.26-.57Z"/><path class="cls-1" d="m63.27,65.06v.6h-5.73v-.6h5.73Zm-.56-1.23c-1.03-.21-1.92-.87-2.33-1.74-.41.87-1.3,1.53-2.33,1.74l-.31-.6c1.25-.23,2.26-1.2,2.26-2.21v-.48h.76v.48c0,1.01,1.02,1.98,2.26,2.21l-.31.6Z"/><path class="cls-1" d="m67.23,60.8c0,1.83-.78,3.46-2.85,4.5l-.4-.55c1.55-.79,2.38-1.91,2.53-3.36h-2.21v-.59h2.93Zm2.61,2.43h-.96v3.22h-.72v-6.32h.72v2.5h.96v.6Z"/><path class="cls-1" d="m73.43,60.66v1.61h1.6v-1.61h.72v4.31h-3.04v-4.31h.71Zm0,3.73h1.6v-1.55h-1.6v1.55Zm4.15-4.26v6.35h-.73v-6.35h.73Z"/><path class="cls-1" d="m84.54,63.16v.58h-5.72v-.58h5.72Zm-.58-.44c-1.02-.15-1.87-.66-2.28-1.34-.41.69-1.25,1.18-2.28,1.34l-.27-.57c1.25-.16,2.18-.9,2.18-1.66v-.25h.74v.25c0,.75.93,1.5,2.17,1.66l-.27.57Zm-1.91,1.61c0,.75.81,1.39,2.08,1.55l-.27.56c-1-.15-1.79-.58-2.17-1.21-.39.63-1.18,1.06-2.18,1.21l-.27-.56c1.26-.17,2.08-.81,2.08-1.55v-.17h.74v.17Z"/><path class="cls-1" d="m87.46,61.11h1.48v.59h-3.71v-.59h1.51v-.88h.72v.88Zm1.22,2.51c0,.87-.67,1.48-1.57,1.48s-1.57-.61-1.57-1.48.66-1.48,1.57-1.48,1.57.62,1.57,1.48Zm-.69,0c0-.53-.37-.88-.88-.88s-.88.35-.88.88.37.88.88.88.88-.35.88-.88Zm3.16-.34h-.97v3.19h-.73v-6.33h.73v2.54h.97v.6Z"/><path class="cls-1" d="m95.09,60.29h.68v5.87h-.68v-2.93h-1.16c-.37.73-.97,1.37-1.85,1.89l-.41-.51c1.32-.78,1.94-1.82,2.04-3.12h-1.74v-.58h2.46c0,.62-.08,1.2-.27,1.74h.93v-2.36Zm2.02-.15v6.32h-.69v-6.32h.69Z"/><path class="cls-1" d="m105.83,65.1v.6h-5.73v-.6h2.49v-1.27h-1.85v-3.26h.71v1.06h3v-1.06h.71v3.26h-1.86v1.27h2.51Zm-4.37-1.86h3v-1.04h-3v1.04Z"/><path class="cls-1" d="m110.01,62.83c0,1.37-.69,2.23-1.63,2.23s-1.62-.86-1.62-2.23.69-2.23,1.62-2.23,1.63.87,1.63,2.23Zm-2.56,0c0,.99.38,1.59.93,1.59s.94-.6.94-1.59-.39-1.58-.94-1.58-.93.6-.93,1.58Zm4.3-2.7v6.35h-.73v-6.35h.73Z"/><path class="cls-1" d="m118.72,63.3v.58h-5.74v-.58h5.74Zm-4.32,2.44h3.7v.58h-4.42v-1.86h.72v1.28Zm3.66-3.2h-4.34v-2.18h.72v1.59h3.62v.59Z"/><path class="cls-1" d="m127.12,63.31v.58h-2.45v1.18h-.72v-1.18h-2.56v-.58h5.74Zm-.6-.47c-1.02-.15-1.86-.67-2.27-1.36-.4.7-1.24,1.22-2.26,1.38l-.28-.57c1.25-.18,2.17-.93,2.17-1.73v-.26h.74v.26c0,.78.93,1.54,2.17,1.72l-.27.57Zm-3.71,2.91h3.68v.59h-4.4v-1.84h.72v1.25Z"/><path class="cls-1" d="m131.06,60.62c0,1.67-1.11,2.86-2.96,3.42l-.3-.57c1.45-.44,2.35-1.26,2.47-2.26h-2.21v-.59h2.99Zm-1.58,5.13h3.53v.59h-4.26v-2.09h.73v1.5Zm4.18-3.77v.6h-.9v2.14h-.72v-4.58h.72v1.85h.9Z"/><path class="cls-1" d="m137.73,62.83c0,1.37-.69,2.23-1.63,2.23s-1.62-.86-1.62-2.23.69-2.23,1.62-2.23,1.63.87,1.63,2.23Zm-2.56,0c0,.99.38,1.59.93,1.59s.94-.6.94-1.59-.39-1.58-.94-1.58-.93.6-.93,1.58Zm4.3-2.7v6.35h-.73v-6.35h.73Z"/><path class="cls-1" d="m.26,81.98c0-.88.71-1.49,1.68-1.49s1.67.61,1.67,1.49-.71,1.49-1.67,1.49-1.68-.61-1.68-1.49Zm4.42,2.31c0,.65.41,1.29,1.23,1.55l-.36.53c-.61-.22-1.02-.62-1.24-1.13-.2.5-.58.95-1.16,1.19-.6-.23-.97-.67-1.16-1.18-.23.5-.64.9-1.23,1.12l-.35-.53c.8-.29,1.23-.94,1.23-1.55v-.28h.7v.28c0,.53.25,1.1.8,1.45.56-.38.83-.97.83-1.45v-.28h.71v.28Zm-3.71-2.31c0,.55.41.9.97.9s.97-.35.97-.9-.41-.9-.97-.9-.97.36-.97.9Zm4.38,1.76h-.72v-3.59h.72v3.59Z"/><path class="cls-1" d="m12.3,82.97v.57h-5.73v-.57h5.73Zm-.57-.38c-1.03-.14-1.88-.62-2.3-1.27-.41.66-1.26,1.13-2.29,1.27l-.27-.56c1.27-.16,2.19-.85,2.19-1.58v-.25h.74v.25c0,.73.93,1.42,2.19,1.58l-.26.56Zm-.89,1.34h.72v2.45h-4.29v-2.45h.71v.64h2.85v-.64Zm0,1.2h-2.85v.68h2.85v-.68Z"/><path class="cls-1" d="m14.11,84.25c.9,0,1.84-.08,2.84-.29l.08.6c-1.09.22-2.11.3-3.09.3h-.54v-4.11h.71v3.5Zm4.14-4.11v6.32h-.72v-6.32h.72Z"/><path class="cls-1" d="m20.43,84.31c1.02,0,1.79-.05,2.67-.2l.08.6c-.96.18-1.81.21-2.96.21h-.52v-4.18h2.94v.59h-2.22v2.99Zm4.91-1.15h-.99v3.31h-.72v-6.34h.72v2.44h.99v.6Z"/><path class="cls-1" d="m26.05,85.46c0-.33.24-.57.54-.57s.54.25.54.57-.24.56-.54.56-.54-.23-.54-.56Z"/></g></svg>