<?xml version="1.0" encoding="utf-8"?>
<!-- Generator: Adobe Illustrator 27.5.0, SVG Export Plug-In . SVG Version: 6.00 Build 0)  -->
<svg version="1.1" id="Layer_1" xmlns="http://www.w3.org/2000/svg" xmlns:xlink="http://www.w3.org/1999/xlink" x="0px" y="0px"
	 viewBox="0 0 297.6 110.9" style="enable-background:new 0 0 297.6 110.9;" xml:space="preserve">
<style type="text/css">
	.st0{fill:#FFFFFF;}
</style>
<path class="st0" d="M296.4,58.6c-0.4,2.1-0.8,4.5-1.5,6.8c-1.9,5.9-5.5,10.8-9.8,14.9c-7.6,7.4-16.8,11.9-26.9,14.8
	c-11,3-22.1,3.8-33.5,2.3c-7-0.9-13.6-2.6-20-5.5c-0.4-0.2-1.1-0.2-1.3,0.2c-5.3,4-11,7.2-17.2,9.8c-11.5,4.7-23.5,7.4-35.7,7.8
	c-7.4,0.2-14.9,0.2-22.3-1.5c-4.9-1.1-9.8-2.3-14.6-3.8c-7.8-2.3-14.8-5.9-21.4-10.6c-1.1-0.8-2.1-0.9-3.2-0.4
	c-6.8,2.6-14,4-21.2,4.5c-11.3,0.9-22.3-0.6-33.1-4.2c-6.4-2.3-12.5-5.1-17.8-9.5c-9.1-6.9-15.7-15-16.1-26.7
	C0.6,53,1,48.4,2.7,44.1c2.5-5.9,6.1-10.8,10.8-14.8c8.7-7.8,19.1-12.1,30.4-14.6c8.7-1.9,17.6-2.3,26.5-1.1
	c5.9,0.8,11.5,1.9,17.2,4c1.1,0.4,2.1,0.4,3-0.4c5.3-3.8,11.2-7,17.2-9.5c8.7-3.4,17.8-5.9,27.2-6.4c1.1,0,2.1-0.2,3.2-0.2h16.3
	c7.9,0,15.7,1.7,23.3,4c9.8,3,18.7,7.4,26.9,13.8c0.2,0.2,0.8,0.4,0.9,0.2c4.3-1.9,8.9-3.4,13.4-4.2c4.2-0.8,8.5-1.3,12.9-1.7
	c12.5-0.8,24.4,1.3,35.9,6.1c7.4,3,14,7.4,19.3,13.2c4.7,5.3,8.3,11.2,9.3,18.3c0,0.4,0.2,0.9,0.4,1.3L296.4,58.6L296.4,58.6z"/>
</svg>
