<?xml version="1.0" encoding="utf-8"?>
<!-- Generator: Adobe Illustrator 27.5.0, SVG Export Plug-In . SVG Version: 6.00 Build 0)  -->
<svg version="1.1" id="Layer_2_00000044900812822649379190000016789569528789200529_"
	 xmlns="http://www.w3.org/2000/svg" xmlns:xlink="http://www.w3.org/1999/xlink" x="0px" y="0px" viewBox="0 0 202.3 98.6"
	 style="enable-background:new 0 0 202.3 98.6;" xml:space="preserve">
<style type="text/css">
	.st0{fill:#FFFFFF;}
</style>
<g id="Layer_1-2">
	<g>
		<path class="st0" d="M156.3,71.6c-0.2,1.1-0.4,2.4-0.8,3.6c-1,3.1-2.9,5.7-5.2,7.9c-4,3.9-8.9,6.3-14.2,7.8
			c-5.8,1.6-11.7,2-17.7,1.2c-3.7-0.5-7.2-1.4-10.6-2.9c-0.2-0.1-0.6-0.1-0.7,0.1c-2.8,2.1-5.8,3.8-9.1,5.2
			c-6.1,2.5-12.4,3.9-18.9,4.1c-3.9,0.1-7.9,0.1-11.8-0.8c-2.6-0.6-5.2-1.2-7.7-2c-4.1-1.2-7.8-3.1-11.3-5.6
			c-0.6-0.4-1.1-0.5-1.7-0.2c-3.6,1.4-7.4,2.1-11.2,2.4c-6,0.5-11.8-0.3-17.5-2.2c-3.4-1.2-6.6-2.7-9.4-5C3.7,81.5,0.2,77.2,0,71
			c-0.1-2.4,0.1-4.8,1-7.1c1.3-3.1,3.2-5.7,5.7-7.8c4.6-4.1,10.1-6.4,16.1-7.7c4.6-1,9.3-1.2,14-0.6c3.1,0.4,6.1,1,9.1,2.1
			c0.6,0.2,1.1,0.2,1.6-0.2c2.8-2,5.9-3.7,9.1-5c4.6-1.8,9.4-3.1,14.4-3.4c0.6,0,1.1-0.1,1.7-0.1h8.6c4.2,0,8.3,0.9,12.3,2.1
			c5.2,1.6,9.9,3.9,14.2,7.3c0.1,0.1,0.4,0.2,0.5,0.1c2.3-1,4.7-1.8,7.1-2.2c2.2-0.4,4.5-0.7,6.8-0.9c6.6-0.4,12.9,0.7,19,3.2
			c3.9,1.6,7.4,3.9,10.2,7c2.5,2.8,4.4,5.9,4.9,9.7c0,0.2,0.1,0.5,0.2,0.7L156.3,71.6L156.3,71.6z"/>
		<path class="st0" d="M202.3,20.6c-0.1,0.7-0.3,1.6-0.5,2.4c-0.7,2.1-1.9,3.9-3.5,5.4c-2.7,2.6-6,4.3-9.6,5.2
			c-3.9,1.1-7.9,1.4-11.9,0.8c-2.5-0.4-4.9-1-7.2-1.9c-0.1-0.1-0.4,0-0.5,0c-1.9,1.4-3.9,2.6-6.1,3.5c-4.1,1.7-8.4,2.6-12.8,2.8
			c-2.7,0.1-5.4,0.1-8-0.5c-1.7-0.4-3.5-0.8-5.2-1.3c-2.7-0.8-5.3-2.1-7.6-3.8c-0.4-0.3-0.7-0.3-1.2-0.2c-2.4,0.9-5,1.4-7.6,1.6
			c-4.1,0.3-8-0.2-11.8-1.5c-2.3-0.8-4.5-1.9-6.4-3.4c-3.1-2.5-5.4-5.4-5.6-9.6c0-1.6,0-3.2,0.7-4.8c0.8-2.1,2.2-3.8,3.9-5.3
			c3.1-2.8,6.8-4.3,10.9-5.2c3.1-0.7,6.3-0.8,9.5-0.4c2.1,0.2,4.1,0.7,6.1,1.4c0.4,0.2,0.7,0.1,1.1-0.2c1.9-1.4,4-2.5,6.1-3.4
			c3.1-1.2,6.4-2.1,9.7-2.3c0.4,0,0.8,0,1.1-0.1h5.8c2.8,0,5.6,0.6,8.3,1.4c3.5,1.1,6.7,2.7,9.6,4.9c0.1,0.1,0.3,0.1,0.4,0.1
			c1.5-0.7,3.2-1.2,4.8-1.5c1.5-0.3,3-0.5,4.6-0.6c4.4-0.3,8.7,0.5,12.8,2.2c2.6,1.1,5,2.6,6.9,4.7c1.7,1.9,3,4,3.3,6.6
			c0,0.2,0.1,0.3,0.1,0.5L202.3,20.6L202.3,20.6z"/>
	</g>
</g>
</svg>
