<?xml version="1.0" encoding="UTF-8"?><svg id="Layer_2" xmlns="http://www.w3.org/2000/svg" viewBox="0 0 291.86 35.03"><defs><style>.cls-1{fill:#231815;}</style></defs><g id="Layer_1-2"><path class="cls-1" d="m3.31,14.61c-1.67.39-2.89,1.25-2.78,2.62.1,1.34,1.37,2.41,2.85,2.69,1.74.33,2.82-.63,2.71-1.88-.09-1.02-.92-1.91-2.23-2.47.03-.18.05-.28.09-.46,1.5.66,2.55,1.72,2.64,3.03.11,1.52-1.14,2.69-3.15,2.31-1.81-.34-3.32-1.75-3.44-3.31-.12-1.6,1.29-2.65,3.03-3.05.11.21.17.31.28.52Zm6.16-2.26c.21.06.31.09.52.14v7.51c1.03,0,2.42.16,3.55.35.01.2.02.3.03.5-1.17-.2-2.56-.34-3.58-.34v7.6c-.21-.06-.31-.09-.52-.14v-15.62Z"/><path class="cls-1" d="m18.2,18.61c-1.67.55-2.89,1.53-2.78,2.89.1,1.33,1.41,2.29,2.94,2.43,1.79.17,2.91-.88,2.8-2.12-.09-1.01-.92-1.82-2.23-2.26.03-.19.05-.28.09-.47,1.5.51,2.55,1.47,2.64,2.78.11,1.51-1.17,2.79-3.24,2.59-1.86-.18-3.41-1.45-3.53-2.99-.12-1.59,1.29-2.78,3.03-3.35.11.2.17.3.28.5Zm6.58-2.76c.21.04.31.06.52.09v15.62c-.21-.04-.31-.06-.52-.09v-15.62Z"/><path class="cls-1" d="m28.88,26.04c4.12.03,9.27.11,13.17.22.01.2.02.3.03.51-3.9-.12-9.01-.19-13.13-.22-.03-.21-.04-.31-.07-.51Zm2.96-8.3c.21.03.31.04.52.07v3.46c0,.77.47,1.21,1.29,1.2,1.85-.02,3.97-.03,5.69-.03.02.2.03.3.05.49-1.72,0-3.85.02-5.71.03-1.15,0-1.84-.69-1.84-1.76v-3.46Zm.56,11.38c1.7,1.99,4.37,3.65,6.91,4.41-.04.2-.06.3-.1.49-2.63-.79-5.43-2.54-7.17-4.58.15-.13.22-.2.37-.33Z"/><path class="cls-1" d="m47.77,27.43c4.12-.39,9.24-.8,13.15-1.03.02.19.03.29.05.49-3.91.23-8.99.64-13.12,1.04-.03-.2-.05-.29-.09-.49Zm2.56-6.87c2.45-.35,5.46-.71,7.85-.94.02.2.03.29.05.49-1.91.18-4.21.45-6.31.73v1.93c0,.73.38,1.11,1.15,1.05,2.19-.19,3.29-.3,5.48-.54.02.19.03.29.05.49-2.2.24-3.3.35-5.5.54-1.08.1-1.7-.56-1.7-1.53v-1.88c-.33.04-.66.09-.99.15-.03-.2-.04-.29-.07-.49Zm4.4,9.65c-1.81.54-3.32,1.41-3.17,2.67.14,1.2,1.69,1.75,3.29,1.67,1.84-.1,3.36-1.01,3.32-2.21-.03-1.02-1.22-1.67-2.99-1.71l.02-.49c1.98.05,3.45.84,3.5,2.19.05,1.46-1.61,2.57-3.77,2.69-2.05.11-3.72-.71-3.88-2.07-.17-1.48,1.55-2.62,3.51-3.21.07.19.1.28.17.47Z"/><path class="cls-1" d="m62.56,32.26c4.07-.1,8.94-.54,13.03-1.12.02.2.03.3.05.5-4.09.58-8.98,1.02-13.05,1.12-.01-.2-.02-.3-.03-.5Zm6.51-10.84c-1.81.99-3.39,2.36-3.13,3.81.22,1.23,1.65,1.8,3.29,1.54,1.65-.26,3.16-1.3,3.11-2.79-.04-1.26-1.17-1.81-2.33-1.9.03-.2.04-.3.07-.51,1.32.1,2.73.83,2.78,2.35.06,1.73-1.65,3.04-3.57,3.35-1.9.3-3.61-.47-3.88-1.93-.3-1.68,1.46-3.31,3.37-4.35.11.17.17.26.28.43Z"/><path class="cls-1" d="m77.28,32.15c2.05-.17,4.33-.41,6.59-.72v-4.02c-.52.07-1.03.14-1.48.2-.93.11-1.57-.36-1.57-1.33v-1.67c-.37.09-.55.13-.92.22-.03-.19-.04-.29-.07-.48,1.88-.45,3.91-.88,5.86-1.29.3-.53.57-1.14.8-1.7.35-.86-.16-1.32-1.01-1.13-1.58.36-3.5.94-5.15,1.5-.05-.18-.07-.28-.12-.46,1.65-.56,3.64-1.16,5.22-1.52,1.3-.3,2.04.59,1.57,1.73-.19.47-.45.98-.7,1.45.39-.07.58-.11.97-.19.03.19.04.29.07.48-1.95.38-4.02.82-6,1.27v1.72c0,.7.38,1,1.04.92,1.53-.2,3.53-.53,5.29-.88.02.19.03.29.05.48-1.06.22-2.24.42-3.34.59v4.04c2.04-.28,4.05-.6,5.91-.95.02.2.03.3.05.5-4.09.76-8.98,1.44-13.05,1.76-.01-.2-.02-.3-.03-.5Z"/><path class="cls-1" d="m97.09,20.83c1.13-.65,2.66-1.39,3.88-1.85,1.74-.66,2.61.51,1.46,2.18-.52.76-1.13,1.58-1.79,2.45,1.22.46,2.71,1.11,3.79,1.7-.11.18-.17.27-.28.45-1.11-.61-2.63-1.25-3.86-1.71-1.2,1.52-2.5,3.04-3.72,4.31-.15-.12-.22-.18-.37-.31,2.02-2.1,4.3-4.9,5.81-7.12.8-1.16.33-1.99-.94-1.5-1.15.44-2.66,1.17-3.79,1.82-.08-.17-.11-.26-.19-.43Zm9.03-5.13c.21-.03.31-.04.52-.07v7.51c1.03-.41,2.42-.81,3.55-1.06.01.19.02.29.03.48-1.17.25-2.56.67-3.58,1.08v7.6c-.21.03-.31.04-.52.07v-15.62Z"/><path class="cls-1" d="m111.86,17.65c1.2-.59,2.84-1.28,4.04-1.68,1.13-.38,1.93.16,1.55,1.44-.17.58-.42,1.19-.64,1.75.3-.1.59-.18.87-.27.03.19.04.29.07.48-1.41.44-2.96.95-4.42,1.47-.28.81-.56,1.74-.7,2.5-.14.8.23,1.12,1.08.78,1.48-.58,3.25-1.4,4.64-2.12.06.17.09.26.16.43-1.39.72-3.15,1.53-4.7,2.14-1.25.49-1.92-.04-1.7-1.23.12-.68.37-1.55.63-2.3-.43.15-.85.31-1.25.46-.04-.18-.06-.27-.1-.45,1.5-.56,3.2-1.16,4.82-1.69.28-.62.54-1.32.75-1.99.25-.81-.18-1.18-.96-.92-1.2.4-2.77,1.07-3.97,1.66-.06-.18-.09-.27-.16-.45Zm2.49,9.07c1.65,1.45,4.44,2.38,7.05,2.41-.04.2-.06.3-.1.5-2.71-.03-5.58-.99-7.31-2.5.15-.17.22-.25.37-.42Zm6.49-13.14c.21-.03.31-.05.52-.08v6.26c1.03-.44,2.45-.89,3.55-1.15.01.19.02.29.03.48-1.13.27-2.54.7-3.58,1.16v4.97c-.21.03-.31.05-.52.08v-11.72Z"/><path class="cls-1" d="m133.81,13.45c-1.62,1.12-3.1,2.65-2.84,4.05.21,1.13,1.45,1.33,2.91.84,1.53-.51,2.51-1.8,2.38-2.94-.1-.94-1.03-1.34-2-1.3.03-.19.05-.29.09-.48,1.11-.05,2.26.42,2.42,1.63.18,1.38-.99,2.96-2.82,3.57-1.66.56-3.24.21-3.48-1.11-.3-1.6,1.27-3.41,3.08-4.67.1.16.16.25.26.41Zm-1.5,13.61c.97-.16,2.04-.34,3.1-.55-.33-1.01-.66-2.2-.82-3.2.21-.07.31-.1.52-.17.17,1.03.49,2.25.83,3.27.9-.19,1.83-.38,2.71-.58.16-1.17.24-2.53.28-3.61.21-.03.31-.04.52-.07-.03,1.07-.14,2.42-.28,3.58,1.03-.23,2.02-.46,2.92-.7.01.19.02.29.03.48-2.96.76-6.73,1.54-9.79,2.05-.01-.19-.02-.29-.03-.48Zm.45-4.81c2.63-.66,5.65-1.4,8.3-2,.01.19.02.29.03.48-2.64.61-5.67,1.34-8.3,2-.01-.19-.02-.29-.03-.48Zm7.55-11.86c.21-.04.31-.05.52-.09,0,3.37,0,5.05,0,8.42-.21.04-.31.05-.52.09,0-3.37,0-5.05,0-8.42Z"/><path class="cls-1" d="m144.42,17.71c4.19-1.41,9.24-2.84,13.15-3.77.02.19.03.29.05.48-3.91.93-8.92,2.36-13.12,3.77-.03-.19-.05-.28-.09-.47Zm3.25,2.04c1.77-.65,4.08-1.38,5.74-1.79,1.32-.32,1.9.41,1.41,1.61-.14.34-.35.75-.54,1.12.34-.1.51-.15.85-.25.02.19.03.29.05.48-2.45.69-5.27,1.46-7.65,2.11-.03-.19-.04-.29-.07-.48,1.91-.52,4.12-1.12,6.19-1.69.23-.4.5-.97.68-1.4.31-.75.02-1.24-.89-1.02-1.67.41-3.91,1.13-5.69,1.78-.03-.19-.05-.28-.09-.47Zm3.38-10.57c-1.62.93-3.11,2.29-2.96,3.3.14.96,1.67,1.02,3.06.63,1.63-.45,3.15-1.54,3.08-2.61-.05-.88-1.17-1.07-2.61-.9.02-.2.03-.3.05-.5,1.76-.21,3.01.16,3.06,1.27.06,1.29-1.52,2.64-3.53,3.21-1.83.52-3.44.24-3.62-.93-.19-1.29,1.46-2.86,3.24-3.89.09.17.14.25.23.41Zm-2.31,14.13c1.48.86,3.83,1.02,6.16.68-.01.2-.02.3-.03.49-2.4.35-4.94.14-6.42-.72.12-.18.18-.27.3-.45Z"/><path class="cls-1" d="m164.56,8.05c.21-.03.31-.05.52-.08v3.83c0,.99.66,1.23,1.62.84,1.69-.7,3.44-1.57,4.87-2.33.06.18.09.27.16.45-1.43.76-3.22,1.63-4.91,2.34-1.27.53-2.26.17-2.26-1.2v-3.83Zm2.63,7.4c1.46-.55,3.41-1.18,4.99-1.6,1.29-.34,1.98.41,1.48,1.6-.19.43-.47.94-.73,1.38.37-.11.73-.2,1.08-.3.02.19.03.29.05.48-2.1.61-4.94,1.39-7.13,1.94-.02-.19-.03-.29-.05-.48,1.63-.42,3.62-.96,5.39-1.45.33-.52.67-1.15.9-1.7.33-.78-.09-1.21-.96-.98-1.58.41-3.46,1.02-4.92,1.57-.04-.18-.06-.27-.1-.45Zm.85,3.78c1.36,1.25,3.72,1.81,6,1.57l-.03.51c-2.37.25-4.89-.34-6.33-1.66.15-.17.22-.25.37-.42Zm5.29-14.3c.21-.03.31-.05.52-.08,0,1.68,0,2.51,0,4.19,1.03-.43,2.45-.87,3.55-1.12.01.19.02.29.03.48-1.13.25-2.54.67-3.58,1.13v2.7c-.21.03-.31.05-.52.08,0-2.95,0-4.42,0-7.37Z"/><path class="cls-1" d="m178.65,8.23c.9-.57,1.95-1.14,3.06-1.55,1.66-.62,2.54.35,1.76,1.98-.96,2.01-2.63,4.61-4.38,6.72-.15-.11-.23-.16-.38-.27,1.72-2.08,3.37-4.62,4.31-6.59.59-1.25.05-1.85-1.2-1.38-1.04.39-2.09.95-2.96,1.5-.08-.16-.13-.24-.21-.4Zm6.92-2.86c.21-.03.31-.04.52-.07v4.19c.96-.44,2.14-.92,3.13-1.27,0-2.21,0-3.31,0-5.51.21-.03.31-.04.52-.07,0,6.25,0,9.37,0,15.62-.21.03-.31.04-.52.07,0-3.84,0-5.76,0-9.6-1.01.37-2.21.84-3.13,1.27v3.93c-.21.03-.31.04-.52.07V5.38Z"/><path class="cls-1" d="m192.81,15.9c2.05-.29,4.33-.63,6.59-1v-4.02c-.52.09-1.03.17-1.48.24-.93.14-1.57-.3-1.57-1.28v-1.67c-.37.1-.55.15-.92.26-.03-.19-.04-.29-.07-.48,1.88-.54,3.91-1.03,5.86-1.46.3-.53.58-1.15.8-1.71.35-.87-.16-1.33-1.01-1.12-1.58.38-3.5,1.01-5.15,1.65-.05-.18-.07-.27-.12-.46,1.65-.63,3.64-1.29,5.22-1.67,1.3-.32,2.04.57,1.57,1.71-.19.47-.45.98-.7,1.46.39-.08.58-.12.97-.2.03.19.04.29.07.48-1.95.39-4.02.88-6,1.4v1.72c0,.7.38.99,1.04.88,1.53-.25,3.53-.62,5.29-.97.02.19.03.29.05.48-1.06.22-2.24.44-3.34.63v4.04c2.04-.33,4.05-.65,5.91-.98.02.2.03.3.05.5-4.09.71-8.98,1.51-13.05,2.07-.01-.2-.02-.3-.03-.5Z"/><path class="cls-1" d="m215.72.93c.19,1,.38,2.15.5,3.17,1.22-.24,2.4-.45,3.44-.59.03.2.04.3.07.5-2.33.34-5.41.95-7.76,1.54-.04-.19-.06-.29-.1-.48,1.15-.28,2.49-.59,3.83-.85-.12-1.02-.31-2.18-.5-3.17.21-.05.31-.07.52-.12Zm.45,6.06c-1.3.62-2.38,1.75-2.26,2.87.12,1.12,1.34,1.57,2.54,1.37,1.23-.2,2.26-1.12,2.23-2.24-.03-.97-.85-1.48-1.91-1.56.03-.2.05-.29.09-.49,1.2.1,2.28.77,2.33,2.02.05,1.37-1.13,2.53-2.68,2.78-1.51.25-2.97-.41-3.11-1.77-.15-1.41,1.17-2.75,2.56-3.42.09.18.14.26.23.44ZM221.66.02c.21,0,.31-.01.52-.02,0,3.01,0,4.51,0,7.51,1.03-.31,2.42-.55,3.55-.66.01.19.02.29.03.49-1.17.11-2.56.37-3.58.68,0,3.04,0,4.56,0,7.6-.21,0-.31,0-.52.02,0-6.25,0-9.37,0-15.62Z"/><path class="cls-1" d="m226.35,7.66c4.19-.76,9.24-1.27,13.15-1.4.02.2.03.29.05.49-3.91.12-8.92.63-13.12,1.39-.03-.19-.05-.29-.09-.48Zm2.96-7.45c.21,0,.31,0,.52,0,0,1.07,0,1.61,0,2.68,0,.76.47,1.14,1.29,1.03,1.85-.26,3.97-.48,5.69-.61.02.2.03.29.05.49-1.72.13-3.85.35-5.71.6-1.15.15-1.84-.43-1.84-1.51,0-1.07,0-1.61,0-2.68Zm.3,10.1c1.77-.35,4.08-.67,5.74-.76,1.32-.07,1.88.8,1.41,1.88-.16.36-.37.75-.57,1.1.35-.03.53-.05.89-.08.02.2.03.29.05.49-2.45.21-5.27.47-7.65.72-.03-.19-.04-.29-.07-.49,1.9-.2,4.09-.41,6.14-.59.26-.39.54-.91.73-1.36.29-.67.02-1.23-.89-1.19-1.67.09-3.91.41-5.69.76-.03-.19-.05-.29-.09-.49Zm1.06,3.84c1.5,1.15,3.81,1.76,6.16,1.88-.01.19-.02.29-.03.49-2.42-.12-4.92-.82-6.42-1.97.12-.16.18-.24.3-.4Z"/><path class="cls-1" d="m241.07,8.14c4.19-.5,9.24-.68,13.15-.52.02.2.03.3.05.49-3.91-.16-8.92.02-13.12.52-.03-.2-.05-.29-.09-.49Zm3.25,2.77c1.77-.24,4.08-.41,5.74-.38,1.32.02,1.9.91,1.41,1.97-.14.3-.35.66-.54.97.34,0,.51-.01.85-.02.02.2.03.29.05.49-2.45.04-5.27.11-7.65.21-.03-.2-.04-.29-.07-.49,1.91-.07,4.12-.14,6.19-.17.23-.34.5-.84.68-1.22.31-.67.02-1.23-.89-1.25-1.67-.03-3.91.15-5.69.39-.03-.2-.05-.3-.09-.49Zm3.38-9.76c-1.62.53-3.11,1.54-2.96,2.59.14,1,1.67,1.41,3.06,1.37,1.63-.05,3.15-.74,3.08-1.82-.05-.89-1.17-1.38-2.61-1.57.02-.19.03-.29.05-.48,1.76.23,3.01.93,3.06,2.06.06,1.31-1.51,2.23-3.53,2.3-1.82.06-3.44-.59-3.62-1.8-.19-1.33,1.46-2.52,3.24-3.12.09.19.14.28.23.47Zm-2.31,13.57c1.48,1.21,3.83,1.95,6.16,2.23-.01.19-.02.29-.04.48-2.4-.29-4.94-1.12-6.42-2.33.12-.15.18-.23.3-.38Z"/><path class="cls-1" d="m261.21,4.79c.21.03.31.05.52.08v4.89c0,1.04.68,1.53,1.65,1.39,1.69-.25,3.39-.59,4.82-.92.07.19.1.29.17.48-1.43.32-3.18.67-4.87.92-1.29.19-2.3-.53-2.3-1.96v-4.89Zm2.28,9.78c1.65,1.95,4.44,3.79,7.05,4.76-.04.19-.06.28-.1.47-2.71-1-5.58-2.88-7.31-4.92.15-.12.22-.18.37-.31Zm6.49-10.99c.21.04.31.06.52.1v5.91c1.03-.07,2.45,0,3.55.16.01.2.02.3.03.49-1.13-.16-2.54-.26-3.58-.17v4.8c-.21-.04-.31-.06-.52-.1V3.58Z"/><path class="cls-1" d="m275.16,8.71c1.88.07,4.44.34,6.4.68.02.2.03.3.05.5-1.96-.34-4.49-.61-6.37-.67-.03-.2-.05-.3-.09-.51Zm2.21,1.65c-.33,1.12-.66,2.61-.82,3.82-.1.79.38,1.34,1.32,1.35,1.61.01,3.53-.05,5.06-.14.06.21.09.31.16.51-1.53.09-3.45.16-5.13.14-1.27-.02-2.09-.83-1.93-2.03.16-1.21.5-2.75.83-3.87.2.09.3.14.5.23Zm7.32-3.19c.21.06.31.09.52.15v7.51c1.03.02,2.42.24,3.55.51.01.2.02.3.04.5-1.17-.28-2.56-.48-3.58-.51v7.6c-.21-.06-.31-.09-.52-.15V7.17Z"/><path class="cls-1" d="m291.51,21.73c.07.75.19,1.68.35,2.48-.23-.04-.34-.05-.57-.09-.16-.8-.3-1.77-.37-2.52.24.05.36.08.59.13Z"/></g></svg>