<?xml version="1.0" encoding="utf-8"?>
<!-- Generator: Adobe Illustrator 27.8.1, SVG Export Plug-In . SVG Version: 6.00 Build 0)  -->
<svg version="1.1" id="Layer_2_00000086686141054161764200000018012418808107011475_"
	 xmlns="http://www.w3.org/2000/svg" xmlns:xlink="http://www.w3.org/1999/xlink" x="0px" y="0px" viewBox="0 0 266.2 24.5"
	 style="enable-background:new 0 0 266.2 24.5;" xml:space="preserve">
<style type="text/css">
	.st0{fill:#8B9E2D;}
	.st1{fill:#231815;}
</style>
<path class="st0" d="M20.3,10.2c0,0.8-0.3,1.7-2.1,1.8c-3,0.2-13.5,0.3-16.9,0C-0.4,12-0.7,11-0.7,10.2c0.1-0.8,0.4-1.7,2.2-1.8
	c1.1,0,2.7-0.1,4.6-0.1V7.6c0-0.3,0.1-0.5,0.2-0.9c-1.2,0-2.2-0.1-3-0.1c-1,0-1.6-0.5-1.6-1.5c0-1.2,0.7-1.6,1.7-1.6
	c2.1-0.1,6.7-0.1,9.5-0.1V2.5c-3,0.2-6.5,0.2-9.4,0C2.1,2.3,1.6,1.8,1.6,0.8c0-0.9,0.5-1.5,1.8-1.6c3.9-0.3,8.8-0.3,12,0
	c1.5,0.1,2.5,1.1,2.7,2.4c0.2,1.8,0.1,3-0.2,4.4c-0.2,1-1.1,1.6-2.5,1.6c-1.2,0-2-0.3-2.3-1l-1.8,0.1c0.1,0.3,0.2,0.7,0.2,1
	c0,0.1,0,0.3,0,0.4c2.9,0,5.5,0.1,6.8,0.1C20.1,8.5,20.3,9.5,20.3,10.2z M18.5,17c0,2.8-3,4.2-8.7,4.2S1.3,19.9,1.3,17
	s3-4.1,8.6-4.1S18.5,14.2,18.5,17z M12.6,16.9c0-0.4-0.5-0.7-2.8-0.7s-2.7,0.2-2.7,0.7c0,0.4,0.5,0.7,2.7,0.7
	C12.2,17.6,12.6,17.4,12.6,16.9z"/>
<path class="st1" d="M29.4,9.9c3.6,0,7.5-0.1,9.6-0.3l0.1,0.1L38.5,11c-1.3-0.1-4.9-0.3-8.8-0.3c-2.8,0-5.7,0.1-7.9,0.2l-0.1-0.1
	l0.8-1.2C24,9.8,26.7,9.9,29.4,9.9z M26.2,18.1c0-0.6,0.3-1.2,0.6-1.7c-0.6,0-0.8,0.2-0.9,0.4l-1-1.1l0.1-0.1h8.8
	c0.2-0.3,0.3-0.6,0.3-0.9c0.1-1.3-1.3-1.7-3.1-1.7c-1.6,0-3.4,0.4-4.5,0.9L26,12.6c1.3-0.3,3-0.5,4.6-0.5c2.5,0,4.8,0.6,4.8,2.5
	c0,0.4-0.1,1-0.5,1.6l-0.2,0.1h-6.2c-0.6,0.7-0.9,1.3-0.9,1.7c0,0.8,0.9,1.7,3.4,1.7c3.1,0,5.1-1.3,6.1-2.8l0.9,0.9
	c-1,1.3-3.3,2.8-6.7,2.8C27.9,20.7,26.3,19.4,26.2,18.1z M29.3,0.9c0.3-0.1,0.6-0.4,0.7-0.5l0.6,1.1l-0.1,0.2
	C29,2.1,27.4,3.3,27.4,5c0,1.9,1.6,2.7,3.2,2.7S34,6.8,34,5c0-1.3-0.8-2.6-2.8-2.8l0.3-0.8C34,1.9,35,3.6,35,5
	c0,2.1-1.8,3.6-4.3,3.6c-2.3,0-4.6-1.1-4.6-3.6C26.1,3.3,27.4,1.9,29.3,0.9z"/>
<path class="st1" d="M52.2,2.1c2.5,0,3.4,0.8,3.3,1.9c0,0.6-0.6,1.6-1.5,2.6c1.4,0.9,2.6,2.2,3.1,3.5l-1.3,0.7
	c-0.3-1-1.4-2.7-2.5-3.5c-1.6,1.6-3.6,3.2-5,4l-0.8-1.1c3.8-1.8,6.8-5,6.8-6c0-0.5-0.7-1-2.1-1c-1,0-2.5,0.3-4.4,1l-0.5-1.3
	C49.4,2.3,50.9,2.1,52.2,2.1z M51.4,18.3c0-0.7,0.3-1.3,0.6-1.8c-0.6,0-0.8,0.2-0.9,0.4l-1.1-1l0.2-0.1h8.5c0.2-0.3,0.3-0.6,0.3-0.9
	c0.1-1.4-1.3-1.9-3.1-1.9c-1.5,0-3.1,0.4-4.2,0.9l-0.5-1.3c1.2-0.3,2.8-0.5,4.3-0.5c2.5,0,4.7,0.6,4.8,2.7c0,0.4-0.1,1-0.5,1.6
	l-0.2,0.1h-5.9c-0.6,0.7-0.9,1.2-0.9,1.8c0,0.7,0.5,1.8,3.1,1.8c3.1,0,5-1.3,6-2.8l0.9,0.9c-1,1.3-3.2,2.8-6.6,2.8
	C53.1,20.9,51.4,19.5,51.4,18.3z M59.3,1.6l1.3-0.7L60.7,1c-0.1,1.9-0.2,3.3-0.2,4.7c1.3-0.1,2.5-0.1,3.3-0.2L64,5.6l-0.5,1.2
	c-0.5-0.1-1.7-0.1-2.9-0.1c0,1.2,0,2.5,0.1,4.2l-1.3,0.8l-0.1-0.1C59.4,6.8,59.5,4.9,59.3,1.6z"/>
<path class="st1" d="M72.6,11.1c-2.8,0-5.7,0.1-7.9,0.2l-0.1-0.1l0.8-1.2c1.7,0.2,4.6,0.3,7.6,0.2c0-0.8,0-1.4-0.1-2.2h-1.4V7.1
	c0.2,0,1.6,0.1,3.1,0.1c1.4-0.2,2.5-1.3,2.5-3c0-2-1.8-2.5-3.5-2.5c-1.4,0-3,0.3-3.8,0.7c0,1.8,0.3,4.5,0.5,5.6l-1.2,0.1
	C68.9,6,68.6,1.9,68.4,1h1.3l0.1,0.1v0.4C71,1,72.4,0.8,73.7,0.8c2.2,0,4.6,1,4.7,3.4c0,1.4-0.8,2.5-2,3.1c1,0,1.8-0.1,2.1-0.3v0.1
	l-0.5,1h-3.9c0,1-0.1,1.6-0.1,2.2c3.1,0,6.1-0.1,7.9-0.3l0.1,0.1l-0.7,1.3C80,11.2,76.4,11.1,72.6,11.1z M73.7,12.7h1.2l0.1,0.1
	c-0.4,0.5-1,1.3-1.7,2.3c2.3,0.7,4.6,2.5,5.7,4.6l-1,0.6c-0.9-1.9-3.3-3.9-5.2-4.4c-1.1,1.5-2.3,3.3-3.1,4.5l-1.1-0.5
	C70.5,17.2,73.1,13.8,73.7,12.7z"/>
<path class="st1" d="M94.8,2.2h1.3l0.1,0.1c-0.4,0.6-1,1.7-1.7,3c2.4,0.9,4.2,3,4.9,5.3L98,10.9C97.7,9,95.9,6.7,94,6
	c-1.1,2-2.3,4.1-3,5.3l-1.2-0.5C91.5,8.4,94.4,3.4,94.8,2.2z M95.2,14.1v0.4c1-0.4,2.2-0.7,3.7-0.7c2,0,4.7,0.8,4.7,3.2
	c0,1.2-0.6,2-1.5,2.6c0.7-0.1,1.3-0.1,1.6-0.3v0.1l-0.5,1l-6.4,0.1v-0.9c0.2,0.1,1.7,0.1,3.3,0.1c1.3-0.3,2.2-1.1,2.2-2.6
	c0-2-2.1-2.4-3.7-2.4c-1.5,0-2.7,0.3-3.4,0.7c0,1.6,0.3,3.9,0.5,5l-1.2,0.1c-0.2-2.2-0.6-5.6-0.7-6.5L95.2,14.1L95.2,14.1z
	 M102.1,1.6l1.3-0.7l0.1,0.1c-0.1,2-0.2,3.7-0.2,5.4c1.3-0.1,2.6-0.1,3.3-0.2l0.1,0.1l-0.5,1.2c-0.5-0.1-1.7-0.1-2.9-0.1
	c0,1.4,0,2.8,0.1,4.4l-1.3,0.8l-0.1-0.1C102.3,7.8,102.3,4.9,102.1,1.6z"/>
<path class="st1" d="M110,9.7c-0.7,0.1-1,0.4-1,0.6L108.1,9l0.1-0.1l7.9-1c0.1-0.4,0.2-0.7,0.2-1c0-1-0.9-2-2.8-2
	c-1.1,0-2.5,0.3-4.4,1l-0.7-1.3c2-0.5,3.6-0.7,4.8-0.7c3.2,0,4.1,1.4,4.1,2.9c0,3.4-4,7.1-7.4,9.2l-0.9-1.1c2.6-1.4,5.4-3.9,6.6-6.1
	C112.4,9.2,110.9,9.5,110,9.7z M121.6,10.8v-3c-1.3,0.1-2.7,0.1-3.2,0.2l-0.6-1.2l0.1-0.1c0.8,0.1,2.4,0.1,3.7,0.1
	c0-2,0-3.9-0.1-5.2l1.3-0.7l0.1,0.1c-0.2,4.9-0.2,13.4,0,19.1l-1.3,0.8l-0.1-0.1c0.1-2.8,0.1-5.9,0.1-8.9c-1.3,0.1-3,0.1-3.4,0.2
	l-0.6-1.2l0.1-0.1C118.4,10.8,120.2,10.8,121.6,10.8z"/>
<path class="st1" d="M128.9,14.5l-1.3,0.1c-0.2-2.8-0.4-9.5-0.5-10.7h1.3l0.1,0.1c-0.1,0.8-0.1,2.3,0,4c1.7,0,4.6,0,5.3-0.2l0.1,0.1
	l-0.5,1h-4.9C128.6,11.1,128.8,13.5,128.9,14.5z M135.9,13L135.9,13l-0.4,1l-5.8,0.1v-0.9c0.2,0.1,1.3,0.1,2.5,0
	c3.3-0.8,2.5-7,2.5-9.7h1.2l0.1,0.1c0,2.8,0.3,7.5-1.8,9.4C135.1,13.2,135.7,13.1,135.9,13z M140.1,9.6c-1.2,0.1-2.4,0.1-2.8,0.2
	l-0.6-1.2l0.1-0.1c0.7,0.1,2.1,0.1,3.3,0.1c0-2.7,0-5.2-0.1-6.9l1.3-0.7l0.1,0.1c-0.2,4.9-0.2,13.4,0,19.1l-1.3,0.8l-0.1-0.1
	C140,17.3,140.1,13.3,140.1,9.6z"/>
<path class="st1" d="M147.5,9.7c0,0.8,0.4,1.9,2.6,1.9c1.7,0,3.9-0.7,4.9-1.8l0.7,1.1c-1.7,1.2-3.7,1.6-5.5,1.6
	c-2.8,0-3.9-1.4-3.9-2.8c0-0.7,0.2-1.6,0.8-2.2c-0.7,0-1,0.1-1.2,0.4l-1-1.2l0.2-0.1h7.6c0.2-0.4,0.3-0.6,0.3-1.1
	c0.1-1.6-0.9-2.3-2.7-2.3c-1.4,0-2.6,0.4-3.8,1L146,3c1.2-0.4,2.8-0.7,4.1-0.7c2.1,0,4.1,0.9,4.1,3.3c0,0.5-0.1,1-0.4,1.7l-0.1,0.1
	h-5C147.7,8.3,147.5,9,147.5,9.7z M150,14h1.6c-0.5,2.2-1.1,4.6,1.5,5.2c0.4,0.1,0.8,0.1,1.2,0.1c1.9,0,4-0.8,5.3-1.5l0.6,1.2
	c-1,0.5-3.4,1.3-5.7,1.3c-0.6,0-1.1,0-1.7-0.2C149.5,19.4,149.5,16.8,150,14z M158.1,1.6l1.3-0.7l0.1,0.1c-0.2,3.8-0.3,8.1,0,12.3
	l-1.3,0.8l-0.1-0.1C158.2,9.2,158.2,4.9,158.1,1.6z"/>
<path class="st1" d="M179.5,9.6c0,2.7-2.1,4.6-4.8,4.6c-2.4,0-4.8-1.8-4.8-4.6c0-2.2,1.5-3.8,3.4-4.9c0.3-0.1,0.7-0.4,0.8-0.6
	l0.7,1.2l-0.1,0.2c-1.5,0.4-3.5,2-3.5,4.2c0,2.3,1.8,3.5,3.6,3.5c2.2,0,3.7-1.5,3.7-3.5c0-1.6-0.9-3.3-3-3.6l0.3-0.8
	C178.3,5.7,179.5,7.8,179.5,9.6z M181.9,1.6l1.3-0.7l0.1,0.1c-0.1,2.1-0.1,4.7-0.1,7.6c1.3-0.1,2.5-0.1,3.3-0.2l0.1,0.1l-0.5,1.2
	c-0.5-0.1-1.6-0.1-2.9-0.1c0,3.7,0,7.5,0.1,10.5l-1.3,0.8l-0.1-0.1C182.1,14.4,182.1,6,181.9,1.6z"/>
<path class="st1" d="M188.3,9.6c0-2.2,1.5-3.8,3.4-4.9c0.3-0.1,0.7-0.4,0.8-0.6l0.7,1.2L193,5.4c-1.5,0.4-3.5,2-3.5,4.2
	c0,2.3,1.8,3.5,3.6,3.5c2.2,0,3.7-1.5,3.7-3.5c0-1.6-0.9-3.3-3-3.6l0.3-0.8c2.5,0.6,3.7,2.7,3.7,4.5c0,2.7-2.1,4.6-4.8,4.6
	C190.8,14.1,188.3,12.3,188.3,9.6z M200.9,1.6l1.3-0.7l0.1,0.1c-0.2,4.9-0.2,13.4,0,19.1l-1.3,0.8l-0.1-0.1
	C201,14.4,201,6,200.9,1.6z"/>
<path class="st1" d="M206.7,17.2c0-0.6,0.5-1.2,1.2-1.2c0.6,0,1.2,0.6,1.2,1.2c0,0.7-0.5,1.2-1.2,1.2
	C207.2,18.4,206.7,17.8,206.7,17.2z"/>
</svg>
