<?xml version="1.0" encoding="utf-8"?>
<!-- Generator: Adobe Illustrator 27.5.0, SVG Export Plug-In . SVG Version: 6.00 Build 0)  -->
<svg version="1.1" id="Layer_2_00000148631566729126159290000009394804523670052521_"
	 xmlns="http://www.w3.org/2000/svg" xmlns:xlink="http://www.w3.org/1999/xlink" x="0px" y="0px" viewBox="0 0 222.8 150.8"
	 style="enable-background:new 0 0 222.8 150.8;" xml:space="preserve">
<style type="text/css">
	.st0{enable-background:new    ;}
	.st1{fill:#FFFFFF;}
	.st2{fill:#D7DF7B;}
	.st3{fill:#FFEA7D;}
</style>
<g id="Layer_1-2">
	<g class="st0">
		<path class="st1" d="M12.5,24.9c-0.5-0.8-1.9-1-3.6,0.1c-1,0.7-2.2,1.8-3.4,3.6l-1.4-0.8C5.6,26.1,6.9,25,8,24.3
			c2.9-1.9,4.6-1.2,5.4,0c1.8,2.7,0.3,8.5-1.5,12.5l-1.5-0.5C12.4,32.6,13.8,26.9,12.5,24.9z M14.8,16.1L14.6,16l-0.8,1.4
			c2.7,3.8,7.6,11.3,11.2,17.1h0.1l0.7-1.4C22.5,28.1,17.5,20.6,14.8,16.1z"/>
	</g>
	<g class="st0">
		<path class="st1" d="M27.1,18.4c-0.4-1.3-0.4-2.6-0.3-3.5c-0.5,0.3-0.8,0.5-0.9,0.9l-1.1-1.2l0.2-0.2L35.5,11l0.3,0.9l-7.3,2.4
			c-0.2,1.4-0.2,3,0.1,3.7c0.4,1.3,1.2,2.9,4.8,1.8h0.1c1.4-0.5,3.6-1.8,4.4-2.8l0.9,1.1c-1,0.9-3.2,2-4.8,2.6
			C30.9,21.5,28.2,21.7,27.1,18.4z M34.4,25c-0.4-1.2-0.9-2.5-1.1-3.2l1.4-0.4l0.1,0.1c0.2,0.9,0.6,2.1,0.9,3.2
			c3.1-1.1,6.2-2.2,8-2.9l0.2,0.1l-0.3,1.5c-1.4,0.3-5.1,1.4-9,2.6c-2.8,0.9-5.8,2-8,2.9h-0.2l0.4-1.5C28.6,26.9,31.5,26,34.4,25z"
			/>
	</g>
	<g class="st0">
		<path class="st1" d="M54.3,20.4c-2.9,0.5-6,1-8.3,1.6l-0.1-0.1l0.6-1.4c1.8-0.1,4.8-0.5,7.9-1c-0.2-1.1-0.4-2.4-0.6-3.2
			c-3,0.3-4.6-0.6-4.8-2.1c-0.1-0.6,0.1-1.5,0.4-2c-0.9,0.2-1.2,0.3-1.3,0.6L47,11.7l0.1-0.1l9.7-1.5C56.9,9.8,57,9.5,57,9.2
			c0.1-1.5-1.4-2.3-3.8-2c-1.5,0.2-3.4,1.1-4.7,2l-1-1.2c1.5-0.7,3-1.4,5-1.7h0.3c2.6-0.4,5.2,0.5,5.4,2.6c0,0.4,0,1.2-0.3,1.8
			l-0.1,0.1l-7,1.1c-0.5,0.7-0.8,1.4-0.6,2c0.2,1,1.1,1.7,4,1.2c2.3-0.4,4.1-1.3,5.5-2.3l0.6,1.2c-1.3,0.7-3.1,1.5-5.1,1.9
			c0.1,0.9,0.2,2.2,0.4,3.2c3.3-0.5,6.5-1.2,8.3-1.6l0.2,0.1L63.6,19C62.1,19.3,58.3,19.8,54.3,20.4z"/>
	</g>
	<g class="st0">
		<path class="st1" d="M72.5,3.4h1.7c-0.7,2-2.2,7,0.7,8.1c0.4,0.1,0.8,0.2,1.3,0.2c1.5,0,3.4-0.5,4.6-1.2l0.6,1.2
			c-1.4,0.7-3.1,1.1-4.8,1.1c-0.7,0-1.5-0.1-2.1-0.4C71.3,11.3,71.6,6.5,72.5,3.4z M77.2,22.5h-1.3c-0.2-2.3-0.5-6.3-0.6-7.3h1.4
			l0.1,0.1l-0.1,0.4c1.1-0.4,2.4-0.7,3.9-0.7c2.8,0.1,4.9,1.3,4.9,3.9c0,1.3-0.7,2.2-1.7,2.7c0.8,0,1.4-0.1,1.7-0.2v0.1l-0.5,1
			l-6.8-0.1v-0.9c0.2,0.1,1.8,0.1,3.5,0.1c1.4-0.3,2.3-1.2,2.4-2.7c0.1-2.3-2-3-3.6-3s-3.1,0.2-3.9,0.7C76.8,18.7,77,21.3,77.2,22.5
			z M84.9,7.1c0-1.5,0-2.9,0-4.3l1.4-0.7l0.1,0.2c-0.3,4.1-0.4,7.6-0.3,11.6l-1.4,0.8l-0.1-0.1c0.1-2.3,0.2-4.4,0.3-6.3
			c-1.4,0-3.1,0.1-3.5,0.1L80.7,7l0.1-0.1C81.7,7,83.5,7.1,84.9,7.1z"/>
	</g>
	<g class="st0">
		<path class="st1" d="M95.8,7c0.3-0.1,0.8-0.2,1-0.4L97.1,8l-0.2,0.2c-1.7,0-4.1,1.1-4.7,3.3c-0.7,2.4,0.8,4.1,2.7,4.6
			c2.3,0.6,4.2-0.5,4.8-2.6c0.4-1.6,0-3.6-2-4.6l0.6-0.7c2.4,1.3,3,3.8,2.5,5.6c-0.8,2.8-3.4,4.1-6.2,3.3c-2.5-0.7-4.4-3.2-3.6-6.1
			C91.6,8.9,93.5,7.6,95.8,7z M104.4,15c-1.2-0.3-2.4-0.5-2.9-0.6l-0.2-1.4l0.1-0.1c0.8,0.3,2.1,0.6,3.3,1c0.8-2.8,1.4-5.4,1.9-7.2
			l1.6-0.4l0.1,0.2c-1.6,5-4,13.7-5.5,19.6l-1.6,0.4l-0.1-0.1C102.1,22.9,103.3,18.8,104.4,15z"/>
	</g>
	<g class="st0">
		<path class="st1" d="M117.4,11.5c3.3,1.4,3.6,3.2,3.1,4.2c-1,2.4-6.1,4-10.4,4.3l-0.4-1.5c4.1,0,8.9-1.6,9.7-3.3
			c0.3-0.6-0.2-1.8-2.1-2.6c-1.1-0.5-2.6-0.8-4.6-0.9l-0.1-1.6C114.7,10.5,116.2,11,117.4,11.5z M113.4,28.6
			c0.3,0.2,0.7,0.4,1.1,0.6c1.9,0.8,4.4,0.9,6,0.8v1.3c-1.2,0.1-3.9-0.2-6.2-1.1c-0.6-0.2-1.1-0.5-1.6-0.9c-2.8-2-1.7-4.7-0.1-7.3
			l1.5,0.7C112.8,24.7,111.1,27,113.4,28.6z M125.4,13.4l1.6-0.2l0.1,0.2c-0.9,1.8-1.8,3.8-2.7,5.9c1.3,0.5,2.5,1,3.3,1.2l0.1,0.1
			l-1.1,1c-0.5-0.3-1.6-0.8-2.8-1.3c-0.8,1.8-1.5,3.7-2.2,5.5l-1.6,0.2v-0.1C122.2,21.1,124.2,16.6,125.4,13.4z"/>
	</g>
	<g class="st0">
		<path class="st2" d="M136.4,114.8c-2.2-1.8-1.3-4.9,2.1-9.2s6.4-5.8,8.5-4c2.2,1.8,1.3,4.9-2.1,9.2S138.6,116.6,136.4,114.8z
			 M140.4,120.4c-0.6-0.5-1.1-1.3-0.2-2.7c1.7-2.4,8.2-10.6,10.5-12.9c1.2-1.2,2.1-0.9,2.7-0.4c0.6,0.5,1.1,1.3,0.1,2.7
			c-0.6,0.8-1.6,2.1-2.7,3.6l0.4,0.4c0.2,0.2,0.4,0.4,0.5,0.7c0.7-0.9,1.4-1.6,2-2.2c0.7-0.8,1.5-0.9,2.3-0.3
			c0.9,0.7,0.8,1.4,0.2,2.3c-1.2,1.6-4.1,5.2-5.8,7.3l0.7,0.6c1.8-2.4,3.9-5.1,5.9-7.2c0.9-1,1.7-1,2.4-0.4c0.6,0.5,0.8,1.3,0.1,2.4
			c-2.2,3.2-5.2,6.9-7.5,9.2c-1,1-2.4,1.3-3.5,0.5c-1.5-1-2.4-1.9-3.2-2.9c-0.6-0.8-0.6-1.8,0.3-2.9c0.7-0.9,1.5-1.3,2.2-1.2
			l1.1-1.4c-0.3-0.1-0.6-0.2-0.9-0.4c-0.1-0.1-0.2-0.2-0.3-0.2c-1.8,2.2-3.5,4.2-4.3,5.1C141.9,121.3,141.1,120.9,140.4,120.4z
			 M140.1,110.4c0.3,0.3,0.8,0,2.2-1.7s1.5-2.2,1.2-2.5s-0.8,0-2.2,1.7C139.9,109.6,139.7,110.1,140.1,110.4z"/>
	</g>
	<g class="st0">
		<path class="st1" d="M86.5,137.1c-3.9-0.5-8-0.8-10.3-0.9l-0.1-0.2l0.9-1.2c1.4,0.3,5.2,0.9,9.2,1.4c3,0.4,6,0.7,8.4,0.8l0.1,0.1
			l-1,1.2C92.2,137.8,89.4,137.4,86.5,137.1z M87.6,128.7c-0.4-0.2-0.9-0.3-1.3-0.3c-2.1-0.3-4.7,0.4-6.2,0.9l-0.4-1.3
			c1.1-0.4,4.1-0.9,6.6-0.6c0.6,0.1,1.3,0.2,1.8,0.4c3.3,1.2,2.9,4.2,2.1,7.1l-1.7-0.2C89.2,132.5,90.3,129.8,87.6,128.7z
			 M89.3,143.6c-0.2,2-1.9,3.3-4,4.1c-0.3,0.1-0.7,0.3-0.8,0.5L84,147l0.2-0.2c1.6-0.2,3.6-1.3,3.8-3.3c0.3-2.2-1.3-3.3-3.1-3.5
			c-1.9-0.2-3.7,0.5-4,2.6c-0.2,1.5,0.5,3.1,2.6,3.5l-0.4,0.8c-2.6-0.8-3.5-2.8-3.2-4.5c0.3-2.5,2.4-3.7,5.1-3.4
			C87.3,139.2,89.6,140.8,89.3,143.6z"/>
	</g>
	<g class="st0">
		<path class="st3" d="M102.8,36l2.6,12.8l-20.8,4.3L82,40.3L102.8,36z M106.4,49.9l1,4.8l-8.3,1.7l0.7,3.4l-5.6,1.1l-0.7-3.4
			l-8.3,1.7l-1-4.8L106.4,49.9z M89.3,47.1l9.7-2L98.3,42l-9.7,2L89.3,47.1z"/>
	</g>
	<g class="st0">
		<path class="st3" d="M129.3,58l0.1-3.7l-16.8-0.4l0.1-4.7l22.4,0.5l-0.2,8.4L129.3,58z M126.8,35.5l-0.2,8l-8.1-0.2v1.1l8.4-0.3
			l-0.1,3.7l-14.1,0.4l0.2-8.5l8.1,0.2V39l-8.1-0.2l0.1-3.7L126.8,35.5z M135.1,48.8l-5.7-0.1l0.1-4.4h-2l0.1-4.9h2l0.1-4.4l5.7,0.1
			L135.1,48.8z"/>
	</g>
	<g class="st0">
		<path class="st3" d="M153,58.3l-1.7,4.6l-8-3l-1.2,3.2l-5.3-2L138,58l-8-3l1.7-4.6L153,58.3z M157.3,44.6l-4.6,12.2l-19.9-7.4
			l4.6-12.2L157.3,44.6z M139.9,46.8l9.2,3.4l1.1-3l-9.2-3.4L139.9,46.8z"/>
	</g>
	<g class="st0">
		<path class="st3" d="M159.3,72.4l2.5-2.7l-12.3-11.3l3.2-3.4l16.5,15.2l-5.7,6.2L159.3,72.4z M172.3,53.9l-5.4,5.9l-6-5.5
			l-0.7,0.8l6.5,5.3l-2.5,2.7l-10.8-9l5.8-6.3l6,5.5l0.6-0.6l-6-5.5l2.5-2.7L172.3,53.9z M169.8,69.3l-4.2-3.8l3-3.3l-1.5-1.3
			l3.3-3.6l1.5,1.3l3-3.3l4.2,3.8L169.8,69.3z"/>
	</g>
	<g class="st0">
		<path class="st1" d="M182.1,84.4l-1.4-0.7c0.8-1,2.3-3.9,2.2-5.4c-2.7-0.2-5.7-0.8-7.5-1.2l0.3-1.5c4.5,1.7,10.6,2.1,11.5,1.4
			c0.5-0.4,0.5-1.3-0.4-2.5c-0.7-0.9-1.8-2-3.7-3.1l0.8-1.3c1.7,1.5,2.9,2.8,3.7,3.8c1.5,2,1.4,3.3,0.4,4c-0.6,0.5-2.2,0.5-4.1,0.4
			C184.1,80.3,183,83.1,182.1,84.4z M194.3,78.4l1.5,0.7v0.2c-1.8,1.2-4.1,2.9-6.6,4.7c0.9,1,1.7,2.1,2.2,2.7v0.2l-1.4,0.3
			c-0.3-0.5-1-1.5-1.7-2.5c-3.1,2.3-6.4,4.7-8.9,6.7l-1.5-0.7v-0.1C183.3,86.6,190.6,81.3,194.3,78.4z"/>
	</g>
	<g class="st0">
		<path class="st1" d="M189.2,95.4l0.8,1.4c-2.3,0.7-4.7,1.4-3.9,4.1c0.1,0.4,0.3,0.8,0.5,1.1c1,1.8,3,3.5,4.3,4.4l-0.8,1.1
			c-1-0.7-3.1-2.6-4.3-4.8c-0.3-0.5-0.6-1.1-0.7-1.6C184.1,97.7,186.3,96.5,189.2,95.4z M192.1,90.8c-0.7,0.4-1.5,1.3-0.4,3.3
			c0.9,1.6,3.1,3.4,4.6,3.8l-0.6,1.2c-2-1-3.8-2.7-4.8-4.4c-1.5-2.6-0.7-4.3,0.6-5c0.7-0.4,1.5-0.6,2.4-0.4c-0.4-0.7-0.7-0.9-1-0.8
			l0.6-1.5l0.2,0.1l4,7c0.4,0,0.7-0.1,1.2-0.3c1.5-0.7,1.6-2.1,0.7-3.7c-0.7-1.3-1.8-2.2-2.9-3l0.9-1.1c1,0.9,2.1,2.3,2.8,3.4
			c1.1,1.9,1.2,4.3-0.9,5.6c-0.5,0.3-1,0.4-1.8,0.5l-0.2-0.1l-2.6-4.6C193.4,90.3,192.7,90.5,192.1,90.8z M204.9,95.9l1.3,0.8
			l-0.1,0.2c-1.8,0.9-3.7,1.9-5.6,3c0.7,1.1,1.4,2.3,1.9,3v0.2l-1.4,0.1c-0.2-0.5-0.8-1.6-1.4-2.7c-1.8,1-3.5,2.1-5.2,3.1l-1.4-0.8
			l0.1-0.1C197.7,100.2,201.9,97.8,204.9,95.9z"/>
	</g>
	<g class="st0">
		<path class="st1" d="M213.4,114.7l1.2,1l-0.1,0.2c-2.1,0.8-4.7,1.8-7.5,2.9c0.6,1.2,1.1,2.4,1.5,3.2v0.2h-1.4
			c-0.1-0.5-0.6-1.6-1.1-2.9c-3.6,1.5-7.4,3.1-10.3,4.4l-1.3-1l0.1-0.1C200.8,120,209.2,116.6,213.4,114.7z M204.3,104.8l1.1-1.2
			l0.2,0.2l3.6,8.7l-0.9,0.4l-2.2-5.2c-1.5-0.3-3.2-0.4-4.8,0.3c-1.2,0.5-3.8,2-2.5,5c0.6,1.5,1.7,2.7,2.9,3.4l-0.8,1.1
			c-1-0.8-2.3-2.3-2.9-3.9c-1.5-3.7,0.5-5.9,2.9-6.9c1.6-0.7,3.6-0.8,4.6-0.7C205.1,105.4,204.8,105,204.3,104.8z"/>
	</g>
	<g class="st0">
		<path class="st1" d="M199.7,126.3c0.6-0.2,1.4,0.2,1.6,0.9c0.2,0.7-0.3,1.4-0.9,1.5c-0.7,0.2-1.4-0.2-1.6-0.9
			C198.6,127.2,199,126.5,199.7,126.3z"/>
	</g>
	<path class="st1" d="M66.8,131.4c-12.8-5.5-25-16.1-25.4-30.9c-0.4-14,8.1-26,19-33.8c6.2-4.4,13.2-7.8,20.4-10.3
		c0.4-0.2,0.3-0.9-0.2-0.7C67.7,60.1,54.8,67.4,47,79c-3.8,5.7-6.2,12.4-6.4,19.3s1.9,13.6,6.1,19.1c5,6.5,12.2,11.4,19.7,14.6
		C66.8,132.2,67.2,131.6,66.8,131.4L66.8,131.4L66.8,131.4z"/>
	<path class="st1" d="M132.3,122.9c-4.6,3.5-9.6,6.4-15,8.4s-10.8,3.1-16.3,4c-0.5,0.1-0.3,0.8,0.2,0.7c5.8-0.9,11.5-2.1,17-4.2
		c5.3-2,10.2-4.9,14.7-8.3C133.3,123.1,132.7,122.6,132.3,122.9L132.3,122.9L132.3,122.9z"/>
	<path class="st1" d="M157,71.5c0.6,8.1,0.1,16.3-2.1,24.1c-0.1,0.5,0.6,0.7,0.7,0.2c2.2-7.9,2.8-16.2,2.1-24.3
		C157.7,71,157,71,157,71.5L157,71.5z"/>
	<path class="st1" d="M128.7,27.8c2.9,2,5.8,4,8.5,6.3c0.4,0.3,0.9-0.2,0.5-0.5c-2.8-2.3-5.7-4.4-8.6-6.4
		C128.7,26.9,128.3,27.6,128.7,27.8L128.7,27.8L128.7,27.8z"/>
</g>
</svg>
