<svg width="114" height="115" viewBox="0 0 114 115" fill="none" xmlns="http://www.w3.org/2000/svg">
<path d="M110.017 1.49219H1V110.752H110.017V1.49219Z" fill="#EFEDE4" stroke="black" stroke-miterlimit="10"/>
<path d="M1 1V114.084" stroke="black" stroke-width="2" stroke-miterlimit="10"/>
<path d="M6.23804 1V114.084" stroke="black" stroke-width="2" stroke-miterlimit="10"/>
<path d="M11.4761 1V114.084" stroke="black" stroke-width="2" stroke-miterlimit="10"/>
<path d="M16.7142 1V114.084" stroke="black" stroke-width="2" stroke-miterlimit="10"/>
<path d="M21.9522 1V114.084" stroke="black" stroke-width="2" stroke-miterlimit="10"/>
<path d="M27.1902 1V114.084" stroke="black" stroke-width="2" stroke-miterlimit="10"/>
<path d="M32.4283 1V114.084" stroke="black" stroke-width="2" stroke-miterlimit="10"/>
<path d="M37.6664 1V114.084" stroke="black" stroke-width="2" stroke-miterlimit="10"/>
<path d="M42.9044 1V114.084" stroke="black" stroke-width="2" stroke-miterlimit="10"/>
<path d="M48.1424 1V114.084" stroke="black" stroke-width="2" stroke-miterlimit="10"/>
<path d="M53.3806 1V114.084" stroke="black" stroke-width="2" stroke-miterlimit="10"/>
<path d="M58.6186 1V114.084" stroke="black" stroke-width="2" stroke-miterlimit="10"/>
<path d="M63.8566 1V114.084" stroke="black" stroke-width="2" stroke-miterlimit="10"/>
<path d="M69.0946 1V114.084" stroke="black" stroke-width="2" stroke-miterlimit="10"/>
<path d="M74.3328 1V114.084" stroke="black" stroke-width="2" stroke-miterlimit="10"/>
<path d="M79.5707 1V114.084" stroke="black" stroke-width="2" stroke-miterlimit="10"/>
<path d="M84.8088 1V114.084" stroke="black" stroke-width="2" stroke-miterlimit="10"/>
<path d="M90.0468 1V114.084" stroke="black" stroke-width="2" stroke-miterlimit="10"/>
<path d="M95.2849 1V114.084" stroke="black" stroke-width="2" stroke-miterlimit="10"/>
<path d="M100.523 1V114.084" stroke="black" stroke-width="2" stroke-miterlimit="10"/>
<path d="M105.761 1V114.084" stroke="black" stroke-width="2" stroke-miterlimit="10"/>
<path d="M114 1.43652H1.05457" stroke="black" stroke-width="2" stroke-miterlimit="10"/>
<path d="M114 6.68164H1.05457" stroke="black" stroke-width="2" stroke-miterlimit="10"/>
<path d="M114 11.9268H1.05457" stroke="black" stroke-width="2" stroke-miterlimit="10"/>
<path d="M114 17.1699H1.05457" stroke="black" stroke-width="2" stroke-miterlimit="10"/>
<path d="M114 22.4141H1.05457" stroke="black" stroke-width="2" stroke-miterlimit="10"/>
<path d="M114 27.6592H1.05457" stroke="black" stroke-width="2" stroke-miterlimit="10"/>
<path d="M114 32.9033H1.05457" stroke="black" stroke-width="2" stroke-miterlimit="10"/>
<path d="M114 38.1494H1.05457" stroke="black" stroke-width="2" stroke-miterlimit="10"/>
<path d="M114 43.3926H1.05457" stroke="black" stroke-width="2" stroke-miterlimit="10"/>
<path d="M114 48.6377H1.05457" stroke="black" stroke-width="2" stroke-miterlimit="10"/>
<path d="M114 53.8818H1.05457" stroke="black" stroke-width="2" stroke-miterlimit="10"/>
<path d="M114 59.126H1.05457" stroke="black" stroke-width="2" stroke-miterlimit="10"/>
<path d="M114 64.3711H1.05457" stroke="black" stroke-width="2" stroke-miterlimit="10"/>
<path d="M114 69.6152H1.05457" stroke="black" stroke-width="2" stroke-miterlimit="10"/>
<path d="M114 74.8594H1.05457" stroke="black" stroke-width="2" stroke-miterlimit="10"/>
<path d="M114 80.1045H1.05457" stroke="black" stroke-width="2" stroke-miterlimit="10"/>
<path d="M114 85.3486H1.05457" stroke="black" stroke-width="2" stroke-miterlimit="10"/>
<path d="M114 90.5938H1.05457" stroke="black" stroke-width="2" stroke-miterlimit="10"/>
<path d="M114 95.8379H1.05457" stroke="black" stroke-width="2" stroke-miterlimit="10"/>
<path d="M114 101.083H1.05457" stroke="black" stroke-width="2" stroke-miterlimit="10"/>
<path d="M114 106.326H1.05457" stroke="black" stroke-width="2" stroke-miterlimit="10"/>
</svg>
