<?xml version="1.0" encoding="utf-8"?>
<!-- Generator: Adobe Illustrator 27.5.0, SVG Export Plug-In . SVG Version: 6.00 Build 0)  -->
<svg version="1.1" id="Layer_2_00000176044022568867268750000003118830722245343677_"
	 xmlns="http://www.w3.org/2000/svg" xmlns:xlink="http://www.w3.org/1999/xlink" x="0px" y="0px" viewBox="0 0 301.6 149.7"
	 style="enable-background:new 0 0 301.6 149.7;" xml:space="preserve">
<style type="text/css">
	.st0{enable-background:new    ;}
	.st1{fill:#FFB800;}
	.st2{fill:#FE640D;}
</style>
<g id="Layer_1-2">
	<g class="st0">
		<g>
			<path class="st1" d="M58.4,86.7c-0.4,0-0.7-0.1-1-0.3l-0.5-0.3c-0.5-0.3-0.8-0.7-0.9-1.3l-0.8-0.1L53,85.2
				c-0.2,0-0.3,0.1-0.5,0.1c-0.5,0-1-0.2-1.4-0.5l0,0c-0.1,0.1-0.2,0.3-0.3,0.3c-0.4,0.6-1,1-1.7,1h-1c-0.8,0-1.5-0.5-1.8-1.2
				c0,0,0-0.1,0-0.1c0,0-1.1,0.1-1.1,0.1l-0.3,0.4c-0.4,0.4-0.9,0.6-1.5,0.6c-0.1,0-0.2,0-0.2,0l-0.8-0.1c-0.1,0-0.3,0-0.4-0.1
				c-0.3,0.1-0.6,0.2-0.9,0.2c-0.1,0-0.3,0-0.4,0l-0.9-0.2c-0.4-0.1-0.8-0.3-1.1-0.6L38.4,85c0,0,0,0,0,0c-0.4,0.5-1,0.8-1.6,0.8
				c-0.2,0-0.5,0-0.7-0.1l-0.3-0.1c-0.3,0.1-0.5,0.2-0.8,0.2H34c-0.8,0-1.5-0.5-1.8-1.2c-0.4,0.5-0.8,0.9-1.1,1.3
				c-0.4,0.5-1,0.8-1.6,0.8h-1c-0.8,0-1.5-0.4-1.8-1.1c0-0.1-0.1-0.1-0.1-0.2c-0.1,0-0.2,0-0.3,0c-0.1,0-0.2,0-0.2,0l-0.8-0.1
				c-0.3,0-0.6-0.2-0.9-0.3c-0.1,0.1-0.1,0.2-0.2,0.3c-0.4,0.5-1,0.8-1.6,0.8c-0.1,0-0.1,0-0.2,0l-0.9-0.1c-0.4,0-0.8-0.2-1.1-0.5
				c-0.3,0.1-0.6,0.2-0.9,0.2c-0.2,0-0.5,0-0.7-0.1c-0.3,0.1-0.6,0.2-0.9,0.2c-0.1,0-0.2,0-0.3,0L17,85.5c-0.1,0-0.1,0-0.2,0
				c-0.3,0.2-0.7,0.3-1,0.3c-0.4,0-0.8-0.1-1.2-0.4l-0.2-0.1c-0.3,0.3-0.7,0.5-1.2,0.6c-0.1,0-0.2,0-0.3,0c-0.5,0-0.9-0.2-1.2-0.4
				c0,0-0.6-0.4-0.6-0.5c-0.3,0.2-0.7,0.3-1.1,0.3c-0.4,0-0.8-0.1-1.2-0.4l-0.4-0.3C8,84.1,7.7,83.6,7.7,83c0,0,0-0.1,0-0.1
				C7.3,82.6,7,82.1,7,81.6c0-0.6,0.2-1.2,0.6-1.6c0.1-0.1,0.2-0.2,0.3-0.3c-0.4-0.1-0.7-0.3-1-0.5l-0.5-0.5C5.9,78,5.7,77,6.1,76.3
				c-0.6-0.7-0.7-1.7-0.2-2.5c0.2-0.3,0.5-0.7,0.7-1c-0.4-0.6-0.5-1.5-0.1-2.2c0.7-1.2,1.5-1.9,2.3-2.5c0.4-0.3,0.7-0.6,1.1-1
				c0.4-0.4,0.9-0.6,1.4-0.6c0.4,0,0.7,0.1,1,0.3c0,0,0.5,0.3,0.5,0.3c0.1,0,0.1,0,0.2,0c0.4,0,0.8,0.1,1.2,0.4
				c0.1-0.1,0.2-0.2,0.3-0.2c0.4-0.3,0.8-0.4,1.2-0.4c0.4,0,0.8,0.1,1.2,0.4c0.2-0.1,0.4-0.2,0.6-0.2c0.2,0,0.4-0.1,0.5-0.1
				c0.6,0,1.2,0.3,1.5,0.7c0.5,0.1,0.9,0.3,1.3,0.8l0.3,0.3c0.7-0.6,1.3-1,1.9-1.4c0.3-0.2,0.6-0.3,1-0.3c0.4,0,0.7,0.1,1,0.3
				l0.3,0.2c0.3-0.2,0.6-0.4,0.9-0.6c0.3-0.2,0.7-0.3,1-0.3c0.3,0,0.6,0.1,0.9,0.2c0.3-0.1,0.6-0.2,0.9-0.2c0.2,0,0.4,0,0.6,0.1
				l0.9,0.3c0.1,0,0.3,0.1,0.4,0.2c0.1-0.1,0.2-0.2,0.3-0.2c0.4-0.3,0.8-0.4,1.3-0.4c0.1,0,0.1,0,0.2,0l1.1,0.1
				c0.5,0,0.9,0.2,1.2,0.6l0.4,0.1c0.1,0,0.3-0.1,0.4-0.1c0.2,0,0.5,0,0.7,0.1l0.5,0.2c0.4-0.3,0.8-0.6,1-0.8
				c0.2-0.1,0.3-0.2,0.5-0.3c-0.3-0.2-0.5-0.5-0.6-0.9c-0.2-0.4-0.2-0.9,0-1.3c0-0.3,0-0.6,0.1-0.9c0-0.1,0.1-0.4,0.2-0.4
				c-0.1-0.2-0.1-0.3-0.1-0.5c-0.1-0.8,0-1.5,0.2-2.1c0-0.2,0-0.5,0-0.7c0.1-0.7,0.3-1.4,0.4-1.9c0.2-0.9,0.4-1.7,0.4-2.7
				c0-0.1,0-0.1,0-0.1c0-0.2,0-0.4,0-0.6c0.1-0.4,0.1-0.7,0.2-1.1c0.1-0.4,0.1-1,0.2-1.5c0-0.1,0-0.2,0.1-0.3c0-0.3,0-0.6,0.2-0.9
				l0,0c-0.1-0.5,0-0.9,0.3-1.3c0.1-0.1,0.1-0.2,0.2-0.3c-0.3-0.9-0.4-1.7-0.4-2c0-0.5,0.2-1,0.5-1.4c0.1-0.3,0.2-0.6,0.3-0.8
				c-0.3-0.6-0.2-1.2,0-1.7c0-0.5,0.1-1,0.4-1.4c0,0,0-0.1,0-0.1c-0.1-0.8-0.1-1.4,0.1-1.9c0-0.2,0.1-0.3,0.1-0.5l0.5-1.3
				c0.1-0.4,0.4-0.7,0.7-0.9c0,0,0,0,0,0c0.4-0.5,1-0.8,1.6-0.8c0.1,0,0.3,0,0.4,0l1.4,0.3c0.6,0.1,1.2,0.6,1.4,1.2l1,2.4
				c0.2,0.4,0.2,0.9,0.1,1.4L48,43.4c0.1,0.4,0,0.8-0.2,1.2c-0.2,0.3-0.2,0.9-0.2,1.5c0.2,0.3,0.2,0.7,0.2,1.1
				c0.4,0.7,0.2,1.6-0.2,2.1c0.2,0.5,0.2,1.1-0.1,1.6l-0.3,0.7l0,0.5c0,0.3,0,0.6-0.1,0.8c-0.1,0.2-0.2,0.4-0.2,0.6
				c0.1,0.5,0,1-0.2,1.5c-0.6,1-0.7,2.4-0.8,3.8c0,0.4-0.1,0.7-0.1,1.1c0,0.1,0,0.2-0.1,0.3c0.1,0.4,0.1,0.9-0.1,1.3
				c-0.1,0.3-0.3,0.6-0.6,0.8c-0.1,0.3-0.2,0.7-0.3,1c0,0.1,0,0.2-0.1,0.2c0,0.4-0.1,0.8-0.3,1.2c-0.2,0.4-0.6,0.6-1,0.8
				c0,0.1-0.1,0.2-0.1,0.4c-0.1,0.4-0.3,0.7-0.6,0.9c0.2-0.1,0.5-0.1,0.7-0.1c0.3,0,0.6,0.1,0.8,0.2c0.1-0.1,0.2-0.2,0.3-0.3
				c0.4-0.3,0.8-0.4,1.2-0.4c0.1,0,0.2,0,0.4,0c0.3,0.1,0.6,0.2,0.9,0.4c0,0,0,0,0,0c0.3-0.2,0.7-0.3,1.1-0.3c0.4,0,0.7,0.1,1,0.3
				l0.6,0.3c0.1,0,0.2,0,0.3,0c0.2,0,0.3,0,0.5,0.1l0.2,0.1c0.3-0.3,0.8-0.4,1.2-0.4c0.2,0,0.3,0,0.5,0.1l0.8,0.2
				c0.3,0.1,0.7,0.3,0.9,0.5l0.2-0.2c0.4-0.3,0.8-0.5,1.3-0.5h0.9c0.3,0,0.7,0.1,1,0.2c0.2-0.1,0.3-0.2,0.5-0.2l1.9-0.4
				c0.1,0,0.2,0,0.4,0c0.3-0.2,0.7-0.3,1.1-0.3h0.9c0.5,0,0.9,0.2,1.2,0.4c0.5-0.4,1.1-0.8,1.3-1c0.3-0.2,0.7-0.3,1.1-0.3
				c0.1,0,0.2,0,0.2,0l0.8,0.1c0.5,0.1,1,0.3,1.3,0.7c0,0,0,0,0.1,0c0,0,5,0.2,7,0.2c0.2,0,0.5,0,0.7,0.1c0.2-0.1,0.3-0.1,0.4-0.2
				c0.2,0,0.3-0.1,0.5-0.1c0.1,0,0.2,0,0.3,0c0.2,0,0.4,0,0.6,0c0.5,0,1.1,0,1.7,0.2c0.9,0.2,1.6,0.9,1.7,1.9l0.1,1.7
				c0.4,0.5,0.5,1.2,0.4,1.8l-0.4,1.4c0,0.2-0.1,0.3-0.2,0.4c0.1,0.2,0.1,0.5,0.1,0.7c-0.1,0.6,0.1,4.1,0.2,7.1
				c0,0.6-0.2,1.2-0.6,1.6c-1.8,1.6-2.5,1.6-3,1.6c-0.1,0-0.2,0-0.3,0c-0.2,0.3-0.6,0.5-0.9,0.6C76.2,85,76,85,75.8,85
				c-0.4,0-0.8-0.1-1.2-0.4l-0.4-0.3c-0.3,0.2-0.7,0.3-1,0.3h-3c-0.4,0-0.8-0.1-1.1-0.4l-2,0.5c-0.2,0-0.3,0.1-0.5,0.1
				c-0.5,0-1-0.2-1.3-0.5c-0.2,0.1-0.4,0.1-0.7,0.1c-0.1,0-0.1,0-0.2,0l-2.9-0.3c-0.8,1.1-1.4,1.8-2,2.3
				C59.2,86.6,58.8,86.7,58.4,86.7z M41.5,67.3c0,0,0.1,0.1,0.1,0.1c0.2-0.1,0.3-0.2,0.4-0.3C41.8,67.2,41.7,67.3,41.5,67.3z
				 M45.2,34.1c-0.3,0-0.5,0-0.8,0c-0.2,0-0.4,0-0.7,0c-0.6,0-1.2-0.3-1.6-0.8C42,33.2,42,33.1,41.9,33c-0.1,0-0.1-0.1-0.2-0.1
				c-0.6-0.2-1.1-0.7-1.2-1.4c-1.9-2.1-3.9-6.9-3.1-9.9c0.3-1.3,1.2-2.3,2.3-2.7c0.3-0.4,0.7-0.7,1.1-0.9c0.7-1,1.5-2,3-2
				c0.3,0,0.6,0.1,0.9,0.1c0.3,0,0.6,0.1,1,0.1c0.2,0,0.4,0,0.6,0.1c0.1-0.1,0.1-0.1,0.2-0.2l0.3-0.2c0.3-0.2,0.7-0.3,1.1-0.3
				c0.2,0,0.3,0,0.5,0.1c0.2,0.1,0.5,0.2,0.6,0.3c0.2,0,0.4-0.1,0.5-0.1c0.1,0,0.2,0,0.3,0c0.4,0.1,0.8,0.3,1.1,0.6
				c0.2,0,0.4,0.1,0.5,0.1c0.3,0.1,0.6,0.3,0.8,0.5c0,0,0.1,0,0.1,0c0,0,0.1,0,0.1,0c0.8,0,1.6,0.5,1.9,1.3c0.3,0.7,0.6,1.4,1,2.1
				c0.3,0.5,0.6,1.1,0.8,1.6c0,0.1,0,0.1,0.1,0.2c0.5,1.3-0.1,2.4-0.4,3c0.1,0.4,0.1,0.8,0,1.1c0,0,0,0,0,0c0.2,0.7,0,1.4-0.5,1.9
				c-0.3,0.3-0.6,0.4-0.9,0.5c-0.2,0.2-0.5,0.3-0.8,0.4c-0.3,0.5-0.8,0.9-1.4,1c-0.4,0.5-0.8,1.1-1.4,1.5c-0.3,0.2-0.6,0.4-1,0.5
				c-0.3,0.3-0.7,0.5-1.2,0.5c-0.1,0-0.1,0-0.2,0C47.4,34.1,45.8,34.1,45.2,34.1z"/>
			<path class="st2" d="M47.9,17.6c0.2,0.4,0,1.1,0.3,1.3l0.1-0.8c0.1-0.1,0.1-0.1,0.2-0.1c0.2,0,0.5,0.4,0.6,0.5
				c0.2-0.1,0.4-0.3,0.5-0.6v0.6c0.3,0,0.6,0,0.9,0c0.1,0,0.3,0,0.4,0c-0.6,0.3-0.6,1.2,0.1,1.4c0.2-0.1,0.2-0.5,0.3-0.8
				c-0.1,0.3,0,0.6,0.2,1c0.2-0.3,0.5-0.6,1-0.6l0.1-0.4c0.5,1.3,1.3,2.6,1.9,3.9c0.4,1.1-1.2,1.9-0.4,2.9c-0.2,0.3-0.1,0.6,0,1
				l-0.4-0.1l-0.4,0.5C52.9,27,53,27,52.5,27c-0.1,0.4-0.3,0.9-0.5,1.3v-0.9c-0.8,1-1.4,2.1-2.3,2.9L49.1,30l-0.4,0.8
				c-0.2,0-0.3,0-0.4,0c-0.7,0-0.2-0.2-0.8-0.4l0.1,0.5c-0.6,1.1-1.5,1.2-2.4,1.2c-0.5,0-1,0-1.5,0c0.1-0.4-1-1-1.3-1.1l-0.1-0.5
				C40.4,29,37,21.2,41,20.6c0.2-0.5,0.5-0.9,1.1-1c0.8-1.3,1.1-1.6,1.6-1.6c0.4,0,0.9,0.2,1.9,0.2l-0.2,0.5
				c0.2,0.3,0.4,0.4,0.6,0.4c0.3,0,0.6-0.3,0.9-0.3l-0.4,0.5c0,0,0.1,0,0.1,0c0.6,0,1.3-1,1-1.5L47.9,17.6 M46.8,21.6
				c-0.4-0.1-0.6-0.2-0.8-0.2c-0.2,0-0.1,0.2-0.6,0.7c-0.2-0.3-0.4-0.6-0.6-1c-0.3,0.8-0.3,2.5-0.3,3.3c0.5-0.2,1-0.4,1.4-0.6
				c0.3,0.2,0.4,0.6,0.4,1.1c0.1,0,0.2,0,0.4,0c0.1,0,0.3,0,0.5,0.1c-0.6,0.5-2.1,0.5-2.1,1.6c0,0.5,1,0.9,1,1.4
				c0.9-0.2,1.8-0.4,2.7-0.8c0.2-0.6,1-1.8,1.6-2.2v-3h-0.1c-0.3-0.3-0.9-0.5-1.2-1c-0.1,0.4-0.4,0.6-0.8,0.6
				c-0.2,0-0.4-0.1-0.6-0.3l-0.3-0.9C47.3,20.8,47.1,21.3,46.8,21.6 M46.9,18.8L46.9,18.8 M51.3,19.1L51.3,19.1 M44.3,38.2l1.4,0.3
				l1,2.4L46,43l-0.3-0.1l0.3,0.8c-0.4,0.8-0.4,1.7-0.4,2.6L45,46.7l0.2,0.6l0.2-0.4l0.4,0.1l-0.1,0.5l0.3,0.6
				c-0.6,0.4-1.5,1.7-1.3,2.5h0.4l0.3-0.8l0.3,0.3l-0.6,1.2l0.1,1.1C45,53,44.6,53.7,43.9,54l0.4,0.3l0.6-0.2c-1,1.7-1,3.9-1.2,5.7
				L43.2,60l0.5,0.8c-0.5,0.1-0.9,1.7-1,2.2l-0.5,0.1l0.4,0.6l-0.5-0.1c-0.9,0.6-0.5,0.8-0.8,1.7L39.9,65l0.4-0.5L40,64.1
				c0.1-0.3,0.8-1.8,0.1-1.8c-0.1-0.8,0.2-1.4,0.5-2.1l-0.3-0.1c0.3-1.8,0.9-2.9,0.9-5L42,55l-0.3-0.5l-0.5,0.3
				c0.2-0.9,0.2-1.7,0.4-2.6l0.6-0.4c-0.2-0.3-0.2-0.3-0.5-0.3l0.4-0.8l-0.2-0.4h1.4C42.7,49.9,42,47.6,42,47l0.6,0.1L42.5,46
				l0.9-0.9L42.7,44l0.6-0.4L42.9,43c1.2-1.1-0.4-2.5,0.8-3l-0.3-0.1l0.5-1.3l0.2,1C44.9,39.6,44.5,38.6,44.3,38.2 M44.9,54.1
				L44.9,54.1 M65.8,67.1l0.8,0.1c-0.2,0-2.3,1.8-2.3,1.8l3.8-1.1c0,0,5,0.2,7.1,0.2l0.6,1.1c0,0,0.6-1.1,1-1.2c0.3,0,0.6,0,0.9,0
				c0.3,0,0.8,0,1.4,0.1l0.1,2.6l0.4,0.3l-0.4,1.4l-1.3,1l1.1,0.5c-0.1,1,0.2,7.4,0.2,7.4s-1.2,1.1-1.6,1.1l-1.1-1L75.8,83L74,81.7
				l-0.8,0.9h-3L69.8,82l-3.2,0.8L67,82l-1.6-0.5l-0.8,0.9l-4-0.4c-0.4,0.4-1.6,2.3-2.2,2.7l-0.5-0.3c0.3-0.2,1.3-1.8,1.6-2.2
				l-1.2-0.1l-0.3,1l-3-0.4l-2.5,0.6L51,81.9c-0.3,0.3-1.7,1.8-1.9,2.2h-1c0.2-0.2,11.8-12.8,11.8-12.8L59,71.1L48.5,82.6l-1.1,0.1
				c0.1-0.1,9.7-11.2,9.8-11.3l-0.8-0.1C56.3,71.5,46.1,82.7,46,82.8l-1.1,0.1l11.4-12.7l0.6,0.1l1.4-1.6l1.9-0.4l-1.9,1.9l0.6,0.1
				l2.3-2.3h0.9l0.8,1.3C62.9,69.3,65.2,67.5,65.8,67.1 M64.6,75.9c1.8-2.3,4.5-4.7,6.5-6.8l-0.6-0.3c-1.8,2.1-4.5,4.6-6.5,6.8
				L64.6,75.9 M56.1,78c1.2-1.9,5.2-5.4,6.8-7.2l-0.6-0.2c-1.4,1.8-5.5,5.3-6.7,7.2L56.1,78 M66,77.5c1.2-1.3,2.8-2.7,3.9-4.1
				l-0.7-0.3c-0.9,1.5-2.5,2.9-3.7,4.2L66,77.5 M58.5,81.5c1.9-2.5,3.2-3.6,5.3-6.6l-0.5-0.3c-1.9,2.8-2.9,3.9-5.3,6.7L58.5,81.5
				 M56.1,81.5c1.3-2.1,4.3-4.4,5.8-6.3L61.3,75c-1.4,1.7-4.5,4.2-5.6,6.2L56.1,81.5 M63.5,81.8c2.1-2.2,3.8-4,5.6-5.9l-0.5-0.3
				c-1.7,2.1-3.7,3.9-5.5,5.9L63.5,81.8 M73.1,79c1.3-0.6,1.8-2.1,2.8-3l-0.5-0.2c-1.1,0.9-1.3,2.1-2.6,2.7L73.1,79 M68.7,80.6
				c1-1.1,2.4-2.2,3.1-3.3l-0.5-0.2c-0.9,1.2-2.2,2.2-3.1,3.2L68.7,80.6 M66.6,81c0.2-0.1,2.1-2.1,2.6-3l-0.4-0.2
				c-0.9,0.9-2.3,2.8-2.6,3L66.6,81 M45.7,68.2l0.3,0.5c-4,3-9.1,9.7-12,13.2l-0.4-0.3C36.4,77.9,41.8,71.3,45.7,68.2 M60.2,68.3
				L60.2,68.3 M48,68.3l1,0.6c0,0-8.4,8.1-9.5,9.4c0,0,8.5-7.4,10.4-9.4l0.8,0.2c0,0-2.8,2.9-5.8,6.2c1.3-0.5,4.9-4.1,6.9-6.7
				l0.8,0.2c-5,5.5-10.9,10-13.6,13.5l-0.5-0.4c-0.8,0.9-1.4,1.5-1.7,1.9l-0.5-0.2c0.1-0.1,7.1-7.8,7.1-7.8l-8.5,7.9H34
				c5.1-5.5,7.7-9.7,10.3-12.3C45.5,70.2,46.1,69.5,48,68.3 M47.5,69.2C47,69.7,44.1,72,44.1,72l0.4,0.3
				C45.6,71.2,46.9,70,47.5,69.2 M39.3,68.4l0.8,0.3c-3.8,3-9.2,7.3-12.5,11.3l-0.5-0.2C30.4,75.6,35.7,71.1,39.3,68.4 M11.4,68.5
				l0.5,0.3c-1.2,0.9-2.3,1.9-3.2,3.1l-0.4-0.3C9.1,70.2,10.1,69.8,11.4,68.5 M32.6,68.6l1.1,0.1c-0.1,0.1-5,5.4-5,5.4l0.4,0.2
				c1.2-1.6,3.8-4,5.1-5.2l0.8,0.2c-3.5,3.7-9,7.8-13.5,14.2l-0.9-0.4c0,0,6.8-7.4,7.2-8.3c-2.6,2.6-6,5.9-8.3,8.7l-0.4-0.3
				c0,0,11.7-12.5,12.4-13.1c-1.2,0.6-2.4,1.4-3.3,2.2l0.3,0.3c-2.8,2.8-7.4,6.6-10.6,11l-0.6-0.1c0.7-2,7.2-7.5,10.2-10.5
				c-2.1,1.2-5.6,4.2-7.1,5.9l-0.2-0.3c-1.4,1.5-2.8,3.3-4.4,5.1l-0.4-0.3c1.1-1.2,1.3-1.5,2.4-2.7L17,80.5
				c2.9-3.1,9.6-10.1,12.1-11.8L30,69c0,0-8,7.2-8.2,7.7C25.6,73.7,30,70.7,32.6,68.6 M22.9,74.6c0.5-0.1,5.9-4.6,5.2-4.9
				C27.3,70.6,23.1,73.8,22.9,74.6 M56.4,68.7L54,70.8c-2.5,4.4-6.9,9-10.7,13.1l-0.8-0.1c1.2-1.5,2.1-3.3,2.1-3.3
				c0.1-0.2,5.8-4.5,7.9-8c-1.7,1.6-3.2,3.2-5.2,4.8L47,76.6c2.2-1.6,3.5-2.9,4.5-4.5c-4.2,3.2-7.7,6.5-10.5,11.8l-0.9-0.2
				c1-1.1,2.7-3.5,3.5-4.6c-0.8,0.8-3.8,3.8-4.1,4.1L38.7,83c1.2-1.1,14-14,14-14l0.4,0.3c-1.4,1.3-2.8,2.7-4.5,4.5
				c1.6-1.1,3.1-2.6,4.7-3.3l2.2-1.8H56.4 M43.3,68.7l0.4,0.5c-1.3,1-3.3,3-4.3,4.3c-2.1,2.5-7.1,7.6-9.9,11.1h-1
				c1.9-2.5,7.9-8.5,10.4-11.3c-2.3,1.5-5.9,5.5-7.9,7.8l-0.5-0.2C34.8,75,43.3,68.7,43.3,68.7 M27.3,68.7l0.4,0.4
				c-2.2,1.2-6.4,4.9-7.9,6.9l-0.5-0.3C20.8,73.5,25.2,69.9,27.3,68.7 M15.9,68.8l0.4,0.4c-2.8,2.2-5.8,5.3-7.9,8.5l-0.5-0.5
				C10.2,74,13.1,71,15.9,68.8 M18.2,68.9l0.2,0.4c-1.5,1-7.5,7.4-8.6,8.4l-0.3-0.3C10.5,76.3,16.4,69.4,18.2,68.9 M24.1,69.1
				l0.5,0.3c-2.3,1.5-6.3,6.2-8.2,8.1l-0.5-0.2C18,75.1,21.8,70.4,24.1,69.1 M13.2,69.1l0.4,0.5c-1.8,1.3-4.2,3.6-5.6,5.6l-0.4-0.3
				C9,72.8,11.3,70.5,13.2,69.1 M35.9,69.3l0.8,0.3c-3.9,2.3-10.6,9.8-14.1,14.3l-0.9-0.1C24.8,79.8,31.8,72.6,35.9,69.3 M19.4,69.6
				l0.3,0.4c-2.4,2.4-7.4,8.9-10.1,11.8L9,81.4C11.9,78.7,16.1,71.8,19.4,69.6 M19.8,71.1l0.5,0.1c-2.4,2.6-7.6,9.3-10.2,12
				l-0.4-0.3C12.2,80.5,17.5,73.3,19.8,71.1 M35.1,73.3l0.4,0.2c-2.8,2.2-7.1,7.1-9.2,9.8l-0.8-0.1C27.8,80.5,32.2,75.3,35.1,73.3
				 M18.5,76.3l0.2,0.3c-2.3,1.6-4,4.9-5.7,7.2l-0.5-0.4C14.2,81.2,16,77.7,18.5,76.3 M47.9,13.6c-0.7,0-1.5,0.2-2.1,0.6
				c0,0,0,0,0,0c-0.3,0-0.5-0.1-0.8-0.1c-0.3-0.1-0.8-0.1-1.3-0.1c-2.2,0-3.5,1.3-4.4,2.5c-0.3,0.2-0.6,0.5-1,0.8
				c-1.5,0.8-2.6,2.1-3,3.8c-1,3.6,1.1,8.7,3.3,11.4c0.4,0.9,1,1.6,1.8,2c0,0,0,0,0,0c0.3,0.3,0.6,0.6,0.9,0.8
				c-0.1,0.1-0.1,0.1-0.2,0.2c-0.5,0.4-0.9,1-1.1,1.6l-0.5,1.3c-0.1,0.2-0.2,0.5-0.2,0.7c-0.2,0.6-0.3,1.3-0.2,2.1
				c-0.2,0.4-0.3,0.9-0.4,1.4c-0.2,0.6-0.3,1.3-0.2,1.9c0,0,0,0.1,0,0.1C38.3,45.4,38,46.2,38,47c0,0.2,0.1,0.8,0.3,1.7
				c-0.2,0.5-0.3,1-0.4,1.6c-0.1,0.3-0.2,0.7-0.2,1c0,0,0,0,0,0c-0.1,0.6-0.2,1.2-0.3,1.7c0,0.3-0.1,0.6-0.1,0.9
				c-0.1,0.3-0.1,0.7-0.1,1c0,0,0,0.1,0,0.1c0,0.8-0.1,1.4-0.4,2.2c-0.2,0.6-0.3,1.3-0.5,2.1c0,0.3-0.1,0.6-0.1,0.9
				c-0.2,0.7-0.3,1.5-0.2,2.5c0,0.1,0,0.1,0,0.2c-0.1,0.4-0.2,0.7-0.2,1.1c-0.1,0.4-0.1,0.8-0.1,1.2c0,0,0,0,0,0c0,0-0.1,0-0.1,0
				c-0.5-0.3-1.1-0.5-1.7-0.6L33,64.6c-0.1,0-0.2,0-0.4,0c-0.6,0-1.3,0.2-1.8,0.4l-0.4-0.1c-0.4-0.1-0.8-0.2-1.3-0.2
				c-0.3,0-0.6,0-0.9,0.1c-0.3-0.1-0.6-0.1-0.9-0.1c-0.7,0-1.4,0.2-2,0.5c0,0,0,0-0.1,0c-0.4-0.1-0.8-0.2-1.1-0.2
				c-0.7,0-1.4,0.2-2,0.5c-0.3,0.1-0.5,0.3-0.8,0.5c-0.2-0.1-0.4-0.2-0.6-0.3c-0.7-0.6-1.6-0.9-2.6-0.9c-0.3,0-0.7,0-1,0.1
				c-0.4-0.1-0.9-0.2-1.3-0.2c-0.6,0-1.2,0.1-1.8,0.4c-0.2,0-0.4-0.1-0.6-0.1l-0.1,0c-0.6-0.4-1.4-0.6-2.1-0.6c-1,0-2.1,0.4-2.8,1.2
				c-0.3,0.3-0.6,0.6-1,0.9c-0.8,0.7-1.9,1.5-2.7,3.1c-0.5,0.9-0.6,1.9-0.4,2.9c0,0.1-0.1,0.1-0.1,0.2c-0.8,1.2-0.9,2.6-0.3,3.9
				c-0.2,1.2,0.2,2.5,1.1,3.5l0.1,0.1C5,80.7,5,81.2,5,81.7c0.1,0.8,0.3,1.5,0.8,2.1c0.2,0.9,0.7,1.7,1.5,2.3l0.4,0.3
				c0.7,0.5,1.6,0.8,2.4,0.8c0.2,0,0.5,0,0.7-0.1c0.7,0.4,1.4,0.7,2.2,0.7c0.2,0,0.3,0,0.5,0c0.4,0,0.7-0.1,1-0.3
				c0.4,0.1,0.8,0.2,1.3,0.2c0.4,0,0.8-0.1,1.2-0.2l0.2,0c0.2,0,0.4,0.1,0.7,0.1c0.4,0,0.7,0,1-0.1c0.2,0,0.4,0,0.6,0
				c0.2,0,0.4,0,0.6,0c0.4,0.2,0.8,0.3,1.2,0.3l0.9,0.1c0.1,0,0.3,0,0.4,0c0.8,0,1.6-0.3,2.3-0.7c0,0,0.1,0,0.1,0l0.5,0.1
				c0.7,0.9,1.8,1.4,3,1.4h1c1.1,0,2.1-0.5,2.9-1.2c0.5,0.2,1,0.3,1.6,0.3h0.9c0.3,0,0.5,0,0.7-0.1c0.4,0.1,0.8,0.2,1.2,0.2
				c0.6,0,1.2-0.1,1.8-0.4c0.2,0.1,0.4,0.2,0.7,0.2l0.9,0.2c0.3,0.1,0.6,0.1,0.9,0.1c0.3,0,0.7,0,1-0.1l0.8,0.1c0.2,0,0.3,0,0.5,0
				c0.8,0,1.6-0.2,2.3-0.7c0.7,0.6,1.6,0.9,2.5,0.9h1c0.9,0,1.8-0.3,2.5-0.9c0.3,0.1,0.6,0.1,0.9,0.1c0.3,0,0.6,0,0.9-0.1l1.3-0.3
				c0.3,0.4,0.7,0.7,1.1,1l0.5,0.3c0.6,0.4,1.3,0.6,2.1,0.6c0.8,0,1.5-0.2,2.2-0.7c0.7-0.4,1.2-1,1.8-1.8l1.8,0.2c0.1,0,0.3,0,0.4,0
				c0.1,0,0.2,0,0.2,0c0.5,0.3,1.1,0.4,1.8,0.4c0.3,0,0.6,0,1-0.1l1.3-0.3c0.4,0.2,0.9,0.2,1.4,0.2h3c0.2,0,0.5,0,0.7-0.1
				c0.6,0.3,1.2,0.5,1.9,0.5c0.4,0,0.7,0,1.1-0.1c0.4-0.1,0.7-0.3,1.1-0.5c1.3-0.1,2.4-0.7,4-2.1c0.9-0.8,1.3-2,1.3-3.1
				c-0.1-2.8-0.2-6.2-0.2-6.9c0-0.2,0-0.4,0-0.6c0-0.1,0-0.1,0.1-0.2l0.4-1.4c0.3-1,0.2-2.1-0.3-3l0-1.2c-0.1-1.9-1.5-3.5-3.3-3.8
				C79,64,78.4,64,77.7,64c-0.2,0-0.5,0-0.7,0c-0.1,0-0.2,0-0.3,0c-0.3,0-0.7,0-1,0.1c0,0,0,0-0.1,0c-0.2,0-0.4,0-0.6,0
				c-1.6,0-4.9-0.1-6.3-0.2c-0.5-0.4-1.1-0.6-1.8-0.7l-0.8-0.1c-0.2,0-0.3,0-0.5,0c-0.8,0-1.6,0.2-2.2,0.7c-0.1,0.1-0.3,0.2-0.5,0.4
				c-0.3-0.1-0.6-0.1-1-0.1h-0.9c-0.6,0-1.1,0.1-1.6,0.4c-0.1,0-0.2,0-0.3,0.1l-1.8,0.4c0,0-0.1,0-0.1,0c-0.3-0.1-0.6-0.1-1-0.1
				h-0.9c-0.5,0-1.1,0.1-1.6,0.3c-0.1,0-0.2-0.1-0.4-0.1l-0.8-0.2c-0.3-0.1-0.6-0.1-1-0.1c-0.5,0-1.1,0.1-1.6,0.3c0,0-0.1,0-0.1,0
				l-0.1,0c-0.6-0.4-1.3-0.6-2.1-0.6c-0.3,0-0.7,0-1,0.1c-0.1-0.1-0.3-0.1-0.5-0.1c0-0.1,0-0.3,0-0.4c0,0,0-0.1,0-0.1
				c0-0.1,0.1-0.2,0.1-0.3c0.3-0.3,0.5-0.7,0.7-1.1c0.3-0.7,0.4-1.4,0.3-2.1c0,0,0,0,0-0.1c0-0.4,0.1-0.7,0.1-1.1
				c0.1-1.1,0.2-2.3,0.5-2.9c0.4-0.6,0.6-1.3,0.6-2.1c0-0.1,0-0.1,0-0.2c0-0.1,0.1-0.2,0.1-0.3c0.2-0.5,0.2-1.1,0.2-1.6l0.1-0.2
				c0.4-0.7,0.5-1.5,0.4-2.2c0.4-0.9,0.4-1.9,0.1-2.8c0-0.4-0.1-0.7-0.2-1.1c0-0.2,0-0.3,0-0.4c0.3-0.5,0.4-1.1,0.4-1.7l0.5-1.5
				c0.3-0.9,0.3-1.9-0.1-2.8l-1-2.4c-0.2-0.6-0.6-1.1-1.1-1.5c0.5-0.2,0.9-0.5,1.2-0.8c0.5-0.1,1-0.3,1.4-0.6c0.5-0.2,1-0.4,1.4-0.8
				c0.5-0.4,0.9-0.9,1.2-1.3c0.5-0.2,1-0.6,1.4-1.1c0.2-0.1,0.3-0.2,0.4-0.3c0.5-0.2,1-0.5,1.4-0.9c0.9-0.9,1.3-2.1,1.1-3.3
				c0-0.3,0-0.6,0-0.8c0.4-0.9,0.8-2.3,0.2-3.9c0-0.1-0.1-0.2-0.1-0.3c-0.3-0.6-0.6-1.2-0.9-1.7c-0.4-0.7-0.7-1.4-0.9-1.9
				c-0.5-1.4-1.8-2.4-3.3-2.5c-0.3-0.2-0.6-0.3-0.9-0.4c-0.1,0-0.2-0.1-0.3-0.1c-0.5-0.3-1-0.6-1.7-0.7c-0.2,0-0.4-0.1-0.6-0.1
				c-0.1,0-0.1,0-0.2,0c-0.2-0.1-0.3-0.1-0.5-0.2C48.6,13.6,48.2,13.6,47.9,13.6L47.9,13.6z"/>
		</g>
		<g>
			<path class="st1" d="M140.7,95.6c-0.2,0-0.4,0-0.5,0c0,0-0.1,0-0.1,0c-0.1,0-0.3-0.1-0.4-0.1c0,0-0.1,0-0.1,0
				c-0.2,0-0.3,0-0.5-0.1c-0.2,0.1-0.3,0.1-0.5,0.1c-0.4,0.1-0.8,0.1-1.1,0.1c-0.9,0-1.7-0.2-2.5-0.4c-0.3,0.1-0.6,0.1-0.8,0.1
				c-0.1,0-0.2,0-0.3,0c-0.8-0.1-1.4-0.6-1.7-1.4c-0.4-0.9-0.3-2.4-0.1-3.5c-0.3-3-0.3-6.1,0.2-9.2c-0.2-0.9-0.2-2.7,0.3-6.4
				c0.1-0.9,0.8-1.6,1.7-1.7c0.5-0.1,1.4-0.1,2.2-0.1c2.2,0,3,0.3,3.5,0.7c0.5,0.4,0.8,1,0.7,1.7c0,0.3,0,0.7,0,1.1
				c0,1.2-0.1,2.7-0.3,4c0.1,0.1,0.2,0.3,0.3,0.5c0.2,0.5,0.2,1.1,0,1.6c-0.1,0.2-0.1,0.7-0.1,1.1c0,0.6,0,1.3-0.1,2
				c0.3,0.7,0.1,1.5-0.4,2.1l0.2,0.6c0.1,0.2,0.1,0.4,0.1,0.5c0.2,0,0.4-0.1,0.5-0.1c0.2,0,0.3-0.1,0.5-0.1c0.4,0,0.7,0.1,1.1,0.3
				c0.2,0.1,0.3,0.2,0.4,0.4c0.3-0.1,0.9-0.2,2-0.2c0.2,0,0.4,0,0.6,0c0.3-0.2,0.6-0.3,0.9-0.4l1.9-0.2c0.1,0,0.1,0,0.2,0
				c0.5,0,1,0.2,1.4,0.5c0.1,0,0.2,0,0.3,0c0.1,0,0.1,0,0.2,0c0,0,0,0,0,0c0.2,0,0.4,0,0.6-0.1c0.4-0.1,0.8-0.2,1.4-0.2
				c0.2,0,0.3,0,0.5,0c0.8,0.1,1.5,0.7,1.7,1.4c0.1,0.1,0.2,0.1,0.3,0.2c0.8,0.5,1.1,1.5,0.8,2.4l-0.3,0.8c-0.2,0.6-0.8,1.1-1.5,1.3
				l-0.5,0.1c-0.1,0-0.3,0-0.4,0c-0.1,0-0.2,0-0.3,0c-0.8,0.2-1.6,0.3-2.4,0.3c-0.8,0-1.6-0.1-2.4-0.2c-0.2,0-0.4-0.1-0.6-0.1
				c-0.3,0.2-0.7,0.4-1.2,0.4c-0.1,0-0.2,0-0.3,0l-0.1,0c-0.3-0.1-0.8-0.1-1.1-0.1c0,0,0,0,0,0c-0.3,0.2-0.7,0.3-1,0.3
				c-0.1,0-0.3,0-0.4,0c-0.3-0.1-0.5-0.2-0.7-0.3C141.8,95.4,141.3,95.6,140.7,95.6z M140,90L140,90z M160.2,68.6
				c-0.3,0-0.6-0.1-0.9-0.2h-4.5c-0.5,0-1.1-0.2-1.4-0.6c-0.4-0.4-0.6-0.9-0.6-1.5c0.2-3.7,0.3-5,0.3-5.8c0-0.5,0.1-0.7,0.1-1.2
				c-0.2-0.5-0.1-1,0.1-1.5c0-0.1,0.1-0.2,0.1-0.2l0,0c-0.3-0.1-0.5-0.3-0.7-0.5l-0.3-0.3c-0.4-0.4-0.6-1-0.6-1.6
				c0.1-0.6,0.4-1.1,0.9-1.5l0.2-0.2l-0.1-0.2c-0.4-0.5-0.5-1.1-0.3-1.7c0.2-0.6,0.5-1,1.1-1.3c-0.1-0.5,0-1,0.3-1.5
				c-0.1-0.5,0.1-1.1,0.4-1.5c-0.1-0.2-0.1-0.4-0.1-0.7c0-0.5,0.2-1,0.6-1.4c0,0,0.1-0.1,0.1-0.1l-0.1-0.1c-0.4-0.4-0.6-1-0.6-1.6
				c0-0.4,0.2-0.7,0.4-1c-0.1-0.2-0.1-0.4-0.1-0.6c-0.1-0.3-0.2-0.6-0.2-0.9l-0.3-0.3c-0.7-0.7-0.8-1.9-0.1-2.7
				c0.2-0.2,0.3-0.4,0.5-0.5l-0.3-0.3c-0.8-0.8-0.8-2,0-2.8c0.3-0.3,0.5-0.5,0.8-0.8c-0.1-0.1-0.2-0.2-0.3-0.3l-0.3-0.3
				c-0.4-0.4-0.6-0.9-0.6-1.5s0.3-1.1,0.7-1.4c0.2-0.2,0.5-0.5,0.9-0.8c-0.1-0.2-0.2-0.4-0.3-0.6c-0.3-0.3-0.5-0.7-0.6-1.2
				c-0.1-0.5,0.1-1.1,0.5-1.5c0,0,0,0,0,0c-0.2-0.2-0.3-0.4-0.4-0.6c-0.1-0.2-0.2-0.3-0.3-0.5l-0.2-0.5c-0.2-0.6-0.2-1.2,0.1-1.7
				c-0.3-0.7-0.2-1.4,0.2-2c0,0,0-0.1-0.1-0.1l-0.2-0.4c-0.4-0.8-0.2-1.7,0.4-2.3c-0.4-0.4-0.6-1-0.6-1.5c0-0.2,0.1-0.4,0.1-0.6
				l0-0.1c-0.3-0.6-0.3-1.2,0-1.8c-0.2-0.6-0.1-1.3,0.3-1.8c0,0,0,0,0,0c-0.2-0.3-0.3-0.7-0.3-1.1c0-0.5,0.2-1,0.6-1.4
				c0.5-0.5,1.2-1,1.9-1.4c0.3-0.2,0.5-0.3,0.7-0.5c0.3-0.2,0.8-0.4,1.2-0.4c0.5,0,1,0.2,1.4,0.6l0.3,0.3c0.3-0.1,0.6-0.3,0.9-0.4
				c0.3-0.1,0.5-0.2,0.8-0.2c0.5,0,0.9,0.2,1.3,0.5c0.3-0.1,0.5-0.2,0.8-0.2c0.7,0,1.4,0.4,1.8,1.1l0.2,0.4c0.1,0.2,0.2,0.5,0.2,0.7
				c0.2-0.1,0.3-0.2,0.5-0.2c0.3-0.1,0.5-0.2,0.8-0.2c0.7,0,1.4,0.4,1.8,1.1l0.2,0.4c0.2,0.5,0.3,1.1,0.1,1.6
				c-0.2,0.4-0.5,0.8-0.9,1c0,0.2-0.1,0.4-0.1,0.6c0,0,0,0.1-0.1,0.1c0,0,0,0.1,0,0.1l0.2,0.5c0,0.1,0,0.1,0.1,0.2
				c0.1,0.1,0.1,0.2,0.2,0.3l0.2,0.4c0.3,0.5,0.3,1.1,0.1,1.6c0.1,0.1,0.2,0.2,0.2,0.3l0.2,0.4c0.4,0.8,0.2,1.7-0.3,2.2
				c0.2,0.2,0.4,0.4,0.5,0.6l0.2,0.4c0.4,0.7,0.2,1.6-0.3,2.2c0.1,0.4,0.1,0.8-0.1,1.2c-0.1,0.2-0.2,0.3-0.3,0.5
				c0,0.3,0,0.6-0.1,0.9c0,0.1,0,0.1-0.1,0.2c0.3,0.2,0.5,0.4,0.7,0.8l0.2,0.4c0.3,0.5,0.3,1.1,0.1,1.6c-0.2,0.5-0.7,0.9-1.2,1.1
				c0,0,0,0,0,0c-0.1,0.3-0.3,0.6-0.5,0.9l0.1,0.1c0.2,0.4,0.2,0.8,0.2,1.2c0.2,0.2,0.3,0.3,0.4,0.5l0.2,0.4c0.2,0.5,0.3,1,0.1,1.5
				c0.1,0.1,0.2,0.3,0.3,0.4l0.2,0.4c0.2,0.5,0.3,1.1,0.1,1.6s-0.6,0.9-1.1,1.1c0,0-0.1,0-0.1,0.1c0,0,0.3,0.5,0.3,0.5
				c0.2,0.5,0.3,1,0.1,1.6c0,0,0,0.1,0,0.1l0,0.1c0.2,0.5,0.3,1,0.1,1.5c0,0,0,0.1,0,0.1c0.2,0.2,0.3,0.3,0.4,0.5l0.2,0.4
				c0.4,0.3,0.7,0.8,0.8,1.3l0.1,0.6c0.1,0.8-0.2,1.6-0.9,2c0,0.5-0.2,0.9-0.5,1.3v0.1c0.1,0.3,0.2,0.6,0.2,1l-0.1,1.1
				c0.5,0.2,0.8,0.5,1,1l0.2,0.4c0.4,0.8,0.2,1.7-0.4,2.3c-0.3,0.3-0.7,0.6-1.1,0.8l0.1,2.8c0,0.2,0,0.5-0.1,0.7
				c0.1,0.3,0.1,0.7,0,1.1l-0.4,1.4c0.2,0.4,0.3,0.8,0.2,1.3l-0.1,0.4c0,0,0,0.1,0,0.1c0,0.3,0,0.6-0.2,0.9c0,0.2,0.1,0.3,0.1,0.5
				c0,0.4-0.1,2.2-0.1,2.2c-0.1,1.1-0.9,1.9-2,1.9c0,0-3.6-0.1-3.7-0.1c-0.2,0.1-0.4,0.1-0.6,0.1c-0.5,0-1.4,0-1.9,0.1
				C160.4,68.6,160.3,68.6,160.2,68.6z M143.3,64.1c-0.8,0-1.3-0.1-1.4-0.2c-0.1,0-0.1,0-0.2-0.1c-0.3,0-0.6,0-0.9,0
				c-0.4,0-0.7,0-1.1,0.1c-0.1,0-0.2,0-0.4,0c-0.4,0-0.8-0.1-1.1-0.3l-2.3,0.3c-0.1,0-0.2,0-0.3,0c-0.1,0-0.2,0-0.3,0
				c-0.1,0-0.2,0-0.4,0c-0.6,0-1.5-0.1-1.6-0.1c-1-0.1-1.8-1-1.8-2V59c0-0.2,0-0.3,0.1-0.5c-0.2-0.2-0.3-0.4-0.5-0.6l-0.2-0.4
				c-0.5-0.9-0.2-2,0.7-2.6c0.1,0,0.2-0.2,0.5-0.4l0-0.5c-0.2-0.2-0.3-0.5-0.4-0.9l-0.1-0.5c-0.1-0.5,0-1.1,0.3-1.5l-0.3-0.3
				c-0.8-0.8-0.8-2-0.1-2.8c0.3-0.3,0.6-0.7,0.9-1l-0.1-0.1c-0.8-0.8-0.8-2,0-2.8c0.1-0.1,0.2-0.2,0.3-0.3c-0.3-0.7-0.2-1.6,0.4-2.2
				c0-0.1,0-0.2,0-0.3c-0.1-0.1-0.1-0.1-0.2-0.2l-0.4,0.1c-0.1,0-0.2,0-0.2,0c-0.3,0-0.6-0.1-0.9-0.2c-0.4,0.2-0.9,0.4-1.5,0.4
				c-0.4,0-0.7,0-1-0.1c-0.4,0.4-0.9,0.6-1.4,0.6c-0.3,0-0.9,0.1-1.3,0.1c-0.1,0-0.1,0-0.2,0c-0.5,0-1-0.2-1.3-0.5
				c-0.4,0.3-0.9,0.5-1.4,0.5c-0.1,0-0.3,0-0.4,0c-0.3,0-1.2-0.1-1.9-0.1c-1.1,0-2-0.9-2-2v-2.1c0-0.8,0.4-1.5,1.1-1.8
				c0.4-0.2,0.9-0.3,1.3-0.4c0.1-0.1,0.1-0.3,0.2-0.4c0.4-0.5,1-0.8,1.6-0.8c0.2,0,0.6,0,1.1,0.1c0.6-0.3,1.2-0.5,1.9-0.5
				c0.1,0,0.2,0,0.3,0c0.3,0,0.5,0.1,0.8,0.2c0.8-0.4,1.7-0.6,2.5-0.6c0.5,0,1,0.1,1.5,0.2c0.2-0.1,0.4-0.1,0.6-0.1
				c0.1,0,0.1,0,0.2,0c0-0.1,0.1-0.1,0.2-0.2c0.1-0.1,0.3-0.3,0.5-0.5c0-0.1,0-0.2,0-0.3c0-0.3,0.1-0.6,0.2-0.9c0,0,0,0,0,0
				c0-0.5,0.3-1,0.6-1.4c0-0.2,0-0.3,0-0.5c-0.1-0.1-0.2-0.2-0.3-0.3l-0.3-0.3c-0.5-0.5-0.7-1.3-0.5-2c-0.3-0.7-0.2-1.4,0.2-2
				c-0.1-0.5-0.1-1.1,0.2-1.5c-0.1-0.3-0.1-0.5,0-0.8l-0.1-0.2c-0.2-0.5-0.2-1,0-1.4c-0.1-0.3-0.1-0.6-0.1-0.8
				c0-0.4,0.2-0.9,0.5-1.2c-0.2-0.4-0.3-0.8-0.3-1.2c0-0.2,0-0.3,0.1-0.5c-0.2-0.4-0.2-0.8-0.2-1.2c0.1-0.5,0.4-1,0.8-1.3
				c0.4-0.3,0.9-0.7,1.5-1c0.3-0.2,0.7-0.3,1-0.3c0.2,0,0.4,0,0.6,0.1c0.3,0.1,0.5,0.2,0.7,0.4c0.1,0,0.1-0.1,0.2-0.1
				c0.4-0.3,0.8-0.4,1.2-0.4c0.5,0,1,0.2,1.4,0.6l0.2,0.2c0,0,0.1,0,0.1-0.1c0.3-0.2,0.7-0.3,1.1-0.3c0.2,0,0.4,0,0.5,0.1
				c0.2,0,0.3,0.1,0.4,0.2c0.2-0.1,0.5-0.1,0.7-0.1c0.5,0,1,0.2,1.4,0.6l0.1,0.1c0.4,0.1,0.8,0.4,1.1,0.7l0.3,0.4
				c0.2,0.3,0.4,0.7,0.4,1.1c0.3,0.2,0.6,0.5,0.8,0.8l0.2,0.4c0.2,0.5,0.3,1.1,0.1,1.6c0,0.1-0.1,0.3-0.2,0.4c0,0.1,0,0.1,0,0.2
				c0,0.1,0.1,0.1,0.1,0.2l0.2,0.4c0.4,0.9,0.2,1.9-0.6,2.5l0.2,0.4c0.1,0.3,0.2,0.6,0.2,0.9c0.2,0.3,0.2,0.7,0.2,1
				c0.1,0.2,0.1,0.5,0.1,0.7c0.2,0.6,0.1,1.2-0.2,1.7c0.1,0.7-0.2,1.5-0.8,1.9c0.1,0.1,0.2,0.2,0.2,0.4l0.2,0.4
				c0.3,0.6,0.3,1.4-0.1,1.9c0.1,0.4,0.1,0.8,0,1.3c-0.1,0.3-0.3,0.5-0.4,0.7c0.2,0.5,0.2,1,0,1.5c0.3,0.4,0.4,0.9,0.3,1.4
				c0,0.2-0.1,0.5-0.2,0.7c0,0.1,0,0.2,0,0.3c0.4,0.2,0.7,0.6,0.8,1l0.1,0.3c0.3,0.8,0,1.7-0.6,2.2c0.5,0.4,0.9,1,0.9,1.6v0.5
				c0,0.6-0.3,1.2-0.8,1.6l-0.1,0.1c0,0.2,0,0.4-0.1,0.5c0,0.2-0.1,0.3-0.2,0.4c0.2,0.1,0.3,0.2,0.5,0.3l0.3,0.3
				c0.4,0.4,0.6,0.9,0.6,1.5c0,0.6-0.3,1.1-0.7,1.4l-1.1,0.9v0.8c0,0.1,0,0.2,0,0.4c0,0.1,0,0.3,0,0.4l-0.1,2.3
				c0,0.3-0.1,0.5-0.2,0.8c0,0,0,0.1,0,0.1v2.3c0.1,0.2,0.1,0.4,0.1,0.5l0.1,2.3c0,1-0.7,1.9-1.6,2.1
				C144.2,64,143.8,64.1,143.3,64.1z M97.5,61.2c-0.5,0-1-0.2-1.4-0.5C93.3,58,94.2,54,95,51.1c0.2-1,0.6-2.3,0.5-2.9
				c-0.6-0.1-1.1-0.5-1.4-1c-0.3-0.5-0.3-1.2-0.1-1.7c0.1-0.2,0.1-1,0.2-1.6c0.3-2.7,0.7-6.4,3.7-6.4c0.2,0,0.5,0,0.7,0.1
				c1.1-0.5,2.1-0.7,3-0.8c0.7-0.1,1.4-0.2,2-0.5c0.1-0.1,0.3-0.2,0.4-0.3c0.3-0.1,0.6-0.2,0.8-0.2c0.2,0,0.3,0,0.5,0.1
				c0.3-0.2,0.7-0.4,1-0.5c0.3,0,0.6-0.1,0.9-0.1c0,0,0.1,0,0.1,0c0.1-0.5,0.2-1,0.2-1.5c0.4-2.5,1-5.6,0.3-7.6
				c-2.5,0.1-5.4,0.5-7.6,0.9c-0.1,0-0.2,0-0.3,0c-0.3,0-0.7-0.1-1-0.3l-0.9-0.5c-0.8-0.4-1.2-1.3-1-2.2c0.3-1.4,1.2-2.8,2.3-3.6
				c0.3-0.2,0.8-0.4,1.2-0.4c0.2,0,0.5,0,0.7,0.1c0.3,0.1,0.5,0.3,0.7,0.5c1.6-0.4,4.2-0.8,8.5-1.1c0,0,0.1,0,0.1,0
				c0.4,0,0.7,0.1,1,0.3l0.6-0.1c0.4-0.3,0.8-0.4,1.2-0.4c0.1,0,0.3,0,0.4,0c0.1,0,0.3,0,0.4,0c0.2,0,0.4,0,0.6,0.1
				c0.5,0.2,1,0.5,1.2,1l0.8,1.6c0.3,0.5,0.3,1.1,0.1,1.6c-0.1,0.2-0.1,0.4,0.1,1c0.1,0.7,0.3,1.6,0,2.8c-0.2,0.7-0.3,2.2-0.4,3.7
				c-0.3,4.5-0.6,9.5-3.8,11.3c-0.3,0.2-0.6,0.2-1,0.2c-0.3,0-0.7-0.1-1-0.2c-0.3-0.1-0.5-0.3-0.6-0.6l-1,0.3
				c-0.2,0.1-0.4,0.1-0.6,0.1c-0.3,0-0.6-0.1-0.9-0.2c-0.6,0.1-1.3,0.2-1.9,0.3l-0.4,0.1c-0.1,0-0.2,0-0.3,0c-0.2,0-0.4,0-0.5-0.1
				c-0.2,0.2-0.4,0.3-0.6,0.5c-0.3,0.2-0.8,0.4-1.2,0.4c-0.3,0-0.5,0-0.7-0.1c0,0,0,0-0.1,0c-0.1,0-0.1,0-0.2,0
				c-0.3,1.4-0.2,3-0.1,4.6c0.1,1.2,0.1,2.4,0,3.7c0,0.4-0.2,0.8-0.4,1.1c0,0.2,0,0.7,0,0.8c0.1,0,0.2,0,0.3,0
				c2-0.3,4.4-0.8,6.1-0.8c0.6,0,1,0,1.4,0.1l1-0.1c0,0,0.1,0,0.1,0c0.8,0,1.6,0.5,1.9,1.3c0.3,0.8,0.1,1.7-0.6,2.3
				c-0.1,0.1-0.3,0.4-0.4,0.6c0.1,0.7-0.3,1.4-0.9,1.8c-0.3,0.2-0.7,0.3-1.1,0.3c-0.3,0-0.7-0.1-0.9-0.2c-0.3,0.1-0.7,0.1-1,0.2
				c-0.5,0.1-1.3,0.2-1.6,0.3c-0.4,0.3-0.8,0.5-1.3,0.5c0,0,0,0,0,0c-0.2,0-0.3,0-0.5-0.1l-1.4,0.5c-0.2,0.1-0.4,0.1-0.6,0.1
				c-0.1,0-0.2,0-0.3,0C100.2,60.8,98.9,61.2,97.5,61.2z"/>
			<path class="st2" d="M158.2,9.1l0.4,0.4c-0.7,0.5-1.9,1.2-2.4,1.7l-0.4-0.4C156.3,10.3,157.5,9.6,158.2,9.1 M161.6,9.4l0.2,0.4
				c-1.2,0.7-3.9,1.6-5.9,3.7l-0.2-0.4C156.7,11.8,159.6,10.3,161.6,9.4 M163.7,9.7l0.2,0.4c-3.6,1.6-5.3,3-8.1,4.9l-0.2-0.4
				C158.4,12.7,160.1,11.3,163.7,9.7 M163.6,11l0.2,0.4c-2,1-6.2,4-7.7,5.3l-0.4-0.4C157.4,15,161.6,12,163.6,11 M167.2,11.5
				l0.2,0.4c-4.4,1.8-7.9,5-11.5,7.6l-0.2-0.4C159.3,16.5,162.8,13.4,167.2,11.5 M166.2,13.1l0.2,0.4c-3.7,1.5-6.2,4.3-9.8,7.1
				l-0.2-0.4C159.3,17.7,162.7,14.6,166.2,13.1 M165,14.8l0.1,0.5c-3.5,1.9-6.3,4.8-9,6.9l-0.3-0.5C158.8,19.5,161.4,16.7,165,14.8
				 M166.4,15.2l0.2,0.5c-3.7,2.1-7.3,6.1-10.7,8.3l-0.2-0.5C159,21.2,162.8,17.3,166.4,15.2 M138.8,16.2l0.4,0.4
				c-1.5,1.1-2.5,1.4-3.9,2.5l-0.4-0.4C136.3,17.6,137.4,17.3,138.8,16.2 M166.9,16.3l0.2,0.4c-3,2.1-7.7,6.1-10.5,8.2l-0.4-0.4
				C159.1,21.9,163.5,18.6,166.9,16.3 M136.1,16.3l0.2,0.4c-0.5,0.2-0.8,0.6-1.2,0.9l-0.3-0.4C135.2,16.9,135.6,16.6,136.1,16.3
				 M141.6,16.6l0.2,0.4c-2.2,1.5-4.7,2.8-6.7,4.5l-0.4-0.4C137,19.4,139.3,18.1,141.6,16.6 M143.3,16.7l0.4,0.4
				c-2.9,1.9-6,3.5-8.8,5.9l-0.2-0.5C137.5,20.1,140.7,18.6,143.3,16.7 M144.3,17.3l0.3,0.4c-1.9,1.3-7.5,5.2-9.5,6.4l-0.2-0.4
				C136.8,22.5,142.5,18.6,144.3,17.3 M167.4,18.6l0.2,0.4c-4.1,2.6-7.8,4.7-10.9,8.5l-0.4-0.3C159.4,23.5,163.3,21.2,167.4,18.6
				 M144.3,18.8l0.2,0.4c-2.7,1.4-7.2,4.2-9.4,6.4l-0.4-0.4C136.5,23.4,141.4,20.3,144.3,18.8 M145.6,19.3l0.2,0.4
				c-3.7,1.6-7.6,5.3-11.2,7.6l-0.2-0.4C138,24.5,142,20.7,145.6,19.3 M145.3,20.5l0.2,0.4c-3.7,1.8-7.9,4.9-10.7,7.7l-0.3-0.3
				C137.4,25.4,141.8,22.3,145.3,20.5 M165.8,20.9l0.2,0.4c-2.8,2.1-6.1,4.4-8.8,7.1l-0.4-0.4C159.5,25.3,162.6,23,165.8,20.9
				 M114.3,21.5l0.8,1.6c-0.6,1.5,0.4,2.5,0,4c-0.8,3,0.1,11.9-3.2,13.7l-0.1-1.4l-3.1,1l-0.1-0.3c-1.2,0.1-2.3,0.3-3.5,0.5L105,40
				c-1,0-1.5,0.9-2.2,1.4c-0.3-0.1-0.6-0.2-0.8-0.2c-0.7,0-1.3,0.3-1.9,0.7c-1,3.1-0.2,6.3-0.4,9.5l-0.5,0.5
				c0.2,1.3-0.1,2.7,0.6,3.8c1.5-0.2,5.7-1.1,7.9-1.1c0.5,0,0.9,0,1.2,0.2l1.4-0.1c-0.5,0.4-1.2,1.5-1.1,2.3l-0.6-0.4
				c-1,0.4-3.8,0.5-4.3,1.2l-0.2-0.3l-2.4,0.8l-0.2-0.3c-1.2,0.6-2.6,1.2-4,1.2c-4-3.7,2.9-12.1-1.6-13c0.5-1.2,0.3-6.8,2.1-6.8
				c0.2,0,0.5,0.1,0.8,0.3c1.9-1.2,3.7-0.9,5.7-1.7l0.3,0.3l0.2-0.6l1,0.4l0.8-0.8c0.8-0.1,1.7,0,2.5-0.4c0.4-3.7,2.2-9.4,0-12.7
				c-0.3,0-0.5,0-0.8,0c-2.7,0-5.8,0.5-8.4,0.9l-0.9-0.5c0.2-0.9,0.8-1.9,1.5-2.4l0.3,1.1c0.5-0.8,8.3-1.5,9.7-1.6l0.3,0.4l2.2-0.3
				l0.3-0.3l0.3,0.3L114.3,21.5 M167.8,21.9l0.2,0.4c-3.9,2-6.7,3.5-10.4,7.2l-0.4-0.4C160.7,25.6,163.6,24.1,167.8,21.9 M145.8,22
				l0.2,0.4c-2.4,1.3-7.6,5.1-9.6,6.4l-0.2-0.4C137.6,27.3,143.3,23.2,145.8,22 M167.4,23.7l0.2,0.4c-4.4,1.7-8.9,5-11.7,7.7
				l-0.3-0.3C158.5,28.9,163.2,25.3,167.4,23.7 M144.1,24.4l0.2,0.4c-2.8,1.3-6,3.7-8.2,5.9l-0.4-0.4
				C137.9,28.1,141.3,25.8,144.1,24.4 M145.4,24.9l0.2,0.4c-2.1,1-5.6,3.6-7.8,5.3c2.2-1.5,5.4-3.6,7.8-4.8l0.2,0.4
				c-3.7,1.7-8,4.6-10.5,7.2l-0.4-0.4c0.2-0.2,0.3-0.3,0.5-0.5l-0.3-0.3C137.4,30.4,142.3,26.4,145.4,24.9 M167,25.2l0.2,0.4
				c-3.7,1.8-6.8,3.9-10.5,6.8l-0.4-0.4C159.6,29.3,163.2,27.1,167,25.2 M145.7,26.6l0.2,0.4c-4.3,1.6-9.4,6-11.7,8.4l-0.3-0.3
				C136,32.9,141.7,28.2,145.7,26.6 M145.8,27.3l0.2,0.4c-2.9,1.7-8.5,5.7-10.7,7.9l-0.4-0.4C137.2,32.9,143,28.9,145.8,27.3
				 M167.9,28.1l0.2,0.4c-4.9,1.7-9.2,4.4-12.3,7.6l-0.4-0.4C158.3,32.8,162.8,30,167.9,28.1 M145.5,28.7l0.2,0.4
				c-2,1-7.2,5-8.8,6.3l-0.3-0.4C138.3,33.7,143.5,29.7,145.5,28.7 M166.6,29.5l0.2,0.4c-4,2.3-6.5,3.2-10.1,6.8l-0.4-0.4
				C160,32.6,162.6,31.7,166.6,29.5 M166.3,31.9l0.2,0.4c-5.1,1.5-8.3,4.3-10.8,7.3l-0.4-0.4C158,36,161.3,33.3,166.3,31.9
				 M145.3,32l0.2,0.4c-3.6,1.9-8,5.3-10.4,8.1l-0.4-0.4C137,37.4,141.5,34.2,145.3,32 M142.5,32.7l0.2,0.4
				c-1.4,0.9-6.8,4.3-8.3,6.2l-0.4-0.2l-1.6,0.2l-1-0.6c-0.4,0.2-0.9,0.8-1.4,0.8c-0.8,0-1.3-0.3-2.1-0.4c-0.2,0.2-0.3,0.5-0.3,0.9
				c-0.5,0-1.5,0.1-1.5,0.1c-0.2-0.6-0.6-0.7-1.1-0.7c-0.4,0-0.8,0.1-1.2,0.1c-0.2,0.3-0.1,0.3-0.4,0.6c-0.3-0.1-2.3-0.1-2.3-0.1
				v-2.1c0.6-0.3,2.5-0.1,2.2-1.3c0.4,0,1,0.1,1.3,0.4c0.5-0.4,1.1-0.8,1.7-0.8c0.1,0,0.1,0,0.2,0c0.6,0,0.3,0.3,0.8,0.8
				c0.1-0.1,0.3-0.1,0.5-0.1c0.7,0,1.7,0.3,2.2,0.3l0.3-0.3c-0.1-0.5-0.6-0.6-1-0.6c-0.4,0-0.8,0.1-1.1,0.1c-0.1,0-0.2,0-0.3,0
				c0.6-0.4,1.3-0.6,2.1-0.6c0.7,0,1.4,0.2,1.9,0.7c0.1-0.1,0.2-0.4,0.2-0.6c0,0,1.9,0.5,2.4,0.5c0,0,0.1,0,0.1,0v2.1
				C136.9,36.2,141.4,33.4,142.5,32.7 M166.2,33.3l0.2,0.4c-3,2.1-7.1,3.4-9.8,7.6l-0.4-0.3C159.1,36.6,163.2,35.4,166.2,33.3
				 M145.1,33.6l0.2,0.4c-3.2,1.4-7.7,4.9-9.7,7.5l-0.4-0.2C137.1,38.4,141.7,35.1,145.1,33.6 M167.1,34l0.2,0.4
				c-4.6,2.4-7.4,4.9-10.5,7.9l-0.4-0.4C159.5,38.8,162.4,36.3,167.1,34 M144.7,35.8l0.2,0.4c-3.5,2.1-7.2,4.7-9.8,7.3l-0.4-0.4
				C137.3,40.5,141.2,38,144.7,35.8 M167.7,36.3l0.2,0.4c-3.1,1.3-6.1,2.9-8.5,4.6c1.9-1.1,3.8-1.9,5.8-2.9l0.2,0.4
				c-3.3,1.6-6.2,2.9-8.9,5.2l-0.4-0.4c0.3-0.2,0.6-0.5,0.9-0.8l-0.2-0.2C159.8,39.9,163.8,37.8,167.7,36.3 M144.8,37.6l0.3,0.4
				c-3.3,2.4-8.1,5.4-10.7,8l-0.4-0.4C136.6,43,141.3,40.1,144.8,37.6 M144.7,39l0.2,0.4c-3.5,2.1-7.4,4.6-9.6,7.4l-0.4-0.4
				C137.3,43.5,141.5,41,144.7,39 M166.8,39.6L167,40c-3.9,1.8-8,4.6-10.5,7.1l-0.4-0.4C158.5,44.3,162.8,41.5,166.8,39.6
				 M144.7,40.6L145,41c-4.5,2.2-8,5.1-11.4,8.8l-0.4-0.4c2.7-3,6.5-5.4,9.7-8.1l0.2,0.4C143.1,41.7,144,40.9,144.7,40.6
				 M145.8,40.9l0.1,0.3c-3,2.2-8.2,5.6-10.5,8L135,49C137.3,46.6,142.7,43.1,145.8,40.9 M166.9,41.3l0.2,0.4
				c-3.4,1.6-6.6,3.1-9.3,5.4l-0.4-0.4C160.2,44.3,163.7,42.9,166.9,41.3 M166.8,42.1l0.2,0.4c-3.5,1.9-7.4,4.5-11,6.5l-0.2-0.4
				C159.5,46.5,163.4,44,166.8,42.1 M166.7,43.3l0.2,0.4c-4,1.7-8.2,4-11.2,6.7l-0.2-0.4C159.1,47.3,162.6,45,166.7,43.3
				 M144.3,43.3l0.1,0.3c-0.5,0.5-2.3,1.7-2.9,2.3l0.1,0.4l3.5-2.5l0.1,0.4c-0.5,0.5-5.6,4.1-5.6,4.1l0.1,0.4l6.3-4.3v0.5l-8.1,6
				l0.2,0.6l6.8-5.2l0.2,0.3c-0.2,0.1-0.4,0.5-0.4,0.5l-0.2,3.2c0.4-0.4,1.1-0.9,1.4-1l0.3,0.3l-1.8,1.5c0,0.5,0,1.7,0,1.7l-3.9,2.5
				l0.2,0.4c0.2-0.1,3.7-2.2,3.7-2.2l-0.1,2.3l-1.4,0.5l1.2,0.5v2.3l-0.3,0.2l0.4,0.4l0.1,2.3c-0.4,0.1-0.7,0.1-1,0.1
				c-0.5,0-0.8-0.1-0.8-0.1l-0.1-0.3c-1,0.3-1.9,0.1-3,0.3l-0.6-0.4l-3,0.4l-0.4-0.5l-0.3,0.5c-0.5,0-1.4-0.1-1.4-0.1V59l0.6-0.6
				c0,0,0.1-1.4,0.1-2.4c0,0-1,0.8-1.3,1l-0.2-0.4c0.3-0.2,1.4-1.3,1.4-1.3l-0.1-2.2l5-3.9l-0.1-0.4l-5.3,3.9l-0.1-0.5
				c0.8-0.5,6-4.5,6-4.5l-0.1-0.3c0,0-4.3,3-5,3.7l-0.2-0.5C134.4,50.3,144.3,43.3,144.3,43.3 M136.3,54.2c1.9-1.2,4.4-3.2,6.3-4.5
				v-0.6h0c-1.8,1.3-4.4,3.5-6.4,4.6L136.3,54.2 M135.5,57.5c2.9-2.3,5.1-3.6,7.9-5.5l-0.2-0.4c-2.9,1.6-5.1,3.1-8.1,5.5L135.5,57.5
				 M167.6,43.9l0.2,0.4c-3.4,1.7-6.4,2.9-9.1,5.1l-0.4-0.4C161.1,46.6,164.3,45.5,167.6,43.9 M168.4,45l0.1,0.6l-7.4,4.4l0.3,0.3
				c0,0,0,0,0,0c0.1,0,6.2-3.7,6.2-3.7v0.6c-0.1,0.1-3.1,1.8-3.2,1.9c0,0,0.1,0.5,0.1,0.6c0.3-0.4,2.2-1.2,2.6-1.6V49l-3.6,2.2
				l0.1,0.5l3.7-2.2l-0.2,3.9c0.3-0.2,1.2-0.5,1.4-0.8l0.2,0.4c-0.4,0.4-1.4,0.9-1.7,1.2l0.2,3.9l-1,0.1l0.4,1.3l0.2-0.4l0.4,0.2
				l-0.6,2.4l0.4,0.4l-0.1,0.5l-0.6,0.1l0.6,0.4l-0.6,0.5l0.5,0.8c0,0.4-0.1,2.1-0.1,2.1l-3.5-0.1l-0.4-0.9l-0.4,1
				c-0.6,0-1.5,0-2.2,0.1l-0.3-1l-0.2,0.8h-4.9c0.3-6.6,0.4-5.6,0.4-7.4l-0.1-0.3c0.4-0.8,0.2-0.3,0.8-1.2l-0.5-0.2l-0.2-1.3
				c0,0,0.2-0.1,0.6-0.2v-1.3c-0.5,0.5-1,0.8-1.7,1.2l-0.3-0.3c0.6-0.4,1.3-0.8,1.8-1.3l-0.3-0.8c0.3-0.1,1.7-1.5,2.2-1.8v-1
				c1.4-0.6,8.9-5,8.9-5l0.2,0.4c-2.3,1.4-5.3,3-7.9,4.6l0.1,0.5L168.4,45 M158.9,53.4c1.2-1.2,2.6-1.5,3.9-2.5l-0.1-0.5
				c-1.5,0.9-2.8,1.4-4,2.6L158.9,53.4 M157.2,57.3c3.6-2.9,5.5-4.4,9.4-6.3l-0.2-0.4c-3.9,1.8-6,3.3-9.6,6.3L157.2,57.3
				 M157.1,59.4c0.3-0.1,3.8-2.6,7.1-4.7l-0.1-0.7c-3.3,2.2-5.9,3.9-7.4,5L157.1,59.4 M160.4,58.7c1-0.9,2.5-1.4,3.3-2.4l-0.3-0.4
				c-0.9,1-2.3,1.5-3.2,2.3L160.4,58.7 M162.6,59.2c0.6-0.5,2.5-1.3,3.1-1.9l-0.4-0.3c-0.6,0.5-2.3,1.2-2.9,1.8L162.6,59.2
				 M159.3,63.2c1.3-0.6,2.8-1.2,5.7-3.2l-0.2-0.7c-3,2.2-4.4,2.7-5.9,3.5L159.3,63.2 M167.3,49.5L167.3,49.5 M156.9,50.8l0.2,0.4
				c-0.9,0.7-2.1,1.3-2.4,1.4l-0.3-0.4C154.9,52,156.1,51.6,156.9,50.8 M144.4,53.5L144.4,53.5 M110.3,54.7L110.3,54.7 M136.3,75
				c1,0,2,0.1,2.3,0.3c-0.1,1.8,0,4.6-0.8,6.2l0.9,0.3c-0.5,1.2,0.1,2.9-0.5,4l0.3,0.6l-0.8,0.8l0.5,1.7c-0.6,1.7,0,2.1,1,2.1
				c0.6,0,1.4-0.2,2-0.3c0.1,0.5,1.6,1.3,2.1,1.6v-1c0.2-0.1,0.8-0.2,1.4-0.2s1.2,0.1,1.4,0.2l0.3-0.5l1.9-0.2
				c0.1,0.3,0.4,0.8,0.8,1l0.9-0.5c0.1,0,0.2,0,0.3,0c0.7,0,1.2-0.2,1.9-0.2c0.1,0,0.2,0,0.3,0v0.9c0.4,0,0.8,0.2,1.1,0.4l-0.3,0.8
				l-0.5,0.1v-0.3c-1,0.5-1.9,0.6-2.8,0.6c-1.4,0-2.6-0.4-4.2-0.4l0.1,0.5c-0.3-0.1-1-0.2-1.6-0.2c-0.4,0-0.8,0.1-1,0.3
				c-0.2-0.5-0.4-0.6-0.7-0.6c-0.6,0-1.3,0.6-2,0.6c-0.1,0-0.1,0-0.2,0c-0.4-0.1-0.4-1-0.9-1.1l-0.1,0.9c-0.3-0.1-0.6-0.3-0.9-0.3
				c-0.2,0-0.3,0.1-0.4,0.4c-0.3,0-0.6,0.1-0.8,0.1c-0.9,0-1.7-0.3-2.7-0.6c0,0-0.1,0-0.1,0c-0.3,0-0.1,0.3-0.5,0.3
				c-0.6-0.1-0.3-2.4-0.1-2.7c-0.4-3.2-0.3-6.4,0.2-9.5c-0.4-0.5,0.1-5.2,0.2-6C134.8,75.1,135.5,75,136.3,75 M158.2,5.1
				c-0.8,0-1.6,0.2-2.3,0.7c-0.2,0.1-0.4,0.3-0.7,0.5c-0.8,0.5-1.6,1-2.2,1.7c-0.8,0.8-1.2,1.8-1.2,2.8c0,0.3,0,0.7,0.1,1
				c-0.2,0.6-0.3,1.2-0.2,1.8c-0.2,0.7-0.2,1.4,0,2.1c0,0.1,0,0.2,0,0.4c0,0.6,0,1.1,0.2,1.7c-0.3,0.9-0.3,1.9,0,2.8
				c-0.2,0.6-0.2,1.2-0.1,1.8c-0.2,0.8-0.2,1.7,0.1,2.6l0.2,0.5c0.1,0.2,0.2,0.4,0.3,0.6c-0.2,0.5-0.2,1.1-0.1,1.6
				c0,0.4,0.2,0.8,0.3,1.2c-0.6,0.7-1,1.6-1,2.6c0,0.7,0.2,1.4,0.5,2c-0.8,1.2-0.9,2.7-0.3,3.9c-0.8,1.4-0.6,3.2,0.5,4.5
				c0,0.1,0.1,0.2,0.1,0.3c-0.1,0.3-0.2,0.7-0.3,1.1c-0.1,0.7,0,1.3,0.3,1.9c-0.3,0.6-0.4,1.3-0.3,1.9c-0.2,0.5-0.3,0.9-0.3,1.4
				c-0.1,0.3-0.2,0.6-0.3,0.9c-0.5,0.5-0.8,1.1-1,1.7c-0.2,0.7-0.2,1.4,0,2c-0.4,0.6-0.6,1.2-0.7,1.9c-0.1,1.2,0.3,2.4,1.2,3.2
				l0.1,0.1c0,0.4,0,0.8,0.1,1.2c0,0.2,0,0.4,0,0.8c-0.1,0.8-0.2,2.1-0.3,5.9c0,1.1,0.3,2.2,1.1,2.9c0.8,0.8,1.8,1.2,2.9,1.2h4.1
				c0.4,0.1,0.8,0.2,1.2,0.2c0.2,0,0.4,0,0.6,0c0.4-0.1,1.2-0.1,1.6-0.1c0.3,0,0.6,0,0.9-0.1l3.3,0.1c0,0,0.1,0,0.1,0
				c2.1,0,3.9-1.6,4-3.8c0-0.7,0.1-1.9,0.1-2.3c0-0.1,0-0.2,0-0.3c0.1-0.3,0.1-0.7,0.1-1.1l0-0.1c0.1-0.6,0.1-1.2,0-1.8l0.2-0.8
				c0.1-0.5,0.2-1.1,0.1-1.6c0-0.3,0.1-0.5,0-0.8l-0.1-1.7c0.1-0.1,0.3-0.2,0.4-0.4c1.2-1.2,1.5-3.1,0.7-4.6l-0.2-0.4
				c-0.2-0.4-0.5-0.8-0.8-1.1c0-0.1,0-0.2,0-0.2c0-0.2,0-0.4-0.1-0.7c0.1-0.2,0.1-0.3,0.2-0.5c0.8-0.9,1.2-2.1,1-3.4l-0.1-0.6
				c-0.1-0.9-0.6-1.6-1.2-2.2l0,0c0-0.1-0.1-0.1-0.1-0.2c0-0.4,0-0.9-0.1-1.3c0.1-0.4,0.1-0.9,0-1.3c0.3-0.4,0.5-0.8,0.7-1.2
				c0.4-1,0.3-2.2-0.2-3.2l-0.2-0.4c0-0.7-0.1-1.3-0.4-1.9l-0.2-0.4c-0.1-0.1-0.1-0.2-0.2-0.4c0,0,0-0.1,0-0.1
				c0.6-0.4,1.1-1,1.3-1.7c0.4-1.1,0.4-2.3-0.1-3.3l-0.2-0.4c-0.1-0.2-0.2-0.3-0.3-0.5c0-0.1,0.1-0.2,0.1-0.3c0.2-0.5,0.3-1,0.3-1.5
				c0.5-1.1,0.6-2.4,0-3.5l-0.2-0.3c0.3-1,0.2-2-0.2-3l-0.1-0.2c0.1-0.7-0.1-1.4-0.4-2.1l-0.2-0.4c0,0,0,0,0,0
				c0.3-0.3,0.5-0.7,0.7-1.2c0.4-1,0.3-2.2-0.2-3.2l-0.2-0.4c-0.7-1.4-2.1-2.2-3.6-2.2c-0.1,0-0.1,0-0.2,0c-0.8-1.1-2-1.8-3.3-1.8
				c-0.2,0-0.3,0-0.5,0c-0.5-0.2-1-0.3-1.6-0.3c-0.5,0-0.9,0.1-1.4,0.2C159.6,5.3,158.9,5.1,158.2,5.1L158.2,5.1z M138.8,12.2
				c-0.5,0-1,0.1-1.5,0.3c0,0-0.1,0-0.1,0c-0.4-0.1-0.7-0.2-1.1-0.2c-0.7,0-1.4,0.2-2.1,0.6c-0.7,0.4-1.2,0.8-1.6,1.1
				c-0.8,0.6-1.4,1.6-1.6,2.6c-0.1,0.5,0,1.1,0.1,1.6c0,0.1,0,0.2,0,0.2c0,0.4,0,0.8,0.1,1.1c-0.2,0.4-0.3,0.8-0.3,1.2
				c0,0.3,0,0.7,0.1,1c-0.1,0.6-0.1,1.3,0.1,1.9c0,0.1,0,0.1,0,0.2c-0.2,0.5-0.2,1-0.2,1.4c-0.3,0.8-0.4,1.7-0.2,2.5
				c-0.1,1,0.2,2.1,0.8,2.9c-0.1,0.3-0.2,0.6-0.2,0.9c0,0.1-0.1,0.1-0.1,0.2c-0.4-0.1-0.7-0.1-1.1-0.1c-0.9,0-1.8,0.2-2.7,0.5
				c-0.2,0-0.3,0-0.5-0.1c-0.2,0-0.3,0-0.5,0c-0.8,0-1.6,0.2-2.2,0.5c-0.3,0-0.6,0-0.8,0c-1.2,0-2.2,0.5-3,1.4
				c-0.3,0.1-0.6,0.2-1,0.4c-0.3,0.2-0.6,0.4-0.9,0.6c0.1-1.2,0.2-2.4,0.3-3.6c0.1-1.2,0.2-2.7,0.3-3.3c0.4-1.6,0.2-2.9,0-3.7
				c0-0.1,0-0.1,0-0.2c0.3-1,0.2-2-0.3-2.9l-0.8-1.6c-0.5-1-1.4-1.7-2.5-2.1c-0.4-0.1-0.7-0.2-1.1-0.2c-0.1,0-0.3,0-0.4,0
				c-0.1,0-0.3,0-0.4,0c-0.6,0-1.1,0.1-1.7,0.4c-0.4-0.1-0.7-0.2-1.1-0.2c-0.1,0-0.2,0-0.3,0c-3.6,0.3-6.1,0.6-7.9,0.9
				c-0.2-0.1-0.3-0.2-0.5-0.2c-0.4-0.2-0.9-0.2-1.3-0.2c-0.8,0-1.6,0.3-2.3,0.7c-1.5,1.1-2.7,2.9-3.1,4.8c-0.4,1.7,0.4,3.5,2,4.4
				l0.9,0.5c0.6,0.3,1.3,0.5,1.9,0.5c0.2,0,0.5,0,0.7-0.1c1.7-0.3,3.7-0.6,5.6-0.8c0,1.6-0.3,3.6-0.6,5.1c-0.3,0.1-0.5,0.2-0.7,0.3
				c0,0,0,0-0.1,0c-0.6,0-1.2,0.1-1.7,0.4c-0.2,0.1-0.4,0.2-0.5,0.3c-0.4,0.1-0.9,0.2-1.4,0.3c-0.8,0.1-1.8,0.3-2.9,0.7
				c-0.2,0-0.3,0-0.5,0c-4.8,0-5.4,5.5-5.7,8.2c0,0.4-0.1,1-0.2,1.3c-0.4,1-0.3,2.2,0.2,3.2c0.2,0.5,0.6,0.9,1,1.2
				c-0.1,0.4-0.2,0.9-0.3,1.3c-0.7,3-2,8.1,1.8,11.5c0.7,0.7,1.7,1.1,2.7,1.1c1.5,0,3-0.4,4.2-0.9c0.4,0,0.8-0.1,1.3-0.2l0.9-0.3
				c0.1,0,0.2,0,0.3,0c0,0,0,0,0.1,0c0.8,0,1.6-0.2,2.2-0.7c0.3-0.1,0.7-0.1,1-0.2c0.2,0,0.3-0.1,0.5-0.1c0.4,0.1,0.8,0.2,1.1,0.2
				c0.7,0,1.5-0.2,2.1-0.6c1-0.6,1.7-1.7,1.9-2.9c0.7-0.7,1.1-1.7,1.1-2.8c0-2.2-1.8-4-3.9-4c0,0,0,0-0.1,0c0,0-0.1,0-0.1,0
				c-0.1,0-0.1,0-0.2,0l-0.7,0.1c-0.5-0.1-1-0.1-1.5-0.1c-1.2,0-2.6,0.2-4,0.4c0-1.1,0-2.2-0.1-3.2c0-0.9-0.1-1.7-0.1-2.5
				c0.5-0.1,1.1-0.3,1.5-0.7c0,0,0.1,0,0.1-0.1c0.2,0,0.4,0,0.6-0.1l0.5-0.1c0.5-0.1,0.9-0.2,1.4-0.2c0.4,0.1,0.7,0.2,1.1,0.2
				c0.4,0,0.8-0.1,1.1-0.2c0,0,0.1,0.1,0.1,0.1c0.6,0.3,1.3,0.5,1.9,0.5c0.7,0,1.3-0.2,1.9-0.5c1.6-0.9,2.6-2.2,3.3-3.8
				c0.2,2,1.9,3.5,4,3.5c0.6,0,1.3,0,1.6,0c0.2,0,0.5,0.1,0.7,0.1c0.5,0,0.9-0.1,1.4-0.2c0.4,0.2,0.9,0.2,1.3,0.2c0.1,0,0.3,0,0.4,0
				c0.4,0,0.9-0.1,1.1-0.1c0.7,0,1.4-0.2,2-0.5c0.1,0,0.3,0,0.4,0c0.2,0,0.4,0,0.6,0c-0.6,1-0.8,2.2-0.4,3.3
				c-1.2,1.3-1.3,3.2-0.4,4.7c-0.1,0.5-0.1,1,0,1.5l0.1,0.5c0,0.1,0.1,0.3,0.1,0.4c-1.1,1.2-1.4,3-0.7,4.5l0.2,0.4
				c0.1,0.1,0.1,0.2,0.2,0.3v2.8c0,2,1.5,3.8,3.6,4c0.3,0,1.2,0.1,1.8,0.1c0.1,0,0.2,0,0.3,0c0.1,0,0.2,0,0.3,0c0.2,0,0.4,0,0.5,0
				l1.7-0.2c0.5,0.2,0.9,0.3,1.4,0.3c0.2,0,0.5,0,0.7-0.1c0.2,0,0.4,0,0.7,0c0.2,0,0.4,0,0.6,0c0.3,0.1,1,0.2,1.9,0.2
				c0.5,0,1.1-0.1,1.7-0.2c2-0.4,3.4-2.1,3.3-4.1l-0.1-2.3c0-0.2,0-0.5-0.1-0.7V57c0.1-0.3,0.2-0.7,0.2-1.1l0.1-2.2
				c0-0.1,0-0.2,0-0.3c0-0.1,0-0.2,0-0.4c0-0.1,0-0.1,0-0.2l0.4-0.3c0.9-0.7,1.4-1.8,1.4-2.9c0-1-0.3-1.9-0.9-2.7
				c0.4-0.6,0.7-1.4,0.7-2.2v-0.5c0-0.6-0.1-1.2-0.4-1.7c0.3-0.9,0.4-1.8,0.1-2.8l-0.1-0.3c-0.1-0.4-0.3-0.7-0.5-1.1
				c0.1-0.6,0-1.3-0.2-1.9c0-0.3,0-0.6,0-0.9c0.1-0.1,0.1-0.3,0.2-0.4c0.2-0.5,0.3-1.1,0.2-1.7c0.3-0.9,0.3-1.8-0.1-2.7
				c0.3-0.5,0.4-1.1,0.5-1.7c0.3-0.8,0.4-1.6,0.2-2.4c0-0.2,0-0.5-0.1-0.7c0-0.4-0.1-0.8-0.2-1.2c0-0.2,0-0.4-0.1-0.5
				c0.6-1.1,0.7-2.4,0.2-3.6c0.3-1,0.2-2-0.3-2.9l-0.2-0.4c-0.2-0.4-0.5-0.8-0.8-1.1c-0.1-0.4-0.3-0.8-0.6-1.1l-0.3-0.4
				c-0.4-0.6-1-1-1.7-1.3c-0.7-0.6-1.6-0.9-2.5-0.9c-0.2,0-0.4,0-0.6,0c0,0,0,0,0,0c-0.3-0.1-0.7-0.1-1-0.1c-0.3,0-0.6,0-0.9,0.1
				C140.1,12.4,139.5,12.2,138.8,12.2L138.8,12.2z M136.3,71c-0.9,0-1.8,0-2.4,0.1c-1.8,0.2-3.2,1.7-3.5,3.5
				c-0.4,3.4-0.5,5.4-0.3,6.7c-0.4,3-0.5,6-0.2,9c-0.3,1.5-0.2,3.2,0.3,4.4c0.6,1.4,1.8,2.3,3.2,2.6c0.2,0,0.4,0.1,0.7,0.1
				c0.3,0,0.5,0,0.8-0.1c0.8,0.2,1.6,0.3,2.5,0.3c0.5,0,1,0,1.4-0.1c0.1,0,0.2,0,0.3-0.1c0,0,0,0,0.1,0c0.1,0,0.2,0.1,0.3,0.1
				c0.1,0,0.2,0,0.3,0.1c0.3,0.1,0.6,0.1,0.9,0.1c0.6,0,1.1-0.1,1.5-0.2c0.1,0,0.3,0.1,0.4,0.1c0.3,0.1,0.5,0.1,0.8,0.1
				c0.5,0,0.9-0.1,1.4-0.2c0.2,0,0.3,0,0.4,0.1l0.2,0c0.2,0,0.4,0.1,0.7,0.1c0.5,0,1.1-0.1,1.5-0.3c0.8,0.1,1.6,0.2,2.6,0.2
				c0.9,0,1.8-0.1,2.6-0.3c0.1,0,0.1,0,0.2,0c0.3,0,0.5,0,0.8-0.1l0.5-0.1c1.4-0.3,2.5-1.2,3-2.5l0.3-0.8c0.6-1.7,0.1-3.5-1.3-4.6
				c-0.6-1.1-1.8-2-3.1-2.1c-0.2,0-0.5,0-0.7,0c-0.7,0-1.3,0.1-1.7,0.2c-0.1,0-0.1,0-0.2,0c0,0,0,0,0,0c-0.6-0.3-1.3-0.5-1.9-0.5
				c-0.1,0-0.3,0-0.4,0l-1.9,0.2c-0.4,0-0.8,0.2-1.2,0.3c0,0-0.1,0-0.1,0c-0.6,0-1.1,0-1.5,0.1c-0.2-0.1-0.5-0.2-0.7-0.3
				c0.1-0.5,0-0.9-0.1-1.4c0.1-0.7,0.1-1.4,0.1-1.9c0-0.2,0-0.4,0-0.6c0.3-1,0.3-2-0.1-3c0,0,0,0,0-0.1c0.2-1.2,0.2-2.4,0.2-3.5
				c0-0.4,0-0.7,0-1.1c0.1-1.3-0.5-2.5-1.5-3.3C139.9,71.2,138.4,71,136.3,71L136.3,71z"/>
		</g>
		<g>
			<path class="st1" d="M252,92.8c-1.2,0-2-0.3-2.2-0.3c0,0,0,0,0,0c-0.3,0-0.6,0.1-0.9,0.1c-0.3,0-0.6,0-1.2,0.1
				c-0.1,0-0.2,0-0.4,0c-0.3,0-0.5-0.1-0.8-0.2l-0.7-0.3l-3.9,0.4c-0.1,0-0.1,0-0.2,0c-0.1,0-0.3,0-0.4,0c-0.2,0.1-0.5,0.1-0.7,0.1
				c-0.1,0-0.1,0-0.2,0c-0.2,0-0.5,0-0.9,0c-0.7,0-1.4,0-1.4,0c0,0-0.1,0-0.1,0c-0.5,0-1-0.2-1.4-0.6c-0.4-0.4-0.6-1-0.6-1.6
				l0.6-7.2l-0.4-0.7c-0.4-0.9-0.2-1.9,0.6-2.5c0.2-0.4,0.5-0.7,0.7-0.9c0,0,0-0.1,0-0.1c0-0.1,0-0.3,0-0.6c0-0.1,0-0.2,0-0.3
				c-0.1-0.2-0.2-0.3-0.3-0.5l-0.1-0.3c0,0,0-0.1,0-0.2c-0.1,0-0.2,0-0.3-0.1c-0.7-0.2-1.2-0.7-1.4-1.4l-0.2-0.8
				c-0.2-0.7,0-1.4,0.5-1.8c-0.2-0.2-0.3-0.5-0.4-0.8l-0.2-0.9c-0.2-1,0.3-1.9,1.2-2.3c0.2-0.1,0.6-0.4,1.2-0.8
				c-0.3-0.3-0.4-0.7-0.5-1.1l-0.1-0.9c0-0.1,0-0.2,0-0.3c-0.3-0.2-0.6-0.5-0.8-0.9l-0.2-0.5c-0.1-0.3-0.2-0.7-0.1-1.1
				c0-0.1,0-0.1-0.1-0.2c-0.1-0.6,0-1.2,0.3-1.7c0.4-0.6,0.9-1.1,1.5-1.7c-0.5-0.4-0.8-0.9-0.8-1.5l-0.4-0.2c-0.5-0.2-0.8-0.7-1-1.2
				s-0.1-1.1,0.1-1.5c0.4-0.8,1.1-1.6,1.8-2.4c-0.2-0.2-0.4-0.5-0.5-0.9c-0.1-0.6,0-1.2,0.3-1.6c0.7-1,1.4-1.9,2.2-2.7l-0.1-0.1
				c0,0-0.5-0.2-0.5-0.2c-0.5-0.3-0.9-0.7-1-1.3c-0.1-0.6,0-1.2,0.3-1.6c0.1-0.2,0.3-0.4,0.4-0.6c-0.3-0.3-0.4-0.6-0.5-1
				c-0.3-0.4-0.4-0.9-0.3-1.4c0,0,0,0,0-0.1c-0.1-0.3-0.1-0.5-0.1-0.8c-0.4-0.3-0.7-0.7-0.9-1.2c-0.1-0.6,0-1.2,0.3-1.6
				c0.5-0.7,1-1.3,1.4-2l0,0c-0.5-0.3-0.9-0.8-1.1-1.4s0-1.2,0.4-1.7c0.4-0.5,0.9-1.1,1.4-1.8c-0.1-0.1-0.1-0.2-0.2-0.3l-0.2-0.5
				c-0.2-0.5-0.2-1,0-1.5c-0.1-0.5,0-0.9,0.2-1.4c-0.4-0.7-0.4-1.6,0-2.2c0,0-0.2-0.3-0.2-0.3c-0.4-0.6-0.4-1.4-0.1-2.1
				c-0.3-0.8-0.1-1.8,0.6-2.3c0.1,0,0.1-0.1,0.2-0.1c0,0,0,0,0,0c-0.1,0-0.2,0-0.2-0.1c-0.5-0.2-1-0.5-1.2-1l-0.2-0.4
				c-0.4-0.8-0.2-1.7,0.4-2.3c-0.2-0.8,0-1.6,0.7-2.1c0.2-0.1,0.3-0.3,0.5-0.4c-0.2-0.7,0-1.5,0.6-2c1.5-1.3,2.4-2,4.2-2.9
				c0.3-0.1,0.6-0.2,0.9-0.2c0.2,0,0.4,0,0.6,0.1c0.5,0.2,0.9,0.5,1.2,1l0.2,0.4c0.1,0.1,0.1,0.3,0.1,0.4c0,0,0,0,0.1,0
				c0.1,0,0.3,0,0.4,0c0.4,0.1,0.7,0.2,0.9,0.5c0,0,0.1,0,0.1,0c0.1,0,0.2,0,0.4,0c0.3,0,0.5,0.1,0.7,0.3c0.2-0.1,0.4-0.2,0.5-0.3
				c0.3-0.1,0.6-0.2,0.9-0.2c0.7,0,1.4,0.4,1.8,1.1l0.2,0.4c0.2,0.3,0.2,0.7,0.2,1c0.2-0.1,0.4-0.1,0.6-0.1c0.7,0,1.4,0.4,1.8,1.1
				l0.2,0.4c0.2,0.5,0.3,1.1,0.1,1.6c0,0,0,0.1,0,0.1c0.2,0.4,0.2,0.8,0.1,1.3c0.3,0.6,0.2,1.3-0.1,1.8c0.4,0.3,0.7,0.7,0.7,1.2
				c0.1,0.7-0.1,1.4-0.7,1.9c-0.7,0.6-1.5,1.2-2.3,1.8c0.1,0.1,0.3,0.3,0.4,0.5l0.2,0.4c0.3,0.5,0.3,1.1,0.1,1.6c0,0,0,0,0,0
				c0.6,0.2,1.1,0.6,1.4,1.2l0.2,0.5c0.1,0.3,0.2,0.6,0.1,1c0.3,0.2,0.5,0.5,0.7,0.8l0.2,0.4c0.5,1,0.1,2.2-0.9,2.7
				c-0.4,0.2-0.8,0.4-1.1,0.6c0.1,0.2,0.1,0.3,0.1,0.5c0.1,0,0.2,0,0.3,0.1c0.6,0.2,1.1,0.6,1.3,1.2l0.2,0.5
				c0.3,0.7,0.1,1.5-0.4,2.1c0.1,0.4,0,0.8-0.1,1.2c-0.2,0.4-0.4,0.7-0.7,0.9c0.1,0.1,0.2,0.3,0.3,0.4l0.2,0.4
				c0.4,0.8,0.2,1.9-0.5,2.4l-0.1,0.1c0.1,0.1,0.2,0.3,0.3,0.5l0.2,0.4c0.1,0.2,0.2,0.5,0.2,0.7c0.4,0.7,0.2,1.6-0.3,2.2
				c-0.2,0.3-0.5,0.5-0.8,0.8l0,0c0.5,0.8,0.4,1.8-0.2,2.5c-0.2,0.2-0.3,0.3-0.5,0.5c0.6,0.2,1,0.6,1.2,1.2l0.2,0.5
				c0.3,0.8,0.1,1.8-0.7,2.4c-0.2,0.1-0.4,0.3-0.6,0.5l0.3,0.7c0.1,0,0.1,0.1,0.2,0.1c0.7,0.3,1.1,1,1.1,1.8v0.6
				c0,0.4-0.1,0.8-0.4,1.1c0.1,0.3,0.1,0.7,0,1.1c-0.1,0.2-0.1,0.3-0.2,0.5c0.1-0.1,0.3-0.1,0.4-0.2c0.2-0.1,0.4-0.1,0.6-0.1
				c0.3,0,0.6,0.1,0.9,0.2c0.5,0.2,0.8,0.7,1,1.2l0.2,0.6c0.3,1-0.2,2.1-1.2,2.5c-0.3,0.2-1.2,0.9-2.2,1.6c0,0.2,0,0.4,0,0.6
				c0,0.1,0,0.3,0,0.4c0.1,0.5,0,1-0.3,1.4c0.1,0.6,0,1.7,0,2.7c0.2,0,0.4,0,0.6,0.1c0.7,0.3,1.2,0.9,1.3,1.7l0.1,0.9
				c0.1,0.6-0.1,1.2-0.6,1.6l-0.2,0.2c-0.3,0.4-0.6,0.7-0.8,1c0,0.3,0,0.7-0.1,1.1c0,0.5-0.1,1.4-0.1,1.7c0.1,0.6,0,1.2-0.4,1.7
				c0.1,0.3,0.1,0.5,0.1,0.5c0.1,0.3,0,0.6,0,0.9l-0.3,1l0.4,2.3c0,0.1,0,0.1,0,0.2l0.2,2.8c0.1,1-0.6,1.9-1.6,2.1
				C253.1,92.8,252.5,92.8,252,92.8z M186.9,63.6c-0.1,0-0.3,0-0.4,0c-0.6-0.1-1.1-0.5-1.4-1.1l-0.1-0.3l-0.1,0
				c-0.6-0.2-1-0.7-1.2-1.3s-0.1-1.2,0.3-1.7c0.6-0.8,0.6-0.8,0.6-1.7c0-0.3,0-0.6,0.1-0.9c0-0.3,0.1-0.6,0.3-0.8l0.6-1
				c0.2-0.3,0.5-0.6,0.8-0.7c0.3-0.5,0.7-1,1.1-1.4c0.8-1,1.5-1.9,1.7-2.9c0.1-0.5,0.4-0.9,0.8-1.2l0.1-0.1c0.4-1.8,1.4-3.3,2.4-4.3
				c-0.1-0.4,0-0.8,0.2-1.2l0.9-1.9c0.2-0.4,0.5-0.8,1-1c0.7-0.3,1.4-2.1,1.9-3.4c0.4-1,0.8-2,1.3-2.8c0.1-0.9,0.4-2,1.2-2.9
				c0-0.1,0-0.2,0.1-0.2c-0.8,0-1.6,0-2.5,0c-1.8,0-4.4,0.1-6,0.5c-0.2,0-0.3,0.1-0.5,0.1c-0.5,0-0.9-0.2-1.3-0.5
				c-0.5-0.4-0.8-1-0.7-1.7c0.1-0.9,0.2-3.2,2.3-3.6c0.2-0.1,0.3-0.2,0.5-0.2c0.3-0.1,0.6-0.2,0.9-0.2c0.2,0,0.5-0.1,0.5-0.1
				c0.3-0.2,0.7-0.3,1.1-0.3c0.2,0,0.3,0,0.5,0.1c0.2,0,0.3,0.1,0.5,0.2c0.2-0.1,0.5-0.2,0.8-0.2c0,0,0.1,0,0.1,0c0.2,0,0.3,0,0.5,0
				c0.6,0,1.2-0.1,1.9-0.1c0.7-0.1,1.4-0.1,2.2-0.1c0.4-0.4,0.9-0.6,1.4-0.6c0,0,0.1,0,0.1,0c0.1,0,0.4,0,0.6-0.1
				c0.7-0.1,1.5-0.2,2.3-0.2c0.6,0,2.5,0,3.2,1.6c0.2,0.5,0.4,1.3-0.1,2.4v0.4c0,0.5-0.2,1-0.5,1.4l-0.1,0.7
				c-0.1,0.6-0.4,1.1-0.8,1.4l-0.3,1.7c0,0.2-0.1,0.5-0.3,0.7l-0.1,0.2c-0.2,1.1-0.6,1.9-1,2.5l0,0.1c0,0.5-0.1,1-0.4,1.4l-0.8,1.1
				c-0.3,0.4-0.7,0.7-1.1,0.8c0,0,0,0,0,0c0.1,0,0.3,0,0.4,0c0.3,0,0.7,0.1,1,0.2c0.3,0.1,0.8,0.4,1.2,0.9c0,0,0,0,0,0
				c0.8,0.5,1.9,1.5,2.7,2.6c0.8,0.4,1.4,1.1,1.9,1.8c1,0.5,1.7,1.5,2.2,2.2c0.2,0.2,0.3,0.5,0.5,0.7c0.4,0.4,0.5,0.9,0.5,1.4
				c0.1,0.2,0.1,0.4,0.1,0.6v0.1c0.1,0.1,0.3,0.3,0.5,0.4c0.9,0.7,2.1,1.8,2.4,3.5c0.1,0.6-0.1,1.3-0.6,1.8l-0.6,0.6
				c-0.4,0.4-0.9,0.6-1.4,0.6c-0.4,0-0.7-0.1-1.1-0.3c-0.1,0-0.3,0-0.4-0.1c-0.4-0.1-0.8-0.2-1.3-0.3c-0.6-0.1-1.1-0.5-1.4-1.1
				c0,0,0,0,0,0c-0.8-0.5-1.5-1.3-2.2-2.3c-0.3-0.1-0.6-0.2-0.9-0.4c-0.2-0.1-0.3-0.3-0.4-0.4c-0.4-0.2-0.7-0.6-0.8-1
				c-0.2-0.1-0.4-0.3-0.6-0.5l-0.6-0.8c-0.2-0.3-0.3-0.6-0.4-1c0,0,0,0,0,0c-0.5-0.5-0.7-1.3-0.5-1.9c-0.1,0-0.1,0-0.2-0.1
				c-0.7-0.3-1.7-0.8-2.3-1.7c-0.3,0.5-0.6,0.9-1,1.3l0,0.4c0,0.4-0.2,0.8-0.5,1.1l-0.1,0.2c-0.2,0.3-0.5,0.6-0.8,0.9
				c-0.1,0.4-0.3,0.7-0.5,1c-0.1,0.1-0.2,0.4-0.2,0.5c0.1,0.6-0.1,1.2-0.5,1.6c-0.1,0.1-0.3,0.2-0.4,0.3c-0.1,0.4-0.4,0.8-0.8,1.1
				c0,0,0,0.1,0,0.1c-0.1,0.3-0.4,0.6-0.6,0.8c-0.1,0.3-0.2,0.5-0.3,0.7c0,0.5-0.2,1.1-0.6,1.5l-0.2,0.2c-0.1,0.6-0.5,1.1-1,1.4l0,0
				c-0.2,0.3-0.4,0.6-0.8,0.8l0,0c-0.2,0.4-0.5,0.8-0.8,1.2c-0.3,1.2-0.8,2.1-1.7,2.9C187.8,63.4,187.4,63.6,186.9,63.6z"/>
			<path class="st2" d="M244.9,10.9l0.2,0.4c-1.7,0.9-2.4,1.4-3.8,2.6l-0.2-0.4C242.5,12.3,243.3,11.7,244.9,10.9 M245.1,12.1
				l0.2,0.5c-1.6,1.1-3.7,2.6-5.2,3.8l-0.2-0.4C241.4,14.8,243.6,13.3,245.1,12.1 M247.1,12.8l0.2,0.4c-1.5,1.3-5.9,4.1-7.7,5.2
				l-0.2-0.4C241.1,16.9,245.6,14.1,247.1,12.8 M251,13.1l0.2,0.4c-1.6,0.9-5.6,3.7-7,4.9L244,18C245.4,16.8,249.4,13.9,251,13.1
				 M248.5,13.3l0.2,0.4c-1.3,1.2-6.4,4.5-7.8,5.5l-0.2-0.4C242.1,17.7,247.2,14.5,248.5,13.3 M253.8,15.5l0.2,0.4
				c-2.7,1.2-8.2,5.5-10.6,7l-0.2-0.4C245.5,20.9,251.1,16.7,253.8,15.5 M253.8,17l0.2,0.4c-4.3,2.8-9.8,5.6-13.3,9.2l-0.2-0.2
				C244,22.6,249.5,19.7,253.8,17 M245.5,18.2l0.2,0.5c-1.5,1.1-3.6,2.6-5.1,3.8l-0.2-0.4C241.9,20.9,244,19.4,245.5,18.2
				 M253.9,18.3l0.2,0.4c-4,3.2-9.7,6.1-13.3,9.9l-0.2-0.2C244.2,24.6,249.9,21.4,253.9,18.3 M244.4,20.5l0.2,0.5
				c-1.3,0.6-3.2,2-4.1,3.1l-0.2-0.3C241.2,22.8,243.1,21.2,244.4,20.5 M253.7,21l0.9,0.3c-3.5,2.9-8.1,5.5-11,8.7
				c0,0-4,4.3-4.1,4.4l-0.4-0.2c1-1.2,3-3.7,3-3.7l-0.2-0.4C245.6,27,250,23.9,253.7,21 M251.1,21.4l0.2,0.5
				c-1.6,1.3-2.2,1.8-4.1,2.9c-2.4,1.8-4.1,3.5-6.5,5.3l-0.2-0.5c1.8-1.5,3.2-2.8,5.2-4.2C247.9,23.9,248.6,23.5,251.1,21.4
				 M204,25.5c1.1,0,1.9,0.3,1.1,1.3v1l-0.4,0.2l-0.2,1.6h-0.6l-0.5,3l-0.3,0.5c-0.1,0.9-0.4,1.9-1.2,2.5l0.1,1l-0.8,1.1l-0.2-0.2
				l-1.2,0.8l-0.1,1l-0.8,0.8l0.3,0.3l-0.5,0.4c-0.1,0.8,0.1,1.7-0.8,2.1c-0.1,1.2-0.9,2.1-1.8,2.6l0.2,0.1l-0.1,1
				c-0.5,0.6-1.1,1.4-1.9,1.7l0.5,0.3c-0.4,0.4-0.9,1.4-0.8,2.1l-1-0.1l0.1,1.3l-0.9,0.4l0.2,0.5c-0.9,0.3-0.5,1.8-1.5,1.8l0.4,0.6
				l-0.8,0.8v0.5l-0.9,0.5l0.1,0.3l-0.9,0.3l0.3,0.2c-0.3,0.5-0.6,1.1-1.1,1.5c-0.1,0.9-0.4,1.7-1.1,2.3l-0.3-0.6l0.3-0.2l-1.3-0.5
				c1.1-1.5,0.9-1.8,1.1-3.6l0.6-1h0.3c1.1-1.9,3.1-3.5,3.5-5.7l0.8-0.6c0.1-1.8,1.4-3.6,2.8-4.9l-0.3-0.9l0.9-1.9
				c2.2-1,2.9-5.4,4.3-7.3c0.1-0.9,0.2-1.9,1-2.5c0.3-1,0.6-1.9,1.2-2.9l-0.5-0.4c-1.4,0-3.1-0.1-4.9-0.1c-2.4,0-4.8,0.1-6.5,0.6
				c0.1-1.2,0.2-1.8,1-1.8c0.2,0,0.5,0,0.8,0.1l-0.4-0.4c0.6-0.2,1.3-0.2,1.9-0.6l0.4,0.8l1.6,0.2l-0.2-0.9c0.2,0,0.4,0,0.6,0
				c1.3,0,2.7-0.2,4-0.2c0.2,0,0.4,0,0.6,0l0.3,0.4l0.5-1c0,0,0.1,0,0.1,0C201.6,25.7,202.9,25.5,204,25.5 M252.2,26l0.2,0.4
				c-5,4.5-8,7-12.2,12.2l-0.4-0.2C244.2,33,247.2,30.6,252.2,26 M251.5,28.6l0.2,0.4c-0.8,0.9-1.6,1.4-2.5,2l0.2,0.4
				c-2.5,2.1-6,4.2-8,7c1.7-1.6,3.6-2.7,5.4-4.6L247,34c-2.6,2.7-5.2,4-7.3,7.2l-0.4-0.2c0.5-0.9,1.2-1.6,1.8-2.3l-0.3-0.2
				c1.2-1.8,3.1-3.3,5.1-4.9c0.1,0-0.1-0.2-0.1-0.2C247.5,31.6,249.6,30.5,251.5,28.6 M253.8,29.1l0.2,0.5
				c-5.7,4.6-9.5,6.7-14.4,12.5l-0.2-0.2C244.3,36.1,248,34,253.8,29.1 M247.1,29.9l0.2,0.4c-3.3,2.5-6.2,5.3-8.5,9l-0.4-0.2
				C241,35.4,243.8,32.4,247.1,29.9 M245.6,30l0.2,0.2c-1.7,1.9-3.5,3.3-5.2,5.1l-0.2-0.3C242.1,33.3,243.9,31.9,245.6,30
				 M254.9,31.5l0.2,0.4c-3.3,1.7-7.2,4.5-9.6,7.1l-0.2-0.3C247.8,36,251.7,33.1,254.9,31.5 M252.8,34.6L253,35
				c-1,0.7-1.6,1.2-2.5,1.6l0.1,0.8c-3.5,2.8-6.9,5.6-9.9,9.1l-0.2-0.2c2.9-3.3,6-6,9.4-9c-4,2.6-7.1,4.1-10,8.6l-0.4-0.2
				C243.4,40.1,247.6,38.8,252.8,34.6 M247.9,34.9l0.2,0.3c-2.7,2.6-5.8,4.6-8,7.7l-0.4-0.3C242.2,39.7,245.2,37.6,247.9,34.9
				 M253.5,36.6l0.2,0.5c-3.9,2-7.9,5.4-10.9,8.6l-0.2-0.2C245.6,42.2,249.6,38.6,253.5,36.6 M254.8,36.8l0.2,0.5
				c-1,0.5-1.9,1-2.7,1.7c-1.6,0.9-6,5-7.3,6.3c-2.2,2.3-4.2,4.1-5.9,6.6l-0.4-0.2c1.6-2.3,3.6-4,5.6-5.9l-0.2-0.4
				c1.9-1.5,3.1-3.2,5-4.6C251.2,39.3,252.9,38.3,254.8,36.8 M254.3,38.5l0.2,0.5c-2.7,1-5.3,3.7-7.3,5.5c-2.7,2.5-5.1,4.9-7.1,8
				l-0.4-0.3C243.4,46.8,249.7,41.1,254.3,38.5 M253.2,40.7l0.3,0.5c-3.4,3.5-7.1,6.6-10.6,10.1c-1.4,1.4-4.3,3.3-5.3,5.3l-0.4-0.2
				c1-1.9,4-4.3,5.4-5.6C246.2,47.3,249.8,44.2,253.2,40.7 M202.1,41.6c1.1,0.6,0.2,0.5,0.1,1.2c0.2,0.2,0.4,0.5,0.8,0.5l0.2-0.8
				c0.8,0.5,1.9,1.6,2.4,2.5c0.8,0.2,1.6,1.1,1.7,1.8c1.2,0.1,1.9,1.7,2.7,2.6c-0.2,0.2-0.3,0.4-0.5,0.5c0.1,0.2,0.4,0.2,0.6,0.2V51
				c0.9,1.2,2.6,1.9,2.9,3.5l-0.6,0.6c-0.6-0.4-0.3-0.9-0.8-0.9c-0.1,0-0.3,0-0.6,0.1l0.4,0.5c-0.4-0.1-0.9-0.2-1.4-0.3
				c0.1-0.2,0.2-0.8-0.1-0.8c-0.1,0-0.2,0.1-0.2,0.1c-0.8,0-2.1-2-2.5-2.5l1.1,0.1l0.3-0.3c-0.5-0.3-1.3-0.3-1.8-0.5L207,51
				l-0.6,0.1v-0.5c-0.1-0.1-0.2-0.1-0.4-0.1c-0.1,0-0.1,0-0.2,0l-0.3-1c0.2,0.2,0.5,0.4,0.8,0.5c0.1-0.2,0.2-0.4,0.2-0.8
				c-0.2-0.1-0.4-0.2-0.6-0.2c-0.4,0-0.8,0.1-1,0.4l-0.6-0.8c0.4,0,1,0,1.5-0.1l-0.6-1l-0.4,0.5c-0.4-0.1-0.8-0.3-1.1-0.6
				c0,0,0,0,0,0c0.2,0,0.8-1,0.5-1.2c-1.1-1.4-3.2-1.2-3.6-3c-0.1-0.2-0.3-0.6,0.1-0.6c0.4,0.1,0.7,0.1,0.8,0.1
				C202.1,42.7,201.3,42.3,202.1,41.6 M254.1,42l0.2,0.4c-2.1,1.7-4,3.2-6,4.9l-0.2-0.4C250.2,45.2,252,43.8,254.1,42 M253.3,45
				l0.2,0.3c0,0-0.1,0-0.1,0c-0.8,0-1.2,1.1-2,1.8c-1.5,1.1-2.9,1.9-4.5,3c-2.1,1.4-3.9,3.6-5.8,5.1l-0.2-0.4
				c1.9-1.5,3.8-3.7,5.8-5.1c1.6-1.1,3-1.9,4.5-3C252,46.1,252.4,45.4,253.3,45 M254,45.4l0.2,0.4c-3.3,2.7-9,6.9-11.4,9.3
				c2.8-2.1,9-6.2,11.4-8.9l0.2,0.3c-3.1,3.4-15.7,11.8-15.7,11.8l0.1-0.6C239.6,57,254,45.4,254,45.4 M252.7,48.7l0.2,0.5
				c-3.3,2.6-8.5,6.2-11,8.5c2.8-2.1,8.9-5.6,11.3-8.2l0.2,0.3c-3.1,3.3-13.1,9.4-13.1,9.4l-0.2-0.2c0.2-0.2,0.2-0.3,0.4-0.5
				l-0.2-0.5C241.2,57.4,252.7,48.7,252.7,48.7 M252.4,53.1l0.2,0.4c-2.6,2.1-9.2,7.5-11.7,9.5l-0.2-0.4
				C243.2,60.5,249.8,55.2,252.4,53.1 M253.7,53.6l0.2,0.5c-3.7,2.7-11.4,8.4-14.7,11.4l-0.2-0.4C242.3,62,250,56.4,253.7,53.6
				 M249,54.7l0.2,0.4c-3,2.4-8.2,6.4-11.2,9.2l-0.2-0.5C240.8,61.1,246,57.1,249,54.7 M247,55.1l0.2,0.4c-2.9,2.5-7.1,4.6-9.1,7.5
				l-0.4-0.2C239.9,59.8,244.2,57.3,247,55.1 M251.2,56.3l0.2,0.5c-4,3.5-8.2,6.9-12.4,10.2l-0.1-0.9
				C243.1,62.9,247.2,59.8,251.2,56.3 M252.6,56.9l0.6,1.5c-0.9,0.8-4.4,3-4.4,3c-0.5,0.6-0.1,0.6,0.2,0.8l5-3.5v0.6
				c0,0-6.5,4.6-9.5,7.3l0.3,0.4l8.6-6.5l0.3,0.4c-0.3,0.1-0.5,0.5-0.5,0.5V62c0,0-8.9,7.8-8.7,7.8c0,0,0,0,0,0l0.2,0.4
				c0.6-0.8,8.5-7.6,8.5-7.6c0,0.8,0.1,1.4-0.1,2.1l0.6,0.2c-0.2,0.2-0.9,1.1-0.9,1.5c0.5-0.5,3-2.5,3.6-2.7l0.2,0.6
				c-0.8,0.3-4.4,3.3-5.2,4.1l0.2,0.4l1.5-1.3c0.1,0.2-0.1,1.3,0,1.6c0,0-4.9,4-5.3,4.5L248,74c0.6-0.5,4.7-3.5,4.8-3.8
				c0.1,0.5,0,2.9,0,2.9l-1.3,0.5l1.6,0.5c0,0-0.2,1,0,2.5c0.1-0.1,1.6-1.7,1.7-1.8l0.1,0.9c-0.1,0.1-1.4,1.7-1.6,1.8
				c0.1,0.6-0.3,3.6-0.1,4.1l-0.6,0.4c0,0.1,0.3,1.7,0.3,1.7l-0.4,1.4l0.5,2.8l0.2,2.8c-0.4,0.1-0.8,0.1-1.2,0.1
				c-0.9,0-1.5-0.2-1.5-0.2l-0.1-0.3c-1.5,0.4-1.5,0.1-3.1,0.4l-1.2-0.5l-4.4,0.4l-0.6-0.5l-0.5,0.6c-0.3,0-0.7,0-1.1,0
				c-0.8,0-1.5,0-1.5,0l0.6-7.8l-0.6-1.2c0.8-0.6,0.3-1,1.4-1l0.6-1l-0.5-0.6c0-0.4-0.1-1.5-0.1-2.6l0.1,0.2
				c3.9-3.7,5.1-4.3,5.9-5.5h-0.6c-0.9,1.4-1.9,1.8-5.7,5.4c-0.1-1.2-0.1-2.3,0-2.8c-0.9,0.8-1.5,1.2-1.8,1.5l-0.2-0.8
				c0.9-0.5,5.4-5.4,9-7.7l-0.2-0.4c-1.9,1.3-7.3,5.8-7.3,5.8l-0.3-0.4c0.4-0.2,4.9-4,5.2-4.2c0,0-0.1-0.3-0.3-0.5
				c-1.3,1.1-6,4.8-6,4.8L237,71c1.3-0.5,11-8.3,11-8.3l-0.3-0.3c0,0-5.9,4.2-7,5.4l-0.3-0.5c0-0.1,4.3-3.1,7.2-5.8
				c0,0,4.2-2.8,5-3.2c0.1,0-0.1-0.5-0.1-0.5c-1,0.6-6.2,4.4-6.2,4.4l-0.2-0.2L252.6,56.9 M243.7,69.3c2.8-2.1,6.5-5,9-7.7v-0.5
				C249.4,63.7,246.2,66.9,243.7,69.3 M247.1,70.5c0.9-0.6,4-3.6,5.1-4.6l-0.3-0.6c-1.6,1.5-4,3.9-5,4.6L247.1,70.5 M240.9,78.8
				c3.9-3.5,8.7-7.9,9.5-9.1l-0.2-0.6c-0.9,1.4-5.5,5.7-9.5,9.1L240.9,78.8 M239.6,73.5c0,0,2.5-1.4,3.2-2.5l-0.3-0.4
				c-0.8,1.2-3.1,2.4-3.1,2.4L239.6,73.5 M243.2,82c1.7-1.3,5.1-4.6,7.9-6.8l-0.2-0.5c-3,2.3-4.9,3.7-8.1,7.1L243.2,82 M252.8,70.2
				C252.8,70.2,252.8,70.2,252.8,70.2C252.8,70.2,252.8,70.2,252.8,70.2 M239.1,76.7v0.4l-0.1-0.3L239.1,76.7 M244.9,6.9
				c-0.6,0-1.2,0.1-1.8,0.4c-2,1-3,1.8-4.6,3.1c-0.8,0.7-1.3,1.7-1.4,2.7c-0.8,0.8-1.2,1.9-1.2,2.9c-0.6,1.1-0.7,2.5-0.1,3.7
				l0.2,0.4c0.1,0.3,0.3,0.6,0.5,0.8c-0.2,0.6-0.2,1.1-0.1,1.7c-0.2,0.9-0.2,1.8,0.2,2.7c-0.2,0.7-0.2,1.5,0.1,2.2
				c-0.1,0.4-0.1,0.7-0.1,1.1c-0.2,0.7-0.1,1.4,0.1,2.2c-0.2,0.3-0.5,0.6-0.7,0.8c-0.8,0.9-1.1,2.2-0.8,3.4c0.1,0.4,0.2,0.8,0.4,1.1
				c-0.2,0.2-0.3,0.4-0.5,0.7c-0.7,1-0.9,2.1-0.6,3.3c0.2,0.6,0.4,1.2,0.8,1.6c0,0.1,0,0.1,0,0.2c0,0.7,0.2,1.3,0.5,1.9
				c0,0,0,0.1,0,0.1c-0.4,0.9-0.5,1.8-0.3,2.8c0.1,0.5,0.4,1,0.7,1.5c-0.3,0.4-0.6,0.8-0.9,1.2c-0.7,1-0.9,2.1-0.6,3.3
				c0,0,0,0.1,0,0.1c-0.5,0.6-0.9,1.2-1.2,1.8c-0.5,1-0.6,2.1-0.3,3.1c0.3,0.9,0.8,1.6,1.6,2.1c0,0,0,0,0,0.1
				c-0.2,0.2-0.3,0.4-0.5,0.7c-0.7,0.9-0.9,2.1-0.7,3.3c0,0.5,0.1,1.1,0.3,1.6l0.2,0.5c0.2,0.4,0.4,0.8,0.7,1.1l0.1,0.5
				c0,0,0,0,0,0.1c-1.5,0.9-2.3,2.6-1.9,4.4l0.2,0.9c0,0.1,0,0.2,0.1,0.3c-0.3,0.8-0.4,1.6-0.2,2.4l0.2,0.8c0.3,1.1,0.9,1.9,1.8,2.5
				c0,0,0,0.1-0.1,0.1c-1.2,1.2-1.6,3.1-0.8,4.7l0.1,0.2l-0.5,6.7c-0.1,1.2,0.3,2.3,1.1,3.1c0.8,0.8,1.8,1.2,2.9,1.2
				c0.1,0,0.2,0,0.2,0c0,0,0.7,0,1.3,0c0.4,0,0.6,0,0.6,0c0.1,0,0.3,0,0.4,0c0.3,0,0.6,0,0.9-0.1c0.1,0,0.1,0,0.2,0
				c0.1,0,0.2,0,0.4,0l3.4-0.3l0.3,0.1c0.5,0.2,1,0.3,1.5,0.3c0.2,0,0.5,0,0.7-0.1c0.4-0.1,0.6-0.1,0.9-0.1c0.2,0,0.4,0,0.7,0
				c0.5,0.1,1.4,0.3,2.4,0.3c0.6,0,1.3-0.1,1.9-0.2c2-0.4,3.4-2.2,3.3-4.2l-0.2-2.8c0-0.1,0-0.3-0.1-0.4l-0.3-1.9l0.1-0.5
				c0.1-0.5,0.2-1.1,0.1-1.6c0.3-0.7,0.4-1.5,0.3-2.3c0-0.3,0.1-1,0.1-1.4c0-0.2,0-0.3,0-0.4c0.1-0.2,0.3-0.3,0.4-0.5
				c0.1-0.1,0.2-0.2,0.2-0.2c0.8-0.8,1.1-2,1-3.1l-0.1-0.9c-0.1-1.3-0.9-2.4-1.9-3c0-0.3,0-0.6,0-0.8c0.2-0.5,0.3-1.1,0.3-1.7
				c0.5-0.4,0.9-0.7,1.2-0.9c1.8-0.9,2.7-2.9,2.1-4.9l-0.2-0.6c-0.4-1.1-1.2-2-2.3-2.4c0-0.2,0.1-0.5,0.1-0.7v-0.6
				c0-0.9-0.3-1.7-0.8-2.4c0.7-1.1,0.9-2.5,0.4-3.7l-0.2-0.5c-0.1-0.2-0.2-0.5-0.4-0.7c0.3-0.7,0.4-1.5,0.3-2.2c0,0,0,0,0,0
				c1-1.1,1.3-2.7,0.8-4.1c-0.1-0.3-0.1-0.6-0.3-0.8c0.5-1,0.6-2.2,0.1-3.3c0.1-0.1,0.1-0.2,0.1-0.3c0.2-0.4,0.3-0.9,0.3-1.4
				c0.6-1,0.7-2.3,0.2-3.4l-0.2-0.5c-0.1-0.3-0.2-0.5-0.4-0.8c1-1.2,1.3-2.9,0.6-4.4l-0.2-0.4c-0.1-0.3-0.3-0.6-0.5-0.8
				c0-0.3-0.1-0.5-0.2-0.8l-0.2-0.5c-0.2-0.6-0.6-1.2-1.1-1.6c0-0.3-0.1-0.6-0.2-0.9c0.3-0.3,0.6-0.5,1-0.8c1.1-0.9,1.6-2.4,1.4-3.8
				c-0.1-0.5-0.2-0.9-0.5-1.3c0.1-0.5,0.1-1-0.1-1.5c0-0.4,0-0.7-0.1-1.1c0.2-0.9,0-1.7-0.4-2.5l-0.2-0.4c-0.5-1.1-1.5-1.8-2.7-2.1
				l-0.1-0.3c-0.5-0.9-1.3-1.7-2.3-2c-0.4-0.1-0.8-0.2-1.3-0.2c-0.5,0-1.1,0.1-1.6,0.3c-0.1,0-0.2,0-0.2,0c0,0-0.1,0-0.1,0
				c-0.2-0.1-0.4-0.2-0.7-0.3c-0.5-0.9-1.3-1.6-2.3-1.9C245.8,7,245.3,6.9,244.9,6.9L244.9,6.9z M204,21.5c-0.9,0-1.8,0.1-2.5,0.2
				c-0.2,0-0.3,0-0.4,0.1c0,0-0.1,0-0.1,0c-0.8,0-1.5,0.2-2.1,0.6c-0.6,0-1.1,0.1-1.6,0.1c-0.6,0.1-1.2,0.1-1.7,0.1
				c-0.1,0-0.2,0-0.3,0c-0.1,0-0.2,0-0.2,0c-0.2,0-0.5,0-0.7,0.1c0,0-0.1,0-0.1,0c-0.3-0.1-0.7-0.1-1-0.1c-0.7,0-1.3,0.2-1.9,0.5
				c0,0-0.1,0-0.1,0c-0.3,0.1-0.7,0.1-1.1,0.3c-0.2,0.1-0.5,0.2-0.7,0.3c-1.5,0.5-3.2,1.8-3.4,5.3c-0.1,1.3,0.5,2.5,1.4,3.4
				c0.7,0.6,1.6,0.9,2.5,0.9c0.3,0,0.7,0,1-0.1c1.3-0.4,3.6-0.4,4.9-0.4c0,0.2-0.1,0.3-0.1,0.5c-0.5,0.9-0.9,1.8-1.2,2.8
				c-0.3,0.8-0.8,2-1.1,2.4c-0.7,0.4-1.3,1-1.7,1.8l-0.9,1.9c-0.2,0.4-0.3,0.9-0.4,1.4c-0.8,1.1-1.7,2.4-2.2,3.9
				c-0.6,0.6-1,1.3-1.1,2.1c-0.1,0.4-0.8,1.3-1.3,2c-0.3,0.4-0.6,0.8-0.9,1.2c-0.4,0.3-0.8,0.7-1.1,1.2l-0.6,1
				c-0.3,0.5-0.5,1-0.5,1.6c0,0.4-0.1,0.7-0.1,1c0,0.1,0,0.3,0,0.4c0,0.1-0.1,0.2-0.2,0.3c-0.7,1-1,2.3-0.6,3.5
				c0.3,1,0.9,1.8,1.7,2.3c0.6,0.9,1.5,1.6,2.6,1.8c0.3,0.1,0.5,0.1,0.8,0.1c0.9,0,1.9-0.3,2.6-1c1.1-0.9,1.8-2.1,2.2-3.5
				c0.2-0.3,0.4-0.5,0.5-0.7c0.3-0.2,0.5-0.5,0.7-0.7c0.6-0.5,1.1-1.1,1.3-1.8c0.6-0.7,1-1.5,1-2.3c0,0,0,0,0,0
				c0.2-0.2,0.4-0.5,0.6-0.8c0.3-0.3,0.6-0.7,0.8-1.1c0.1-0.1,0.1-0.1,0.2-0.2c0.6-0.7,1-1.5,1.1-2.5c0.2-0.3,0.4-0.6,0.5-1
				c0.2-0.3,0.4-0.5,0.6-0.7l0.1-0.2c0.2-0.3,0.4-0.5,0.5-0.8c0.1,0.5,0.3,1,0.7,1.4c0.1,0.4,0.3,0.9,0.6,1.2l0.6,0.8
				c0.2,0.2,0.4,0.5,0.6,0.6c0.3,0.5,0.6,0.8,1,1.2c0.2,0.2,0.3,0.4,0.5,0.5c0.3,0.2,0.6,0.4,1,0.6c0.5,0.7,1.1,1.4,1.9,2
				c0.6,0.9,1.5,1.5,2.5,1.7c0.4,0.1,0.9,0.2,1.2,0.3c0.1,0,0.2,0.1,0.3,0.1c0.5,0.2,1.1,0.4,1.6,0.4c1,0,2.1-0.4,2.8-1.2l0.6-0.6
				c0.9-0.9,1.3-2.3,1.1-3.6c-0.4-2.3-1.9-3.7-2.9-4.5c0,0,0,0,0-0.1c0-0.9-0.4-1.7-1-2.4c-0.1-0.1-0.2-0.3-0.4-0.5
				c-0.5-0.7-1.2-1.8-2.4-2.5c-0.5-0.7-1.2-1.4-1.9-1.8c-0.8-1-1.8-1.9-2.7-2.6c-0.1-0.1-0.2-0.2-0.3-0.3c0.4-0.6,0.7-1.3,0.7-2
				c0.4-0.7,0.7-1.5,0.9-2.4c0.2-0.4,0.4-0.8,0.4-1.2l0.2-1c0.5-0.6,0.8-1.3,1-2.1l0-0.2c0.4-0.6,0.6-1.3,0.6-2.1
				c0.7-1.7,0.2-3.1-0.1-3.7C208.5,22.9,207.1,21.5,204,21.5L204,21.5z"/>
		</g>
		<g>
			<path class="st1" d="M284.2,89.4c-0.6,0-1.1-0.2-1.4-0.6l0,0c-0.2,0.1-0.4,0.1-0.6,0.1c-0.4,0-0.8-0.1-1.1-0.3
				c-0.4-0.2-0.6-0.6-0.8-1c-0.2-0.1-0.4-0.2-0.5-0.4c-0.2-0.2-0.3-0.3-0.5-0.4c-0.4-0.3-0.8-0.6-1.1-1c-0.3-0.4-0.4-0.8-0.4-1.2
				c-0.1-0.2-0.2-0.4-0.3-0.6c-0.5-1.7,0.1-2.6,0.7-3.2c0,0,0,0,0,0c0-0.3,0-0.6,0.1-0.8c-0.1-0.4,0-0.9,0.1-1.3
				c0.2-0.7,0.8-1.2,1.6-1.3c0,0,0.1-0.1,0.1-0.1c0,0,0,0,0,0c0.4-0.8,1-1.1,1.3-1.2c0.3-0.1,0.6-0.2,0.9-0.2c0.1,0,0.3,0,0.4,0
				c0.3-0.3,0.8-0.5,1.3-0.5h1.2c0.5,0,0.9,0.2,1.3,0.5c0.5,0.1,0.9,0.3,1.2,0.6c0.4,0.2,0.6,0.6,0.8,1c0.1,0.1,0.2,0.1,0.3,0.2
				c0.5,0.3,0.8,0.9,0.9,1.5c0,0.2,0,0.5-0.1,0.7c0.1,0.3,0.2,0.7,0.1,1.1c-0.1,0.6-0.2,2-0.2,2.5c0,0.4-0.1,0.8-0.3,1.1
				c-0.1,0.3-0.2,0.5-0.3,0.7c-0.1,0.2-0.2,0.5-0.4,0.7c-0.2,0.3-0.4,0.5-0.7,0.6c-0.2,0.5-0.5,0.9-1,1.2c0,0,0,0,0,0
				c-0.2,0.9-1,1.6-2,1.6H284.2z M283,69.1l-1.5-0.1c-0.1,0-0.2,0-0.3,0c-0.1,0-0.2,0-0.4,0c0,0-0.1,0-0.1,0c-0.2,0-0.4,0-0.6-0.1
				c-0.2,0-0.3,0-0.5-0.1c0,0-0.1,0-0.1,0c-0.1,0-0.1,0-0.2,0l-1.8-0.2c-1-0.1-1.8-1-1.8-2.1l0.1-2.5c0-0.3,0.1-0.6,0.2-0.8
				c0-0.4,0-0.9,0.3-1.2c0.1-0.2,0.2-0.7,0.2-1.1c0-0.3,0.1-0.5,0.3-0.8c0-0.2,0-0.5,0.1-0.7l0.2-0.6c0.2-0.7,0.3-1.1,0.3-1.7
				c0-0.4,0.1-0.7,0.3-1.1c0-2.4,0.4-4,0.9-5.9l0.2-0.9c0.1-0.3,0.2-0.5,0.4-0.7c0-0.1,0-0.2,0.1-0.3c0,0,0.5-1.8,0.8-2.8
				c0.1-0.4,0.4-0.8,0.7-1v0c0-0.6,0.3-1.2,0.8-1.6c0-0.2,0.1-0.4,0.1-0.6l-1.5-0.5c-0.9-0.3-1.5-1.3-1.3-2.2s1-1.7,2-1.7
				c0.6,0,1.3,0.1,2,0.3c0,0,0,0,0.1,0c0.1-0.4,0.2-0.7,0.5-1c0.2-0.2,0.4-0.3,0.6-0.4c0.1-0.2,0.2-0.5,0.4-0.7
				c0.5-0.6,1.1-1.4,1.2-1.6c0-0.1,0.1-0.2,0.1-0.3c-0.1-0.9,0.1-1.5,0.3-2.1l0-0.2c0.2-0.6,0.6-1.1,1.1-1.3
				c0.5-1.1,0.5-1.7,0.5-3.4c0-0.3,0.1-0.6,0.2-0.9c-0.1-0.1-0.2-0.2-0.3-0.4c-0.3-0.5-0.4-1.1-0.3-1.7c-0.1,0-0.1-0.1-0.2-0.2
				l-0.5-0.6c-0.1,0-0.2,0-0.3-0.1l-0.4-0.1c0,0,0,0,0,0c-0.2,0-0.3,0-0.5-0.1c-0.2,0-0.5-0.1-1.1-0.1c-0.8,0-1.6,0.1-2.3,0.2
				c-0.7,0.9-1.6,1.4-2.3,1.7c-0.2,0.1-0.3,0.2-0.5,0.3c-0.2,0.5-0.6,1-1.1,1.4c0,0,0,0.1,0,0.1c-0.2,0.9-0.6,2-1.3,2.8
				c-0.4,0.4-0.9,0.7-1.5,0.7c-0.1,0-0.3,0-0.4,0c-0.2,0-0.5-0.1-0.7-0.3c0,0-0.3,0-0.4,0c-0.3,0.2-0.7,0.4-1.2,0.4c0,0,0,0,0,0
				c-0.7,0-1.4-0.4-1.7-1c-1.4-2.4-0.5-5.3,1.2-7.2c0.1-0.4,0.3-0.8,0.6-1.1l2.6-2.6c0.3-0.3,0.6-0.4,0.9-0.5
				c0.1-0.1,0.1-0.1,0.2-0.2l2.3-1.7c0.3-0.2,0.7-0.4,1.1-0.4c0.4-0.3,1-0.6,1.6-0.8c0.2-0.1,0.4-0.1,0.6-0.1c0.1,0,0.3,0,0.4,0
				c0.1,0,0.2-0.1,0.3-0.1c0.4-0.2,0.8-0.3,1.2-0.5c0.3-0.1,0.6-0.2,0.9-0.2c0.1,0,0.2,0,0.3,0c0,0,0.1,0,0.1,0c0.3,0,0.6,0,0.8,0
				c0.1,0,0.3,0,0.4,0l0,0c0.4-0.6,1-1,1.7-1c0.2,0,0.4,0,0.5,0.1c0.6,0.2,1,0.6,1.3,1.1c0.2,0,0.3-0.1,0.5-0.1c0.1,0,0.1,0,0.2,0
				l0.2-0.2c0.4-0.4,0.9-0.6,1.4-0.6c0.3,0,0.6,0.1,0.9,0.2c0.8,0.4,1.2,1.2,1.1,2l-0.1,0.6c1.2,1.1,2.4,2.7,2.4,4.2l0,0
				c0.6,0.1,1.2,0.5,1.5,1.1c0.3,0.5,0.3,1.1,0,1.7c0.2,0.3,0.3,0.6,0.3,1v0.4c0,0.3-0.1,0.6-0.2,0.9c0,0,0,0.1,0,0.1
				c0,1.3-0.5,2.2-0.8,2.9c-0.2,0.4-0.3,0.6-0.4,0.9c0,0.4-0.2,0.7-0.4,1c0,0.3-0.1,0.5-0.3,0.7l0,0.1c0.1,1.2-0.5,2.3-1,3.1
				c0,0.6-0.3,1.1-0.7,1.5c-0.8,0.8-3.2,5.6-3.4,6.8c-0.1,0.3-0.2,0.7-0.5,1l0.3,1.1c0.2,0.7,0,1.5-0.6,2c-0.2,0.2-0.4,0.3-0.6,0.4
				c-0.1,0.2-0.3,0.4-0.4,0.7c-0.3,0.4-0.5,0.9-0.6,1.2c-0.1,0.5-0.4,0.9-0.8,1.2c0,0.1,0,0.3,0,0.4l-0.1,1.1
				c0.2,0.6,0.1,1.3-0.2,1.8c-0.1,0.2-0.2,0.4-0.3,0.6l0.3,0.5c0.5,0.9,0.3,2-0.5,2.6l-0.3,0.2c0,0.1-0.1,0.3-0.1,0.4
				c0.3,0.6,0.3,1.3,0,1.9l-0.3,0.6c0.4,0.1,0.8,0.3,1.1,0.6c0.7,0.7,0.7,1.8,0.1,2.6l-1.9,2.5c0,0,0,0.1,0,0.1
				c-0.2,0.6-0.4,1.5-1,2.3c-0.4,0.5-1,0.8-1.6,0.8C283.1,69.1,283,69.1,283,69.1z"/>
			<path class="st2" d="M288,15.2v1.5l0.5-0.3h1.5l0.2,0.2l0.1-0.3l0.6,0.4l1.2-1.2l-0.2,1.6c0.6,0.5,2.9,2.6,2.4,3.7l0.5,1.5
				l1.3,0.2l-0.6,1.1L296,24l-0.3,0.3h0.5v0.4c-0.5,0.4-1.5,0.8-1.9,1.2l0.2,0.6l0.8-0.2l-0.4-0.3l1.1-0.3c0,1.5-1,2.1-1.2,3.5
				l-0.9-0.4l0.5,1.3l-0.5,0.8c0.5,0.9-0.3,2.1-0.8,2.9l-0.8-0.4c0-0.2,0-0.5-0.1-0.8c-1.2,0.9-0.2,1.3,0.9,1.7
				c-1.2,1-3.9,6.7-4.1,8l-1.5,1.7l1-0.2l0.4,1.4c-0.8-0.3-1.7-0.5-1.7-0.5l-0.3,0.3l1.1,0.9c-0.4,0.8-1.1,1.7-1.3,2.6
				c-0.6,0.1-1,1.6-1.2,1.7l0.4,0.1l-0.2,1.9h-2.4l2.6,0.1c-0.6,0.8-0.9,1.9-1.4,1.9c0,0-0.1,0-0.1,0c-0.2,0,0.4,0.3,0.7,0.3
				c0,0,0.1,0,0.1,0l0.6,1l-1,0.8V57l-0.5,0.6c0.2,0.3-0.1,0.6-0.2,0.9l0.8,0.1l-0.9,1.7c1,0.2-0.1,2.1-0.1,3.2l2.1-1.4l-2.1,2.8
				c-0.2,0.6-0.3,1.5-0.8,2.2l-1.5-0.1l-0.3-1.2l-0.6,1.2l-0.3-0.5l-0.3,0.4l-0.1-1.1l-0.5,1l-1.8-0.2l0.1-2.5l1.4-1.2L278,63
				c0.3-0.5,0.4-1.1,0.5-1.8c0.3,0.2,0.5,0.2,0.6,0.2c0.6,0,0.3-1.2-0.3-1.4c0.3-1,0.6-1.7,0.6-2.8c0,0,0.1,0,0.2,0
				c0.2,0,0.5-0.1,0.8-0.1c0.1,0,0.3,0,0.4,0.1c0.2-0.2-0.1-0.6-0.3-0.6l-0.8-0.2c0-2.7,0.5-4.2,1.1-6.6l1.4,0.3l1.8-1
				c0-0.1-0.1-0.2-0.3-0.3l-1.3,0.5l-1.2-0.5c0,0,0.5-1.8,0.8-2.8l0.8,0.1v-1.7l0.5,0.3c0.3-0.8,0.2-2.6,0.9-3l0.5,0.6l0.6-0.3
				l-0.4-0.8l-4-1.4c0.9,0,2.6,0.5,3.9,0.5c0.4,0,0.8-0.1,1.1-0.2l-1-1.6l1.8,1l0.2-0.2l-1-1.1v-0.8c0,0,1.5-1.6,1.7-2.5l0.3-0.2
				c-0.3-1-0.1-1.6,0.1-2.4l1.1,0.2l-0.3-0.8c0.8-1.8,0.8-2.6,0.8-4.6l0.6-0.1l-0.2-2.4l-0.9,0.1l0.3-0.6c-0.1-0.4-0.1-0.9-0.4-1.4
				c-0.1,0-0.3-0.1-0.4-0.1c-0.1,0-0.1,0-0.1,0.1l-0.9-1l1,0.1l-0.8-0.8c-0.2,0.2-0.6,0.4-1,0.5l-1-0.3v0.1c-0.5-0.1-1-0.2-1.6-0.2
				c-1.4,0-3,0.3-3.9,0.6l0.2,0.2c-0.9,1.2-2.3,1.5-3.1,2.3c0,0.6-0.6,1.1-1.3,1.3l0.2,0.1c-0.3,0.9-0.5,2.1-1.1,2.8
				c-0.2-0.5-0.1-1-0.7-1c-0.1,0-0.3,0-0.4,0.1v-1.6c-0.6,0.5-0.6,1.7,0,2.2c-0.5,0-0.7-0.1-0.9-0.1c-0.2,0-0.4,0.1-0.6,0.5
				c-1.1-1.9,0.2-4.3,1.5-5.4l-0.1-0.4l2.6-2.6l1,0.3l-0.1-0.8l2.3-1.7c0,0.1,0,0.2,0.1,0.2c0.3,0,1.2-0.8,2-1.1l0.6,1l0.1,0.1
				c0-0.3,0-0.6-0.2-0.9c0.9-0.4,1.5-0.6,2.3-1l1.2,0.6l-0.6-0.6c0.2,0,0.4,0,0.6,0c0.6,0,0.8,0.1,1.2,0.5L288,15.2 M292.1,15.5
				L292.1,15.5 M296,25.7L296,25.7 M286,62.1L286,62.1 M285.1,77.4c0,0.3,0,0.5,0.2,0.6c0.2-0.1,0.3-0.2,0.5-0.2
				c0.2,0,0.4,0.1,0.7,0.3c0,0.3-0.2,0.5-0.2,0.9c0-0.3-0.4-0.4-0.4-0.8c-0.6,0.2-0.1,0.3-0.4,0.5l1,0.9c0.1-0.2,0.2-0.5,0.2-0.9
				c0,0.2,0.6,0.4,0.9,0.6c-0.2,0.2-0.2,0.6-0.3,0.9c0.1,0.2,0.3,0.3,0.4,0.4c-0.1,0.7-0.2,2.2-0.2,2.8l-1.5-0.3l0.4,0.8l0.8,0.2
				c-0.2,0.1-0.2,0.5-0.4,0.8l-0.3-0.3c-0.5,0.3-0.6,0.9-0.6,1.4l-0.4-0.4c-0.3,0.3-0.2,1-0.5,1.2c0-0.3-0.2-0.5-0.4-0.6
				c-0.2,0.3,0.2,0.9,0.2,1.2h-0.6c0-0.8,0.2-0.4,0-1.8c0-0.1-0.6,0-1-0.1c-0.2,0.3-0.1,0.8-0.2,1.1l-0.9,0.3L282,86c0,0,0,0,0,0
				c0.1,0,0.5-0.3,0.6-0.3c0-0.3-0.3-0.9-0.6-0.9c-0.1,0.2-0.2,0.4-0.2,0.8l-0.4-0.3l-0.3,0.5c-0.5-0.5-1.1-0.8-1.4-1.2
				c0.2-0.2,0.2-0.6,0.4-0.8V83c-0.1,0-0.2-0.1-0.3-0.1c-0.2,0-0.4,0.1-0.5,0.5c-0.4-1.2,0.4-1,0.8-2.1c0.2-0.6-0.3-0.8,0.3-1.1
				c-0.2-0.1-0.3-0.6-0.2-0.9c0,0,0.3,0,0.4,0.1c0.5-0.4,0.5-0.5,0.5-0.5c0.2,0,0.8,0.9,0.8,1c0.1-0.3,0-1.7-0.1-1.8
				c0.1-0.2,0.2-0.2,0.4-0.3c0.3,0.2,0.6,0.3,0.9,0.3c0.3,0,0.5-0.1,0.8-0.2c0-0.1,0-0.1,0-0.5H285.1 M282,86L282,86
				C282,86,282,86,282,86 M288,11.2c-1,0-1.9,0.4-2.6,1c-0.1,0-0.2,0-0.4,0c-0.1,0-0.2,0-0.3,0c-0.6,0-1.2,0.1-1.8,0.4
				c-0.3,0.1-0.5,0.3-0.9,0.4c-0.1,0-0.1,0-0.2,0c-0.4,0-0.8,0.1-1.1,0.2c-0.7,0.2-1.3,0.5-1.8,0.8c-0.6,0.1-1.1,0.3-1.6,0.7
				l-2.3,1.7c-0.5,0.2-1,0.5-1.4,0.9l-2.6,2.6c-0.4,0.4-0.8,1-1,1.5c-1.9,2.5-2.8,6-1.1,9.1c0.7,1.2,2,2,3.5,2c0,0,0,0,0,0
				c0.5,0,1-0.1,1.4-0.3c0.1,0,0.3,0.1,0.4,0.1c0.3,0.1,0.5,0.1,0.8,0.1c1.2,0,2.3-0.5,3-1.4c0.9-1,1.3-2.2,1.6-3.1
				c0.3-0.3,0.6-0.7,0.8-1.1c0.6-0.3,1.4-0.8,2.2-1.6c0.4-0.1,0.9-0.1,1.3-0.1c0.4,0,0.6,0,0.6,0c0.1,0,0.2,0,0.3,0.1
				c0.1,0.5,0.2,1,0.5,1.4c0,0.1,0,0.3,0,0.4c0,1.2,0,1.6-0.1,2.1c-0.7,0.5-1.1,1.3-1.4,2.1l0,0.2c-0.1,0.6-0.3,1.3-0.3,2.2
				c-0.2,0.3-0.5,0.7-0.8,0.9c-0.2,0.2-0.3,0.4-0.5,0.6c-0.2,0.1-0.3,0.3-0.5,0.4c0,0-0.1,0.1-0.1,0.1c-0.3,0-0.7-0.1-1-0.1
				c-2,0-3.6,1.4-3.9,3.3c-0.3,1.7,0.5,3.4,2,4.2c0,0.1,0,0.1,0,0.2c-0.3,0.4-0.6,0.9-0.7,1.4c-0.3,1-0.8,2.9-0.8,2.9
				c0,0,0,0.1,0,0.1c-0.2,0.3-0.3,0.6-0.4,1c-0.1,0.3-0.2,0.6-0.2,0.9c-0.5,1.8-0.9,3.5-1,5.9c-0.2,0.5-0.3,1-0.3,1.5
				c0,0.3,0,0.4-0.3,1.1c-0.1,0.2-0.1,0.4-0.2,0.6c-0.1,0.3-0.1,0.5-0.2,0.8c-0.1,0.3-0.2,0.6-0.3,1c0,0.1-0.1,0.4-0.1,0.5
				c-0.3,0.5-0.4,1.1-0.5,1.7c-0.1,0.4-0.2,0.7-0.2,1.1l-0.1,2.5c-0.1,2.1,1.5,3.9,3.6,4.1l1.8,0.2c0,0,0.1,0,0.1,0
				c0.2,0,0.4,0.1,0.6,0.1c0.3,0.1,0.6,0.1,1,0.1c0.1,0,0.1,0,0.2,0c0.1,0,0.2,0,0.3,0c0.1,0,0.1,0,0.2,0l1.5,0.1c0.1,0,0.2,0,0.3,0
				c1.3,0,2.5-0.6,3.3-1.7c0.7-1,1-2,1.2-2.7l1.6-2.1c0.5-0.7,0.9-1.5,0.9-2.5c0-1.1-0.4-2.1-1.2-2.8c0.1-0.4,0.1-0.8,0-1.2
				c0.9-1.1,1.2-2.7,0.6-4.1c0.4-0.8,0.5-1.7,0.3-2.6l0-0.5c0.3-0.4,0.6-0.9,0.7-1.5c0.1-0.2,0.3-0.5,0.4-0.7c0-0.1,0.1-0.1,0.1-0.2
				c0.2-0.1,0.3-0.2,0.5-0.4c1.1-1,1.5-2.6,1.1-4l-0.1-0.2c0.1-0.3,0.2-0.5,0.3-0.8c0.3-1.1,2.1-4.9,2.9-5.8
				c0.6-0.6,1.1-1.4,1.2-2.2c0.5-0.8,1-2,1-3.3c0.1-0.2,0.1-0.3,0.2-0.5c0.3-0.4,0.4-0.9,0.5-1.4c0-0.1,0.1-0.2,0.2-0.3
				c0.4-0.7,1-1.9,1.1-3.6c0.1-0.4,0.2-0.8,0.2-1.3v-0.4c0-0.4-0.1-0.8-0.2-1.1c0.1-0.8,0-1.7-0.4-2.5c-0.3-0.7-0.9-1.3-1.5-1.6
				c-0.3-1.1-1-2.3-2.1-3.5c0,0,0-0.1,0-0.1c0-2.2-1.7-3.9-3.9-4c0,0-0.1,0-0.1,0c-0.1,0-0.1,0-0.2,0c-0.6,0-1.1,0.2-1.6,0.4
				c-0.4-0.3-0.8-0.5-1.2-0.6C288.7,11.2,288.4,11.2,288,11.2L288,11.2z M285.1,73.4h-1.2c-0.6,0-1.2,0.1-1.7,0.4
				c-0.6,0-1.2,0.1-1.7,0.4c-0.7,0.3-1.4,0.8-1.8,1.4c-1,0.4-1.9,1.3-2.2,2.4c-0.2,0.5-0.3,1.1-0.2,1.7c0,0.1,0,0.2,0,0.3
				c-1,1.4-1.2,2.9-0.6,4.6c0.1,0.2,0.2,0.4,0.2,0.6c0.1,0.6,0.3,1.2,0.7,1.8c0.5,0.7,1.1,1.1,1.5,1.4c0.1,0.1,0.2,0.2,0.3,0.2
				c0.1,0.1,0.3,0.3,0.4,0.4c0.3,0.5,0.7,0.9,1.3,1.3c0.7,0.4,1.4,0.6,2.2,0.6c0.1,0,0.1,0,0.2,0c0.6,0.3,1.2,0.5,1.9,0.5h0.6
				c1.6,0,3-0.9,3.6-2.3c0.4-0.3,0.7-0.7,1-1.2c0.3-0.2,0.5-0.5,0.7-0.8c0.2-0.4,0.4-0.7,0.5-1c0.2-0.3,0.3-0.5,0.4-0.8
				c0.3-0.6,0.5-1.2,0.5-1.9c0-0.4,0.1-1.7,0.2-2.2c0.1-0.5,0-1-0.1-1.5c0-0.2,0-0.5,0-0.7c-0.1-1.1-0.7-2.2-1.6-2.9
				c-0.3-0.5-0.7-0.9-1.2-1.3c-0.4-0.3-0.9-0.6-1.5-0.7C286.6,73.6,285.9,73.4,285.1,73.4L285.1,73.4z"/>
		</g>
	</g>
</g>
</svg>
