<?xml version="1.0" encoding="utf-8"?>
<!-- Generator: Adobe Illustrator 27.5.0, SVG Export Plug-In . SVG Version: 6.00 Build 0)  -->
<svg version="1.1" id="Layer_2_00000059286767953219954380000017613708009186745528_"
	 xmlns="http://www.w3.org/2000/svg" xmlns:xlink="http://www.w3.org/1999/xlink" x="0px" y="0px" viewBox="0 0 252.7 152.1"
	 style="enable-background:new 0 0 252.7 152.1;" xml:space="preserve">
<style type="text/css">
	.st0{enable-background:new    ;}
	.st1{fill:#9F6426;}
</style>
<g id="Layer_1-2">
	<g class="st0">
		<path class="st1" d="M5.4,1.1c2.5,0,3.8,1.1,3.8,2.7c0,1.5-1.2,2.6-3.5,2.7v2.5h4.6v0.5H0.5V8.9h4.6V6.5C2.7,6.4,1.6,5.3,1.6,3.8
			C1.6,2.3,2.9,1.1,5.4,1.1z M5.4,6c2.1,0,3.2-0.9,3.2-2.2c0-1.3-1.1-2.2-3.2-2.2c-2.1,0-3.2,0.9-3.2,2.2C2.2,5.1,3.3,6,5.4,6z"/>
		<path class="st1" d="M15.1,3.9V1.7h-3.3V1.1h3.9v3.3h-3.3v2.2c1.6,0,2.8-0.1,3.9-0.3l0.1,0.5c-1,0.2-2.4,0.3-4.1,0.3h-0.5V3.9
			H15.1z M13.8,8.2v2h6.7v0.5h-7.3V8.2H13.8z M16.1,3.8h1.5V0.7h0.6v7.9h-0.6V4.3h-1.5V3.8z M19.6,8.7V0.5h0.6v8.2H19.6z"/>
		<path class="st1" d="M25.1,4.4c0,0.2-0.1,0.4-0.3,0.9c-0.3,0.8-1.1,2-2.8,3.4l-0.4-0.4c2.2-1.6,3.3-3.5,3.3-5.7V1.8H22V1.3h6.2
			v0.5h-2.7v0.8c0,2.2,1.3,4.2,3.1,5.5l-0.4,0.4c-1.4-1.1-2.4-2.5-2.6-3.2c-0.1-0.3-0.3-0.6-0.3-0.9H25.1z M29.8,10.6v-10h0.6v10
			H29.8z"/>
		<path class="st1" d="M32,6.2V5.7h10v0.5H32z M40.9,4.4c-0.8,0.1-1.8,0.2-3.2,0.2h-4.4V2.5H40V1.3h-6.7V0.8h7.3V3h-6.7v1.1h3.8
			c1.3,0,2.2,0,3.1-0.2L40.9,4.4z M33.3,10.9V8.8H40V7.7h-6.8V7.2h7.4v2.1h-6.8v1.1h7v0.5H33.3z"/>
		<path class="st1" d="M52.3,8c-1.1,0.3-2.5,0.5-4.8,0.5h-1.1V1.3h0.6v6.6h0.5c1.9,0,3.4-0.1,4.6-0.4L52.3,8z M50.9,4.2h3.2V0.5h0.6
			v10h-0.6V4.7h-3.2V4.2z"/>
		<path class="st1" d="M60.8,10.7V7.3h-4.6V6.8h9.7v0.5h-4.6v3.4H60.8z M57.4,5.1V1.1h7.3v4.1H57.4z M64.1,1.6H58v3h6.1V1.6z"/>
		<path class="st1" d="M69.7,5.5V5h4.7V3.9h0.6V5h4.7v0.5H69.7z M74.9,1.5c0,0.8,1.2,1.7,3.8,2L78.5,4c-1.6-0.3-2.8-0.7-3.4-1.3
			c-0.2-0.2-0.3-0.4-0.4-0.5h-0.1c0,0.1-0.1,0.3-0.3,0.5c-0.6,0.6-1.8,1.1-3.5,1.4l-0.2-0.4c2.6-0.4,3.8-1.3,3.8-2.2h-3.5V0.9h7.6
			v0.5H74.9z M70.6,8.2V7.7h8.1v0.5H70.6z M71.5,9.9c0-0.7,0.9-1.1,3.1-1.1c2.2,0,3.2,0.4,3.2,1.1c0,0.7-1,1.1-3.1,1.1
			C72.5,11,71.5,10.6,71.5,9.9z M72.1,9.9c0,0.5,1,0.6,2.5,0.6c1.4,0,2.5-0.2,2.5-0.6c0-0.5-1.1-0.7-2.6-0.7
			C73.1,9.3,72.1,9.4,72.1,9.9z M76.6,6.9h-4V6.4h4V6.9z"/>
		<path class="st1" d="M83.5,1.3c1.7,0,2.8,1.5,2.8,3.6c0,2.1-1,3.6-2.8,3.6c-1.8,0-2.8-1.5-2.8-3.6C80.7,2.7,81.8,1.3,83.5,1.3z
			 M83.5,8c1.5,0,2.2-1.3,2.2-3.1c0-1.9-0.8-3.1-2.2-3.1c-1.4,0-2.2,1.3-2.2,3.1C81.3,6.7,82,8,83.5,8z M88.4,10.6v-10H89v4.1h2v0.5
			h-2v5.4H88.4z"/>
		<path class="st1" d="M91.5,3.1V2.5h6.2v0.5H91.5z M94.6,4c1.7,0,2.6,0.7,2.6,1.8s-0.9,1.7-2.6,1.7c-1.7,0-2.6-0.7-2.6-1.7
			S92.9,4,94.6,4z M94.6,7c1.2,0,2-0.4,2-1.2s-0.9-1.2-2-1.2c-1.1,0-2,0.4-2,1.2S93.5,7,94.6,7z M96.6,1.4c-1.2,0-2.8,0.1-3.8-0.3
			l0.1-0.5c1.1,0.5,2.6,0.3,3.7,0.3V1.4z M93.8,8.4v1.8h6.5v0.5h-7.1V8.4H93.8z M99.4,8.7V0.5h0.6v3.9h2v0.5h-2v3.8H99.4z"/>
		<path class="st1" d="M110.2,1.1c2.5,0,3.8,1.1,3.8,2.7c0,1.5-1.2,2.6-3.5,2.7v2.5h4.6v0.5h-9.8V8.9h4.6V6.5
			c-2.3-0.1-3.5-1.2-3.5-2.7C106.4,2.3,107.6,1.1,110.2,1.1z M110.2,6c2.1,0,3.2-0.9,3.2-2.2c0-1.3-1.1-2.2-3.2-2.2
			c-2.1,0-3.2,0.9-3.2,2.2C107,5.1,108.1,6,110.2,6z"/>
		<path class="st1" d="M119.9,3.9V1.7h-3.3V1.1h3.9v3.3h-3.3v2.2c1.6,0,2.8-0.1,3.9-0.3l0.1,0.5c-1,0.2-2.4,0.3-4.1,0.3h-0.5V3.9
			H119.9z M118.6,8.2v2h6.7v0.5h-7.3V8.2H118.6z M120.9,3.8h1.5V0.7h0.6v7.9h-0.6V4.3h-1.5V3.8z M124.4,8.7V0.5h0.6v8.2H124.4z"/>
		<path class="st1" d="M129.9,4.4c0,0.2-0.1,0.4-0.3,0.9c-0.3,0.8-1.1,2-2.8,3.4l-0.4-0.4c2.2-1.6,3.3-3.5,3.3-5.7V1.8h-2.9V1.3h6.2
			v0.5h-2.7v0.8c0,2.2,1.3,4.2,3.1,5.5L133,8.5c-1.4-1.1-2.4-2.5-2.6-3.2c-0.1-0.3-0.3-0.6-0.3-0.9H129.9z M134.6,10.6v-10h0.6v10
			H134.6z"/>
		<path class="st1" d="M142.9,0.9c1.5,0,2.7,0.9,2.7,2.4c0,1.5-1.1,2.4-2.7,2.4c-1.5,0-2.7-0.9-2.7-2.4
			C140.3,1.8,141.4,0.9,142.9,0.9z M142.9,5.1c1.2,0,2.1-0.8,2.1-1.9c0-1.1-0.9-1.9-2.1-1.9c-1.2,0-2.1,0.8-2.1,1.9
			C140.8,4.4,141.7,5.1,142.9,5.1z M141.8,10.9V8.5h6.3V7.2h-6.3V6.7h7V9h-6.3v1.4h6.7v0.5H141.8z M148.1,6V0.5h0.6v2.7h2v0.5h-2V6
			H148.1z"/>
		<path class="st1" d="M151.8,6V1.1h4.1V6H151.8z M155.3,1.7h-2.8v3.8h2.8V1.7z M156.5,7.3c2.4,0,3.7,0.7,3.7,1.8
			c0,1-1.2,1.8-3.7,1.8c-2.4,0-3.7-0.7-3.7-1.8C152.9,8.1,154.1,7.3,156.5,7.3z M156.5,10.4c2,0,3-0.5,3-1.3c0-0.7-1.1-1.2-3-1.2
			c-2,0-3,0.5-3,1.2C153.5,9.9,154.6,10.4,156.5,10.4z M157.4,6.6V0.7h0.6v2.6h1.7V0.5h0.6v6.7h-0.6V3.7H158v2.9H157.4z"/>
		<path class="st1" d="M164.9,1.3c1.7,0,2.8,1.5,2.8,3.6c0,2.1-1,3.6-2.8,3.6c-1.8,0-2.8-1.5-2.8-3.6C162.1,2.7,163.2,1.3,164.9,1.3
			z M164.9,8c1.5,0,2.2-1.3,2.2-3.1c0-1.9-0.8-3.1-2.2-3.1c-1.4,0-2.2,1.3-2.2,3.1C162.7,6.7,163.5,8,164.9,8z M170.1,10.6v-10h0.6
			v10H170.1z"/>
		<path class="st1" d="M172.2,6.8V6.3h10v0.5H172.2z M181.1,4.3c-1,0.2-2,0.3-3.8,0.3h-3.7V0.9h0.6v3.2h3.1c1.6,0,2.6,0,3.8-0.3
			L181.1,4.3z M174.1,7.9v2.3h7.1v0.5h-7.7V7.9H174.1z"/>
		<path class="st1" d="M190.8,1.1c2.5,0,3.8,1.1,3.8,2.7c0,1.5-1.2,2.6-3.5,2.7v2.5h4.6v0.5h-9.8V8.9h4.6V6.5
			c-2.3-0.1-3.5-1.2-3.5-2.7C187,2.3,188.3,1.1,190.8,1.1z M190.8,6c2.1,0,3.2-0.9,3.2-2.2c0-1.3-1.1-2.2-3.2-2.2
			c-2.1,0-3.2,0.9-3.2,2.2C187.6,5.1,188.7,6,190.8,6z"/>
		<path class="st1" d="M200.6,3.9V1.7h-3.3V1.1h3.9v3.3h-3.3v2.2c1.6,0,2.8-0.1,3.9-0.3l0.1,0.5c-1,0.2-2.4,0.3-4.1,0.3h-0.5V3.9
			H200.6z M199.2,8.2v2h6.7v0.5h-7.3V8.2H199.2z M201.6,3.8h1.5V0.7h0.6v7.9h-0.6V4.3h-1.5V3.8z M205.1,8.7V0.5h0.6v8.2H205.1z"/>
		<path class="st1" d="M210.6,4.4c0,0.2-0.1,0.4-0.3,0.9c-0.3,0.8-1.1,2-2.8,3.4l-0.4-0.4c2.2-1.6,3.3-3.5,3.3-5.7V1.8h-2.9V1.3h6.2
			v0.5h-2.7v0.8c0,2.2,1.3,4.2,3.1,5.5l-0.4,0.4c-1.4-1.1-2.4-2.5-2.6-3.2c-0.1-0.3-0.3-0.6-0.3-0.9H210.6z M215.3,10.6v-10h0.6v10
			H215.3z"/>
		<path class="st1" d="M217.4,6.2V5.7h10v0.5H217.4z M226.3,4.4c-0.8,0.1-1.8,0.2-3.2,0.2h-4.4V2.5h6.7V1.3h-6.7V0.8h7.3V3h-6.7v1.1
			h3.8c1.3,0,2.2,0,3.1-0.2L226.3,4.4z M218.7,10.9V8.8h6.8V7.7h-6.8V7.2h7.4v2.1h-6.8v1.1h7v0.5H218.7z"/>
	</g>
	<g class="st0">
		<path class="st1" d="M8.4,24.6v-0.9c-1.2,0.3-2.7,0.5-5,0.5H0.6v-0.5h1.6C2.2,22.6,2.1,21,2.1,20H0.7v-0.5h5.9V20H5.4
			c0,1-0.1,2.5-0.2,3.6c1.3,0,2.3-0.2,3.1-0.4V19H9V22h2v0.5H9v2.2H8.4z M2,29.4v-2.3h6.3v-1.2H2v-0.5h7v2.3H2.6v1.3h6.7v0.5H2z
			 M4.8,20H2.7c0,0.9,0,2.5,0.1,3.7h0.6c0.4,0,0.9,0,1.3,0C4.8,22.6,4.8,21,4.8,20z"/>
		<path class="st1" d="M14.4,27.3c0.8-2.3,1.1-5.6,1.1-6.9H11v-0.5h5.1c0,2-0.3,5-1.1,7.6L14.4,27.3z M19,29.1V19h0.6v10H19z"/>
		<path class="st1" d="M32.8,29.1h-0.6v-3.8c-1.2,0.2-2.8,0.3-4.4,0.3v0c0,1.3-0.1,2.4-0.4,3.3l-0.6-0.2c0.4-0.9,0.4-2.1,0.4-3.2v0
			h-3.1V25h3.5c1.6,0,3.3,0,4.6-0.3V19h0.6V29.1z M27.8,19.5c1.6,0,2.7,0.8,2.7,2c0,1.3-1.1,2-2.7,2c-1.6,0-2.7-0.8-2.7-2
			C25.1,20.3,26.2,19.5,27.8,19.5z M27.8,23.1c1.2,0,2.1-0.5,2.1-1.6c0-1.1-1-1.5-2.1-1.5s-2.1,0.5-2.1,1.5
			C25.6,22.6,26.6,23.1,27.8,23.1z"/>
		<path class="st1" d="M34.6,21.6V21h6.2v0.5H34.6z M37.7,22.5c1.7,0,2.6,0.7,2.6,1.8S39.4,26,37.7,26c-1.7,0-2.6-0.7-2.6-1.7
			S36.1,22.5,37.7,22.5z M37.7,25.5c1.2,0,2-0.4,2-1.2s-0.9-1.2-2-1.2c-1.1,0-2,0.4-2,1.2S36.6,25.5,37.7,25.5z M39.7,19.9
			c-1.2,0-2.8,0.1-3.8-0.3l0.1-0.5c1.1,0.5,2.6,0.3,3.7,0.3V19.9z M36.9,26.9v1.8h6.5v0.5h-7.1v-2.3H36.9z M42.5,27.2V19h0.6v3.9h2
			v0.5h-2v3.8H42.5z"/>
		<path class="st1" d="M51.5,19.8c1.7,0,2.7,1.5,2.7,3.6c0,2.1-0.9,3.6-2.7,3.6c-1.8,0-2.7-1.5-2.7-3.6
			C48.7,21.2,49.8,19.8,51.5,19.8z M51.5,26.5c1.5,0,2.2-1.3,2.2-3.1c0-1.9-0.8-3.1-2.2-3.1c-1.4,0-2.2,1.3-2.2,3.1
			C49.3,25.2,50,26.5,51.5,26.5z M54.6,21.5h2.1V19h0.6v10h-0.6v-3.9h-2.1v-0.5h2.1V22h-2.1V21.5z"/>
		<path class="st1" d="M59.1,21.4v-0.5h5.3v0.5H59.1z M61.8,22.2c1.4,0,2.3,0.6,2.3,1.6c0,1-0.8,1.6-2.3,1.6c-1.4,0-2.2-0.6-2.2-1.6
			C59.6,22.8,60.4,22.2,61.8,22.2z M61.8,24.8c0.9,0,1.7-0.3,1.7-1.1c0-0.8-0.8-1.1-1.7-1.1c-0.9,0-1.7,0.3-1.7,1.1
			C60.1,24.5,60.9,24.8,61.8,24.8z M63.5,19.9c-1.2,0-2.3,0.1-3.3-0.3l0.1-0.5c1.1,0.5,2.2,0.3,3.2,0.3V19.9z M64.4,26.1
			c2.4,0,3.7,0.7,3.7,1.7s-1.2,1.7-3.7,1.7c-2.4,0-3.7-0.7-3.7-1.7S62,26.1,64.4,26.1z M64.4,28.9c2,0,3-0.5,3-1.2s-1.1-1.1-3-1.1
			c-2,0-3,0.4-3,1.1S62.4,28.9,64.4,28.9z M65.2,25.3v-6.2h0.6V22h1.5V19H68v6.8h-0.6v-3.3h-1.5v2.9H65.2z"/>
		<path class="st1" d="M69.6,24.3v-0.5h10v0.5H69.6z M74.6,19.3c2.6,0,3.9,0.6,3.9,1.7c0,1.1-1.3,1.7-3.9,1.7
			c-2.6,0-3.8-0.6-3.8-1.7C70.7,19.9,72,19.3,74.6,19.3z M70.9,29.4v-2.3h6.8v-1.2h-6.8v-0.5h7.4v2.3h-6.8v1.3h7v0.5H70.9z
			 M74.6,22.2c1.9,0,3.3-0.3,3.3-1.2c0-0.9-1.4-1.2-3.3-1.2c-1.9,0-3.2,0.3-3.2,1.2C71.3,21.9,72.7,22.2,74.6,22.2z"/>
		<path class="st1" d="M90.7,26.7c-0.8,0.2-1.9,0.4-3.8,0.4v-0.2C86.2,27,85,27.1,84.1,27v-7.2h2.3v0.5h-1.7v6.2
			c0.5,0,1.6,0,2.3-0.2v-6.5h3v0.5h-2.4v6.2c0.9,0,2-0.1,3-0.4L90.7,26.7z M89.5,22.9h2.2V19h0.6v10h-0.6v-5.6h-2.2V22.9z"/>
		<path class="st1" d="M102.2,24.9v-1.2c-1.2,0.3-2.7,0.4-4.9,0.4h-2.6v-4.7h0.6v4.2h2c2.1,0,3.7-0.1,4.8-0.5V19h0.6v3h2v0.5h-2v2.3
			H102.2z M98.9,28.9c-0.5-0.3-1-0.8-1.2-1.3c-0.1-0.1-0.1-0.3-0.2-0.5h-0.1c0,0.2-0.1,0.4-0.2,0.5c-0.3,0.7-0.9,1.4-1.9,2l-0.4-0.4
			c1.9-1.1,2.2-2.6,2.2-3.4v-0.4h0.6v0.4c0,0.9,0.3,2,1.6,2.7C99.2,28.6,99,28.8,98.9,28.9z M99,29.2c1.7-1.1,2.1-2.6,2.1-3.5v-0.4
			h0.6v0.4c0,1,0.4,2.4,2.1,3.4l-0.4,0.4c-0.9-0.6-1.5-1.3-1.8-1.9c-0.1-0.2-0.1-0.3-0.1-0.5h-0.1c0,0.2-0.1,0.3-0.2,0.5
			c-0.3,0.7-0.9,1.4-1.8,2L99,29.2z"/>
		<path class="st1" d="M105.1,24.8v-0.5h10v0.5H105.1z M110,20.7c0,0.2-0.2,0.4-0.4,0.7c-0.5,0.6-1.7,1.3-3.4,1.7l-0.3-0.4
			c2.8-0.6,3.8-1.9,3.8-2.9v-0.3h0.6v0.3c0,1,1,2.2,3.8,2.7l-0.3,0.5c-1.7-0.3-2.8-0.9-3.4-1.5c-0.3-0.3-0.4-0.5-0.4-0.7H110z
			 M106.4,29.4v-3.8h0.6V27h6.2v-1.4h0.6v3.8H106.4z M113.1,27.5H107v1.4h6.2V27.5z"/>
		<path class="st1" d="M117.2,19.8v6.5h1c2.2,0,4.4-0.1,5.9-0.6V19h0.6v10h-0.6v-2.8c-1.5,0.5-3.5,0.6-5.9,0.6h-1.6v-7H117.2z"/>
		<path class="st1" d="M134.4,29.1v-2.7c-1.5,0.4-3.5,0.6-5.9,0.6H127v-7.1h4.7v0.5h-4.1v6.1h0.9c2.2,0,4.4-0.1,5.9-0.6V19h0.6v4.1
			h2v0.5h-2v5.4H134.4z"/>
		<path class="st1" d="M138.3,28.4h-1v-1h1V28.4z"/>
		<path class="st1" d="M145.2,19.8c1.7,0,2.7,1.5,2.7,3.6c0,2.1-0.9,3.6-2.7,3.6c-1.8,0-2.7-1.5-2.7-3.6
			C142.5,21.2,143.5,19.8,145.2,19.8z M145.2,26.5c1.5,0,2.2-1.3,2.2-3.1c0-1.9-0.8-3.1-2.2-3.1c-1.4,0-2.2,1.3-2.2,3.1
			C143.1,25.2,143.8,26.5,145.2,26.5z M148.4,21.5h2.1V19h0.6v10h-0.6v-3.9h-2.1v-0.5h2.1V22h-2.1V21.5z"/>
		<path class="st1" d="M152.9,21.4v-0.5h5.3v0.5H152.9z M155.6,22.2c1.4,0,2.3,0.6,2.3,1.6c0,1-0.8,1.6-2.3,1.6
			c-1.4,0-2.2-0.6-2.2-1.6C153.3,22.8,154.1,22.2,155.6,22.2z M155.6,24.8c0.9,0,1.7-0.3,1.7-1.1c0-0.8-0.8-1.1-1.7-1.1
			c-0.9,0-1.7,0.3-1.7,1.1C153.9,24.5,154.7,24.8,155.6,24.8z M157.2,19.9c-1.2,0-2.3,0.1-3.3-0.3l0.1-0.5c1.1,0.5,2.2,0.3,3.2,0.3
			V19.9z M158.1,26.1c2.4,0,3.7,0.7,3.7,1.7s-1.2,1.7-3.7,1.7c-2.4,0-3.7-0.7-3.7-1.7S155.7,26.1,158.1,26.1z M158.1,28.9
			c2,0,3-0.5,3-1.2s-1.1-1.1-3-1.1c-2,0-3,0.4-3,1.1S156.2,28.9,158.1,28.9z M159,25.3v-6.2h0.6V22h1.5V19h0.6v6.8h-0.6v-3.3h-1.5
			v2.9H159z"/>
		<path class="st1" d="M163.3,24.3v-0.5h10v0.5H163.3z M168.3,19.3c2.6,0,3.8,0.6,3.8,1.7c0,1.1-1.3,1.7-3.8,1.7
			c-2.6,0-3.9-0.6-3.9-1.7C164.4,19.9,165.7,19.3,168.3,19.3z M164.6,29.4v-2.3h6.8v-1.2h-6.8v-0.5h7.4v2.3h-6.8v1.3h7v0.5H164.6z
			 M168.3,22.2c1.9,0,3.2-0.3,3.2-1.2c0-0.9-1.4-1.2-3.2-1.2c-1.9,0-3.2,0.3-3.2,1.2C165.1,21.9,166.4,22.2,168.3,22.2z"/>
		<path class="st1" d="M184.4,26.7c-0.8,0.2-1.9,0.4-3.8,0.4v-0.2c-0.8,0.1-1.9,0.2-2.9,0.2v-7.2h2.3v0.5h-1.7v6.2
			c0.5,0,1.6,0,2.3-0.2v-6.5h3v0.5h-2.4v6.2c0.9,0,2-0.1,3-0.4L184.4,26.7z M183.2,22.9h2.2V19h0.6v10h-0.6v-5.6h-2.2V22.9z"/>
		<path class="st1" d="M195.9,27.1v-2.4c-1.1,0.3-2.7,0.4-4.8,0.4h-2.6v-5.6h0.6v5.1h2c2.1,0,3.6-0.1,4.8-0.4V19h0.6v3.5h2V23h-2
			v4.1H195.9z M190.2,26.4v2.4h6.6v0.5h-7.2v-2.9H190.2z"/>
		<path class="st1" d="M205,24.1c0.6-1.3,0.8-2.7,0.8-4h-4.4v-0.5h5c0,1.7-0.3,3.3-0.9,4.7L205,24.1z M203.3,29.4V27h6.4v-1.3h-6.4
			v-0.5h7v2.4H204v1.4h6.8v0.5H203.3z M209.8,24.4V19h0.6v5.4H209.8z"/>
		<path class="st1" d="M214.7,19.8c1.5,0,2.3,1.3,2.3,3.3h1.6v-4h0.6v9.8h-0.6v-5.3H217c-0.1,2-0.8,3.3-2.3,3.3
			c-1.5,0-2.3-1.4-2.3-3.6C212.3,21.2,213.2,19.8,214.7,19.8z M214.7,26.4c1.3,0,1.8-1.2,1.8-3.1c0-1.9-0.6-3.1-1.8-3.1
			c-1.2,0-1.7,1.2-1.7,3.1C212.9,25.2,213.4,26.4,214.7,26.4z M220.8,19h0.6v10h-0.6V19z"/>
		<path class="st1" d="M226.8,24.9v-5.2h4.8v5.2H226.8z M231,20.2h-3.6v4.2h3.6V20.2z M228.6,26.4v2.4h6.6v0.5h-7.2v-2.9H228.6z
			 M234.2,27.1V19h0.6v3.5h2v0.5h-2v4H234.2z"/>
		<path class="st1" d="M245.4,27.1v-2.4c-1.1,0.3-2.7,0.4-4.8,0.4H238v-5.6h0.6v5.1h2c2.1,0,3.6-0.1,4.8-0.4V19h0.6v3.5h2V23h-2v4.1
			H245.4z M239.7,26.4v2.4h6.6v0.5h-7.2v-2.9H239.7z"/>
	</g>
	<g class="st0">
		<path class="st1" d="M5,47.7V44H0.5v-0.5h9.7V44H5.6v3.6H5z M5.3,39.5c0,0.2-0.2,0.5-0.3,0.7c-0.6,0.7-1.6,1.3-3.5,1.8l-0.3-0.5
			C4.1,40.8,5,39.6,5,38.4V38h0.6v0.4c0,1.2,1,2.4,3.8,2.9l-0.3,0.5c-1.8-0.3-2.9-1-3.4-1.6c-0.2-0.3-0.3-0.5-0.4-0.7H5.3z"/>
		<path class="st1" d="M19.3,43v-0.9c-1.2,0.3-2.7,0.5-5,0.5h-2.5V38h5.3v0.5h-4.7V42h1.9c2.2,0,3.8-0.1,5-0.5v-4h0.6v2.8h2v0.5h-2
			V43H19.3z M12.9,47.9v-2.4h6.3v-1.3h-6.3v-0.5h7V46h-6.3v1.4h6.7v0.5H12.9z"/>
		<path class="st1" d="M30.2,47.6v-2.2c-1.4,0.3-3.1,0.4-5.1,0.4h-2.9v-0.5h2.6v-3.4h0.6v3.4c1.7,0,3.5-0.1,4.9-0.4v-7.3h0.6v4.1
			h2.1v0.5h-2.1v5.4H30.2z M27.3,43.4c0.3-1.7,0.4-3.3,0.4-4.6h-4.7v-0.5h5.3v0.3c0,0.9,0,2.9-0.5,5L27.3,43.4z"/>
		<path class="st1" d="M41,38.1c2.5,0,3.8,1.1,3.8,2.7c0,1.5-1.2,2.6-3.5,2.7v2.5H46v0.5h-9.8v-0.5h4.6v-2.5
			c-2.3-0.1-3.5-1.2-3.5-2.7C37.2,39.3,38.5,38.1,41,38.1z M41,43c2.1,0,3.2-0.9,3.2-2.2c0-1.3-1.1-2.2-3.2-2.2
			c-2.1,0-3.2,0.9-3.2,2.2C37.9,42.1,38.9,43,41,43z"/>
		<path class="st1" d="M51.7,41.7v-2.9h-4.2v-0.5h4.8v3.9h-4.2v3h1c2.2,0,4.4-0.1,5.9-0.7v-7h0.6v10H55v-2.5
			c-1.5,0.5-3.5,0.6-5.9,0.6h-1.6v-4H51.7z"/>
		<path class="st1" d="M57.6,48H57c0.3-0.3,0.6-0.8,0.6-1.1h-0.4v-1h1c0,0.2,0,0.6,0,1C58.1,47.3,57.9,47.7,57.6,48z"/>
		<path class="st1" d="M66.9,38.1c2.5,0,3.8,1.1,3.8,2.7c0,1.5-1.2,2.6-3.5,2.7v2.5h4.6v0.5H62v-0.5h4.6v-2.5
			c-2.3-0.1-3.5-1.2-3.5-2.7C63.1,39.3,64.4,38.1,66.9,38.1z M66.9,43c2.1,0,3.2-0.9,3.2-2.2c0-1.3-1.1-2.2-3.2-2.2
			c-2.1,0-3.2,0.9-3.2,2.2C63.7,42.1,64.8,43,66.9,43z"/>
		<path class="st1" d="M76.7,40.9v-2.3h-3.3v-0.5h3.9v3.3H74v2.2c1.6,0,2.8-0.1,3.9-0.3l0.1,0.5c-1,0.2-2.4,0.3-4.1,0.3h-0.5v-3.2
			H76.7z M75.3,45.2v2H82v0.5h-7.3v-2.5H75.3z M77.7,40.8h1.5v-3.2h0.6v7.9h-0.6v-4.2h-1.5V40.8z M81.2,45.7v-8.2h0.6v8.2H81.2z"/>
		<path class="st1" d="M86.7,41.4c0,0.2-0.1,0.4-0.3,0.9c-0.3,0.8-1.1,2-2.8,3.4l-0.4-0.4c2.2-1.6,3.3-3.5,3.3-5.7v-0.8h-2.9v-0.5
			h6.2v0.5H87v0.8c0,2.2,1.3,4.2,3.1,5.5l-0.4,0.4c-1.4-1.1-2.4-2.5-2.6-3.2c-0.1-0.3-0.3-0.6-0.3-0.9H86.7z M91.4,47.6v-10H92v10
			H91.4z"/>
		<path class="st1" d="M93.5,43.2v-0.5h10v0.5H93.5z M102.4,41.4c-0.8,0.1-1.8,0.2-3.2,0.2h-4.4v-2.1h6.7v-1.2h-6.7v-0.5h7.3V40
			h-6.7v1.1h3.8c1.3,0,2.2,0,3.1-0.2L102.4,41.4z M94.8,47.9v-2.1h6.8v-1.1h-6.8v-0.5h7.4v2.1h-6.8v1.1h7v0.5H94.8z"/>
		<path class="st1" d="M116.9,43.8v0.5h-2.5l0.1,3.5h-0.6l-0.1-3.5h-3.3c0,1.2-0.2,2.4-0.6,3.4l-0.6-0.2c0.4-1,0.6-2.1,0.6-3.2h-2.7
			v-0.5H116.9z M112.1,37.8c2.6,0,3.8,0.9,3.8,2.2c0,1.2-1.3,2.2-3.8,2.2c-2.6,0-3.8-0.9-3.8-2.2C108.2,38.8,109.5,37.8,112.1,37.8z
			 M112.1,41.7c2,0,3.2-0.6,3.2-1.7c0-1.1-1.2-1.7-3.2-1.7c-2,0-3.2,0.6-3.2,1.7C108.8,41.1,110,41.7,112.1,41.7z"/>
		<path class="st1" d="M125.9,45.6v-2.4c-1.1,0.3-2.7,0.4-4.8,0.4h-2.6V38h0.6v5.1h2c2.1,0,3.6-0.1,4.8-0.4v-5.2h0.6V41h2v0.5h-2
			v4.1H125.9z M120.3,44.9v2.4h6.6v0.5h-7.2v-2.9H120.3z"/>
		<path class="st1" d="M128.8,40.4v-0.5h6.8v0.5H128.8z M132.2,41.6c1.6,0,2.6,0.9,2.6,2.2s-1,2.2-2.6,2.2c-1.6,0-2.6-0.9-2.6-2.2
			S130.6,41.6,132.2,41.6z M132.2,45.5c1.2,0,2-0.7,2-1.7s-0.8-1.7-2-1.7c-1.2,0-2,0.7-2,1.7S131,45.5,132.2,45.5z M134.1,38.5
			c-1.2,0-2.8,0.1-3.8-0.3l0.1-0.5c1.2,0.5,2.6,0.3,3.7,0.3V38.5z M136.9,47.6v-10h0.6v10H136.9z"/>
		<path class="st1" d="M147.9,43c-0.9,0.2-2,0.3-3.7,0.3v2.6h4.6v0.5H139v-0.5h4.6v-2.6h-3.3v-5.1h7.3v0.5h-6.7v4h3.2
			c1.6,0,2.6,0,3.8-0.3L147.9,43z"/>
		<path class="st1" d="M152.6,42.5V42h4.7v-1.1h0.6V42h4.7v0.5H152.6z M157.9,38.5c0,0.8,1.2,1.7,3.8,2l-0.2,0.5
			c-1.6-0.3-2.8-0.7-3.4-1.3c-0.2-0.2-0.3-0.4-0.4-0.5h-0.1c0,0.1-0.1,0.3-0.3,0.5c-0.6,0.6-1.8,1.1-3.5,1.4l-0.2-0.4
			c2.6-0.4,3.8-1.3,3.8-2.2h-3.5v-0.5h7.6v0.5H157.9z M153.5,45.2v-0.5h8.1v0.5H153.5z M154.4,46.9c0-0.7,0.9-1.1,3.1-1.1
			c2.2,0,3.2,0.4,3.2,1.1c0,0.7-1,1.1-3.1,1.1C155.4,48,154.4,47.6,154.4,46.9z M155,46.9c0,0.5,1,0.6,2.5,0.6
			c1.4,0,2.5-0.2,2.5-0.6c0-0.5-1.1-0.7-2.6-0.7S155,46.4,155,46.9z M159.5,43.9h-4v-0.5h4V43.9z"/>
		<path class="st1" d="M166.4,38.3c1.7,0,2.8,1.5,2.8,3.6c0,2.1-1,3.6-2.8,3.6c-1.8,0-2.8-1.5-2.8-3.6
			C163.6,39.7,164.7,38.3,166.4,38.3z M166.4,45c1.5,0,2.2-1.3,2.2-3.1c0-1.9-0.8-3.1-2.2-3.1c-1.4,0-2.2,1.3-2.2,3.1
			C164.2,43.7,164.9,45,166.4,45z M171.3,47.6v-10h0.6v4.1h2v0.5h-2v5.4H171.3z"/>
		<path class="st1" d="M174.1,40.4v-0.5h6.7v0.5H174.1z M177.5,41.6c1.6,0,2.6,0.9,2.6,2.2s-1,2.2-2.6,2.2c-1.6,0-2.6-0.9-2.6-2.2
			S175.9,41.6,177.5,41.6z M177.5,45.5c1.2,0,2-0.7,2-1.7s-0.8-1.7-2-1.7c-1.2,0-2,0.7-2,1.7S176.3,45.5,177.5,45.5z M179.4,38.5
			c-1.2,0-2.8,0.1-3.8-0.3l0.1-0.5c1.2,0.5,2.6,0.3,3.7,0.3V38.5z M182.1,47.6v-10h0.6v4.4h2v0.5h-2v5.1H182.1z"/>
		<path class="st1" d="M184.9,43.8v-0.5h10v0.5H184.9z M193.8,41.3c-1,0.2-2,0.3-3.8,0.3h-3.7v-3.7h0.6v3.2h3.1c1.6,0,2.6,0,3.8-0.3
			L193.8,41.3z M186.8,44.9v2.3h7.1v0.5h-7.7v-2.9H186.8z"/>
		<path class="st1" d="M200.3,45.6v-2.8h-4.7v-0.5h7.8c0.3-1.2,0.4-3.2,0.4-3.7h-6.9v-0.5h7.6c0,0.9-0.1,2.8-0.4,4.2h1.5v0.5h-4.6
			v2.8H200.3z M197.5,44.8v2.5h7.1v0.5h-7.7v-3H197.5z"/>
		<path class="st1" d="M206.2,46.5v-0.5h2.5v-2h0.6v2h3.6v-2h0.6v2h2.5v0.5H206.2z M211.1,38.1c2.5,0,3.8,1.1,3.8,2.6
			c0,1.6-1.3,2.6-3.8,2.6c-2.5,0-3.8-1.1-3.8-2.6C207.3,39.2,208.6,38.1,211.1,38.1z M211.1,42.9c2.1,0,3.2-0.8,3.2-2.1
			c0-1.3-1.1-2.1-3.2-2.1c-2.1,0-3.2,0.8-3.2,2.1C208,42.1,209,42.9,211.1,42.9z"/>
		<path class="st1" d="M218.8,46.9h-1v-1h1V46.9z M218.5,44.3h-0.5l-0.1-4v-2.4h0.7v2.4L218.5,44.3z"/>
	</g>
	<g class="st0">
		<path class="st1" d="M3.6,56.4c1.5,0,2.7,0.9,2.7,2.4c0,1.5-1.1,2.4-2.7,2.4c-1.5,0-2.7-0.9-2.7-2.4C0.9,57.3,2.1,56.4,3.6,56.4z
			 M3.6,60.6c1.2,0,2.1-0.8,2.1-1.9c0-1.1-0.9-1.9-2.1-1.9c-1.2,0-2.1,0.8-2.1,1.9C1.5,59.9,2.3,60.6,3.6,60.6z M2.4,66.4V64h6.3
			v-1.3H2.4v-0.5h7v2.3H3v1.4h6.7v0.5H2.4z M8.8,61.5V56h0.6v2.7h2v0.5h-2v2.3H8.8z"/>
		<path class="st1" d="M12.5,61.5v-4.9h4.1v4.9H12.5z M16,57.2h-2.8V61H16V57.2z M17.2,62.8c2.4,0,3.7,0.7,3.7,1.8
			c0,1-1.2,1.8-3.7,1.8c-2.4,0-3.7-0.7-3.7-1.8C13.6,63.6,14.8,62.8,17.2,62.8z M17.2,65.9c2,0,3-0.5,3-1.3c0-0.7-1.1-1.2-3-1.2
			c-2,0-3,0.5-3,1.2C14.2,65.4,15.2,65.9,17.2,65.9z M18,62.1v-5.9h0.6v2.6h1.7V56h0.6v6.7h-0.6v-3.5h-1.7v2.9H18z"/>
		<path class="st1" d="M25.6,56.8c1.7,0,2.8,1.5,2.8,3.6c0,2.1-1,3.6-2.8,3.6c-1.8,0-2.8-1.5-2.8-3.6C22.8,58.2,23.9,56.8,25.6,56.8
			z M25.6,63.5c1.5,0,2.2-1.3,2.2-3.1c0-1.9-0.8-3.1-2.2-3.1c-1.4,0-2.2,1.3-2.2,3.1C23.4,62.2,24.1,63.5,25.6,63.5z M30.8,66.1V56
			h0.6v10H30.8z"/>
		<path class="st1" d="M32.9,62.3v-0.5h10v0.5H32.9z M41.8,59.8c-1,0.2-2,0.3-3.8,0.3h-3.7v-3.7h0.6v3.2h3.1c1.6,0,2.6,0,3.8-0.3
			L41.8,59.8z M34.8,63.4v2.3h7.1v0.5h-7.7v-2.9H34.8z"/>
		<path class="st1" d="M46.6,65v-0.5H54c0.4-1.7,0.6-5.2,0.6-6.9h-6.8V57h7.4v0.3c0,0.9-0.1,5-0.5,7.1h1.8V65H46.6z"/>
		<path class="st1" d="M68.5,61.5v-1c-1.2,0.3-2.7,0.4-4.9,0.4H61v-4.6h0.6v4h2c2.1,0,3.7-0.1,4.8-0.5v-4h0.6v2.9h2v0.5h-2v2.1H68.5
			z M62.2,66.4V64h6.3v-1.3h-6.3v-0.5h7v2.3h-6.3v1.4h6.7v0.5H62.2z"/>
		<path class="st1" d="M77.7,60c-0.1,0.3-0.1,0.4-0.3,0.9c-0.3,0.8-0.9,1.9-2.7,3.3l-0.4-0.4c2.2-1.6,3.1-3.4,3.1-5.7v-0.8h-2.7
			v-0.5h5.8v0.5H78v0.8c0,2.2,1.1,4.2,2.9,5.5L80.5,64c-1.4-1.1-2.1-2.4-2.4-3.1C77.9,60.5,77.9,60.3,77.7,60L77.7,60z M80.1,59.7
			h2.4V56h0.6v10h-0.6v-5.9h-2.4V59.7z"/>
		<path class="st1" d="M91.2,61.1c-1.2,0.2-2.9,0.3-4.1,0.3h-1.6v-4.9h0.6v4.4h1c1,0,2.8,0,4-0.3L91.2,61.1z M93.3,63.2h-6.5v-0.5
			h7.1v3.6h-0.6V63.2z M90.5,57.4h2.8V56h0.6v5.9h-0.6v-2.1h-2.8v-0.5h2.8v-1.4h-2.8V57.4z"/>
		<path class="st1" d="M103,66.2v-3.6h-4.6V62h9.7v0.5h-4.6v3.6H103z M103.2,58c0,0.2-0.2,0.5-0.3,0.7c-0.6,0.7-1.6,1.3-3.5,1.8
			l-0.3-0.5c2.9-0.6,3.8-1.9,3.8-3.1v-0.4h0.6v0.4c0,1.2,1,2.4,3.8,2.9l-0.3,0.5c-1.8-0.3-2.9-1-3.4-1.6c-0.2-0.3-0.3-0.5-0.4-0.7
			H103.2z"/>
		<path class="st1" d="M117.2,61.5v-0.9c-1.2,0.3-2.7,0.5-5,0.5h-2.5v-4.5h5.3V57h-4.7v3.5h1.9c2.2,0,3.8-0.1,5-0.5v-4h0.6v2.8h2
			v0.5h-2v2.1H117.2z M110.9,66.4V64h6.3v-1.3h-6.3v-0.5h7v2.3h-6.3v1.4h6.7v0.5H110.9z"/>
		<path class="st1" d="M122.9,56.8c1.5,0,2.3,1.3,2.3,3.3h1.6v-4h0.6v9.8h-0.6v-5.3h-1.6c-0.1,2-0.8,3.3-2.3,3.3
			c-1.5,0-2.3-1.4-2.3-3.6C120.6,58.2,121.4,56.8,122.9,56.8z M122.9,63.4c1.3,0,1.8-1.2,1.8-3.1c0-1.9-0.6-3.1-1.8-3.1
			s-1.7,1.2-1.7,3.1C121.2,62.2,121.7,63.4,122.9,63.4z M129,56h0.6v10H129V56z"/>
		<path class="st1" d="M133.7,64.4c0.8-2.3,1.1-5.6,1.1-6.9h-3.9v-0.5h4.5c0,0.8-0.1,1.9-0.2,3h2v-3.7h0.6v9.8h-0.6v-5.5h-2.1
			c-0.2,1.4-0.5,2.8-0.9,4.1L133.7,64.4z M139.5,56h0.6v10h-0.6V56z"/>
		<path class="st1" d="M146.2,58.5h3.7v-2h0.6v4.9h-4.9v-4.9h0.6V58.5z M149.9,59h-3.7v1.9h3.7V59z M153.7,62.9v0.5h-6.3v2.4h6.6
			v0.5h-7.2v-3.4H153.7z M153.1,62.1V56h0.6V59h2v0.5h-2v2.6H153.1z"/>
		<path class="st1" d="M155.9,62.5v-0.5h10v0.5H155.9z M160.9,56.4c2.6,0,3.8,0.7,3.8,2c0,1.3-1.3,2-3.8,2c-2.6,0-3.9-0.8-3.9-2
			C157.1,57.1,158.3,56.4,160.9,56.4z M157.8,63.5v2.3h7.1v0.5h-7.7v-2.8H157.8z M160.9,59.9c1.9,0,3.2-0.5,3.2-1.5
			c0-1.1-1.4-1.5-3.2-1.5c-1.9,0-3.2,0.4-3.2,1.5C157.7,59.5,159,59.9,160.9,59.9z"/>
		<path class="st1" d="M169.6,65v-0.5h4.6v-2.6h0.6v2.6h4.6V65H169.6z M178.5,57.3h-3.6c0,1.2,0.5,2.8,4,3.8l-0.3,0.4
			c-2.5-0.7-3.2-1.6-3.6-2.1c-0.1-0.2-0.3-0.5-0.3-0.7h-0.2c0,0.2-0.2,0.5-0.3,0.7c-0.3,0.4-1.1,1.5-3.6,2.3l-0.3-0.4
			c3.5-1.1,3.9-2.8,4-4h-3.7v-0.5h7.9V57.3z"/>
		<path class="st1" d="M182.8,64.4c0.8-2.3,1.1-5.6,1.1-6.9h-4v-0.5h4.6c0,2-0.3,5-1.1,7.6L182.8,64.4z M188.6,66.1v-5.6h-1.9v5.5
			h-0.6v-9.8h0.6v3.8h1.9V56h0.6v10H188.6z"/>
		<path class="st1" d="M190.7,61.7v-0.5h10v0.5H190.7z M199.6,59.9c-0.8,0.1-1.8,0.2-3.2,0.2H192V58h6.7v-1.2H192v-0.5h7.3v2.2h-6.7
			v1.1h3.8c1.3,0,2.2,0,3.1-0.2L199.6,59.9z M192,66.4v-2.1h6.8v-1.1H192v-0.5h7.4v2.1h-6.8v1.1h7v0.5H192z"/>
		<path class="st1" d="M205.3,61.2v-4.7h4.9v4.7H205.3z M209.5,57h-3.7v3.7h3.7V57z M209.9,63.8c0,0.2-0.2,0.4-0.3,0.6
			c-0.6,0.9-1.9,1.6-3.4,2L206,66c2.7-0.8,3.7-2.2,3.7-3.2v-0.3h0.6v0.3c0,1.1,1.1,2.3,3.7,3l-0.3,0.5c-1.5-0.4-2.7-1.1-3.3-1.9
			c-0.2-0.2-0.3-0.4-0.3-0.6H209.9z M212.8,62.6V56h0.6v3.2h2v0.5h-2v2.9H212.8z"/>
		<path class="st1" d="M218.7,56.4c1.5,0,2.7,1,2.7,2.5s-1.1,2.5-2.7,2.5c-1.5,0-2.7-1-2.7-2.5S217.2,56.4,218.7,56.4z M218.7,60.8
			c1.2,0,2.1-0.8,2.1-1.9c0-1.2-0.9-1.9-2.1-1.9c-1.2,0-2.1,0.8-2.1,1.9C216.7,60,217.5,60.8,218.7,60.8z M220.7,65.9
			c-0.5-0.3-1-0.8-1.2-1.3c-0.1-0.1-0.1-0.3-0.2-0.5h-0.1c0,0.2-0.1,0.4-0.2,0.5c-0.3,0.7-0.9,1.4-1.9,2l-0.4-0.4
			c1.9-1.1,2.2-2.6,2.2-3.4v-0.3h0.6v0.3c0,0.9,0.3,2,1.6,2.7C221,65.6,220.9,65.8,220.7,65.9z M220.9,66.2c1.7-1.1,2.1-2.6,2.1-3.5
			v-0.3h0.6v0.3c0,1,0.4,2.4,2.1,3.4l-0.4,0.4c-0.9-0.6-1.5-1.3-1.8-1.9c-0.1-0.2-0.1-0.3-0.1-0.5h-0.1c0,0.2-0.1,0.3-0.2,0.5
			c-0.3,0.7-0.9,1.4-1.8,2L220.9,66.2z M224.2,61.9V56h0.6v5.9H224.2z"/>
		<path class="st1" d="M228.9,64.4c0.8-2.3,1.1-5.6,1.1-6.9h-3.9v-0.5h4.5c0,0.8-0.1,1.9-0.2,3h2v-3.7h0.6v9.8h-0.6v-5.5h-2.1
			c-0.2,1.4-0.5,2.8-0.9,4.1L228.9,64.4z M234.7,56h0.6v10h-0.6V56z"/>
	</g>
	<g class="st0">
		<path class="st1" d="M1.3,79.6V75h4.9v2.2h2.9v-2.7h0.6v6H9.1v-2.8H6.2v1.9H1.3z M5.6,75.5H2v3.5h3.7V75.5z M9.1,81.8H2.6v-0.5
			h7.1v3.5H9.1V81.8z"/>
		<path class="st1" d="M19.8,80.4v-2.7H17c-0.2,1.3-1.2,2.1-2.6,2.1c-1.5,0-2.7-1-2.7-2.5c0-1.5,1.1-2.5,2.7-2.5
			c1.5,0,2.6,0.9,2.7,2.3h2.8v-2.6h0.6v5.9H19.8z M14.3,79.3c1.2,0,2.1-0.8,2.1-1.9c0-1.2-0.9-1.9-2.1-1.9c-1.2,0-2.1,0.8-2.1,1.9
			C12.3,78.5,13.1,79.3,14.3,79.3z M16.3,84.4c-0.5-0.3-1-0.8-1.2-1.3c-0.1-0.1-0.1-0.3-0.2-0.5h-0.1c0,0.2-0.1,0.4-0.2,0.5
			c-0.3,0.7-0.9,1.4-1.9,2l-0.4-0.4c1.9-1.1,2.2-2.6,2.2-3.4V81h0.6v0.3c0,0.9,0.3,2,1.6,2.7C16.6,84.1,16.4,84.3,16.3,84.4z
			 M16.5,84.7c1.7-1.1,2.1-2.6,2.1-3.5V81h0.6v0.3c0,1,0.4,2.4,2.1,3.4L20.9,85c-0.9-0.6-1.5-1.3-1.8-1.9C19,82.9,19,82.7,19,82.6
			h-0.1c0,0.2-0.1,0.3-0.2,0.5c-0.3,0.7-0.9,1.4-1.8,2L16.5,84.7z"/>
		<path class="st1" d="M30.3,80.1v-0.8c-1.2,0.3-2.7,0.5-5,0.5h-2.5V75h5.3v0.5h-4.7v3.7h1.9c2.2,0,3.8-0.1,5-0.5v-4.2h0.6v2.9h2
			v0.5h-2v2.2H30.3z M23.9,84.8v-4.1h0.6v1.6h5.7v-1.6h0.6v4.1H23.9z M30.3,82.8h-5.7v1.5h5.7V82.8z"/>
		<path class="st1" d="M34.6,75.3v6.5h1c2.2,0,4.4-0.1,5.9-0.6v-6.7h0.6v10h-0.6v-2.8c-1.5,0.5-3.5,0.6-5.9,0.6h-1.6v-7H34.6z"/>
		<path class="st1" d="M51.8,84.6v-2.7c-1.5,0.4-3.5,0.6-5.9,0.6h-1.5v-7.1h4.7v0.5H45v6.1h0.9c2.2,0,4.4-0.1,5.9-0.6v-6.8h0.6v4.1
			h2v0.5h-2v5.4H51.8z"/>
		<path class="st1" d="M55.7,83.9h-1v-1h1V83.9z"/>
	</g>
</g>
</svg>
