<?xml version="1.0" encoding="utf-8"?>
<!-- Generator: Adobe Illustrator 27.5.0, SVG Export Plug-In . SVG Version: 6.00 Build 0)  -->
<svg version="1.1" id="Layer_1" xmlns="http://www.w3.org/2000/svg" xmlns:xlink="http://www.w3.org/1999/xlink" x="0px" y="0px"
	 viewBox="0 0 599.7 148" style="enable-background:new 0 0 599.7 148;" xml:space="preserve">
<style type="text/css">
	.st0{enable-background:new    ;}
</style>
<g class="st0">
	<path d="M1.5,37.7v-5.8h11.8v-6.5c-3-1.1-5.3-4-5.3-7.4c0-4.6,3.8-8.2,8.2-8.2c4.5,0,8.2,3.5,8.2,8.2c0,3.4-2.1,6.2-5,7.4v6.6h11.2
		v5.8H1.5z M16.2,20.3c1.5,0,2.4-1.3,2.4-2.4s-0.9-2.4-2.4-2.4c-1.4,0-2.3,1.3-2.3,2.4S14.8,20.3,16.2,20.3z"/>
	<path d="M28.6,54.2V40.2H39v-2.5H28.6v-5.8H45V46H34.7v2.4H45v5.8H28.6z M48.2,31.8h5.4V20.3h6.1v27.5h-6.1V37.7h-5.4V31.8z
		 M50.7,65.2V51h6.1v8.3h8.5v5.8H50.7z M63.8,47.8V20.3h6.1v27.5H63.8z"/>
	<path d="M82.4,37.7l7.4,6.8L86,48.6l-6.5-5.9L73,48.6l-3.8-4.2l7.4-6.7h-7.3v-5.8h20.2v5.8H82.4z M96.8,47.8V20.3h6.1v27.5H96.8z"
		/>
	<path d="M102.4,37.7v-5.8h10.5v-6.2c-3-1.1-5.3-4-5.3-7.4c0-4.6,3.8-8.2,8.2-8.2c4.5,0,8.2,3.5,8.2,8.2c0,3.4-2.1,6.2-5,7.4v6.2
		h11.4v5.8H102.4z M115.8,20.6c1.5,0,2.4-1.3,2.4-2.4s-0.9-2.4-2.4-2.4c-1.4,0-2.3,1.3-2.3,2.4S114.4,20.6,115.8,20.6z M133.6,47.8
		V20.2h6.1v11.6h8.1v5.8h-8.1v10.1H133.6z"/>
	<path d="M168,37.7l7.4,6.8l-3.8,4.1l-6.5-5.9l-6.5,5.9l-3.8-4.2l7.4-6.7h-7.3v-5.8H175v5.8H168z M182.7,47.8V20.3h6.1v11.5h8.1v5.8
		h-8.1v10.2H182.7z"/>
	<path d="M194.3,37.7v-5.8H206v-6.1h-5.8v-16h17.4v16H212v6.1h11.3v5.8H194.3z M209.1,41.3c4.5,0,8.2,3.5,8.2,8.2
		c0,4.5-3.7,7.9-8.2,7.9c-4.4,0-8.2-3.4-8.2-7.9C201,44.8,204.7,41.3,209.1,41.3z M211.9,15.3H206v5h5.9V15.3z M209.1,51.6
		c1.4,0,2.2-1.2,2.2-2.2c0-1-0.7-2.2-2.2-2.2c-1.4,0-2.2,1.2-2.2,2.2C207,50.4,207.8,51.6,209.1,51.6z"/>
	<path d="M220.7,37.7v-5.8h29v5.8H220.7z M235.2,10.1c4.5,0,8.2,3.5,8.2,8.2c0,4.5-3.7,7.9-8.2,7.9c-4.4,0-8.2-3.4-8.2-7.9
		C227,13.6,230.8,10.1,235.2,10.1z M227.1,64.8V50.4h10.2v-3h-10.2v-5.8h16.2v14.5h-10.2V59h10.2v5.8H227.1z M235.2,20.6
		c1.5,0,2.4-1.3,2.4-2.4s-0.9-2.4-2.4-2.4c-1.4,0-2.3,1.3-2.3,2.4S233.8,20.6,235.2,20.6z"/>
	<path d="M257.5,37.7v-5.8h32.8v5.8h-7.9v13.4h-6V37.7h-4.5v13.4h-6V37.7H257.5z M274.1,10.1c4.5,0,8.2,3.5,8.2,8.2
		c0,4.5-3.7,7.9-8.2,7.9c-4.4,0-8.2-3.4-8.2-7.9C265.9,13.6,269.7,10.1,274.1,10.1z M274.1,20.6c1.5,0,2.4-1.3,2.4-2.4
		s-0.9-2.4-2.4-2.4c-1.4,0-2.3,1.3-2.3,2.4S272.7,20.6,274.1,20.6z"/>
	<path d="M288.8,54.2V40.2h11.1v-2.5h-11.1v-5.8H306V46h-11.1v2.4H306v5.8H288.8z M315.2,47.8V20.3h6.1v27.5H315.2z"/>
	<path d="M322.4,47.8V25.7h5.8v6.2h6.1v-6.2h5.8v22.2H322.4z M328.2,42.2h6.1v-4.6h-6.1V42.2z M348.6,54.4c4.5,0,8.2,3.5,8.2,8.2
		c0,4.5-3.7,7.9-8.2,7.9c-4.4,0-8.2-3.4-8.2-7.9C340.4,57.9,344.2,54.4,348.6,54.4z M343.3,31.8h9.8V20.3h6.1v31.9H353v-4.4h-9.8V42
		h9.8v-4.3h-9.8V31.8z M348.6,64.7c1.4,0,2.2-1.2,2.2-2.2c0-1-0.7-2.2-2.2-2.2c-1.4,0-2.2,1.2-2.2,2.2
		C346.4,63.5,347.3,64.7,348.6,64.7z"/>
	<path d="M367.6,31.2c4.5,0,8.2,3.5,8.2,8.2c0,4.5-3.7,7.9-8.2,7.9c-4.4,0-8.2-3.4-8.2-7.9C359.4,34.7,363.2,31.2,367.6,31.2z
		 M367.6,41.8c1.5,0,2.4-1.3,2.4-2.4s-0.9-2.4-2.4-2.4c-1.4,0-2.3,1.3-2.3,2.4S366.2,41.8,367.6,41.8z M378.6,31.8h6.2V20.3h6.1
		v27.5h-6.1V37.7h-6.2V31.8z M395,47.8V20.3h6.1v27.5H395z"/>
	<path d="M413.6,36.9h-2.8v-5h7.6v-6.2h6v6.2h7.4v5h-2.7c0.2,0.8,0.4,1.7,0.4,2.6c0,4.5-3.7,7.9-8.2,7.9c-4.4,0-8.2-3.4-8.2-7.9
		C413.2,38.6,413.3,37.7,413.6,36.9z M421.4,41.8c1.5,0,2.4-1.3,2.4-2.4s-0.9-2.4-2.4-2.4c-1.4,0-2.3,1.3-2.3,2.4
		S420,41.8,421.4,41.8z M430.2,65.2V51h6.1v8.3h8.5v5.8H430.2z M438.7,47.8V20.3h6.1v11.5h8.1v5.8h-8.1v10.2H438.7z"/>
	<path d="M468.2,31.8v16h-6.1V37.7h-11.7v-5.8H468.2z M477.9,47.8V20.3h6.1v11.5h8.1v5.8H484v10.2H477.9z"/>
	<path d="M489.5,37.7v-5.8h29v5.8H489.5z M513.1,19.9v5.8h-17.6v-16h17.6v5.8h-11.5v4.3H513.1z M512,41.6v14.6h-6.1v-8.8h-9.7v-5.8
		H512z"/>
	<path d="M544.8,42v5.8h-17.6v-16h17.6v5.8h-11.5V42H544.8z M560,52.5v16.2h-16.4V52.5H560z M554.1,58.2h-4.6V63h4.6V58.2z
		 M553.9,47.8V20.3h6.1v11.5h8.1v5.8H560v10.2H553.9z"/>
	<path d="M574,31.2c4.5,0,8.2,3.5,8.2,8.2c0,4.5-3.7,7.9-8.2,7.9c-4.4,0-8.2-3.4-8.2-7.9C565.8,34.7,569.6,31.2,574,31.2z M574,41.8
		c1.5,0,2.4-1.3,2.4-2.4S575.5,37,574,37c-1.4,0-2.3,1.3-2.3,2.4S572.6,41.8,574,41.8z M593.1,47.8V20.3h6.1v11.5h8.1v5.8h-8.1v10.2
		H593.1z"/>
</g>
<g class="st0">
	<path d="M14,105.4l7.4,6.7l-3.8,4.1l-6.5-5.9l-6.5,5.9l-3.8-4.2l7.4-6.6v-7.7H14V105.4z M23.6,143.7v-14.4h10.2v-3H23.7v-5.8h16.2
		V135H29.7v2.9h10.2v5.8H23.6z M23.8,99.8h10V88.3h6.1v27.5h-6.1v-10.2h-10V99.8z"/>
	<path d="M58.1,116.4v5.8H40.9V99.8h17.2v5.8H47v2.6h11.1v5.6H47v2.6H58.1z M64.8,122.6c4.5,0,8.2,3.5,8.2,8.2
		c0,4.5-3.7,7.9-8.2,7.9c-4.4,0-8.2-3.4-8.2-7.9C56.6,126.1,60.4,122.6,64.8,122.6z M64.8,132.9c1.4,0,2.2-1.2,2.2-2.2
		c0-1-0.7-2.2-2.2-2.2c-1.4,0-2.2,1.2-2.2,2.2C62.6,131.7,63.5,132.9,64.8,132.9z M67.5,115.8V88.3h6.1v11.5h8.1v5.8h-8.1v10.2H67.5
		z"/>
	<path d="M93.2,90.9v9H107v5.8H79.2v-5.8h8v-9H93.2z M96.4,94.5V84.3H85.8v-5.8h16.7v16H96.4z M110.4,115.8V88.2h6.1v11.6h8.1v5.8
		h-8.1v10.1H110.4z"/>
	<path d="M144.4,105.4l7.4,6.7l-3.8,4.1l-6.5-5.9l-6.5,5.9l-3.8-4.2l7.4-6.6v-7.7h5.8V105.4z M154.9,120.5v14.2h-6.1v-8.3h-6.9v-5.8
		H154.9z M154.2,99.8h10V88.3h6.1v27.5h-6.1v-10.2h-10V99.8z M170.3,120.5v14.2h-6.1v-8.3h-6.9v-5.8H170.3z"/>
	<path d="M179.7,99.2c4.5,0,8.2,3.5,8.2,8.2c0,4.5-3.7,7.9-8.2,7.9c-4.4,0-8.2-3.4-8.2-7.9C171.5,102.7,175.3,99.2,179.7,99.2z
		 M179.7,109.8c1.5,0,2.4-1.3,2.4-2.4s-0.9-2.4-2.4-2.4c-1.4,0-2.3,1.3-2.3,2.4S178.3,109.8,179.7,109.8z M192.6,99.8h10.1V88.3h6.1
		v27.5h-6.1v-10.2h-10.1V99.8z"/>
	<path d="M219.1,105.7v-5.8h11.8v-6.5c-3-1.1-5.3-4-5.3-7.4c0-4.6,3.8-8.2,8.2-8.2c4.5,0,8.2,3.5,8.2,8.2c0,3.4-2.1,6.2-5,7.4v6.6
		h11.2v5.8H219.1z M233.8,88.3c1.5,0,2.4-1.3,2.4-2.4s-0.9-2.4-2.4-2.4c-1.4,0-2.3,1.3-2.3,2.4S232.4,88.3,233.8,88.3z"/>
	<path d="M258.4,105.7l7.4,6.8l-3.8,4.1l-6.5-5.9l-6.5,5.9l-3.8-4.2l7.4-6.7h-7.3v-5.8h20.2v5.8H258.4z M273.1,115.8V88.3h6.1v11.5
		h8.1v5.8h-8.1v10.2H273.1z"/>
	<path d="M284.7,105.7v-5.8h11.7v-6.1h-5.8v-16h17.4v16h-5.7v6.1h11.3v5.8H284.7z M299.5,109.3c4.5,0,8.2,3.5,8.2,8.2
		c0,4.5-3.7,7.9-8.2,7.9c-4.4,0-8.2-3.4-8.2-7.9C291.4,112.8,295.1,109.3,299.5,109.3z M302.3,83.3h-5.9v5h5.9V83.3z M299.5,119.6
		c1.4,0,2.2-1.2,2.2-2.2c0-1-0.7-2.2-2.2-2.2c-1.4,0-2.2,1.2-2.2,2.2C297.4,118.4,298.2,119.6,299.5,119.6z"/>
	<path d="M324.3,105.7l7.4,6.8l-3.8,4.1l-6.5-5.9l-6.5,5.9l-3.8-4.2l7.4-6.7H311v-5.8h7.4v-6.2h6v6.2h7.1v5.8H324.3z M339.4,120.2
		c4.5,0,8.2,3.5,8.2,8.2c0,4.5-3.7,7.9-8.2,7.9c-4.4,0-8.2-3.4-8.2-7.9C331.2,123.7,335,120.2,339.4,120.2z M335,99.8h8.5V88.3h6.1
		v27.5h-6.1v-10.2H335V99.8z M339.4,130.5c1.4,0,2.2-1.2,2.2-2.2c0-1-0.7-2.2-2.2-2.2c-1.4,0-2.2,1.2-2.2,2.2
		C337.2,129.3,338.1,130.5,339.4,130.5z"/>
	<path d="M349.5,105.7v-5.8h29v5.8H349.5z M364,78.1c4.5,0,8.2,3.5,8.2,8.2c0,4.5-3.7,7.9-8.2,7.9c-4.4,0-8.2-3.4-8.2-7.9
		C355.8,81.6,359.6,78.1,364,78.1z M355.9,132.8v-14.4h10.2v-3H356v-5.8h16.2v14.5H362v2.9h10.2v5.8H355.9z M364,88.6
		c1.5,0,2.4-1.3,2.4-2.4s-0.9-2.4-2.4-2.4c-1.4,0-2.3,1.3-2.3,2.4S362.6,88.6,364,88.6z"/>
	<path d="M404.9,99.8v16h-17.6v-16H404.9z M399.1,105.4H393v5h6.1V105.4z M405.4,133.2V119h6.1v8.3h8.5v5.8H405.4z M413.9,115.8
		V88.3h6.1v11.5h8.1v5.8H420v10.2H413.9z"/>
	<path d="M425.5,105.7v-5.8h29v5.8H425.5z M449.1,87.9v5.8h-17.6v-16h17.6v5.8h-11.5v4.3H449.1z M431.9,132.8v-14.4h10.2v-3H432
		v-5.8h16.2v14.5H438v2.9h10.2v5.8H431.9z"/>
	<path d="M461.3,99.2c4.5,0,8.2,3.5,8.2,8.2c0,4.5-3.7,7.9-8.2,7.9c-4.4,0-8.2-3.4-8.2-7.9C453.1,102.7,456.9,99.2,461.3,99.2z
		 M461.3,109.8c1.5,0,2.4-1.3,2.4-2.4s-0.9-2.4-2.4-2.4c-1.4,0-2.3,1.3-2.3,2.4S459.9,109.8,461.3,109.8z M475,127l3.7,3.4l3.8-3.4
		v-6.6h5.8v6.6l7.4,6.8l-3.8,4.1l-6.5-5.9l-6.8,6l-6.6-6l-6.5,5.9l-3.8-4.2l7.4-6.7v-6.6h5.8V127z M474.2,99.8h10.1V88.3h6.1v27.5
		h-6.1v-10.2h-10.1V99.8z"/>
	<path d="M499.7,99.2c4.5,0,8.2,3.5,8.2,8.2c0,4.5-3.7,7.9-8.2,7.9c-4.4,0-8.2-3.4-8.2-7.9C491.5,102.7,495.3,99.2,499.7,99.2z
		 M499.7,109.8c1.5,0,2.4-1.3,2.4-2.4s-0.9-2.4-2.4-2.4c-1.4,0-2.3,1.3-2.3,2.4S498.3,109.8,499.7,109.8z M512.6,99.8h10.1V88.3h6.1
		v27.5h-6.1v-10.2h-10.1V99.8z"/>
	<path d="M541.7,91.9v7.9h6.9v-7.9h6v7.9h7v5.8h-32.8v-5.8h7v-7.9H541.7z M545,74.4c4.5,0,8.2,3.5,8.2,8.2c0,4.5-3.7,7.9-8.2,7.9
		c-4.4,0-8.2-3.4-8.2-7.9C536.8,77.9,540.6,74.4,545,74.4z M545,85c1.5,0,2.4-1.3,2.4-2.4s-0.9-2.4-2.4-2.4c-1.4,0-2.3,1.3-2.3,2.4
		S543.6,85,545,85z"/>
	<path d="M562.2,103.7V79.5h6.1v24.2H562.2z M562.2,115.8v-7.5h6.1v7.5H562.2z"/>
</g>
</svg>
