<?xml version="1.0" encoding="UTF-8"?><svg id="Layer_1" xmlns="http://www.w3.org/2000/svg" viewBox="0 0 1025.96 470.38"><defs><style>.cls-1{fill:#f15740;}.cls-2{fill:#feb808;}</style></defs><path class="cls-1" d="m990.47,423.5c10.47,6.2,13.1-23.7,8.74-29.47-4.2-3.7-11.49.1-15.93.72-.44,1.31-4.36-.83-1.77-.68,11.4-2.97,20.97-1.4,13.17-16.64-1.29-3.99-3.47-4.54-6.11-4.38,3.27-1.16-2.81-9.26-4.24-7.82-.55.73-1.06,1.63-2.25,1.04-.29-.12-.81.39-.86-.15.06-.71,1.34-.04,1.49-.6-2.23-1.2,6.03-3.03-4.2-4.61-3.34-.46-5.24,1.58-7.32,3.35-.91-1.67-3.37-.37-5.01-.24-3.46-.88,6.07-1.29,6.32-3.27,6.66-.46,3.47-5.74,1.16-8.01-1.18-.32-1.18-.32-1.33-1.5-.44-1.43-2.49.67-3.23-.77-.69-.75-.39,3.49-2.7,2.64-2.12-.51-2.54,2.32-4.14,3.12.26.68.26,3-.55,1.31-.04-1.29-1.93-.12-2.03.55.58,1.39-1.94.31-1.67,1.35,2.85,1.8-.25,1.59-1.91,2.01-.41-2.39,2.53-5.71,4.19-5.52,1,.14,4.87-7.43,2.89-5.68-.86,1.41-4.72,4.12-3.36.79-.1-.76.21-1.21.95-1.4,1.67-1.28-.09,1.32,1.75.06,1.53-.19.3-1.86,1.6-2.41,5.36-2.85-4.19-2.5-5.28-4.96-3-.4-7.91-3.56-10.47-.5-2.48,1.47-5.21,32.37-5.02,19.37-1.49-.11-.9,2.21-1.31,2.67-1.11-7.12,14.19-31.15-10.54-25.09-9.95,2-17.21,3.31-12.97,15.6-1.4-1.25-1.53-3.71-2.19-5.45.23-6.66-13.89-1.68-13.63,2.08-.7,2.21-.7-1.27-1.73-.09-.81,3.13-.05-.08-2.83,1.74-1.09.63-2.72,1.86-2.73,3.02-2.05.48-4.28,3.81-5.98,6.16-2.82,3.63,5.48,7.69,1.18,5.98-6.23-3.06-5.96,3.43-9.05,6.06.3.99,1.4,1.84-.31,2.57-3.55,2.27-.2,9.04-.57,3.05.92,0,1.66.66,2.88.33-.56,1.72-4,1.85-2.01,3.4,1.09.37-.16.76.58,1.08,2.89.68-2.22,2.27-.72,4.04,3.86,6.42-.97,1.84-2.41-1.12,2-.93-.8-2.23.41-3.47-.73-2.85-3.24,2.1-3.4,3.47-3.74,9.61-3.27,15.84,8.12,16.97-9.8,1.99-9.89,4.03-7.22,13.87.79,12.67,8.14,22.52,19.96,12.12.97-.26,3.83-2.54,4.27-1.06-4.73,3.86-18.24,6.14-10.54,14.53,2.26,2.88,13.02,14.36,16.12,11.85.29-1.36,2.87-2,2.21-.27,1.15.72-1.6.8-.43,2.11,4.16,2.12,7.41-.18,9.88-4.11.36.13.88.04,1.58-.31,7.28-3.25-5.71,4.05-5.05,5.82-.02,2.42,1.46.84,1.72,2.29.14,2.03,2.16,3.66,3.99,4.27,2.11.42,1.94,1.97,3.41-.28-1.97-.78-1.04-3.45,1-3.05,2.27.13-.9,3.09-.95,4.2.46,3.26,3.17-1.23,3.46-2.77,1.75-4.14,3.18-.68,1.19,1.51-.78-1.76-1.49.02-.97,1.26-.57,1.57-1.58,1.85.61,2.61,16.34,3.88,11.86.97,12.49-12.92,1.1-2.78.46,8.17.81,9.09-.75,11.15,28.62,2.57,23.69-10.17,6.18,9.85,20.37-6.84,15.44-5.88.65-4.55-2.72-3.74,1.14-5.36,1.23-1.03,1.79,3.98.38,3.29-.83-.07-.49.87-.04,1.14,8.54-1.47,17.23-19.89,4.89-23.84,1.26.36,2.38.17,3.36-.67Zm3.63-41.33c.32.32-.28,1.05-.64,1.14-.7-.2.05-1.45.64-1.14Zm-24.53-27.7c2.58-1.26-1.77,4.35-3.07,4.97-.49-2.55,1.76-3.8,3.07-4.97Zm-9.87-8.84c2.04-.31,2.6,1.78.31,1.59-1.74,1.04-2.71-2.16-.31-1.59Zm-2.78,9.1c1.09-.2.86,1.14.18,1.43-.59-.14-1.34-1.56-.18-1.43Zm-78.36,35.37c.76,0,1.47,1.31,1.85,2.11-1.01-.03-2.34-1.39-1.85-2.11Zm-.66,6.02c.75-.88,1.5-2.62,2.64-2.74,2.17-.16-2.31,4.11-2.64,2.74Zm2.38,5.14c1.45-1.88,2.45-1.97,3.71-.83.57,1.74-2.49,1.55-3.71.83Zm2.12-8.95c.56.31,1.64-.38,1.81.52-.27,1.32-3.86-.16-1.81-.52Zm-2.27,17.3c-.33-1.3,3.64.25,4.63.06-1.69.6-3,.62-4.63-.06Zm4.1,14.75c.5,0,.65.13.63.47-.3,1.61-2.5-.71-.63-.47Zm106.45-25.21c.95.1.87,2.25,1.91,2.06,3.23-4.71,2.36.37.17.85-2.33-.21-2.14-1.08-2.08-2.91Zm3.25,21.2c-.76.6-5.09-1.48-5.27-2.2,2.83-.17,3.23.14,5.27,2.2Zm-4.8-15.55c-.04.64-.98.44-1-.11,0-.74.93-.46,1,.11Zm-2.68.5c-.13-1.63,1.84-.05,1.45.91.44,1.88-2.6,2.51-2.23.61-.14-1.03,1.11-.81.77-1.53Zm-2.41,2.98c4.25,1.97,4.35-1.34,4.67.86-4.23,2.01-3.15-.28-6.78-.52-2.02-.62-.34.4-.09,1.12-.91.43-2.11-.91-3.13-1.07-3.07-.5-5.96-.97-8.92-1.62-.34.14-.42-.47-.09-.5,2.67-1.46,10.19,2.79,9.74-1.08,2.33,2.07,3.34.13,4.59,2.81Zm-7.48,3.34c-3.23-.13-6.78-.58-8.19-3.92-1.45-.86-3.98-.64-3.88-3.06,3.31,2.83,2.29-.31,5.15,3.09,1.08.35,2.46-.37,2.82,1.22.35,2.01,3.26,1.2,4.1,2.67Zm-1.1-23.24c-1.04-.55,1.07-2.99.99-.99.13.47-.5,1.07-.99.99Zm2.03,9.71c.74-.12.99,1.21,1.44,1.67-1.42-.27-4.3-.86-1.44-1.67Zm.55,4.44c-.78.53-.87-.92-.64-1.39.82-.15.84.85.64,1.39Zm2.69-5.53c5.17,1.45-1.64,1.31-3.04-.11-.62-.94,5.15-1.23,3.04.11Zm-1.42-10.65c-1.82-.33,1.3-3.77,1.38-1.92-.18.7-.46,2.11-1.38,1.92Zm13.68-10.06c.09.62-.71.59-.63,0-.12-.66.74-.62.63,0Zm-1.72,1.71c-.51-.89-1.52-1.12-2.28-1.78,1.69-1.35,3.38.07,2.28,1.78Zm-3.27-1.2c-.48,1.39,2.65.53,2.15,2.56-1.11.62,1.26,2.68-.28,2.36-3.69-2.37-1.05-3.95-4.06-5.12.48-.87,2.34-.83,2.19.19Zm1.74,6.19c-1.04-.61-2.19-.51-2.23-2.1,1.05.03,4.24,2.8,2.23,2.1Zm-3.65.78c.38-.51,1.1.37,1.47-.35.37-.69,1.38-.24,1.61.38-.12,1.24,2.25.48,1.68,1.63-1.56,1.13-2.08-1.57-2.68-.44-.18,1.24-1.05-.1-1.56-.33.98,2.3-.33.89-.2,2.33-2.35-2.32.65-1.56-.33-3.22Zm-.4,4.19c-.01,1.46-2.85.26-2.88,1.86-.4,1.22-1.39.25-1.07-.65-.64-1.69,1-1.69,1.73-2.78,1.01-1.35,1.74.84,2.22,1.57Zm-1.42-16.99c.32.07.79,1.16.12,1.09-.43-.09-.89-1.14-.12-1.09Zm-.48,6.57c-1.23,1.13-4.02,2.72-3.17,4.63-2.88.29.61-1.79-1.01-1.58-.96.98-.82,3.15-2.49,3.23-1.04-.14-4.74,4.18-3.88,1.62.28-.61-.63-.17-.75.11-.7.94-2.35.05-1.19-.84,2.69-1.26,7.94-3.45,9.49-6.36.79.07,3.7-2.72,3-.81Zm-8.68,11.4c.01.35-.67.57-.71.16-.03-.36.64-.58.71-.16Zm5.11-15.53c-1,1.81-1.11,4.01-2.68,5.23-.51-1.32.88-4.11,2.68-5.23Zm-4.72-7.43c2.27.2-.47,1.47-1.22,1.88-2.69-1.97-1.41-2.79,1.22-1.88Zm-3.15,3.02c.02,1.57,2,7.17-.34,7.31-.05-2.36-1.27-5.08.34-7.31Zm-3.24,6.02c.39.55-.58,1.01-1.02,1.12-.74-.14.59-1.67,1.02-1.12Zm-1.27-10.72c.63-.18.88.7.12.64-.65.13-.9-.74-.12-.64Zm-.29,12.36c.5.94-.04,1.58,1.32,1.81-2.6,5.18-4.55.22-1.32-1.81Zm-2.46-9.83c3.12-.68.09,2.7-2.27,2.35-1.78-.44,1.75-1.71,2.27-2.35Zm-3.67-2.06c3.24.41-2.69,2.91-3.64,3.16-1.71-1,2.69-2.69,3.64-3.16Zm-4.71,18.61c-.69-2.4-.87.54-2.19.74-.35.1-.27.37-.13.68.66,1.61-1.83.71-1.42,1.87-.95.72-2.55,1.72-3.49,3.29-.41.11-1.27.62-1.53.91-.65.86-1.26-.31-1.96-.47-.97-.51.28-1.41.48-2.13.7.38.71,2.23,1.56,1.46,2.57-2.79,5.61-5.32,7.64-8.03,2.98-2.81-3.29.79-4.12-.32-2.01,1.38-2.3,3.99-3.84,5.52-1.24.09,1.78-4.99,2.32-5.51.74-1.72,5.45-.79,6.53-2.64,1.83-.9,3.58-2.3,5.24-3.88-.92,1.68-1.86,3.14-3.28,4.13-2.4.3.24,7.05-1.84,4.38Zm-6.9,10.75c-.63-.92,1.38-1.98,1.24-.45.55,1.02-.78,1.35-1.24.45Zm-.8-3.48c-.22.24-.46.45-.71.64.2-.27.43-.49.71-.64Zm-5.68-4.08c3.16-2.19-1.16-1.06-.21-2.09,3.84-2.39,3.62,4.5-.24,4.25.39-1.93-1.99-1.97.46-2.15Zm-.92-7.3c-.32-.29-1.74-1.88-1.01-2.19.85.43,1.91,1.3,1.01,2.19Zm4.39,12.4c-.06.76-1.24,1.6-1.2.49-.05-.75,1.03-1.29,1.2-.49Zm8.55-28.52c-.63,1.78-2.09,3.05-2.1.17-.02-1.02,1.76-.72,2.1-.17Zm-1.86-19.8c.71-.78,1.85.24,1.51,1.34-.62-.1-1.59-.68-1.51-1.34Zm.59,6.07c2.2.84-3.35,1.97-2.89,3.27.76,1.06-1.79,1.18-.45,1.87,1.01.69-1.54,1.99-1.17-.17-1.04-1.91,2.79-4.63,4.52-4.97Zm-7.46,25.54c.99-.39.53-1.08.19-1.87,1.07-.46,1.93-1.02,1.19-2.39.15-2.28-1.85-.14.4-3.6,1.25-.76,0,2.28,1.78.76.88-.38.08,2.04-.96,1.98-1.28,3.14,2.89-2.93,3.94-2.01,2.63-1.22,1.6,1.74,2.69,1.23,1.83-1.81.75.55,2.02.98-.13.5.74,1.32.76.41-.09-.91,1.65-.35,1.73.2-.17,1.74-4.15.08-5.56.02,2-2.17-3.78-.74-4.3.5-.1,2.29-.64.65-1.74,2.74,4.05-1.02-1.61,3.64-2.28,5.11,2.84.07,3.85-5.15,6.32-5.9.21,1.8-2.99,3.23-3.31,4.99.51.12,3.42.07,2.08,1.13-2.15.58-3.97,4.51-6.44,2.49-2.23-.88.19-5.53,1.5-6.77Zm-2.72-5.25c-.88,1.85.47,7.14-1.26,7.5-.72-.39.58-11.4,1.26-7.5Zm-2.01,2.45c.11.59-.53,2.62-1.16,2.55-2.93-.49.85-3.88,1.14-4.64,1.41.3-.2,1.44.02,2.09Zm-7.96,5.04c-2.15-1.17-1.51-5.19.13-6.88.05,4.96,3.37,7.1,2.09,12.27-2.02,1.49,2.15.44.64,2.36.4,5.69,1.53-2.05,2.87-2.49,3.28-1.29-1.85,15.84-4.02,1.15-2.55-.7-2.36-4.38-1.7-6.41Zm1.33,7.16c-.11.1-.2.1-.32,0,.11-.1.2-.1.32,0Zm3.04-8.93c.51-1.78,1.35,1.37.27,2.07-.55-.75-.28-1.31-.27-2.07Zm3.24-19.01c-.12.57-.64,3.29-1.23,1.9-.28-1.92-.86-6.37,1.23-1.9Zm.17,13.13c-1.02-.58-.58-2.46-.19-3.61.57,1.17.79,2.78.19,3.61Zm-.43-9.18c-.43-.57.39-1.12.71-1.56.35.83.04,1.55-.71,1.56Zm1.25-15.32c.77-.06,1.35,1.13.35,1.19-.63.12-.96-1-.35-1.19Zm-1.4.06c.93,1.22,2.26,3.1,1.21,4.5-1.11-.96-1.55-2.94-1.21-4.5Zm.26,6.52c-.11.42.07,2.1.51,1.08-.11-.37-.25-.97.29-1.05,1.05.21.18,1.46.71,2.04-2.71,3.73-2.95-9.56-1.51-2.08Zm-2.83-7.89c.89-.51.76-1.21,2.05-.76-1.57,2.95-8.76,1.66-2.05.76Zm.16,24.53c-1.43-.35-1.04,2.77-2.59,2.42-1.28.29.58.94-.63,2.14,3.13.82-2.1,1.98-.39-2.17,1.31-1.66-.87-2.93,2.32-2.89-.13-.73-1.12-.67-1.35-1.33-.11-1.65,3.07,2.22,1.82-2.63,1.67-4.99-2.88-9.67-2.8-14.11,3.28,5.39,6,13.24,3.62,18.58Zm-2.24-7.7c-.53,7.68-.9-2.01-2.3-4.54-.6-3.64,2.78,3.79,2.3,4.54Zm-2.9-13.79c.04-.49.83-.78.74-.02.03.33-.87.55-.74.02Zm-.56,19.96c.81-6.82,4.53.57-.02,1.26-.29,3.59-.74,1.03-2.4-1.07-.49-1.54,3.29,2.49,3.73-.59-.49.1-.72.75-1.31.41Zm-1.84-5.62c-.28-.75-1.09-1.09-1.06-1.87.55-.99,1.68.83,1.06,1.87Zm-2.33-15.5c.56-1.67,1.48,1.41,1.47,2.08.24.47-.58,1.02-.65.47.55-1.03-.82-1.57-.82-2.55Zm.16,27.5c-.49-.32-.6-1.09-.43-1.85.43.56,1.07,1.5.43,1.85Zm.98-31.25c1.18.04-.23,1.75-.8,1.47-2.01.07.03-1.26.8-1.47Zm-1.89,4.11c.31.93-.77,1.21-1.48,1.52-.48-1.58.66-2.27,1.48-1.52Zm-.05,14.42c-1.63-1.44-2.34-4.81-2.31-7.13,1.82,1.92,2.19,4.75,2.31,7.13Zm-1.49,4.39c.08-1.68,1-1.83,1.16-.14.26,1.01-1.2.89-1.16.14Zm-1.19-12.69c-.24.36-.25,1.05-.82,1.06-.52-.36.47-1.93.82-1.06Zm-.78,24.89c.71-.02.78,1.11.21,1.44-.41-.26-.67-1.2-.21-1.44Zm-2.76-21.26c-.02-.36-.03-.74.48-.74,2.6-.11-.14,3.12-.48.74Zm.9-3.15c0,4.81-1-.99-1.1-2.47.53-1.81,1.03,2.04,1.1,2.47Zm.16,21.05c-.24.74-.51,9.3-1.69,5.41.59-2.03-.61-1.94-.29-3.85-1.28-1.79,3.45-4.46,1.99-1.56Zm.69,26.7c.95-.35,3.84,2.2,1.67,2.2-1.24,0-3.4-1.12-1.67-2.2Zm-.02-2.84c.23-.85,1.67.62.49.55-.25-.02-.5-.15-.49-.55Zm.88-2.41c-.74-.62-1.73.34-2.68.56-.41-1.85-1.1-.73-.08-2.55-3.05-4.81,3.47.46,4.48,1.94,1.11,1.68-1.13.48-1.72.05Zm-4.19-48.67c.78-.06,1.02,1.15.88,1.96-.55-.58-1.11-1.32-.88-1.96Zm-.9,41.92c.51-.69,1.37.35,1.63.97-.71-.08-1.79-.25-1.63-.97Zm2.59,10.16c-.22-1.69-1.56-1.45-2.6-1.69-5.87-1.63,5.99-1.15,2.6,1.69Zm-3.29,11.02c.79.27,3.09,1.34,2.73.09-.94-1.73,3.55-1.34,4.34-3.02,1.47-.87-.22,2.93-.32,3.53-1.42,2.68-5.43,1.27-6.75-.59Zm3.12,6.41c-.47.82-1.29,1.78-2.24.59.74-.28,1.59-1.38,2.24-.59Zm-14.56,9.66c.43-.72,1.07-1.08,1.16-1.88,3.16-1.65,1.88,2.08-1.16,1.88Zm2.87-4.19q.39-.16.8-.03-.39.16-.8.03Zm-1.97,10.46c-.39,1.08-.73,1.71-.76,2.84-1.54,1.62-.75-3.38.76-2.84Zm-.2-2.23c2.23-2.13,10.23-8.72,5.61-1.52-1.08-.05-1.17,2.18-2.2,1.22-.78-.6-2.12.62-3.41.29Zm2.25-9.94c-.18-1.08-.63-.93-1.5-.69-1.39-.19.69-1.03-.41-1.65-1.14-.76-2.83,1.42-3.62,2.04-.21,1.47-2.24-.04-2.65-.53,2.8-.33,5.6-2.53,7.31-4.91.52,2.56,3.07-.21,3.76,1.69.04.41,1.7.24.56,1.21-1.99-.08-1.87,4.73-3.44,2.85Zm-22.91-21.34c1.48-.39,2.41-.75,3.55-1.77,2.71-.83,4.79,1.56,2.5,3.61-.39.57-1.24-.61-.81-1.09.64-1.19-4.01.4-5.24-.75Zm.71,14.36c-.24-.9,1.18-.82,1.59-1.44.32.99-.82,2.01-1.59,1.44Zm29.29-14.14c-1.01-.26-2.3-1.06-3.6-.93-4.03-.71,7.27-1.56,4.49.69,5.23,4.81-4.8.55-6.09,2.6-1.19,1.33-2.71-.21-4.02.7-.25,2.93-1,1.17-3.25,1.99-.94.99-2.04-1.11-2.51-.09-2.05,1.31,4.55.27,2.88,1.36-1.25.38-2.9-.52-3.47.87-2.66.06-6.32-1.69-9.43-1.57,9.29-.07,15.94-4.53,24.99-5.62Zm-17.64-3.14c-1.04.92-3.58.62-4.95.25,1.07-.34,4.98-2.38,4.95-.25Zm-2.69-2.85c.37.66,3.3,1.07,1.39,1.43-1.51-.33-3.58.71-1.39-1.43Zm17.03-8.29c-.43-1.47,3.67.68,3.15,1.98-1.12-.58-2.04-1.24-3.15-1.98Zm.48,12.1c-.64.18-1.68-.49-.72-.89,1.3-.39,2.99.98.72.89Zm3.89-9.18c-.15.35-.83.42-1.16.44-2.08-.16.93-1.5,1.16-.44Zm-2.53-16.52c.81,1.43,1.81,2.59,2.06,4.14-.87-1.21-2.35-2.59-2.06-4.14Zm.8,9.85c-.74.03-4.21-5.34-2.34-4.12.81,1.24,2.57,2.55,2.34,4.12Zm-2.41,5.94c-.03,1.91-2.64-.7-.98-.93.44.04.97.55.98.93Zm-1.44,4.24c.27-.02.74.32.7.53-.27.7-1.52-.16-.7-.53Zm-8.34,21.78c-1.88.12-.36-.33-1.81-1.35,1.22-1.78,5.47,1.67,1.81,1.35Zm4.02-2.68c.64.47,1.22-1.02,1.48-.16-.33.88-2.04,1.45-1.48.16Zm3.13-1.32c-2.32.79-6.35-1.35-4.53,2.84-7.33-7.44-2.59-3.89,4.17-4.22,1.33.43,2.08-.81,3.3-.84-.24-.9-1.81.17-1.95-.89,0-.46.47-.28.75-.33,1.53-.38-1.58-.77-2.15-.59-11.22.73,5.21-1.51,7.99-.74-5.43.75-1.67,3.13-4.33,5.34-1.25,1.06-2.19-1.19-3.26-.58Zm6.57,6c-1.42,1.42-2.53-1.17-4.05-1.16,1.36-.85,7.22-1.03,4.05,1.16Zm.89-36.7c-.56-.38-.64-.84-.51-1.51.64.4.59.9.51,1.51Zm-.87-14.46c.96-.15.98,1.44.78,2.17-.88-.29-1.42-1.65-.78-2.17Zm.15,3.03c.12.68-.62,2.31-.71.8-.16-.44.44-1.69.71-.8Zm-1.74-6.33c-1.34.05-2.35-.42-3.4-.93.94-.59,2.63-.17,3.4.93Zm-4.52.54c2.18,1.6,5.09,3.44,4.47,6.46-1.56-.58-1.23-3.26-2.65-4.13-.41-.49-2.91-1.95-1.82-2.34Zm-.73,10.58c.81.36,2.81,3.79,2.02,4.28-1.13-.54-2.22-2.73-2.02-4.28Zm-2.13,11.3c-.55.3-1.12-.38-1.55-.74.75-.2,1.66.06,1.55.74Zm-1.28-29.46c.33.91.86,1.97-.24,2.58-1.4-1.82.08-5.88.24-2.58Zm-.73,41.96c.44-.41,1.94-1.66,2.1-.59-2.6,3.08-3.13.74-5.58,5.03-.7.09-1.41.55-2.02.6-.96-1.06-2.3,1.78-2.44.37.16-1.75,5.01-1.17,4.22-2.53-.77-.64,1.53-.77.98-2.01.4-1.71,2.41.07,2.74-.87Zm-2.19-15.13c.74-.03.58,1.06,0,.95-.45-.06-.44-.97,0-.95Zm-.76,6.72c1.24-1.49-1.48-1.95,1.25-4.93,1.69,3.87,1.07,1.64.68,5.22,1,3.42-6.73.33-4.62-.79-.16-.33-.51-.24-.62-.5,1.6-1.02,1.67,1.76,3.3,1Zm-3.3-7.75c-.89.05-2.74-.68-3.01-1.7,1.04-.89,2.39.72,3.01,1.7Zm-4.34,11.54c.23,1.07,1.44.39,1.97,1.11.07.94,2,1.08,2.6.63-1.68-1.17-2.01-2.21.53-1.45-3.84-2.84,1.02-.94,2.54.3-5.5-.39.05.69,1.24,2.58-2.36-1.17-4.49.19-6.82-.76-2.59-.72-4.73-2.65-4.7.62-1.12-.22-4.79-5.11-1.64-3.94,2.41.43,1.67-1.02,4.29.92Zm-.78-14.93c-.82.22-1.2.06-1.94-.86,1.24.21,1.29.23,1.94.86Zm-2.21-2.26c-.85.08-2.1,0-2.46-.63.62-.82,1.67-.39,2.46.63Zm-2.65,7.75c.93.09.23,1.22.72,1.81-1.45-.18-1.68-1.42-.72-1.81Zm-4.45,5.95c1.35.37.48,2.64,2.1,2.87.88.2.25,1.21-.41.81-1.21-.58-1.89-2.78-1.69-3.67Zm.84,40.94c-1.04,2.85-1.71-3.31.9-2.34,1.28-.36,1.74.95,1.88,1.95-.71.28-3.07-3.3-2.78.39Zm3.13-5.52c-.71.09-.93-1.04-.19-1.01.51.02.86.98.19,1.01Zm1.3-1.74c.29.02.6.02.55.44-2.75,2.18-2.23-6.17.02-1.65.38.78-1.96.66-.57,1.21Zm3.92-2.38c-2.37.25-.91-1.51-5.18-.77-.81-.1-.64,1.03-1.3,1.02-1.3-.83.63-1.19,1.05-1.86,1.35-.42,7.8-.26,4.1-.97-1.52-.49.75-.94,1.61-.72-3.6-1.92,1.52-.7-1.14-2.07-.66-1.26-1.44-.9-2.61-.96-2.11-.93,2.41-1.16,2.94-1.62,1.55-1,.27,1.39,1.41,1.27,2.72.19,2.11,2.43.21,3.44,1.73.99,8.5-2.63,7.82-.11-1.99.95-7.43.37-6.68,3.3-.76.16-1.41-.75-2.23.02Zm-2.83,25.67c-.62-.15-.15-1.29.33-1.36.81.08.17,1.27-.33,1.36Zm3.74-3.76c1.26.83-.69-1.75,1.61-.51-.69-3.73,2.44.52-.12,1.42-.96,1.19-1.76-.51-2.8-.48-1.22-.54.97-1.69,1.31-.43Zm1.38,2.14c2.1,1.99-1.67.43-2.46-.2.86-.44,1.65.07,2.46.2Zm-.39,6.35c-.79.19-.95-.67-.71-1.27.86-.36,3.38,1.1.71,1.27Zm-1.12-4.79c.11-2,3.14,1.36,3.28,2.5-2.24.83-2.52-.88-3.28-2.5Zm4.45-3.43c-.03-.71.86-.26.91.13.05.73-.86.32-.91-.13Zm-.96-2.42c-.66-.35-2.01-1.15-1.81-1.92.39-.36.44-1.13,1.33-.91,1.45-2.34,1.11-3.02,2.39.31-.39.63-1.18,2.92-1.91,2.52Zm-2.59-10.7c-.61-2.05,4.41-1.73,5.6-1.28-5.97,3.68-.82-1-5.6,1.28Zm4.44-3.06c-.43-.88,1.01-1.17,1.56-.62-.47.32-1.05,1.27-1.56.62Zm3.26,13.19c0,.54-.49,1.31-1,1.43-1.42-.82.69-4.25,1-1.43Zm.18,9.34c-.29.05-.72-.19-.69-.55.37-.29.66.23.69.55Zm.14,1.77c.79,5.41-2.48,3.66-1.45.8.51-.35.96-.48.99-1.19.35-1.94,2.93.38.46.4Zm1.94-.03c-.23-.73.29-7.53,1.13-4.62-.23,1.57-.17,3.17-1.13,4.62Zm2.66-14.41c.42.34-.42,1.79.5,1.11.23-.61,1.34-1.28,1.38-.21-4.58,6.89-8.99,7.42-1.88-.9Zm6.67-2.06c-1.48,4.79-3.77,9.84-7.19,13.32,1.5-4.27,3.94-9.58,7.19-13.32Zm2.6-8.78c3.32-3.52-2.42,6.46-3.58,6.61-.77-4.2,2.15-3.79,3.58-6.61Zm-3.18,26.23c-1.93.45,2.28,4.29-1.23,4.43-1.88-.91-1.83,2.61-3.43,1.69.92-1.88,1.51-5.56,4.39-2.82-.56-1.36-4.81-10.45-2.11-8.52-.74,2.23,6.13,4.8,2.37,5.23Zm1.88-9.23c-.58.92-.58,5.09-2.11,3.71.04-1.14,2.29-2.89-.24-3.3.51-5.44,6.61-5.21,2.35-.41Zm3.05-14.52c.6.43.23,2.33-.27,3.06-2.34,1.73-1.24-2.87.27-3.06Zm2.04,21.75c-1.18.39-.9,2.25-2.23,2.4-.22-.06-.39-.14-.51-.24.29-.66.56-1.33.82-2.01.9-.68,2.02-1.03,1.92-.15Zm-2.28-11.65c.19-2.14.75.25.99.97.07,1.51-1.27-.41-.99-.97Zm-.76-2.79c.8-1.82,2.5-3.68,2.35-6.05.48-.63.36.83,1.79,1.38-.87,1.09-2.93,6.07-4.14,4.67Zm3.57-11.07c.41,1.01-.42,3.31-1.01,4.05-.22-.76-.04-4.97,1.01-4.05Zm1.84,10.64c-.27.32-.35.6.1.82,2.11-1.56,5.29-2.88,5.3-5.86,3.03-11.32,1.34.75-.17,4.49-1.7-.33-4.33,2.41-6.77,6.03.35-1.61.59-2.99.74-3.96-.74-1.93-1.49-4.44.8-1.52Zm.91-3.22c-.63-.93.92-1.39,1.21-1.92-.43.93-.76,1.88-.85,2.89.46.82-.7,1.6-1.23,2.21.29-2.44,1.79-2.19.87-3.18Zm1.05-2.42c-.35-.34-.06-.51.18-.61.55-.4,1.02-.93,1.43-1.53-.5.86-1,1.72-1.42,2.59.06-.14.01-.29-.19-.45Zm.21-9.41c.55-.05,1,.71,1.04,1.28-.77,3.02-2.63-.57-1.04-1.28Zm4.48-1.39c.39-.11.94.36.71,1.01,0,.65-.28.87-.56.8.2-.77.07-1.34-.15-1.81Zm.89,5.63c-1.13-1.9-1.38-2.6-2.45,0-.21.56-.46,1.11-.75,1.65.43-.95.73-1.94.89-2.82.63-.75,1.05-1.38,1.3-1.94,1.43.19,2.96-1.29,1.01,3.1Zm-6.01,16.29c4.25-6.68.56,1.73-.68,4.46-.22,1.72,4.05-.55,2.33,1.19.22.28,1.12.3.57.69-.74.12-.55,1.08-1.18,1.2-.87-.52-.74-1.64-1.87-.5-4.14,1.44,1.05-4.9.83-7.04Zm-2.35,12.46c-2.23-.21,2.06-3.61,2.8-4.05,1.48.55-1.7,4.1-2.8,4.05Zm1.09,9.92c1.33-2.9-1.22-2.91.57-3.87-.02,2.3,2.29.8,1.76-.15-.48-.59-.42-.63.29-.92,1.69-.15.34-1.23-.53-1.55,6.27-5.56-.98,9.34-2.09,6.49Zm5.49-1.72c-.8.83-1.22-.44-.83-1.13.54.09,1.14.65.83,1.13Zm-.61-8.22c-.7.08.61-3.01.99-2.03.99,1.82.67,1.88-.99,2.03Zm6.63,8.71c-.14,1.05-2.72,5.32-3.27,3.22,1.11-1.65,2.73-2.64.9-4.37.43-.02,1.92.16.99-.6-1.67-1.38,3.09-2.31,1.38,1.75Zm-.13-17.57c-.94-1.34-.29.3-.8.79-.11,1.77-.71,2.67-1.21.33-.57.29-.75,1.37-1.42,1.33,2.05-5.48.36-3.82-1.47.41-.19,1.71-4.07,1.19-2.14.04.56-.22.95-.36.78-1.14.53-1.19,2.86-1.62,2.03-3.49.55-.62-.51-3.1-1.13-2.03-2.03,4.82-1.02-1.17.17-2.48,2.01-3.66-4.1.41-1.21-3.36,0,0,0,0,0,0,8.4-11.26,6.26-.38,6.64,6.76,1.17,1.25.2,6.41-.24,2.84Zm4.01,12.97c-.5-1.18-.65-2.37-.03-3.56.64,1.2.49,2.38.03,3.56Zm1.75,10.6c-.66-.96,1.44-2.68,1.43-1.09.21.73-.93,2.05-1.43,1.09Zm-.05-4.64c-.53-1.56-.45-8.71,1.62-7.45,0-1.91-1.36-3.92-.37-5.75-1.93-.05-1.83-2.73-.1-.53-.16-2.13-.92-3.75-2.25-5.22.19-1.83-1.45-4.2-1.38-.91-.56,6.5-1.6-13.8-1.85-14.56-1.22-3.36-5.79,1.87-4.18-4.6-.22-1.52,1.51-1.5,1.83-2.64,1.68-.41.33-3.52-.91-2.21-.76.48-.24-2.92.5-3.24-1.39-.07-1.9,1.1-3.22.59-.56.07-.89.42-1.1.89-.18-.41-.16-.81.42-1.33,1.57-.44-.66-1.58,1.21-2.35-1.04-1.24-1.86.12-2.53.96-2.14.86-2.6.22-4.94,2.63,2.01,1.18-.71,1.36-.34,2.86.76,1.5-2.63,4.19-2.67,2.28,1.39-1.46,1.48-5.24-.55-1.54-.03.63-.16.81-.72.62-2.98.42-5.48,3.74-8.74,3.61,1-1.76,3.61-1.59,4.54-3.32-2.78,1.01-1.76-1.06.31-1.15,1.32-.77,2.8.98,3.88-.28,2.69-2.58,3.54-3.74,5.58-6.6.96-.45-.38-.62-.4-1.14,4.01-2.19.06-.9.96-2.82,1.2-1.34-3.08-3.15-4.09-2.92-4.79-1.89,6.21.16,5.74-3.29-.27-.5-4.02-.47-2.54-1.52,1.86.23,1.03-1.7,2.31-2.19.27-2.44-4.48-3.9-5.4-6.29,2.29,1.36,4.11,3.25,6.69,4.25,8.38,3.03,1.52-7.11.99-10.58,1.64,2.3,2.85,5.55,4.16,8.3,4.19,2.62,1.63-3.15,3.22-1.92,1.89,5.77,2.85-13.25,3.95-10.61-.57,4.04-1.46,7.93-.23,11.59-1.1,3.28-.16,2.35,2.52,2.14,1.1.92,1.71.63,2.18-.09.33.16-.5.67-.34,1.76-.23,1.07-2.58-.57-1.77,1.7,3.85.61,2.56-2.31,4.21-2.9,1.43,1.06-1.17,2.34-.82,3.41,2.79,1.11,2.88-2.51,3.57-2.07,1.18.61.02-1.97,3.24-2.72.02-3.63,3.63-4.21,1.51-6.76,8.29-4.94,1.67-5.93,5.03-7.97.97,2.08.2,4.07.76,5.76-.49,1.14.9-.5,1.01,0,.39.28.17.86-.23,1.03-6.21,8.94,11.87-10.5,13.82-9.48-2.97,4.63-10.58,8.46-13.21,12.76.87.69,3.2-2.07,1.92,1.19,1.18,0,1.6-1.35,2.48-1.34,1.09,1.74-2.34,2.22,3.12,1.5.27.27-.5.71.2.74,6.76,1.15-2.16.99-4.29,2.97-1.85,1.16-2.3-1.44-3.81-1.66-.91.04.02.67-.35,1.09-1.1.51-1.7-.08-.61-.85-12.25,6.07,9.42.71,13.01,3.19-1.19.52-2.46,1.61-3.85,1.67-.59-.18-3.39-.46-1.82.42,1.59.47-1.1.79-.91,1.9-.65.89-.54,1.4.62,1.54,1.1.69-2.25,1.07-1.23,1.86,1.8.58,4.16-.24,5.38-.67.52-1.5,2.06.8,2.46,1.36-1.64-.37-3.43-.07-5.19.04-4.58.26-1.86,3.37-5.08-.01-2.43.59-.99-.78-2.7-.87-.48,2.86-2.09.68-3.8,1.04-.36.46-1.07.63-1.38,1.02-.76,2.04,2.73-.23.91,1.46-1.61.55,2.03,1.87,1.77.56-.48-1.15.74-.66,1.04,0,.13.34,1.22.52.19,1.08.4,1.15,6.97,5.34,6.4,1.88-.21-1.97,1.9,1.52,1.21,2.49-.66,1.51,1.28,1.03,1.61,1.94.12,1.28,1.63.62,2.22,1.47-2.94,1.16,4.83,4.29,5.34,5.39-3.75-.97-6.6-2.94-10.66-2.07-2.39.23-1.99,2.44.28,2.05,1.23-.98,6.77,1.59,3.7,1.45-3.84.02-6.58,1.72-10.15,2.02,1.52-1.59-3.38.76-2.33-1.21,1.77-1,6.18.23,6.35-2.44-1.83-1.7.06-1.09.36-2.41-2.98.17-7-1.35-10.32-1.09-.27,1.33,3.67,1.13,2.62,2.26-2.93,0-.43.31-1.7,1.78,3.06,4.83-3.43-2.84-3.41.08.76.85.65,2.26,1.86,2.85.72.91-.74,1.33-1.03.31-.48-2.28-3.13-1.77-3.84-3.6-4.23-3.26,2.56,10.33,3.24,11.85.17.21-.24.36-.37.27-1.74-2.1-5.17-1.54-7.54-.93-1.86.82,2.11,2.65,1.58,3.75-.48.37-1.15-.55-.61.9.69.94-.36,2.02.53,2.87.23,1,4.09,2.68,2.28,3.19-4.57-4.38-1.09.12-3.24-.96-.59-.76-1.82-.53-1.94-1.73-.04-.34-.49-.38-.79-.33-1.85,3.43,6.55,5.48,4.21,8.25-1.18,1.4-1.57-.66-2.72-.82-1.05,5.49,2.56,7.2-2.08,13.13Zm16.21-39.68c1.11.06.11-1.18,1.05-1.35,1.45-.59,4.46-.3,3.7,1.25-2.46-1.42-3.22,1.79-4.75.1Zm-3.92,25.07c1.05-.35,2.03.96,1.77,1.74-.67,1-3.56-1.85-1.77-1.74Zm-2.81-12.69c1.33,2.78,3.91,4.45,4.1,7.75-1.01,0-7.84-9.68-4.1-7.75Zm-5.92,35.4c-.19-.01-.38-.18-.3-.39-.05-2.29,2.76.16.3.39Zm-.67-16.65c-.12-1.1,2.31.22,2.22-1.51.05-.39.35-.56.79-.29.97.65.32-.34.78-.76.3,1.62,2.25,2.74,2.15,4.28-3.22-4.83-2.74-.23-5.93-1.72Zm5.91,10.07c-1.65.33-1.07-1.31-.28-2.06.03.7.76,1.69.28,2.06Zm-.82-12.35c-.23-1.36-1.9-2.38.26-2.75.1-.43-.45-1.15-.87-.79-2.93.52.66-2.23,1.8-2.19-.22,1.27-.35,3.16.38,4.34,1.71,1.92-1.23,3.9-1.56,1.38Zm2.23-10.36c-1.13-.46-5.22-3.87-3.59-4.78.93.29,5.14,4.48,3.59,4.78Zm1.23,10.12c1.08.17,1.24,2.09,1.92,2.9-.71,1.12-2.48-2.26-1.92-2.9Zm1.83,11.95c-.1-2.8-3.04-3.87,1.85-3.85-.19,2.3.41,3.27-1.85,3.85Zm1.45-22.64c-.63-.57-.54-2.47.42-2.92.1.98.91,2.63-.42,2.92Zm2.27,10.94c-.32-.31-.79-1.52-.09-1.46.43.44.28.94.09,1.46Zm2.13-.3c-.53-1.84-4.48-6.15-3.49-7.54.79-.05.74,1.27,1.69,1.2.49.05.5.41.29.85-.27,1.03,3.3,6.03,1.51,5.49Zm4.43-6.96c-.29-1.22,1.16-2.09,1.05-.49.25.95-1.06,1.78-1.05.49Zm-3.09-9.53c1.2-1.09-1.46-1.75-1.39-.45.25,2.3-3.61,5.68-2.6,1.36-.31-2.01-.25-1.31,1.07-2.99,1.66.21-.34-3.18,1.8-2.48,3.04,2.69,10.12,11.43,1.12,4.57Zm3.02-2.68c-.6,4.16-4.65-8.9-7.35-3.68-1.1,1.87-.09-1.96-1.15-2.25.98-.33,1.07.83,1.98.52,2.15-.52,3.6,1.82,4.84,3.25,1.35.94,2.88.2,3.86,2.07-.85.81-2.34-1.35-2.18.08Zm2.7-.8c-1.64-1.04.39-.88.98-.08.29.33.58.6,1.09.35,1.44.18-.68,1.67-1.31,1.01.35-.74-.19-.94-.75-1.29Zm1.06,15.41c.75-.61-.13-1.28.16-1.74,1.87.19.27,4.09-.16,1.74Zm4.31-12.17c-.99-.34.51,1.43-.33,1.82-.17,2.85-2.09-1.14-3.12-.67.59,3.2-1.21.67-1.52-.82-.86-1.04-2.52-2.86.35-2.28.51,1.34,3.04,4.1,2.99,1.25.21-2.08,4.16,1.46,1.63.7Zm3.2,8.33c-.94-1.1.4-2.32-.62-3.49-.2-1.93,1.84.46.62,3.49Zm3.61-11.58c-1.14-.87-4.43,1.5-4.6.97.51-1.89-2.79-.75-3.84-1.34-1.44.08-4.4-.26-4.24-2.33-1.54-2.18,5.16,1.98,5.96,1.86,1.88.11.31-1.73-.73-2.04,1.19-.22,4.66-2.67,3.7-.28-3.29.33,7.96,2.71,3.75,3.17Zm-1.72-15.17c-.25.21-.54.11-.71-.18-.37-.78,1.26-1.42-.17-1.78-3.74-1.48,1.11-4.49,2.73-1.68.39,1.07-.95.07-1.43.24,1.29,3.01.94,1.7,3.46,3.41-1.37,1.3-2.61-.64-3.88,0Zm3.21,23.37c.41-.18.91.44,1.02.72-.17,1.11-1.75-.07-1.02-.72Zm1.84,6.39c-1.25-1.17-1.6-3.28-.98-5,.64,1.28,1.55,3.68.98,5Zm0-6.45c-.77-.71-1.47-.76-2.09-1.34-.24-1.46,3.07-.41,2.09,1.34Zm1.8,2.99c-.37-.72-.53-1.47-.61-2.4.83.76.9,1.54.61,2.4Zm0-3.89c-2.66-.34,2.22-2.42,2.87-2.32.94.7-2.19,2.12-2.87,2.32Zm2.43-9c-.42,1.25.19.31.87.66-.67.88-2.49,1.13-3.44.92-.16-.62.68-.44.9-.9-3.12-.34.43-1.6,1.67-.68Zm-1.66-12.71c-1.26.48-2.07-.93-.38-.79.98-.24,1.72.68.38.79Z"/><path class="cls-2" d="m102.28,187.39c.08-.12.09-.27.09-.42,0,0,0,0,0,0h0c-.25.12-.31.34-.3.6,0,0,0,0,0,0-.02.04-.05.09-.07.13.03-.04.05-.08.08-.12h0s0,0,0,0c0,0,0,0,0-.01.1-.05.16-.1.21-.18Z"/><path class="cls-2" d="m108.86,239.77c.2,0,.4.01.6.02h0c.1.1.21.2.31.3.05,1,1.02.06.02-.02,0,0,0,0,0,0-.1-.1-.2-.21-.3-.31,0-.8-.36-1.4-1.22-1.56h0s0,0,0,0c0,0,0,0,0,0-.24-.88-.94-.2-.05.05.22.5.43,1.01.65,1.51h0s0,0,0,0Z"/><path class="cls-2" d="m112.33,201.14c.03.05.08.1.13.15.02-.04.03-.08.05-.13-.03-.04-.05-.08-.08-.11-.02.02-.09.07-.09.09Z"/><path class="cls-2" d="m115.9,230.1c.3.12.6.26.92.41-.93-1.88-7.77-4.12-12.15-4,1.37.49.35,3.93,2.76.74.25,1.64,1.84,2.3,2.67,3.57,0,0,0,0,0,0,0,0,0,0,0,0-.62-.21-1.24-.01-1.82.27-.11-.1-.21-.2-.32-.3h0c-.05-.04-.11-.08-.16-.12.12.18.27.32.42.48-.06,1.52,1,.16,1.86.31,1.72,1.63,4.31,2.03,6.29.96-2.15.24-4.19-.56-6.24-1.01,0,0,0,0,0,0,0,0,0,0,0,0,0-.2-.02-.4-.03-.59,0,0,0,0,0,0h0s0,0,0,0c0,0,0,0,0,0,1.68.47,4.23,1.23,5.71.51.1-.88-1.55-.28-1.38-1.43.51-.1.98.01,1.47.21Z"/><path class="cls-2" d="m62.54,244.12c.05-.05.09-.11.14-.16l-.17.13h0c-.1.1-.21.2-.31.3-1.03.08,0,1.06.04.04h0c.1-.11.2-.21.3-.31Z"/><path class="cls-2" d="m56.77,231.55c-3.42.91-7.22,3.11-9.14,5.76,3.32.6,6.24-3.79,9.42-4.8.71-.14.44-1.15-.28-.96Z"/><path class="cls-2" d="m62.35,232.81c.77-.21,1.34-.67,1.76-1.87-.75.59-2.91,1.22-1.76,1.87Z"/><path class="cls-2" d="m108.86,239.79s0,0,.01,0c0,0,0,0,0-.01,0,0,0,0-.01,0h0s0,.01,0,.02h0Z"/><path class="cls-2" d="m60.45,192.5c-.04.08.01.08.09.11.05-.1.05-.16-.07-.17,0,.02-.02.04-.03.07Z"/><path class="cls-2" d="m47.45,255.12c1.32-1.48,2.56-3.04,3.66-4.66.6.39-.24.92.33,1.26.61-.97,2.51-1.71,1.83-2.98,1.21-3.1,3.5-5.41,5.59-7.88-.22,1.96-5.35,6.89-.34,5.71.1-.1.21-.21.31-.31-.11.11-.22.22-.32.32h.01c-.29.73-1.84.99-1.45,1.93.61.71,1.28-.63,2.05-.38-.12.29-.23.58-.35.87l.11.08s-.11-.08-.11-.08c-1.56.48,1.29,1.27.12.09,2.87-.39,4.26-2.41,5.33-4.81-.9.64-1.74,1.35-2.91,1.37h0c.03-.95-1.08-.2-.02.02,0,0,0,0,0,0-.27.35-.32.91-.92.92-.06-.92-.79-.49-1.25-.61,0,0,0,0,.01-.01h-.01c.49-1.09,2.12-1.9,1.8-3.2-1.07-2.68,5.38-1.43,5.11-4.63-1.35-.78-2.89,2.73-4.15,2.17-.76-.57-1.55-.43-2.49-.31.71-1.75,1.71-3.22,1.72-5.16-1.31.36-3.21,2.91-3.77,2.53-1.23-.92-1.74,1.18-2.98,1.05-.21-.67.7-.66.56-1.22-3.18-.38-6.59,1.92-9.82,2.5-1.22.35-3.07.94-2.88,3.16.09,1.01-1.12,1.16-1.86,1.52-1.27-.29-.84-3.52.97-3.71,1.54-1.4,2.7-3.46,4.81-4.27.04-.1.08-.15.12-.17-.04.02-.08.07-.12.17,0,0,0,0,0,0,0,0,0,0,0,0h0s0,0,0,0h.01c.1.18.2.23.29,0,0,0,.01,0,.02,0,0,0,0,0,0-.01.96-.46,2.33-.43,2.05-2.19,1.7-2.73,7.28-2.46,10.1-4.05-1.65-.97-3.11,1.5-4.43-.43.85-.2,1.9.72,2.28-.56-3.05-.78-6.7.88-9.46-1.17,6.59.78,13.17,1.31,19.21-2.03.48.52-.34.7.07,1.17,1.45-.53,2.25-2.23,4.31-2.23-.66-.35-1-.53-1.4-.75,1.26-.39,2.35-1.04,3.62-1.33.99-.28,1.54-2.79-.11-2.43-6.65,1.04-12.96,2.07-19.84,1.55,1.1-1.12,2.65-.39,3.62-1.31-1.75-.56-4.03.07-7.07,1.93.25.37.81.18,1.05.75,1.14,3.16,3.92-.23,5.43,1.09-.42,2.07-7.42-.2-7.29,2.41-.84.11-1.42-.05-.9-1.44-1.12.91-1.73.86-1.91-.46h2.39c-.53-.42-1.18-.02-1.32-.65,1.37-.43,1.56-1.1-.03-1.27-.67-.33-.6.1-.58.58-.07.73-.91.7-1.04-.01-.69-.87.52-.86.59-1.36,0,0,.03-.03.03-.03,1.18-.27,1.17-.26.57-.98-.34-.41.56-.42.3-.83q-1.34-.04-2.42.96c-3.44.96-1.56-3.44.28-4.27-1.36,1.63-.6,2.37,1.13,1.2,2.25-.9,4.79-1.3,7.01-.19.37.32.98-.49,1.42-.91,1.5-2.11,4.47-.47,6.4-2.15,2.06-2.07,4.79-.04,5.65-2.59.16-.26.7.47.79-.27-4.57-1.92-5.4,1.36-9.07,2.57-1.05.45-2.24,1.01-3-.56-2.47-1.14-6.75-.81-8.59-3.01.02-.63.62-.41.97-.39,2.08,0,5.71-1.99,6.16.97,1.42-1.22,2.78.8,4.01.32.33-.71-.73-.81-1.16-1.13,1.12-.6,2.17.44,3.28.05-1.11-1.81-4.45-.83-4.42-3.7-2.09-.67-.88-4.73-2.65-4.75-.9.36.24.82.27,1.29.46,2.62-1.83-.8-2.05-1.59-.87-1.95-2.58-2.96-4.27-4.05.45.64.1,1.4.4,2.02-.06.05-.12.1-.18.15-3.46-6.57-6.68-6.76-12.83-8.94-5.2,1.77-6.98,6.52-7.41,11.94-1.11,1.12.34,2.48-.3,3.56-.84.85-.44,1.3.49,1.64,1.76.56-1.98,2.59-.01,5.02-1.08,2.58-1.5,6.09.43,8.31.16.82.72,1.28,1.43,1.62.07.38.46.66.34,1.1-1.36.32-1.56,1.36-1.55,2.53-.23,1.9-1.39,2.08-.32,3.46-.28,1.06-1.12,2.02-.24,3.03-.16.8.35,1.2.94,1.54-.07.7-.37,1.43.32,2.01.76,1.14-.28,3.12,1.25,3.49,4.41,5.93,7.2,13.68,13.83,17.39,3.35.78,1.44-3.11,3.95-2.36.08.03.3-.36.47-.55Zm9.01-16.72s0,0,0,0c-.07,0-.14-.01-.21-.02.07,0,.14.01.21.02Zm-8.3-37.7s0,0,0,0c0,0,0,0,0,0,0,0,0,0,0,0Zm-6.25,1.32s0,0,0,0c-.04.04-.08.07-.12.11.04-.04.08-.08.12-.11Zm-14.52,19.51c.29-.11.68-.15.91-.3-.23.16-.62.19-.91.3Zm-.16.07s.08-.04.12-.06c-.04.02-.08.04-.12.06Zm.98-1.27s.1-.08.1-.08c0,0,0,0,0,0l-.1.08Z"/><path class="cls-2" d="m144.97,244.76c-1.08-3.16-5.07-3.49-7.92-4.2-.55.02-1.13-2.11-1.73.09-.04.14-.52-.05-.81-.21-2.58-.77-2.93-5.24-5.38-5.17-.16.75,1.41.27.72,1.13-.57.71-1.51.37-2.31.32-1.2-.21.42-2.34-1.71-2.21-.94-.28-5.69.81-4.83-.73-.7-.02-.26-1.08-.99-1.09-1.86.24.14,2.63-2.94,1.5-1.14.06-2.59-.9-3.51-.31,2.94,5.57-5.08-.25-6.78-1.42-.06,1.89,7.24,6.38,9.18,6.3,1.36-.46,3.43,2.48,2.15,2.55h0c-.3-.29-.58-.6-.91-.85l-.1.16c.13.03.25.06.38.09h0c.1.1.21.2.31.31h0c1.15,2.33,4.9,1.06,4.94,4.31-.92-.51-1.45-1.66-2.55-1.82-2.49-.12-3.66-2.93-6.04-2.85l-.08.08c.41.73,3.33,3.11,1.3,3.02l-.04.04s.04-.04.04-.04c.01-.26-.29-.68-.52-.36.16.72,2.07.98,1.61,1.99-.86.63-1.24-.87-1.95-1.09-.26,1.9,2.05,2.6,2.67,3.8.38,2.15,4.45,2.77,2.43,5-.62-1.14-1.28-2.19-2.73-1.29,0-.3,0-.6-.01-.91-.05,0-.1-.01-.15-.02.05,0,.1.01.15.02h0s0,0,0,0h0s0,0,0,0c0,0,0,0,0-.01.66-.06.66-.58.06-.69-.36-1.24-1.59-.85-2.35-1.39-.34.71.3,1.18.15,1.75,0,0-.05.05-.05.05-.48-.33-1.07-.76-.84-1.33.36-1.28-.03-4.38-.96-5.03-1.37.46-1.03,2.73-2.52,3.43-.83,1.5-1.62,1.19-1.75-.33-1.46.45-.8,1.41-.7,2.2.16,1.26,0,3.07,1.08,3.49,1.27.49.96,1.18,1.04,1.94.04,1.66,1.92,2.73,1.2,4.57.1,2.8,3.37.58,3.48,4.94,2.34,2.1,1.19,10.16,5.94,8.94,5.3-1.55,9.35-3.98,12.33-8.58,2.28-.4,3.82-1.64,4.52-3.88.19-.13.43-.19.45-.48.19-.1.37-.2.56-.3-.14-1.9,1.78-2.04,2.64-3.09,1.99-3.36,4.74-6.74,3.92-10.92.2-.5,0-.93-.11-1.43Zm-21.9,5.21s0,0,0,0c-.03.13-.06.27-.09.4.03-.13.06-.27.09-.4,0,0,0,0,0,0Zm-2.63,3.95c.13.3.43.36.77.37,0,0,0,0,0,0-.34,0-.65-.07-.77-.37Zm.79.39s0,0,0,0c0,.13,0,.26.06.36-.05-.09-.06-.23-.06-.36Zm2.15-2.49c-1.09-.25-1.8-.94-2.46-1.7.66.76,1.38,1.45,2.46,1.7,0,0,0,0,0,0Zm.07.17c-.02-.06-.04-.11-.06-.17.06.17.12.33.18.5-.05-.11-.09-.22-.13-.33Zm3.26,4.43c.41.92.91,1.72,2.22,1.88-.02-.17-.08-.3-.17-.42.09.12.15.26.17.42h0s0,0,0,0c-1.31-.16-1.82-.96-2.22-1.88Zm-.19-.45c.05.12.1.24.15.36-.05-.12-.1-.24-.15-.36Zm2.42,2.34h0c.26.02.47.17.67.36-.2-.19-.41-.34-.67-.36-.32.74-.05,1.18.34,1.56-.39-.38-.66-.83-.34-1.56Zm1.23,2.47c-.22,0-.45,0-.67.01.22,0,.45,0,.67-.01h0Zm7.11-1.23h0c.19.09.34.21.45.36-.11-.15-.26-.27-.45-.36Z"/><path class="cls-2" d="m77.96,233.9h0s0,.01.01.01h-.01Z"/><path class="cls-2" d="m83.74,255.14c-1.83-3.65-3.72-7.6-4.04-11.53-.42.47-.27,7.54-1.66,5.58-.2-.89.68-1.98-.45-2.49-1.17-.86.16,4.67-1.9,6.51-1.67,1.76-.87,4.26-1.3,6.47-.47,3.88-3.28,7.82-1.04,11.33-1.12.47-2.4-2.36-1.72-2.85.88-.69.21-1.53.57-2.2-.64-.3-1.27-.07-2.29.34,1.16-2.11.54-4.24,1.67-5.99.2-.31.46-.83-.16-.99-.95-.24-.21,1.46-.98,1.38-2.74-1.24-1.62-1.32-1.29-3.4-.55-.51-.83.62-1.21.16-.41-.82.59-1.81.96-2.58.77-.52.03-1.05-.67-.85-1.53.99-1.59,3.09-3.37,4.18.15-1.11-.05-1.82-1.26-1.24.22-6.3,5.74.24,6.72-8.63-.03-.5.34-.73.73-.89,1.24,0,.87-1.86,1.93-1.84,1.43.51,1.47-.74,1.52-1.38.09-1.31,1.2-2.51.42-3.92,1.41-2.39,2.82-2.95,3.05-6.4-.44-.15-.72.54-1.19.31.21-1.04,1.74-2.21,1.01-3.19-.59-.44-1.17.35-1.62.8-1.53,2.04-4.86,3.53-4.98,6.17-1.97,3.22-4.81.64-6.19,4.25.36.61,1,.61,1.68.69-.78,1.47-3.89,3.26-2.83,4.82,1.04.45,1.03.4.2,1.19-2.46,1.87,1.18,3.23-1.59,4.67-.41.1-1.12.36-1-.59,0-1.35-1.56,0-2.29-.29-2.38-.37-4.32.68-6.23,1.88,0,0,0,0,0,0,0,0,0,0,0,0-.56,1.17-1.55,1.56-2.77,1.53,1.12-2.76-3.21,1.55-3.38,2.49-.96,1.03,1.35,1.95.56,2.98-1.43,1.78.81,3.34,1.87,4.42.05,1.36,1.27,1.61,2.09,2.24,2.7,3.87,7.23,5.24,11.26,7.41,3.43,2.13,7.38,3.33,11.37,3.28.17.33.37.43.62.08.98.02,1.95.46,2.95.08.41,1.21.79.64,1.18-.02.16-.01.33-.02.49-.03.5.38.81.21.98-.34.19-.02.38-.03.56-.05,4.34-5.11,1.25-9.05-1.23-13.79,1.03.84,2,3.64,3.48,3.02.31-1.14-1.87-1.59-1.88-2.89-.09-.66-1.25-1.37-.39-1.83.69-.36.67.93,1.04,1.42.69,1.75,2.51,1,1.69-.66-1.47-3.01.95-5.77.28-8.82Zm-27.71,5.35c-.8.44-1.34,1.2-1.5,2.06.16-.86.69-1.62,1.5-2.06,0,0,0,0,0,0Zm.02-.02s0,0,0,0c.01-.97.59-1.46,1.25-1.85-.66.38-1.23.88-1.25,1.85Zm5.53-4s-.03,0-.05.01c.02,0,.03,0,.05-.01,0,0,0,0,0,0Zm.03-.02h0c.05-.45.23-.78.59-.98-.36.21-.55.53-.59.98Zm3.08,16.06c-.06-.09-.13-.15-.2-.19.08.04.14.1.2.19,0,0,0,0,0,0Zm12.46-6.07c.17-.07.34-.17.37-.37-.04.2-.2.3-.37.37Zm2.21-12.3c.16.13.39.21.55.33-.17-.12-.4-.2-.55-.33Z"/><path class="cls-2" d="m35.56,188.68c-.73,3.09,5.25,4.22,7.6,4.29-.31-1.51,1.68-1.43,1.84-2.63.13-.75,1.16-.66,1.21.09.91,1.94-1.38,1.12-1.85,1.97-.02.32,0,.74.39.69,1.08-.14,1.9.72,2.94.67-.22,2.71,4.36,4.28,5.42,1.54.34-1.34,2.54-2.43,2.84-.53-.37,1.38-3.14,2.3-4.1,2.92.7,2.13,4.97,4.08,6.72,2.26.07-.32,0-.66.47-.5.33.11.83.3.66.71-.07,3.21,4.47,3.94,6.82,5.5.13-3.16-6.34-2.27-4.94-5.33.48-.7.76,0,1.08.23,4.26,2.84,7.92,6.58,12.89,8.02-1.01-1.59-6.22-4.47-5.9-5.56.69-.39.82-1.04,1.23-1.54,0,0,0,0,0,0,0,0,0,0,0,0,0,0,0,0,0,0h0c-.63-.71-.19-2.34-1.85-2.17-.08-.37.17-.87-.44-1.14-.18.56.09.87.43,1.15-.21.3-.66.45-.61.92,0,0,0,0,0,0-.2-.11-.39-.23-.59-.34h0c-.06-.04-.12-.08-.17-.12.25.41.32.91.49,1.36,0,0-.05.05-.05.05-1.98-.5-3.31-2.66-5.67-2.25-1.77-1.04,1.03-1.7,1.6-2.47-1.2-.9-2.41-1.53-3.78-2.01.38-.2.77-.4,1.36-.7-5.56-.87-2.95-2.97-4.91-1.96-.45.33-.65-.24-.6-.7.1-.85,1.07-.13,1.43-.84.72-.26.92,2.13,2.59,1.7-1.97-1.19-.82-2.96-1.24-4.77,2.14,2.41,3.67,4.81,5.22,7.18.06-.35-.23-.78.31-1.12.53,1,.9,2.08,2.03,3.01.58-3.12-2.03-5.1-2.09-7.76-.77.39-.4,1.13-.78,1.9-.43-1.9-2.59-1.81-2.56-3.74-2.74-.56.06-2.67-1.65-2.59-.37-.02-.6-.13-.71-.43-.33-.88-.64-1.06-1.14-.09-.81,1.68-3.39-1.42-2.95-2.7.45-.94-.96-1.22-.63-2.13,1.95-.21.47,3.13,2.21,3.59,2.65.29,5.83-.72,3.5-3.72-.02-.03.1-.14.26-.37,1.31,1.35,2.24,3.45,3.41,4.6,1.47-.35.93.71,1.14,1.42-.47-.16-.31-.91-.78-.73-.48.75.5,2.07-1.11,2.2h0c.03-.94.44-1.99-.85-2.65-.14,1.08-.23,2.04.83,2.66-.13.62-.46,1.52.32,1.74,1.17.08.86-1.81,1.71-2.4,1.32.95,1.09,2.62,1.86,3.81.64.99,1.55,2.02.3,3.22.03,1.26,1.12,2.69,1.7,3.79,2.12,2.44,3.55,6.08,5.71,8.15,1.65-.81,1.09,2.74,2.53,3.47-.27-2.73-1.36-3.28-2.69-5.04-1.05-4.76-1.31-12.42,1.49-2.31.97-1.79-1.07-4.27-.76-6.35-.3-.77-1.72-.75-1.72-1.77-1.03-2.1.05-6.13-3.18-3.43-.08-.57-.35-.88-1.17-1.57-.87-1.87.67-5.14-1.08-6.5-1.51-.45-.71-1.21-.34-1.94-.42-1.02-.85-2.05-1.27-3.07-1.5-.59-1.35-2.97-3-3.62-1.41-.53.74-.98.03-1.95-.28-.69-.62-.1-.94-.11-1.83-.25-4.29-3.03-1.31-3.62-5.19-1.59-10.94,1.76-14.27,5.52-5.11,3.1-14.81,10.25-10.87,16.93Zm22.15-2.18c-.17-.38-.45-.68-1.04-.77,0,0,0,0,0,0,.59.09.88.39,1.04.77Zm-1.06-.79s0,0,0,0c0-.03-.02-.06-.04-.09.02.02.03.06.04.09Zm6.83-8.59s0,.03,0,.05c0-.02,0-.03,0-.05h0Zm-.03-.06c-.18-.07-.37-.13-.56-.2.2.07.38.14.56.2,0,0,0,0,0,0Zm-2.76-3.99c.92.23,1.47.63,1.9,1.27-.43-.63-.98-1.04-1.9-1.27h0Zm-.03-.13c-.02-.11-.04-.22-.08-.31.04.09.07.2.08.31Zm-10.07,8.33c.86.38,1.47.97,1.68,1.78-.21-.81-.82-1.4-1.68-1.78-.06.08-.13.16-.2.23h0c.07-.07.14-.14.2-.23-.35-1.06-.85-2.03-1.62-2.83.77.8,1.26,1.77,1.62,2.83Z"/><path class="cls-2" d="m99.31,161.36c2.72.39-.37,3.75-2.18,2.22-.08,3.11.16,6.07.2,9.15,2.31,1.97.25,6.83,3.26,8.2,1.84-.33,2.32-6.37,3.66-6.77,1.18.46-3.84,10.38-2.5,10.63h0c.02.07.03.13.12.13-.04-.04-.08-.09-.12-.13,1.85-2.08,1.85-5.16,3.38-7.49.75-1.98,2.36-4.35,1.89-6.47-1.01-.44-.85,1.72-1.9,1.26.66-1.66,2-2.67,3.25-3.83.32.67-.61,1.55.07,1.75,1.57.32-.69,2.37-.24,3.63h0c-.28.24-.33.46.04.65h0s0,0,0,0h0c.15-.08.29-.15.43-.22-.14.07-.28.15-.43.22-1.23,1.64-1.91,3.48-.05,5.28,1.49,1.86,1.24,4.9,1.82,7.19-.31,2.55,8.01-2.84,9.72-2.23.19-.11.38-.22.57-.33.51-1.88,3.17-1.78,4.11-3.55,1.48-1.42,2.46-3.39,4.5-4.21.18-.28.43-.53.33-.91.07-.06.07-.12.03-.19,1.07-1.52.07-3.85-1.51-4.81-.73-1.45-1.55-2.62-3.13-3.37-1.03-1.41-2.03-3.36-4.06-3.28-2.25-.89-4.19-2.67-6.71-2.73-.53-.22-.59-1.64-1.6-.62-1.48-1.02-3.25-1.08-4.92-1.44-.22-.42-.58-.31-.93-.24,0,.04.02.09.04.13-.03-.05-.04-.09-.04-.13-.33-.29-.72-.4-1.16-.39.07-.72-7.86-1.36-7.54-.27-.08.02-.16.05-.24.09-1.31.02-1.05,2.37-.87,3.31.89-.31,1.82-.34,2.72-.23Zm-.02,5.83h0c.07-.04.14-.1.22-.16-.08.06-.16.12-.22.16Zm8.94,6.48h.02s-.01,0-.02,0Zm.04.03s0,0,0,0h0s0,0,0,0Z"/><path class="cls-2" d="m111.88,262.26c-1.92-1.55-.21-4.2-2.75-5.2-1.43-.91-3.91-.45-4.59-2.45.98-.18,1.83.29,2.73.65-.84-3.8-1.12-1.79-3.43-3.38-.24-.2-.3-.77-.8-.47-.47,4.37,2.49,9.4,2.77,14.1-.79.02-1.04-.52-1.46-.8-.98,3.14-1.88-.35-1.99-1.76,0,0,0,0,0,0h0c1.22.41,1.05-.62.92-1.09-.68-1.67.15-4.82-1.31-5.76-3,.59-.37,4.06-.22,5.92,0,0,0,0-.01,0,0,0,0,0,0,.01-.88-.47-.98-.15-.67.65,1.61,2.85,1.03,5.56,1.85,8.74.64-1.1.14-2.12.71-3.36.5,1.98-.1,3.61.48,5.17-.56-.36-.89-.99-1.64-.5-2.26-.26-3.12-3.76-3.51-5.75,1.63.77,1.43,3.07,2.58,4.84,1.83-8.45-4.73-10.58-.97-10.26-.33-3.11-1.64-6.23-1.3-9.55,2.98,9.55,1.73-.8-.64-3.57-.65.96-.06,2.18.09,2.89-1.65,1.09.4,2.52-.23,3.76-1.24.78-.23,2.93-1.16,3.35-1.25-.94-.71.93-1.43.8-1.13-3.39.89-3.89-1.24-7.27.24,1.07-1.07,1.04-1.4,1.74-.21.46-.86.42-1.22.11-.57-1.25,1.76-1.36.96-4.3.05-.7-.92-.9-.92-.07-.39,2.55-4,3.17-3.89,5.75-.06,2.78-1.84,5.17-1.63,8.04-1.79,2.69-.22,3.76-1.09,6.47-1.06,2.04-.1,6.78,2,6.87.75-.44.87-2.2,1.49-2.08.85.55-.59,1.78-.98,2.34-1.05.96.15,1.77.97,2.23,3.15,2.44,6.96.35,10.58.85,2.08-3.29,2.92,1.33,2.49-5.72.42.91,1.82,1.51.81,2.83-.04.05.11.27.2.39.91,1.19,3.99,1.76,5.03.73,9.96-4.73,10.19-6.81,3.77-15.88Zm-7.95-8.26s0,0,0,0c.14,0,.25.04.35.09-.09-.05-.21-.08-.35-.09Zm-14.8,8.31c.12,0,.24-.02.31-.12-.07.09-.19.12-.31.12Zm17.02,6.06s-.07-.03-.1-.04c.03.01.07.02.1.04,0,0,0,0,0,0,0,0,0,0,0,0Zm.1-.24c-.08-.04-.16-.07-.24-.11.08.04.16.07.24.11,0,0,0,0,0,0Z"/><path class="cls-2" d="m64.58,169.3c-.99,2.91,2.13,4.54,3.19,6.88.22.43.86,1.2,1.25-.04.67.22.66,1.27,1.54,1.23,0,0,.01.01.01.01,0,1.38.93-.01,1.81,1.03.45.43-.08,1.6-.81,1.46-.38.09-.7-.42-1.09-.1.34,1.38,3.18.85,2,3.16,1.56.94,2.81,2.64,4.78,3.25-.22-1.26-.85-2.13-2.11-2.59,2.98-.03,1.89-2.07,4.57-.09.99.63-.63.44-.93,1.85-.56.62.38,1.37.75.55,1.43-1.76,3.51,1.32,5.54,1.21-.33-1.82-6.08-2.49-3.41-4.16-.02.02-.03.03-.03.03.16.96,1.06.04.1-.1-.06-.25-.04-.6-.2-.72-2.33-1.52-3.15-4.78-5.21-6.21-2.18.38-2.52-7.62-2.91-9.5,1.63.48,1.73,2.62,3.16,2.99.33-1.3-1.67-2.38-.16-4.13.63,2.35,2.58,10.31,4.32,10.92,1.09-3.11-3.73-11.43-.12-13.48.42.96-1.37,3.22.23,3.53,1.69-.24,1.04,4.57,2.78,4.08.82-.46-.23-.37-.17-.62-.4-1.69.85-4-1.89-4.33,2.1-.97.46-2.31,1.62-2.49h0c.06.04.13.07.19.11-.72-1.36-.17-3.17-1.71-4.22-.52.46-.68,1.29-1.43,1.74-.08-.86-.4-1.29-1.29-.95-1.86.12-1.51-2.29,1.48-1.68-1.04-1.9-4.49-.57-6.18-.34-3.51.12-7.03,2.02-9.61,4.29-.43.63.75,1.37.11,1.74-2.37,1.66.52,3.7-.16,5.69Zm17.1,13.64l.05-.05s-.03.03-.05.05Zm-11.48-17.08c-.06-.75-.25-1.38-1.18-1.75,0,0,0,0,0,0,.93.37,1.12,1,1.18,1.75Zm-1.19-1.76h0c0-.12,0-.23-.03-.33.03.1.03.22.03.33Zm-.09-3.84c-.07.25-.15.49-.2.75,0,0,0,0,0,0,.05-.25.13-.5.2-.75Z"/><path class="cls-2" d="m126.95,180.69c-.57,1.63-4.53,2.68-3.15,4.72.31.22.91.28.48.78-.24.28-.85.28-1.08-.14-1.37-2.03-1.84,2.02-2.01,2.74l.06.05c2.06-.13-1.54,3.72,1.72,5.16.51,2.5,3.65-3.2,2.46-3.2-.79-.09-.8-.11-.8-1.05,4.51.54-.2,2.46,4.93,1.24-.02,3.58-8.71,3.58-6.87,7.8,1.32.6,3.27-1.99,4.72-2.49.55-.31,1.32-.97.44-1.85-.21-.21-.09-.58.17-.63,1.62-.3,2.21-2.1,3.71-2.51,3.05-1.26,4.9-3.89,7.73-5.64.6-.23,1.26-.71.7-1.54-.82-1.21-.44-3-1.91-3.89-.07-.04-.02-.29-.02-.45-1.2-1.33-3.02-3.46-5.02-2.49-3.38,6.23,2.55,2.22-2.56,6.07.3-1.09-.88-2.22.36-3.2.24-2.23-3.31-.74-4.05.51Zm5.09,5.33s.06-.02.08-.04c-.02.02-.05.03-.08.04,0,0,0,0,0,0Zm-.64.63s-.06.06-.09.09c.03-.03.06-.06.09-.09Zm-.62.63s0,0,0,0c.09.77-.28,1.25-.77,1.65.49-.4.86-.88.77-1.65Z"/><path class="cls-2" d="m83.96,161.81c-.91,2.22,2.4,2.24,1.14,4.12-2.3,3.62,2.01,4.69,2.82,7.82.63.94-.6,6.18,1.12,4.81,0-1.5.94-.26,1.37-.49-.14.94.23,1.83.28,2.75,0,0,0,0,0,0,0,0,0,0,0,0,2.08,1.39-1.43,3.29.52,4.68,1.07.7,1.05-.83,1.87-1,.49.9-.27,1.88.13,2.8.4-.35-.01-1.06.62-1.26,1.13-.5.25-1.88-.72-1.57-.44-1.06-1.61-2.16.29-2.77,0,0,0,0,0,0,.04.02.08.04.12.06-.04-.02-.07-.05-.11-.07h0s0,0,0,0h0s0,0-.01,0c.04-1.71-.77-3.63-.29-5.22.61-.61,1.41.33,1.86-.19.57-.67-1.04-.87-.52-1.68.05-.72,1.07-2.06.54-2.51-.8-.09-1.35,1.14-2.44,1.16,2.18-4.27,4.45-8.16,0-11.78.57-1.13-.46-1.87-.62-2.79-.28-1.52-1.09-1.52-2.21-1.24-1.16.75-2.2-.66-3.16-.32-.58.76-1.12.36-1.75.1-4.34-.02-.2,2.64-.86,4.58Zm9.13,22.69h0s0,0,0,0c0,0,0,0,0,0Z"/><path class="cls-2" d="m94.72,200.32c-2.21,3.81-.53,8.85,3.97,5.52.87-.58,1.9-.99,2.15-2.18,0,0,0,0,0,0-.03-1.36,1.6-2.35,2.27-3.45.82-.77-.54-1.28.01-2.06.32-.45-.49-.1-.75-.25-1.41-.84,1.25-2.3-.48-3.11-.18-.16.44-.49.65-.4,1.86.68,10.34-3.67,6.11-5.32-1.86-.4.92-1.65-.45-2.27-1.93-1.86-3.16,1.28-5.1,1.52-3.29.64-3.41,5.18-5.36,6.99.93-1.33-.28-4.25,1.19-4.69.94-.07,1.04-.74,1.47-1.18-.35-.4-.82.2-1.03-.27-.24-.97,1.9-1.4,1.5-2.33-.69-.73-1.05.56-1.68.47-.35-.44.2-1.2-.46-1.57-1.22,3.68-.82,8.52-2.75,12.02-.42-.32.43-1.04-.24-1.13-1.34.21-.53,3.02-1.03,3.71Z"/><path class="cls-2" d="m108.97,211.48c-2.06.71-2.18-3.25-1.35-4.08,1.03-.33.58.7.99,1.13.69-.41,1.56.16,2.34-.34-.52-.44-1.27.04-1.53-.65.92-.2-.43-1.16.52-1.44,1.19-.35,1.32-1.42,1.39-2.46-.14,0-.27-.03-.38-.09.11.06.24.08.38.09h0s0,0,.01,0c0,0,0,0,0,0,1.33.73,1.95-.27,2.02-1.18.11-1.55-.86.05-1.25-.28-.23-.2-.43-.42-.77-.39,0,0,0,0,0-.01,0,0,0,0-.01,0-.45-1.2,4.32-5.83,1.48-4.86-.35.19-.38.92-1.11.6.14-.99.38-1.87,1.49-2.2.29,2.42,1.14-2.31.77-2.55-1.83-.37-9.5,6.12-6.66,7.9-.81.37-.99.52-.57,1.22.27.69.14,1.25-.25,1.86-.55.87-.72-.44-1.25-.14-1.46.8-2.07,2.27-2.66,3.6-.36.82,1.18,1.04,1.54,1.84.46.3,1.73.33,1.59,1.32-.18.56-1.09.53-1.39-.1-.44-.9-2.25-1.2-2.27-.63-.07,1.68-1.06.87-1.79.81-.15.82.15,1.5.63,2.13-.03.36.21.41.48.43,0,0,.02.02.02.02.02.89,1,.35,1.27.85.22.4.65.17.96.3,1.29-.9,2.24.14,3.4.38,2.13.45,4.43.13,6.62.13-1.85-2.25,1.88-1.46,3.1-2.57-1.25-.53-6.16-.99-7.75-.63Zm1.75-8.15s0,0,0,0c-.57,0-1.04.14-1.44.37.4-.23.87-.37,1.44-.37Z"/><path class="cls-2" d="m85.9,241.68c1.55-3.89-.52-7.65-1.45-11.38.07-1.76-2.23-.52-1.22.52.33.27.74.62.34,1.16-2.6,2.8.32,5.86-.77,8.42-.41-1.4-.62-2.67-.54-4.03-.55.32.09,1.24-.77,1.32-.32-.69.03-1.38.02-2.26-2.38,4.82-2.02,8.55.77,9.96.07-.77-1.02-2.18-.09-2.47.5-.09.7.27.9.66.21.41-.12,1.04.6,1.39.1-3.62,1.64-1.11,2.22-3.29Z"/><path class="cls-2" d="m90.02,248.74c-.13.92-.17,1.85,0,2.77,2.94-2,.6-5.64,2.72-8.02.76-1.53-.35-3.49.05-5.25,0,0,0,0,.01,0,0,0,0-.02,0-.02.14-.11.37-.18.1-.39-.03.13-.06.26-.1.39,0,0-.01,0-.02.01h0s0,0,0,0c0,0,0,0,0,.01-1.35.36-1.77-.57-1.53-1.86h0s.09-.1.13-.15c-.75.75-.61-1.22-1.35-.59-.84.64.01,1.14.36,1.65.2,2.39-3.28,4.58-2.9,7.76.23,1.3-2.28,7.37.82,4.93,1.4-1.23,1-3.68,2.31-4.64-.14,1.13-.44,2.25-.6,3.39Z"/><path class="cls-2" d="m87.7,190.22c1.05,2.09.69,4.6,2.17,6.55.37.49.33,1.37.03,1.95-2.07,2.85.71,2.26-1.1,5.68.73.14,1.02-.6,1.59-.39.1-.1.21-.19.31-.29.4-5.38.74-10.64-.21-15.98-.01-2.56-2.02-4.89-.8-7.55-.74.37-1.5.73-1.04,1.79-.66,2.67-2.51,5.38-.95,8.25Z"/><path class="cls-2" d="m89.7,180.16s0,.02-.01.02c0,0,.02,0,.02-.01h-.01Z"/><path class="cls-2" d="m100.35,229.17c0,.97-.38,2.14,1.09,2.25,1.14-.24,1.53,2.39.07,1.98-2.3,2.03,2.1,5.93,2.81,8.07.47,1.57,1.98,2.43,2.13,4.05,0,.56.47.88,1.01,1.01,1.2.12.9-1.3-.06-1.55.57-3.07-4.49-5.33-2.29-8.14.02-.63-.85-1.28-.48-2.09.41.23.79.57,1.25.46-.19-1.71-2.27-2.33-2.53-3.46-.46-1.94-2.69-.97-2.99-2.58Z"/><path class="cls-2" d="m119.27,190.63c-.7-.31-1.3.43-1.64.14-1-.86-.87.45-1.32.61-.6.21-.96.92-.46,1.35,2.19,1.91-1.04,5.71-1.11,8.09.51,4.47,2.84-1.35,3.42-2.73.13-1.77,3.19-6.85,1.11-7.46Z"/><path class="cls-2" d="m80.24,187.51c-1.52-1.17-1.41.55-1.54,1.66-.18.57.46.56.84.6,3.19-.02,4.67,3.81,7.85,3.25-.54-1.59-1.51-3.03-1.4-4.79-2.09.71-3.9-.2-5.75-.72Z"/><path class="cls-2" d="m85.72,203.43c1.39,2.2,3.09,1.78,1.86-.75h0c-.24-.33-.49-.25-.64.03,0,0,0,0,0,0,0,0,0,0,0,0-1.37.07-1.01-1.94-2.33-1.93.97-2.18-1.74-2.32-2.25-3.75-.23-1.31-5.45-4.74-3.76-1.43-1.68-.41-1.46-2.73-2.92-3.65.24,3.72,3,5.81,4.86,8.44.09-1.67-1.43-2.62-1.71-4.11,2.14-.92,3.49,7.06,6.89,7.15Z"/><path class="cls-2" d="m78.8,211.72c-.12-1.68,2.2.12,1.76-1.4-2.05-.04-1.13-1.76-.94-2.31.35-.98-.68-4.22-1.7-3.2-.76.58,1.65.87.28,1.42-1.35-.15-.98.88-.71,1.21.72.86-.21,1.87.43,2.69.26.86-4.29-.34-5-.91-.02,1.01.42,1.55.81,1.58,1.6-.09,3.92,2.62,5.06.91Z"/><path class="cls-2" d="m97.01,191.12c.38-4.17,2.69-8.78.48-12.83.39,5.47-1.55,10.72-1.44,16.16.43-1.09.8-2.2.97-3.33Z"/><path class="cls-2" d="m73.75,215.77c-1.2-.57-2.45.83-3.27-.23-1.71-2.65-5.54-.59-7.52.85,3.55-.83,7.23,1.16,10.79-.62Z"/><path class="cls-2" d="m57.43,206.01c-.73,1.65,5.09,6.37,6.47,5.02.11-.97-1.54-2.01-2.64-1.56-.04-.25-1.14.26-.44-.7.33-.67-2.78-3.06-3.39-2.76Z"/><path class="cls-2" d="m66.98,230.54c1.32.25,5.14-1.71,5.91-3.53-2.29,1.27-4.74,1.87-7.32,2.04-1.25,1.16,1.09.54,1.54.58.79.33-.25.56-.13.9Z"/><path class="cls-2" d="m57.67,250.55c-.04-1.03-1.04-.99-1.48-1.02-1.18-.09-.56,1.61-1.56,1.93-.11.04-.13.7-.01.99.17.41.55.13.78,0,1.74-1.2,3.86.15,5.31-1.67-1.03-.7-2.69.62-3.04-.23Z"/><path class="cls-2" d="m83.25,245.6c-.75,1.01.07,1.86-.18,2.74-.82-.02-1.03-1.04-1.88-1.04,3.22,7.85,4.05,4.01,2.05-1.7Z"/><path class="cls-2" d="m99.44,242.15c-.63-1.38-.52-3.05-2.1-3.92.07,2.96.36,4.09,1.63,6.4.79-.72,1.28-1.41.47-2.48Z"/><path class="cls-2" d="m78.48,203.48c1-1.11.34-2.12-.44-3.21-.71-.99.06-2.77-1.88-3.38,1.13,2.25-.26,5.12,2.32,6.59Z"/><path class="cls-2" d="m104.33,228.3c-1.11-1.04-2.76.26-1.07.99.47,1.54,1.66,3.32,3.47,2.39,1.87-1.95-2.61.93-1.29-2.17-.37-.41-.69-.86-1.11-1.21Z"/><path class="cls-2" d="m72.05,252.19c-1.61,1.3-1.78,4.46-2.04,6.55.14.04.27.09.41.13.48-2.02,2.8-4.81,1.63-6.68Z"/><path class="cls-2" d="m73.73,255.7c-.95,3.11-2.29,6.13-2.25,9.45.88-3.12,2.14-6.16,2.25-9.45Z"/><path class="cls-2" d="m96.04,246.9c-.42,3.26.37,6.4.86,9.55.39-3.27.08-6.45-.86-9.55Z"/><path class="cls-2" d="m108.09,239.48c-.22-.14-.44-.22-.71-.13.44,2.44,1.62,4.52,3.01,6.59.57-1.96-1.26-4.08-1.54-6.15h0s0,0,0,0c-.3.06-.52-.15-.77-.31Z"/><path class="cls-2" d="m83.95,181.18c.27.55.58.58.98.13.34.59.68,1.17,1.09,1.86.46-.98-.23-1.64-.32-2.38,1.21.02.92-1.24.82-1.98.03-.92-.95-.31-1.43-.48.29-1.06-.27-1.73-.95-2.4-.45.41.26.86-.21,1.18-.87-.55-.46-2.09-1.87-2.45.49,2.33.79,4.53,1.89,6.53Z"/><path class="cls-2" d="m80.1,233.8c1.68-.72,1.03-1.61,1.47-3.07.95-2.99-1.66-.08-2.11.95-.16.22-.24.63.02.61,2-.15.09,1.06.62,1.52Z"/><path class="cls-2" d="m77.63,174.06c.38,2.41,1.99,3.96,3.64,5.49-.14-2.57-3.07-3.21-3.64-5.49Z"/><path class="cls-2" d="m95.95,231.44c.33-.75-.59-.52-.68-.93-.44.02-.98.44-1.23-.3-.98.43-.87,1.46-1.05,2.23.58.68,2.68.1,2.96-1Z"/><path class="cls-2" d="m102.37,186.97s0,0,0,0h0s0,0,0-.01c0,0,0,0,0,0,0,0,0,0,0,0,0,0,0,0-.01,0,0,0,0,0,0,.01,0,0,0,0,0,0h0Z"/><path class="cls-2" d="m102.38,186.95c1.53-1.33,4.44-5.08,2.72-7.06-.16,2.64-1.85,4.72-2.72,7.06,0,0,0,0,0,0,0,0,0,0,0,0Z"/><path class="cls-2" d="m75.8,169.05s0,0,.01,0h0s0,0,0,0c0,0,0-.01-.01-.01,0,0,0,0,0,.01Z"/><path class="cls-2" d="m75.04,169.75c.27,1.54,1.02,2.58,2.65,3.17.19-1.91-1.75-2.28-1.89-3.87-.45,0-.9-.13-.76.7Z"/><path class="cls-2" d="m78.62,244.29c.78-2.38.87-4.42.62-6.5-.38,2.01-1.38,3.94-.62,6.5Z"/><path class="cls-2" d="m99.27,228.34c-1.45.48-.58,1.96-1.22,2.79.66.04.52.89.95,1.08,1.09-1.08-.08-2.64.95-3.68-.23-.07-.46-.13-.68-.2Z"/><path class="cls-2" d="m120.69,187.98c.21-.52.33-1.01-.06-1.68-.44.84-2.45,3.12-.85,3.19,1.02-.65.65.51,1.01.62.39-.36.47-.8.46-1.27,0,0-.06-.05-.06-.05-.6,0-.69-.34-.5-.81Z"/><path class="cls-2" d="m77.63,229.56c1.09.57,3.8-1.55,5.42-1.59-2.12-.56-3.86.22-5.42,1.59Z"/><path class="cls-2" d="m113.72,239.57c.94.05,1.76.73,3.03.64-.85-.79-3.13-1.89-3.79-1.31-.26.77.23,1.76,1.12,1.84,0,0,.08-.08.08-.08.05-.43-.66-.52-.44-1.1Z"/><path class="cls-2" d="m94.17,237.99c-.67-1.03.85-4.01-1.12-3.31-.58,1.36,1.49,2.57.25,4.42.76-.35,1.04-.63.87-1.11Z"/><path class="cls-2" d="m52.69,219.97c1.58.06,2.39-1.11,3.36-2.01-1.5.13-2.1.49-3.36,2.01Z"/><path class="cls-2" d="m119.97,201.64c1.18-.25,1.77-1.06,2.42-2.06-1.1.12-3.21,1.27-2.42,2.06Z"/><path class="cls-2" d="m75.38,223.45c.41.45.91.13,1.3-.45-.85-.29-1.27-1.04-1.88-1.76-.4,1.01.11,1.68.58,2.21Z"/><path class="cls-2" d="m120.78,202.86c1.26.1,3.94-2.32,1.42-1.37-.47.3-1.87.53-1.42,1.37Z"/><path class="cls-2" d="m86.54,175.91c-.03-.84-.33-1.53-1.3-1.79-.4.75.8,2.98,1.3,1.79Z"/><path class="cls-2" d="m114.22,187.34c-.7.15-1.4.3-2.32.49,1.11,1.17,1.69.2,2.32-.49Z"/><path class="cls-2" d="m114.55,242.73c-.31-.92-.86-1.6-2.07-2.02.59,1.07,1.19,1.69,2.07,2.02Z"/><path class="cls-2" d="m116.73,205.38c.36.82,2.11-.35,1.85-1.21-.63.66-1.45.57-1.85,1.21Z"/><path class="cls-2" d="m116.66,214.45c-.7-.32-1.41-.52-2.23.08.85.36,1.54.24,2.23-.08Z"/><path class="cls-2" d="m61.8,186.61c.03-.68-.52-1.18-1.25-1.43-.19.67.55.93.43,1.46.29,0,.79.55.82-.03Z"/><polygon class="cls-2" points="60.98 186.65 60.98 186.65 60.98 186.65 60.98 186.65 60.98 186.65 60.98 186.65"/><path class="cls-2" d="m123.1,232.72c-.53-.77-1.51-1.87-1.84-.8.32.64.94.61,1.84.8Z"/><path class="cls-2" d="m110.44,233.17c.15.71.71.84,1.37.81-.15-.5-1.07-1.81-1.37-.81Z"/><path class="cls-2" d="m100.84,245.35c.16.47.33.95.49,1.42.37-.58.46-1.31-.49-1.43,0,0,0,0,0-.01,0,0,0,0-.01,0,0-.4-.21-.6-.6-.6,0,0,0,0,0-.01-.04-.02-.08-.05-.11-.07.03.03.07.05.1.08h0s0,0,0,0h0s0,0,.01,0c.04.36.23.58.6.6,0,0,0,0,0,.01h0s0,0,0,0c0,0,0,0,.01,0Z"/><path class="cls-2" d="m61.96,218.21c1.97.16.38-1.54-.12-.12-1.68.21-2.66,1.89-4.44,1.91.88.65,6.97-.05,4.51-.93.02-.29.03-.58.05-.86,0,0,0,0,0,0h0s0,0,0,0Z"/><path class="cls-2" d="m67.83,197.02c.07,0,.11-.21.17-.34-.45-1.09-.86.26-.17.34Z"/><path class="cls-2" d="m78.42,233.41c-.03-.09-.22-.13-.33-.19-.04.23-.08.45-.12.68.29-.04.61-.06.45-.49Z"/><path class="cls-2" d="m77.96,233.9s.01.01.01.01c0,0,0,0,0-.01,0,0-.01,0-.02,0Z"/><path class="cls-2" d="m64.06,242.86s0,0,0,.01c-1.37.07-.14,1.22,0,0,0,0,0,0,.01,0,.06-.04.13-.04.13-.13-.05.04-.08.1-.14.12h0s0,0,0,0Z"/><path class="cls-2" d="m114.21,202.89c-.54-.17-.19.44.17.47-1.28,1.85,1.15,1.2.08-.08h0s0,0,0,0c0,0,0,0,0,0-.08-.13-.15-.3-.25-.4Z"/><path class="cls-2" d="m63.17,248.54s.04-.05.06-.07c-.44-.04-.78-.11-1.04.24-2.07.03-.45,2.01.05.06h0c.28-.08.62.1.93-.23Z"/><path class="cls-2" d="m83.14,184.36c.06.02.16-.05.24-.08-.06-.1-.13-.19-.19-.29-.06.05-.13.1-.19.16.05.08.08.19.14.21Z"/><path class="cls-2" d="m65.02,243.66c.07,0,.13-.1.2-.15-.18-.54-.71.11-.2.15Z"/><path class="cls-2" d="m58.37,201.06c-.14.17-.14.31-.02.49.04-.08.09-.16.14-.24-.04-.09-.08-.17-.12-.25Z"/><path class="cls-2" d="m87.32,178.41c-.49-.14-.06.67.15.2-.05-.07-.09-.18-.15-.2Z"/><path class="cls-2" d="m89.81,179.76c-.03.13-.06.26-.09.38.13-.1.38-.17.09-.38Z"/><path class="cls-2" d="m89.7,180.16s.01.01.01.01c0,0,0-.02,0-.03,0,0-.01.01-.02.02Z"/><path class="cls-2" d="m115.25,186.77c-.06.06-.13.12-.19.18.09-.02.18-.04.26-.06-.02-.04-.05-.08-.07-.12Z"/><path class="cls-2" d="m115.03,186.96s-.05.09-.07.13c.03-.04.06-.1.09-.14,0,0-.01,0-.02,0Z"/><path class="cls-2" d="m115.05,186.95s0,0,0,0c0,0,0,0,0,0Z"/><path class="cls-2" d="m109.49,232.66s0,0,0,0c-.05-.04-.1-.08-.15-.12.11.16.27.27.42.38.04-.05.07-.11.11-.16h0,0c-.13-.03-.25-.07-.38-.1Z"/><path class="cls-2" d="m56.95,205.43l.11-.04c0-.11-.06-.12-.15-.13.01.06.02.11.04.17Z"/><path class="cls-2" d="m64.27,194.69c-.06-.09-.12-.18-.18-.27,0,.12-.1.31.18.27Z"/><path class="cls-2" d="m64.1,194.42s0-.04-.02-.06c0,0,0,0,0,0h0s0-.01,0-.02c0,0,0,.01,0,.02.01.02.02.03.03.05Z"/><path class="cls-2" d="m67.39,199.09c.03.05.06.11.09.16.04-.02.07-.05.11-.07-.03-.11-.09-.12-.19-.09Z"/><path class="cls-2" d="m64.88,242.3s-.02.06-.02.09c.05-.04.1-.09.14-.13h0s-.09.02-.12.04Z"/><path class="cls-2" d="m114.66,264.62s.05-.08.08-.12c0,0,0,0,0,0h0s0,0,0,0c0,0,0,0,0,0-.02.04-.04.09-.07.13Z"/><path class="cls-2" d="m112.84,235.11c-.17-.19-.36-.37-.57-.53-.04.06-.07.11-.11.17.13.03.26.07.39.1,0,0,0,0,0,0,.2.2.41.38.65.53.03-.04.05-.08.08-.12-.13-.04-.27-.08-.4-.11h0s0,0,0,0c-.01-.01-.02-.02-.03-.03Z"/><path class="cls-2" d="m71,201.61s-.09-.09-.13-.13c.02.07.04.14.13.13Z"/><path class="cls-2" d="m94.53,251.76s.08.05.12.07c0,0,0,0,0,0h0s.03.09.05.13c-.01-.05-.02-.09-.04-.14-.04-.02-.08-.04-.13-.06Z"/><path class="cls-2" d="m152.69,213.69c-1.1-1.1-4.08-.38-5.05-1.88.52-1.1,2.42-1.16,2.06-2.87-.2-.17-.43-.31-.66-.43.23.11.45.26.66.43,1.67-3.37-.05-7.04-.24-10.55-.7-.55-1.29-1.16-1.09-2.16-.56-2.05-2.76-3.55-2.29-5.88-.41-1.23-1.02.74-2.88-1.86.6-3.19-3.88-3.21-4.45-.35-.15.49-.5.63-.86.78-1.19.76-8.76,3.94-5.92,5.37,3.9,2.56-5.21,2.2-7.01,8.51.52,1.31-.99,1.2-1.7,1.64-.85.65-.32-1.33-1.46-.71-.85-.05.37,2.96,1.14,2.97.41.13.97.44.45,1-1.49,1.17-3.29-3.23-4.76-.64-.54,1.23.66.75,1.12.98.73.15.4,1.35-.24.88-1.35-1.32-2.6-.33-3.87.11.9.91,2.04.16,3.07.4,1.93.44,4.18.89,5.8.72.4.57-1.42,1.3-.15,1.46,1.6.74,3.64.26,4.99,1.41-.55.56-1.93-.32-1.97.65.06.49.59.79,1.31.54,1.12-.69,3.53.06,3.94-1.35-.84-1.42-3.58-.49-4-2.73,2.21.48,4.14,2.05,6.51,2.29.26.04.78.54-.02.79h0c-.1-.08-.2-.15-.3-.23-.03.05-.07.11-.1.16.13.03.25.07.38.1,0,0,0,0,.01-.02-1.34,1.19-5.02,1.99-7.09,1.86-.34-.06-.83-.17-1.09.35.37.53,1.19.03,1.59.59-.77.8-2.34-.39-2.55.81.35,1.14,2.46-.48,2.41,1.28,0,0-.09.08-.09.08-.78-.28-3.18.68-3.13-.29-.03-1-1.05-.46-1.27-1.04-2.36.42-4.45-.58-6.95-.22.39.88,1.13.34,1.63,1h-4.03c.34.86,1.13.61,1.74,1.05,2.03,1.99-3.31-.21-.73,3.25-1.55.09-2.14-1.85-5.16-1.42-.84-.04-1.86-.49-1.74-1.57.11-1.01,1.25-.19,1.8-.7-1.95.24-3.13-1.6-3.6-.69-.55.84,1.13.84,1.2,1.76-1.36,1.13-4.24.6-2.59-1.7-.93.5-1.5.34-2.02-.04l-.04.14s0,0,0,0c-2.9,1.79-.95,3.91,1.13,5.39,5,2.45,3.82-1.27,7.7.21,2.51,1.21,4.12,3.79,6.95,4.46.14.03,1.62.23.39,1.09.22.66,2.18,1.39,2.9,1.95.22.52.67.65,1.18.67l.09-.1s0,0,0,0c0,0-.09.1-.09.1.37,1.07,1.25,1.2,2.2,1.2.32.29-.07.81.3,1.07,1.4-1.33,3.38-.09,4.24-1.73.56-1.43-2.2-2.04-1.57-3.49,1.5.27,2.94,3.02,3.07,4.48.01,1.37.6,1.21,1.45,1.23-1.37,2.27,1.67,1.34,2.52,2.45.37.46.39.17.69-.09.47-.4,1.34-.51,1.68-.11.62.83-.9.79-.78,1.61,1.91-.12,1.67,2.21,3.25,1.98h0s.1.09.15.13c-.04-.05-.08-.1-.12-.15-.01-2.72,1.75.5,1.54,1.56,1.74.74,4.74-.11,5.31-2.09,1.64-.6,1.12-2.3,1.84-3.47-.02,0-.03-.01-.05-.02.02,0,.03.01.05.02,1.62-.75.6-2.13.95-3.33,1.05-2.54,1.64-5.84.82-8.74.03-2.07,1.48-4.69-.04-6.46.13-.47.11-.9-.32-1.23.46-1.99,1.98-1.66,1.91-2.63Zm-18.79-16.45s.07,0,.1.02c-.03-.02-.06-.02-.1-.02Zm-10.25,33.65s.07-.05.12-.06c-.06,0-.1.03-.12.06Zm2.2,1.47s0,0,0,0l.66.08c-.22-.03-.44-.05-.66-.08Zm17.29-33.37c.07-.2.21-.36.34-.53-.13.17-.27.33-.34.53,0,0,0,0,0,0Zm0,.03h0c.6.06.98.48,1.56.87-.58-.39-.96-.81-1.56-.87Zm6.3,28.59s.08.06.14.07c-.06-.01-.1-.03-.14-.07Z"/><path class="cls-2" d="m26.95,224.87c.84-.03.75-1.22,0-1.29-.82-.28-.65,1.2,0,1.29Z"/><path class="cls-2" d="m89.4,214.44s-.02-.01-.03-.02c0,.01.01.02.02.04v-.02Z"/><path class="cls-2" d="m85.58,217.19c1.5.09-.21-2.45,1.72-2.14.8.09,1.15-1.22,2.07-.63-.39-.8-.69-1.91-1.69-.39-.15.22-.52.43-.78.43-1.38-.19-2.33,2.2-1.32,2.73Z"/><path class="cls-2" d="m93.34,216.23c1.36-.52.29-2.39-.46-3.09-.86.95-.47,2.68.46,3.09Z"/><path class="cls-2" d="m90.47,219.27c1.01.03,2.43-4.38.96-3.29-.08,1.05-1.79,2.34-.96,3.29Z"/><path class="cls-2" d="m87.06,220.43c.33-.2.67-.52,1.22-.11,1.48-.04,1.31-1.57-.17-1.19-1.84-.15-3.07,1.69-1.05,1.31Z"/><path class="cls-2" d="m99.26,222.22c-.82-1.54-1.64-.74-1.98.48.05,1.36,1.55.09,1.98-.48Z"/><path class="cls-2" d="m99.14,209.08c.33-.5.66-1,.99-1.5-.86.17-1.64.43-.99,1.5Z"/><path class="cls-2" d="m85.27,210.72c-.08-.1-.2-.17-.31-.25-.04.08-.08.17-.14.3.11.06.23.12.34.18.04-.08.14-.21.11-.24Z"/><path class="cls-2" d="m89.54,214.57s-.09-.06-.13-.09c.02.07.05.1.13.09Z"/><path class="cls-2" d="m89.4,214.44s-.01.02-.01.02c0,0,.02.01.03.02,0-.01,0-.02-.02-.04Z"/><path d="m223.78,329.36v-21.8h51.07v21.8h-51.07Zm27.54-66.56V53.94h23.53v208.87h-23.53Z"/><path d="m536.5,217.47l-65.99,80.33-17.79-14.35,72.87-87.22h-77.46v-21.8h176.73v21.8h-76.89l72.3,87.22-17.79,14.35-65.99-80.33Zm176.16-9.75V0h23.53v92.96h72.3v21.8h-72.3v92.96h-23.53Z"/><path d="m925.54,276.57v-68.86h-47.63v-120.5h119.35v120.5h-47.63v68.86h76.32v21.8h-176.73v-21.8h76.32Zm-24.1-90.66h72.3v-76.89h-72.3v76.89Z"/><polygon points="100.42 366.09 100.42 296.09 76.32 296.09 76.32 366.09 0 366.09 0 387.89 176.73 387.89 176.73 366.09 100.42 366.09"/></svg>